<?xml version="1.0" encoding="utf-8"?>
<!-- Generator: Adobe Illustrator 23.0.1, SVG Export Plug-In . SVG Version: 6.00 Build 0)  -->
<svg version="1.1" id="Camada_1" xmlns="http://www.w3.org/2000/svg" xmlns:xlink="http://www.w3.org/1999/xlink" x="0px" y="0px"
	 viewBox="0 0 95.5 96.3" style="enable-background:new 0 0 95.5 96.3;" xml:space="preserve">
<style type="text/css">
	.st0{fill:#FFFFFF;}
	.st1{fill:#222221;}
	.st2{fill:#F6DF66;}
	.st3{fill:#5799A1;}
	.st4{fill:#E5B141;}
	.st5{fill:#845F34;}
	.st6{fill:#FCF6D5;}
</style>
<title>Ativo 13</title>
<g>
	<g id="OBJECTS">
		<path class="st0" d="M92.5,50.8c2.2-3.3,2.4-7.4,0.7-10.9c-1.8-3.2-4.9-5.6-8.5-6.5C81.1,14.6,65.6-0.4,45.6,0
			C26.4,0.4,10,16.1,10,35.2c-4,1-7.8,2.9-9,7.2c-0.8,2.4-0.3,5,1.2,7c-1.6,2.6-2.6,5.4-2,8c0.9,4.1,4.9,5.5,8.6,6.3
			C8.5,66.2,9,68.7,10.2,71c0.9,1.6,2,3,3.4,4.1c-1.3,4.7-0.1,9.7,3,13.5c6.3,7.2,17.5,7.8,26.3,7.8c10.8,0,22.5-1.6,32.6-5.7
			c6.7-2.8,12.8-9.1,11.5-16.2c1.3-1.2,2.4-2.7,3-4.4c0.8-2.3,0.9-4.7,0.4-7c1.6-0.4,2.9-1.4,3.9-2.7C96.8,57,94.7,53.6,92.5,50.8z
			 M40.8,23.2c0,0.5,0,1,0,1.4c-0.3,0.4-0.6,0.8-0.9,1.2c0.2-1,0.5-2,0.8-3C40.7,23,40.8,23.1,40.8,23.2z M35.4,78.5
			c0.1,0.4,0.3,0.8,0.6,1.2c-0.7-0.1-1.3-0.3-2-0.5C34.5,79,35,78.7,35.4,78.5z M44,78.7c0.1,0.5,0.4,0.9,0.6,1.3h-1.1
			C43.8,79.6,43.9,79.1,44,78.7L44,78.7z M41.2,9.7c-0.9,0.1-1.9,0.3-2.7,0.7l-0.4-0.2c1-0.3,2.1-0.6,3.2-0.8
			C41.3,9.4,41.2,9.5,41.2,9.7L41.2,9.7z"/>
		<path class="st1" d="M88.7,53.7c0.3,1.7,0.3,3.4,0.3,5.2c0,0.3-0.5,0.4-0.6,0.1c0,0,0-0.1,0-0.1c-2.5,1.1-5,2.1-7.6,3
			c1.6,2.4,1.8,5.6,0.4,8.2c0.3,0.1,0.5,0.3,0.5,0.5c4.4,16-22.1,17.9-31.9,18.6c-10.2,0.7-36.8-0.6-32-17.5
			c-2.4-2.4-3.4-5.7-1.9-10.1c0,0,0,0,0-0.1l-7.8-1.7C8.1,59.6,8,59.5,8,59.4c-0.4-1.2-0.8-2.5-1.2-3.7c-0.1-0.2,0-0.3,0.2-0.4
			c0,0,0,0,0,0c0.9-1.6,2.1-3.1,3.4-4.5c-0.6-0.1-1.2-0.4-1.8-0.8c-1.4-1-1.9-2.8-1.3-4.3c1-2.2,5.2-4.7,7.8-3.7
			C8.4,23.1,29.3,6.3,47.1,5.7c18.4-0.6,35,14.3,33,32.6c1.9,0,4.2,0.2,5.1,2c0.4,0.8,0.5,1.8,0.2,2.6c3.3,0.5,3.1,5.3,1,7.5
			c-0.4,0.4-0.9,0.8-1.4,1.1l3.2,1.6c0.2,0.1,0.3,0.2,0.3,0.4C88.7,53.5,88.7,53.6,88.7,53.7z M88.1,57.7c0,0,0.1,0,0.1,0
			c-0.2-1.1-0.4-2.3-0.5-3.4c-6.8,2.2-13.6,4.6-20.3,7.3c-3.3,1.3-7.5,3.9-10.9,4.5l0,0c-0.1,1.3,0.1,2.6,0.7,3.8c0,0,0,0.1,0,0.1
			C66.7,63.8,77.9,62.3,88.1,57.7L88.1,57.7z M86.4,53.4l-2.6-1.2c-2.9,1.5-6.8,2-9.2-0.2c-0.2,3.3-2.4,5.2-5.8,5.2
			c-1.9,0.1-3.8-0.4-5.5-1.5c-0.8,3.9-5.4,6.8-9.3,5.5c-3.5-1.1-5.1-6.6-0.7-7.7c0.1,0,0.1,0,0.2,0c-0.9-0.8-1.4-1.9-1.5-3.1
			c-1.2,0.1-2.5,0.2-3.7,0.2c0,0,0,0.1,0,0.1C48,52.4,47,54,45.5,55c1.4,3.3-2.6,5.6-5.5,5c-1.6-0.3-2.8-1.8-2.8-3.4
			c0-0.1,0-0.2,0.1-0.2c-1.9-0.4-3.7-1.2-4.5-2.5c-1.7,1.8-4.4,2.1-6.5,0.7c-1.2,2.8-4.1,3.6-6.9,3.1l5.3,1.1L39.6,62l7.3,1.5
			c4.3,0.9,7.4,1.9,11.6,0.4c2.9-1,5.7-2.4,8.6-3.5C73.5,57.9,79.9,55.6,86.4,53.4L86.4,53.4z M86.2,48.7c1.1-1.6,1.1-4.2-1.6-4.7
			c-0.1,0.1-0.3,0.2-0.4,0.2c-0.4,0.2-0.7-0.5-0.4-0.8c0-0.3,0.2-0.6,0.5-0.6c0,0,0,0,0,0h0.1c0.3-0.9,0.1-1.9-0.6-2.5
			c-1-0.9-2.5-1-3.9-0.9c-0.2,1.4-0.5,2.8-1,4.1c-0.1,0.4-0.6,0.7-1,0.6c0,0-0.1,0-0.1,0c0.1,0.4-0.2,0.8-0.6,0.9
			C72,47,66.5,48.4,60.9,49.3c-2.7,0.5-5.4,0.8-8.2,1c0.3,2,1.9,3.5,3.9,3.8c2,0.1,3.3-1.2,4.3-2.8c0.1-0.1,0.2-0.2,0.3-0.2
			c0.3-0.1,0.5,0.1,0.6,0.4c0,0.1,0,0.2,0,0.2c0,0.2-0.1,0.3-0.2,0.4c0.2,0.6,0.6,1.2,1,1.7c0.3-0.2,0.6-0.1,0.8,0.2
			c0,0.1,0.1,0.2,0.1,0.3c0,0.1,0,0.2,0,0.3c1.5,1,3.2,1.5,5,1.5c1.6,0.2,3.2-0.5,4.3-1.7c0.6-0.8,0.7-2.3,0.9-3.3
			c0.1-0.3,0.4-0.4,0.6-0.4c0.1,0,0.1,0,0.2,0.1c0.1,0,0.2,0,0.2,0.1c2.3,2.1,5.1,1.6,7.8,0.5l0.4-0.2c0.1-0.3,0.4-0.5,0.8-0.4
			C84.6,50.3,85.5,49.6,86.2,48.7L86.2,48.7z M49.9,87.6c8.8-0.7,33.3-2.3,30.5-16.1c-1,1.4-2.2,2.6-3.7,3.4c-7,4-17.5,3.8-25.3,3.7
			c-6.6,0-25,0.1-32.7-6.3C16.8,87.9,39.5,88.4,49.9,87.6z M69.1,75.8c6-1.1,15.5-6.1,10.3-13.6c-1.8,0.6-3.6,1.1-5.5,1.7
			C68.1,65.8,62.4,68,57,70.8c-0.2,0.1-0.4,0-0.4-0.2c-0.1-0.1,0-0.3,0.1-0.4l0.1-0.1c0,0-0.1,0-0.1-0.1c-0.1-0.1-0.2-0.2-0.2-0.3
			c-0.1,0.2-0.3,0.3-0.6,0.3c-13-2.8-26-5.6-39-8.4c0,0,0,0.1,0,0.1C13.3,77.3,40,77,49.5,77.2C56,77.4,62.6,76.9,69.1,75.8z
			 M77.4,43.2c5.7-19.2-10.8-36-29.6-35.8C28.4,7.5,10.3,24.6,17.5,44.6c20,5.2,39.8,5.8,59.5-1.2c0.2-0.1,0.3-0.1,0.5,0
			C77.4,43.3,77.4,43.2,77.4,43.2z M62.4,54.9c-0.5-0.5-0.9-1.1-1.2-1.8c-1.6,2.5-5.3,2.4-7.5,0.6c0.1,0.1,0,0.3-0.1,0.3
			c0,0,0,0,0,0c-1.5,0.6-2.3,2.4-1.7,3.9c0.2,0.4,0.4,0.8,0.8,1.1c1.3,1.3,3.2,1.7,4.9,1.1C60.1,59.5,62,57.5,62.4,54.9z M56,69
			c-0.4-0.9-0.6-1.9-0.5-2.9c-1.4,0-2.8-0.1-4.1-0.5c-14.5-3.1-29-6.1-43.5-9.4c2.2,4.1,7.9,4,12.1,5l11.4,2.5
			C39.6,65.4,47.8,67.2,56,69z M47,50.6c-4.5,0.1-9-0.2-13.5-0.8c-5.5-0.8-10.8-2.1-16-4.1c-0.2,0.2-0.4,0.1-0.6,0c0,0,0,0-0.1-0.1
			c0-0.1-0.1-0.1-0.1-0.2l-0.2-0.1c-0.2-0.1-0.4-0.4-0.3-0.6c0,0,0-0.1,0.1-0.1c-0.3-0.5-0.5-1.1-0.7-1.6c-2.2-0.8-5.3,0.7-6.6,2.5
			c-0.9,1.1-0.7,2.6,0.3,3.5c0.3,0.2,0.6,0.4,1,0.5c0.4,0.1,0.8,0.2,1.2,0.2c0.1,0,0.1,0,0.2,0c0.8,0,1.6-0.2,2.3-0.4l0.1-0.1
			c0.2-0.2,0.5-0.2,0.6-0.1c0,0,0,0,0.1,0.1c0.3,0.1,0.4,0.5,0.3,0.8c-0.1,0.1-0.2,0.2-0.3,0.3c-0.1,0-0.2,0.1-0.3,0.1
			c-1.5,6,8.2,8.7,10.8,3.3c-0.2-0.3-0.4-0.5-0.5-0.8c-0.2-0.4,0.3-0.8,0.6-0.5c0.1,0.1,0.2,0.2,0.3,0.3c0.2-0.6,1.1-0.3,1,0.3
			c0,0.2-0.1,0.3-0.1,0.5c1.8,1.3,4.3,1,5.7-0.8c0.1-0.1,0.1-0.2,0.2-0.3c0.1-0.2,0.2-0.3,0.4-0.3c0.1,0,0.2,0,0.2,0
			c0.3,0,0.5,0.3,0.4,0.6c0,0.1,0,0.1-0.1,0.2v0c1,2.4,6,2.8,7.9,2.5C44.1,55,46.3,53.2,47,50.6z M37.7,56.5c0.8,4.5,8,2.9,7-0.9
			c-1.1,0.6-2.4,1-3.6,1.1C39.9,56.7,38.8,56.6,37.7,56.5C37.7,56.4,37.7,56.4,37.7,56.5L37.7,56.5z M13.2,56.4l5.6,1.2
			c-3.5-0.8-6.6-3.6-5.5-6.8c-0.7,0.2-1.5,0.2-2.2,0.2c-1.3,1.3-2.9,3-2.2,4.2C9.5,56.2,12.1,56.1,13.2,56.4L13.2,56.4z"/>
		<path class="st2" d="M88.2,57.7c0,0-0.1,0-0.1,0c-10.2,4.6-21.4,6.2-30.9,12.2c0,0,0-0.1,0-0.1c-0.5-1.2-0.8-2.5-0.7-3.8l0,0
			c3.4-0.6,7.6-3.2,10.9-4.5c6.7-2.6,13.5-5,20.3-7.3C87.8,55.4,87.9,56.5,88.2,57.7z"/>
		<path class="st2" d="M83.8,52.2l2.6,1.2c-6.5,2.2-13,4.4-19.3,6.9c-2.9,1.1-5.7,2.5-8.6,3.5c-4.3,1.5-7.4,0.5-11.6-0.4l-7.3-1.5
			L40,60c2.9,0.7,6.9-1.6,5.5-5c1.4-1,2.4-2.6,2.7-4.3c0,0,0-0.1,0-0.1c1.2,0,2.5-0.1,3.7-0.2c0.1,1.2,0.6,2.4,1.5,3.2
			c-0.1,0-0.1,0-0.2,0c-4.3,1.2-2.7,6.6,0.7,7.7c3.9,1.3,8.5-1.6,9.3-5.5c1.6,1,3.6,1.5,5.5,1.5c3.4,0,5.6-1.9,5.8-5.2
			C77.1,54.2,80.9,53.7,83.8,52.2z"/>
		<path class="st3" d="M84.6,44.1c2.7,0.4,2.7,3,1.6,4.7c-0.7,0.9-1.5,1.6-2.5,2.1c-0.3-0.1-0.6,0.1-0.8,0.4l-0.4,0.2
			c-2.6,1.1-5.5,1.6-7.8-0.5c-0.1-0.1-0.2-0.1-0.2-0.1c-0.2-0.2-0.6-0.1-0.7,0.1c0,0-0.1,0.1-0.1,0.2c-0.3,1-0.3,2.5-0.9,3.3
			c-1.1,1.2-2.7,1.9-4.3,1.7c-1.8,0-3.5-0.5-4.9-1.5c0-0.1,0-0.2,0-0.3c0-0.3-0.3-0.6-0.6-0.5c-0.1,0-0.2,0-0.3,0.1
			c-0.4-0.5-0.8-1.1-1-1.7c0-0.1,0.1-0.3,0.2-0.4c0.1-0.3-0.1-0.5-0.4-0.6c-0.1,0-0.2,0-0.2,0l-0.3-1.7c5.6-1,11.1-2.4,16.4-4.3
			c0.4-0.1,0.6-0.5,0.6-0.9c0.4,0.2,0.9,0,1.1-0.4c0,0,0-0.1,0-0.1c0.4-1.3,0.7-2.7,1-4c1.3,0,2.9,0,3.9,0.9
			c0.7,0.6,0.9,1.6,0.6,2.5h-0.1c-0.3,0-0.6,0.3-0.5,0.6c0,0,0,0,0,0c-0.4,0.3-0.1,0.9,0.4,0.8C84.3,44.2,84.5,44.2,84.6,44.1z"/>
		<path class="st4" d="M80.4,71.4c2.8,13.8-21.6,15.4-30.5,16.1c-10.4,0.8-33.1,0.4-31.2-15.3c7.6,6.4,26.1,6.3,32.7,6.3
			c7.8,0.1,18.3,0.3,25.3-3.7C78.2,74,79.4,72.9,80.4,71.4z"/>
		<path class="st5" d="M79.3,62.3C84.5,69.7,75,74.7,69,75.8c-6.5,1.1-13,1.6-19.6,1.3C40,77,13.3,77.3,16.9,61.7c0,0,0-0.1,0-0.1
			c13,2.8,26,5.6,39,8.4c0.2,0,0.5-0.1,0.6-0.3c0.1,0.1,0.1,0.2,0.2,0.3c0,0,0.1,0.1,0.1,0.1l-0.1,0.1c-0.1,0.1-0.2,0.3-0.1,0.5
			c0.1,0.1,0.3,0.2,0.4,0.1c5.4-2.7,11.1-5,16.9-6.8C75.7,63.4,77.5,62.8,79.3,62.3z"/>
		<path class="st4" d="M47.8,7.3c18.8-0.2,35.3,16.6,29.6,35.8c0,0.1,0,0.1,0,0.2c-0.2-0.1-0.3-0.1-0.5,0c-19.7,7-39.5,6.5-59.5,1.2
			C10.3,24.6,28.4,7.5,47.8,7.3z M71.5,39.7c1.1,0.7,2.6,0.4,3.3-0.7s0.4-2.6-0.7-3.3c-0.9-0.6-2.2-0.5-3,0.3
			c-0.2,0.3-0.4,0.6-0.4,0.9c-0.1,0.1-0.1,0.2-0.1,0.3C70.3,38.1,70.7,39.1,71.5,39.7z M68.4,19.2c0.7-1-0.4-2.1-1.2-2.6
			c-1.2-0.8-2.6-1.1-4-0.7c-0.2,0-0.3,0.2-0.3,0.4c0,0,0,0,0,0l-0.2-0.2c-0.2-0.3-0.6,0-0.4,0.3c0.7,1.3,1.8,2.4,3.1,3.1
			C66.3,19.8,67.8,20,68.4,19.2z M61.5,23.4c0.9-0.4,1.5-1.4,1.4-2.5c-0.1-1.4-1.3-2.5-2.4-3.2c-0.1-0.1-0.2-0.1-0.3,0
			c-0.2-0.1-0.4,0-0.4,0.1c-0.2,1.5-1.2,3-0.5,4.4C59.6,23.2,60.6,23.7,61.5,23.4C61.5,23.4,61.5,23.4,61.5,23.4z M52.2,43.3
			c2.8,0,5.8-2.8,4.3-5.7c-0.3-0.6-1.2-0.2-1.1,0.5c0.5,1.7-0.4,3.4-2.1,3.9c0,0-0.1,0-0.1,0c-0.8,0.2-1.7,0.2-2.6-0.1
			c-0.6-0.2-2.9-1.1-2.1-2.3c0.1-0.1,0-0.3-0.1-0.4c-0.1,0-0.2,0-0.3,0L48,39.4c-0.1-0.2-0.4-0.4-0.6-0.3c-0.2,0.1-0.3,0.2-0.3,0.4
			c-0.1,1.6-1.4,2.9-3.1,2.9c-0.8,0.1-1.6-0.2-2.3-0.7c-0.8-0.8-1-2.6,0.6-2.8c0.2,0,0.4-0.2,0.4-0.4s-0.2-0.4-0.4-0.4
			c-1.2,0-2.2,0.9-2.2,2.1c0,1.3,0.8,2.5,2.1,2.9c1.7,0.7,4.9-0.1,5.8-1.9l0.1,0.1C49.1,42.6,50.6,43.3,52.2,43.3z M43.5,15.3
			c0.9-0.5,1.2-1.6,0.7-2.4c0-0.1-0.1-0.1-0.1-0.2c-0.7-1.1-1.9-2.4-3.3-2.3c-0.2,0-0.3,0.2-0.3,0.4c0,0.1,0,0.1,0,0.2
			c0,0,0,0,0,0.1c-0.6,1.2-0.5,2.6,0.2,3.8C41.3,15.6,42.5,15.8,43.5,15.3L43.5,15.3z M38,13.1c0.2,0,0.3-0.1,0.3-0.3
			s-0.1-0.3-0.3-0.3h-0.1c-0.1-0.1-0.3-0.1-0.5,0c-1.4,0-2.7,0.5-3.8,1.3c-1,0.7-1.3,2.1-0.6,3.1c0,0,0,0,0,0c0.9,1.1,2.2,0.5,3-0.3
			C37.1,15.7,37.8,14.4,38,13.1z M28.4,25.4c0.3-0.5-0.4-0.9-0.7-0.4c0,0.1-0.1,0.2-0.1,0.3c0-0.1,0-0.2-0.1-0.3c0,0-0.1,0-0.1,0
			c-1.3,0-2.6,0.5-3.6,1.5c-0.7,0.8-0.8,2-0.2,2.9c0.6,0.8,1.8,1,2.6,0.3c0,0,0.1-0.1,0.1-0.1C27.6,28.5,27.5,26.7,28.4,25.4z
			 M22.7,41.4c1.7,0,3.4-1.6,2-3.2L24.4,38c0-0.2-0.2-0.5-0.4-0.6c-0.2-0.1-0.5-0.2-0.8-0.2c-0.4-0.2-0.8-0.2-1.2-0.2
			c-0.2,0-0.4,0.1-0.5,0.1c-0.7,0-1.3,0.4-1.5,1C19.3,39.9,21,41.4,22.7,41.4L22.7,41.4z"/>
		<path class="st1" d="M75.2,37.5c0.1,1.3-0.8,2.5-2.1,2.6c-0.6,0.1-1.2-0.1-1.6-0.4c-0.8-0.5-1.2-1.5-0.9-2.5
			c0-0.1,0.1-0.2,0.1-0.3c0.1-0.3,0.2-0.6,0.4-0.9c0.9-1,2.4-1,3.4-0.1C74.9,36.3,75.2,36.9,75.2,37.5z"/>
		<path class="st1" d="M67.2,16.6c0.8,0.5,1.9,1.6,1.2,2.6s-2.1,0.6-2.9,0.3c-1.3-0.7-2.4-1.8-3.1-3.1c-0.2-0.3,0.2-0.5,0.4-0.3
			l0.2,0.2c-0.1-0.2,0-0.4,0.2-0.4c0,0,0,0,0,0C64.6,15.5,66,15.8,67.2,16.6z M67.1,19c1.5-0.5-0.2-1.7-0.9-2.1
			c-0.9-0.4-1.8-0.5-2.8-0.3c-0.1,0-0.2,0-0.3,0C64.1,17.7,65.7,19.5,67.1,19z"/>
		<path class="st6" d="M66.3,16.9c0.7,0.3,2.4,1.5,0.9,2.1s-3-1.3-3.9-2.4c0.1,0.1,0.2,0.1,0.3,0C64.4,16.4,65.4,16.5,66.3,16.9z"/>
		<path class="st1" d="M62.9,20.9c0.1,1-0.5,2-1.4,2.5c-0.9,0.3-1.9-0.2-2.3-1.1c0,0,0,0,0,0c-0.6-1.5,0.3-3,0.5-4.4
			c0-0.2,0.2-0.2,0.4-0.1c0.1-0.1,0.2-0.1,0.3,0C61.5,18.5,62.8,19.5,62.9,20.9z M61.3,22.7c0.8-0.6,1.1-1.7,0.5-2.5c0,0,0,0,0,0
			c-0.4-0.7-1-1.3-1.6-1.7c-0.1,0.7-0.3,1.4-0.5,2.1C59.6,21.4,60,23.3,61.3,22.7z"/>
		<path class="st6" d="M61.9,20.1c0.6,0.8,0.3,2-0.5,2.5c0,0,0,0,0,0c-1.4,0.6-1.7-1.3-1.6-2.2c0.1-0.7,0.3-1.4,0.5-2.1
			C60.9,18.9,61.4,19.5,61.9,20.1z"/>
		<path class="st2" d="M61.1,53.1c0.3,0.7,0.7,1.3,1.2,1.8c-0.4,2.6-2.3,4.7-4.8,5.3c-1.7,0.6-3.6,0.2-4.9-1.1
			c-1.2-1.1-1.3-3-0.2-4.2c0.3-0.3,0.7-0.6,1.1-0.8c0.1-0.1,0.2-0.2,0.1-0.3c0,0,0,0,0,0C55.8,55.5,59.5,55.5,61.1,53.1z"/>
		<path class="st3" d="M60.9,49.3l0.3,1.7c-0.1,0-0.2,0.1-0.3,0.2c-1,1.6-2.3,2.9-4.3,2.8c-2-0.2-3.6-1.8-3.9-3.8
			C55.5,50.1,58.2,49.8,60.9,49.3z"/>
		<path class="st1" d="M56.5,37.6c1.5,2.8-1.5,5.7-4.3,5.7c-1.6,0-3.1-0.6-4.1-1.8L48,41.4c-0.9,1.8-4,2.6-5.8,1.9
			c-1.3-0.4-2.1-1.6-2.1-2.9c0.1-1.2,1-2.1,2.2-2.1c0.2,0,0.4,0.2,0.4,0.4s-0.2,0.4-0.4,0.4c-1.6,0.2-1.4,2-0.6,2.8
			c0.6,0.5,1.5,0.8,2.3,0.7c1.6,0,3-1.3,3.1-2.9c0-0.3,0.2-0.5,0.5-0.5c0.2,0,0.4,0.1,0.4,0.3l0.2-0.1c0.1-0.1,0.3,0,0.4,0.1
			c0,0.1,0,0.2,0,0.3c-0.8,1.2,1.4,2.1,2.1,2.3c0.8,0.3,1.7,0.3,2.6,0.1c1.7-0.5,2.7-2.2,2.2-3.9c0,0,0-0.1,0-0.1
			C55.3,37.4,56.1,37,56.5,37.6z"/>
		<path class="st2" d="M55.5,66.1c-0.1,1,0.1,2,0.5,2.9c-8.2-1.8-16.4-3.6-24.6-5.3L20,61.2c-4.2-0.9-10-0.9-12.1-5
			c14.5,3.3,29,6.3,43.5,9.4C52.7,66,54.1,66.1,55.5,66.1z"/>
		<path class="st3" d="M33.5,49.8c4.5,0.6,9,0.9,13.5,0.9c-0.7,2.6-2.9,4.4-5.6,4.7c-2,0.3-7,0-7.9-2.5v0c0.1-0.2,0.1-0.6-0.2-0.7
			c-0.1,0-0.1-0.1-0.2-0.1L33.5,49.8z"/>
		<path class="st2" d="M44.7,55.5c1,3.8-6.1,5.4-7,0.9c0,0,0,0,0-0.1c1.1,0.2,2.2,0.3,3.4,0.2C42.3,56.5,43.6,56.2,44.7,55.5z"/>
		<path class="st1" d="M44,12.6c0.6,0.8,0.5,1.9-0.3,2.5c-0.1,0.1-0.1,0.1-0.2,0.1c-1,0.6-2.2,0.4-2.9-0.5c-0.8-1.1-0.8-2.6-0.3-3.8
			c0,0,0,0,0-0.1c-0.1-0.2,0-0.4,0.1-0.5c0,0,0.1,0,0.2,0C42.1,10.3,43.2,11.6,44,12.6z M43.7,13.9c0.1-0.5-0.4-1-0.7-1.4
			c-0.5-0.7-1.2-1.2-2-1.4c0,0,0,0.1,0,0.1c-0.3,1.3-0.2,4,1.9,3.3C43.2,14.4,43.5,14.2,43.7,13.9L43.7,13.9z"/>
		<path class="st6" d="M43,12.5c0.3,0.3,0.8,0.9,0.7,1.4c-0.1,0.3-0.5,0.6-0.8,0.7c-2,0.8-2.2-2-1.9-3.3c0,0,0-0.1,0-0.1
			C41.8,11.3,42.5,11.8,43,12.5z"/>
		<path class="st2" d="M40,60l-0.4,2l-14.8-3.2l-5.3-1.1c2.8,0.5,5.7-0.3,6.9-3.1c2.1,1.4,4.8,1,6.5-0.7c0.7,1.4,2.6,2.2,4.5,2.5
			c-0.1,0-0.1,0.1-0.1,0.2C37.2,58.2,38.3,59.7,40,60z"/>
		<path class="st1" d="M38,12.5c0.2,0,0.3,0.1,0.3,0.3s-0.1,0.3-0.3,0.3c-0.2,1.4-0.9,2.6-1.9,3.5c-0.9,0.8-2.2,1.4-3,0.3
			c-0.7-1-0.4-2.4,0.6-3.1c0,0,0,0,0,0c1.1-0.8,2.4-1.3,3.8-1.3c0.1-0.1,0.3-0.1,0.5,0L38,12.5z M36.3,15c0.4-0.5,0.6-1.1,0.8-1.7
			c-1.6,0.4-4.2,1.3-3.3,2.8C34.4,17.2,35.9,15.5,36.3,15z"/>
		<path class="st6" d="M37.1,13.3c-0.2,0.6-0.4,1.2-0.8,1.7c-0.4,0.6-1.9,2.2-2.5,1.1C32.9,14.6,35.5,13.6,37.1,13.3z"/>
		<path class="st3" d="M33.5,49.8l-0.3,2.3c-0.1,0-0.2,0-0.2,0c-0.2,0-0.3,0.1-0.4,0.3c-1.2,1.9-3.7,2.5-5.6,1.3
			c-0.1-0.1-0.2-0.1-0.3-0.2c0-0.2,0.1-0.3,0.1-0.5c0.1-0.6-0.8-0.9-1-0.3c-0.1-0.1-0.2-0.2-0.3-0.3c-0.3-0.4-0.8,0.1-0.6,0.5
			c0.1,0.3,0.3,0.6,0.5,0.8c-2.6,5.4-12.3,2.7-10.8-3.3c0.1,0,0.2-0.1,0.3-0.1c0.3-0.1,0.4-0.5,0.3-0.8c-0.1-0.1-0.2-0.2-0.3-0.3
			c-0.2-0.2-0.5-0.2-0.6-0.1c0,0,0,0-0.1,0.1L14,49.3c-0.7,0.2-1.5,0.4-2.3,0.4c-0.1,0-0.1,0-0.2,0c-0.4,0-0.8-0.1-1.2-0.2
			c-1.3-0.3-2.2-1.6-1.8-3c0.1-0.4,0.3-0.7,0.5-1c1.4-1.7,4.5-3.2,6.6-2.5c0.2,0.5,0.5,1.1,0.7,1.6c-0.2,0.2-0.1,0.5,0.1,0.7
			c0,0,0.1,0.1,0.1,0.1l0.2,0.1c0,0.1,0.1,0.1,0.1,0.2c0.1,0.2,0.4,0.3,0.6,0.1c0,0,0,0,0.1-0.1C22.7,47.6,28,49,33.5,49.8z"/>
		<path class="st1" d="M27.6,25c0.3-0.5,1,0,0.7,0.4c-0.9,1.3-0.8,3.1-2.1,4.2c-0.8,0.7-2,0.7-2.7-0.1c0,0-0.1-0.1-0.1-0.1
			c-0.6-0.9-0.5-2.1,0.2-2.9c0.9-1,2.2-1.5,3.6-1.5c0.1,0,0.2,0.1,0.2,0.2c0,0,0,0.1,0,0.1c0,0-0.1,0.1-0.1,0.1h-0.1
			c-1,0.2-1.9,0.6-2.8,1.2c-0.6,0.6-0.8,1.5-0.4,2.2c0.9,1.3,2.2-0.6,2.5-1.4c0.2-0.7,0.4-1.4,0.7-2c0,0,0.1-0.1,0.1-0.1
			C27.5,25.1,27.6,25,27.6,25z"/>
		<path class="st1" d="M27.4,25.4c0,0,0-0.1,0.1-0.1C27.5,25.3,27.4,25.3,27.4,25.4z"/>
		<path class="st6" d="M27.3,25.4L27.3,25.4c-0.2,0.6-0.5,1.3-0.7,2c-0.3,0.8-1.5,2.7-2.5,1.4c-0.4-0.7-0.3-1.6,0.4-2.2
			C25.4,26,26.3,25.6,27.3,25.4z"/>
		<path class="st1" d="M24.6,38.2c1.4,1.6-0.3,3.2-2,3.2s-3.4-1.5-2.6-3.3c0.3-0.6,0.9-1,1.5-1c0.2-0.1,0.4-0.1,0.5-0.1
			c0.4,0,0.8,0.1,1.2,0.2c0.3,0,0.5,0.1,0.8,0.2c0.2,0.1,0.4,0.3,0.4,0.6L24.6,38.2z"/>
		<path class="st2" d="M18.9,57.5l-5.6-1.2c-1.2-0.2-3.7-0.2-4.3-1.3c-0.7-1.2,1-2.9,2.2-4.2c0.7,0.1,1.5,0,2.2-0.2
			C12.3,53.9,15.4,56.7,18.9,57.5z"/>
	</g>
</g>
</svg>
