<?xml version="1.0" encoding="utf-8"?>
<!-- Generator: Adobe Illustrator 23.0.1, SVG Export Plug-In . SVG Version: 6.00 Build 0)  -->
<svg version="1.1" id="Camada_1" xmlns="http://www.w3.org/2000/svg" xmlns:xlink="http://www.w3.org/1999/xlink" x="0px" y="0px"
	 viewBox="0 0 91.5 122.4" style="enable-background:new 0 0 91.5 122.4;" xml:space="preserve">
<style type="text/css">
	.st0{fill:#FFFFFF;}
	.st1{fill:#222221;}
	.st2{fill:#5799A1;}
	.st3{fill:#E5B141;}
</style>
<title>Ativo 15</title>
<g>
	<g id="OBJECTS">
		<path class="st0" d="M69.5,10.5c-6.2-2.6-13.1-3.3-19.8-2C49.4,6.8,49,5,48.5,3.2c-1.2-4.8-8.9-3.9-8.8,1.2c0,0.8,0,1.7-0.1,2.5
			c-0.6-0.5-1.3-1-1.9-1.4c-3-2.1-6.5,0.7-6.7,3.8c-0.7,0.1-1.4,0.2-2,0.5c-2.3,0.9-3.7,2.9-3.1,5.5c0.5,2.1,1.9,3.9,3.9,4.9
			c-4.2,4.6-7.1,10.2-8.3,16.3c-3.6-1.7-7.6-2.7-11.6-1.9c-5.5,1-10,5.3-9.8,11.1C0.3,58.4,14.3,62.5,25,63c0.6,1.4,1.2,2.7,1.9,4
			c-1.2-0.2-2.3-0.4-3.5-0.7c-1.4-0.5-3,0.1-3.8,1.4c-0.8,0.6-1.3,1.4-1.6,2.3c-2.6,7.2-3.4,17.8,4.1,21.6c-0.3,8,0.4,16.2,5.7,22.7
			c6,7.4,16.4,8.1,25.3,8.2c7.4,0.1,17.7,0.4,21.3-7.5c1.8-3.8,1.7-8.5,2-12.6c0.3-4.5,0.5-9,0.6-13.5c7.7-2.1,10-12,5.9-19.8
			c-0.8-1.4-2.3-2.2-3.9-2.2c6.7-7.7,12.3-17,12.6-26.7C91.9,27.6,80.4,15.1,69.5,10.5z"/>
		<path class="st1" d="M84.6,39.1c0.6-0.4,1.1,0.5,0.5,0.9c-1,0.8-2.3,1.2-3.6,1.3c-0.1,1.1-0.3,2.2-0.5,3.3c1.4,0.6,2.6,1.7,3.3,3
			c0.1,0.2,0,0.5-0.2,0.6c-0.2,0.1-0.5,0-0.6-0.2c-0.7-1.1-1.6-2-2.7-2.6c-1.1,5.2-2.8,10.3-5.1,15.2c1,0.1,2,0,3-0.3
			c0.6-0.2,0.8,0.7,0.3,1c-1.2,0.5-2.5,0.6-3.8,0.4c-0.4,0.8-0.8,1.6-1.2,2.4c0.7,0.5,1.1,1.3,1.4,2.1c0.1,0.3-0.1,0.6-0.4,0.6
			c-0.3,0.1-0.6-0.1-0.6-0.4c-0.2-0.6-0.5-1.1-0.9-1.5c-0.9,1.8-1.9,3.6-2.9,5.3c1.9-0.3,3.9-0.6,5.8-1c0.4-0.1,0.9,0.2,1,0.6
			c0.5-0.2,1,0.1,1.2,0.5c0,0.1,0.1,0.2,0.1,0.3c0.2,3.6,1.6,9.5,0.4,12.8c-0.8,2.4-2.3,2.7-4.7,3.1l-1.1,0.2c0,0.1,0,0.2,0,0.3
			c-0.3,5.7-0.9,11.4-1.7,17.1c-0.5,3.4-0.5,7.8-2.1,11c-2.8,5.6-14.9,4.5-20,4.2c-6.6-0.5-15.2-1.5-19.4-7.3
			c-4.6-6.2-3.7-16.7-4.2-24c-1.1-0.3-2.1-0.7-3-1.3C19,83.6,20.1,76.4,21,71.8c-0.1-0.3,0-0.5,0.2-0.7c0.1-0.2,0.4-0.3,0.6-0.1
			c0,0,0,0,0,0c3.6,0.4,7.2,0.6,10.8,0.8c-1.1-2.4-2.1-4.9-2.9-7.5c-1.2,0-2.5,0-3.7,0.3c-0.5,0.1-0.8-0.7-0.2-0.8
			c1.2-0.3,2.4-0.4,3.6-0.4c-0.1-0.4-0.3-0.8-0.4-1.2c-1.1-0.2-2.1-0.9-2.6-1.9c-0.1-0.2,0-0.5,0.2-0.6c0.2-0.1,0.4,0,0.6,0.1
			c0.4,0.6,0.9,1.1,1.6,1.4c-0.3-1.2-0.7-2.3-1-3.5c-5.5,0.9-11.1-0.2-15.9-3.1c-0.2,0.6-0.3,1.3-0.4,1.9c-0.1,0.7-1.1,0.7-1.1,0
			c0.1-0.9,0.3-1.7,0.6-2.5c-1.1-0.7-2.1-1.6-3-2.6c-1.3,1-2.6,2.2-4,3.3c-0.2,0.2-0.5,0.1-0.7-0.1c-0.1-0.2-0.1-0.4,0-0.6
			c1.1-1.4,2.4-2.6,3.9-3.5c-1.2-1.6-2-3.4-2.4-5.4c-0.9-3.6,1.4-7.3,5-8.2c0.2,0,0.4-0.1,0.6-0.1c0.4-0.1,0.7-0.1,1.1-0.1
			c-0.1-1.1-0.4-2.3-0.5-3.4c-0.1-0.3,0.1-0.5,0.3-0.6c0.3-0.1,0.5,0.1,0.6,0.3c0.4,1.2,0.7,2.4,0.7,3.7c1.3,0.1,2.7,0.5,3.9,1
			c0.3-0.8,0.7-1.5,1.1-2.2c0.3-0.5,1.2-0.2,1,0.4c-0.3,0.8-0.7,1.5-1,2.3c2.8,1.4,5.5,3.3,8.1,4.5c-0.1-3.1,0.1-6.3,0.6-9.3
			c-0.5-0.3-1.1-0.6-1.7-0.8c-0.3-0.2-0.3-0.5-0.2-0.7c0.1-0.2,0.3-0.3,0.5-0.3c0.6,0.1,1.1,0.3,1.6,0.6c0.2-1,0.4-1.9,0.6-2.8
			c-0.5-0.6-1-1.2-1.4-1.9c-0.3-0.5,0.5-1.1,0.8-0.6s0.7,0.8,1,1.2c1.2-3.9,3.4-7.4,6.4-10.1c-2-0.7-3.7-2.1-4.8-3.9
			c-0.2-0.3-0.1-0.6,0.2-0.8c0,0,0.1,0,0.1-0.1c2.3-0.5,4.7-0.3,6.9,0.6c-0.6-0.7-1-1.5-1.3-2.3c-0.4-1-1-3-0.2-3.9
			c2-2.4,5.4,2,7,4.4c-0.8-2.6-2-7.5,1-7.9c3.3-0.5,3.8,5.4,3.7,7.7c2.1-0.5,4.2-0.7,6.3-0.8c1.8,0,3.7,0.1,5.5,0.3
			c0-0.5-0.1-1-0.2-1.6C58,9.2,58.8,8.8,59,9.3c0.3,0.7,0.4,1.4,0.4,2.1c1,0.2,2,0.4,2.9,0.6c0.5-1,1.4-1.7,2.4-2
			c0.6-0.1,1,0.7,0.4,1c-0.6,0.3-1.2,0.8-1.7,1.3c8.2,2.5,15,8.3,17.3,17.4c0.8,3.4,1.1,7,0.8,10.5C82.7,40.1,83.7,39.7,84.6,39.1z
			 M79.9,40.4c0.2-2.4,0.1-4.8-0.2-7.2c-1.4-10.2-8.3-16.7-17-19.3c-0.1,0.5-0.1,0.9-0.1,1.4c0,0.5-0.7,0.6-0.8,0.1
			c-0.1-0.6-0.1-1.2,0-1.8c-0.9-0.2-1.8-0.4-2.7-0.6c-0.3,0.8-0.7,1.6-1.3,2.2c-0.3,0.3-0.8-0.1-0.6-0.4c0.4-0.6,0.7-1.3,0.9-1.9
			c-2-0.3-4-0.4-6-0.3C40.4,13,32,19.4,28.9,29.7c0.5,0.6,1,1.1,1.6,1.7s-0.2,1-0.7,0.7s-0.9-0.7-1.3-1.1c-0.2,0.8-0.4,1.6-0.5,2.4
			c0.5,0.5,1,1,1.4,1.7c0.2,0.4-0.4,0.9-0.7,0.5c-0.3-0.3-0.5-0.6-0.8-0.9c0,0.3-0.1,0.7-0.1,1.1c-0.6,8.7,0.3,17.4,2.6,25.8
			c0.3,0,0.6-0.1,0.9-0.2c0.4-0.2,0.7,0.4,0.4,0.6c-0.3,0.2-0.7,0.3-1.1,0.3c0.1,0.4,0.2,0.9,0.3,1.3c1.2,0.2,2.3,0.5,3.4,1
			c0.3,0.1,0.1,0.6-0.2,0.5c-1-0.2-1.9-0.4-2.9-0.5c0.8,2.5,1.6,5,2.5,7.4c11.8,0.7,23.7,0.3,35.4-1.4c-0.1-0.2-0.1-0.5,0-0.7
			c1-1.9,2-3.8,3-5.8c-0.4-0.1-0.8-0.2-1.3-0.2c-0.5,0-0.6-0.7-0.1-0.8c0.6-0.1,1.2,0,1.8,0.1c0.3-0.7,0.7-1.4,1-2.1
			c-0.7-0.3-1.4-0.8-1.9-1.3c-0.3-0.3,0.1-0.9,0.5-0.6c0.6,0.4,1.2,0.7,1.9,1c2.4-4.9,4.2-10,5.3-15.4c-0.7-0.2-1.4-0.2-2.1-0.2
			c-0.4,0-0.4-0.6,0-0.6c0.7-0.1,1.5,0,2.2,0.1c0.2-0.9,0.3-1.9,0.4-2.8c-0.8-0.1-1.5-0.3-2.2-0.6c-0.4-0.2-0.1-0.9,0.3-0.7
			C78.6,40.2,79.2,40.3,79.9,40.4z M77.6,80c0.3-2.9-0.3-6.2-0.4-9.1l0,0c-18,3.6-36.9,4.6-55.1,1.3c-0.2,2.4-0.2,4.7-0.1,7.1
			c0.3,2.5,3,6.1,5.4,7c1.6,0.6,4.8,0.8,6.2,0.9c5.7,0.5,11.4,0.6,17.2,0.2c6.6-0.4,13.2-1.2,19.8-2.1C74.4,84.8,77.1,84.5,77.6,80z
			 M72,87L72,87c-8,1.3-16.2,2.1-24.3,2.4c-4.8,0.2-9.5,0-14.3-0.4c-1.8-0.2-3.9-0.3-5.9-0.7c0.7,6.2,0.6,13.3,2.6,19.2
			c2.7,8.1,12.3,9.5,19.7,10c3.6,0.3,7.3,0.2,10.9-0.3c1.5-0.2,3.5-0.1,4.8-0.8c3.3-1.6,3.3-4,3.8-6.8C70.6,102,71.2,94.5,72,87z
			 M45.3,12c0.1-1.3,0-2.5-0.3-3.8c-0.1-0.6-0.3-1.2-0.6-1.7l-0.2-0.4l-2,0.1c-0.4,0.5-0.1,2.6,0,3.2c0.1,1.1,0.4,2.2,0.7,3.3
			C43.7,12.4,44.5,12.2,45.3,12L45.3,12z M38.7,14.6c0.9-0.5,1.7-0.9,2.6-1.3c-1-1.6-3.4-5.4-5-4.6C34.3,9.7,37.2,13.2,38.7,14.6
			L38.7,14.6z M34.7,17.4c0.8-0.7,1.7-1.3,2.6-1.9c-2.1-1-4.4-1.4-6.8-1.2C31.6,15.7,33,16.7,34.7,17.4L34.7,17.4z M12.5,53.1
			c4.5,2.9,9.8,4.3,15.1,3.8c-1-4.1-1.5-8.3-1.8-12.6c-2.7-1-5.1-2.6-7.6-4c-0.4-0.2-0.8-0.4-1.2-0.6c-0.1,0.2-0.2,0.5-0.3,0.7
			c-0.2,0.5-1,0.3-0.9-0.2c0.1-0.3,0.2-0.6,0.3-0.9c-1.1-0.5-2.2-0.8-3.4-1.1c0,0.4,0,0.7-0.1,1.1c0,0.2-0.3,0.4-0.5,0.4
			c-0.2,0-0.3-0.2-0.4-0.4c0-0.4,0-0.8-0.1-1.2c-1.1-0.1-2.2,0.2-3,0.9l-2.5,4.7C6.4,45.4,7,47,7.9,48.4c0.3,0.4,0.6,0.8,0.9,1.2
			c0.7-0.4,1.5-0.9,2.3-1.2c0.5-0.2,0.9,0.4,0.4,0.7c-0.7,0.4-1.4,0.9-2,1.3c0.7,0.8,1.4,1.5,2.2,2.1c0.3-0.6,0.7-1.1,1.1-1.6
			c0.3-0.3,0.9,0.1,0.6,0.5C13.1,51.9,12.8,52.5,12.5,53.1z"/>
		<path class="st2" d="M79.7,33.2c0.3,2.4,0.4,4.8,0.2,7.2c-0.7,0-1.4-0.2-2-0.4c-0.4-0.1-0.7,0.5-0.3,0.7c0.7,0.3,1.4,0.5,2.2,0.6
			c-0.1,0.9-0.2,1.9-0.4,2.8C78.7,44,78,43.9,77.2,44c-0.4,0-0.4,0.7,0,0.6c0.7,0,1.4,0,2.1,0.2c-1.1,5.3-2.9,10.5-5.2,15.4
			c-0.7-0.3-1.3-0.6-1.9-1c-0.4-0.3-0.8,0.3-0.5,0.6c0.6,0.6,1.2,1,1.9,1.3c-0.3,0.7-0.7,1.4-1,2.1c-0.6-0.2-1.2-0.2-1.8-0.1
			c-0.5,0.1-0.4,0.8,0.1,0.8c0.4,0,0.9,0,1.3,0.1c-1,2-2,3.9-3,5.8c-0.1,0.2-0.1,0.5,0,0.7c-11.7,1.6-23.6,2.1-35.4,1.4
			c-0.9-2.4-1.7-4.9-2.5-7.4c1,0.1,1.9,0.3,2.9,0.5c0.3,0.1,0.5-0.4,0.2-0.5c-1.1-0.5-2.2-0.8-3.4-1c-0.1-0.4-0.2-0.9-0.3-1.3
			c0.4-0.1,0.7-0.2,1.1-0.3c0.4-0.2,0-0.8-0.4-0.6c-0.3,0.1-0.6,0.2-0.9,0.2c-2.4-8.4-3.3-17.1-2.6-25.8c0-0.4,0.1-0.7,0.1-1.1
			c0.3,0.3,0.6,0.6,0.8,0.9c0.3,0.4,0.9-0.1,0.7-0.5c-0.4-0.6-0.8-1.2-1.4-1.7c0.1-0.8,0.3-1.6,0.5-2.4c0.4,0.4,0.8,0.8,1.3,1.1
			c0.4,0.4,1.1-0.2,0.7-0.7s-1.1-1.1-1.6-1.7C32,19.4,40.4,13,52.1,12.6c2-0.1,4,0,6,0.3c-0.2,0.7-0.5,1.3-0.9,1.9
			c-0.2,0.4,0.3,0.8,0.6,0.4c0.6-0.6,1.1-1.4,1.3-2.2c0.9,0.2,1.8,0.4,2.7,0.6c-0.1,0.6-0.1,1.2,0,1.8c0.1,0.4,0.9,0.4,0.8-0.1
			c-0.1-0.5,0-0.9,0.1-1.4C71.5,16.5,78.3,23,79.7,33.2z M75.1,30.8c0.5-0.7,0.4-1.6-0.1-2.2c-0.8-0.7-2-0.6-2.7,0.2
			c-0.3,0.3-0.4,0.8-0.5,1.2c0,0.4,0.2,0.7,0.6,0.8c0,0.2,0,0.4,0.1,0.5c0.1,0.3,0.4,0.6,0.7,0.6C74.1,31.9,74.8,31.5,75.1,30.8z
			 M64.2,38.4c2.7-2.5,2.9-6.3,2.4-9.8c-0.1-1-1.7-1.1-1.7,0c0,2.9,0.3,5.1-1.6,7.5c-1.9,2.4-4.8,3.7-7.9,3.6c-6,0-11-4.7-10-10.9
			c0.1-0.8-1-1.2-1.2-0.3c-1.6,6.6,3.5,12.4,10,13C57.8,41.8,61.4,40.7,64.2,38.4z M63.4,52.8c0.6-0.1,0.4-1-0.2-1.1
			c-2,0-3.6,1.6-3.7,3.6c0,0.5,0.8,0.7,0.9,0.1c0.1-0.7,0.5-1.4,1-1.9C62,53.1,62.6,52.8,63.4,52.8z M57.6,55.2c0.9-1.1,1.2-2.6,1-4
			c0-0.2-0.3-0.4-0.5-0.3c-0.2,0-0.3,0.2-0.3,0.4c0.1,1.2-0.2,2.5-0.9,3.5C56.6,55.2,57.3,55.6,57.6,55.2z M39.8,50.8
			c0.3,0.2,0.7-0.3,0.4-0.5c-0.9-0.8-1.4-2.1-1.2-3.3c0.1-0.2-0.1-0.5-0.3-0.6c-0.2-0.1-0.5,0.1-0.6,0.3c0,0,0,0.1,0,0.1
			C37.9,48.4,38.5,50,39.8,50.8z M38.6,52.3c0.4,0.3,0.8-0.3,0.5-0.6c-1.3-1.2-2.8-2-4.4-2.5c-0.6-0.2-0.8,0.6-0.2,0.9
			C35.9,50.7,37.3,51.4,38.6,52.3z M39,32c0.3-1,0-2-0.8-2.7c-0.3-0.3-0.7-0.3-1-0.1c-0.2,0.1-0.3,0.3-0.4,0.4
			c-0.3,0.1-0.6,0.3-0.8,0.6c-0.5,0.3-0.7,0.9-0.7,1.5c0,0.9,0.7,1.7,1.7,1.7C37.8,33.4,38.7,32.9,39,32z"/>
		<path class="st3" d="M77.1,70.9c0.2,2.9,0.7,6.2,0.4,9.1c-0.4,4.5-3.2,4.8-7.1,5.4c-6.6,0.9-13.2,1.8-19.8,2.1
			c-5.7,0.4-11.4,0.3-17.2-0.2c-1.3-0.1-4.6-0.3-6.2-0.9c-2.4-1-5-4.5-5.4-7c-0.2-2.4-0.1-4.8,0.1-7.1
			C40.2,75.5,59.1,74.5,77.1,70.9C77.1,70.9,77.1,70.9,77.1,70.9z"/>
		<path class="st1" d="M75,28.6c0.6,0.6,0.6,1.5,0.2,2.2c-0.3,0.7-1.1,1.1-1.8,1c-0.3,0-0.6-0.2-0.7-0.6c0-0.2-0.1-0.4-0.1-0.5
			c-0.4-0.1-0.6-0.4-0.6-0.8c0.1-1,0.9-1.8,2-1.8C74.3,28.2,74.7,28.3,75,28.6z"/>
		<path class="st3" d="M72,86.9L72,86.9c-0.8,7.5-1.4,15.1-2.6,22.6c-0.4,2.8-0.5,5.2-3.8,6.8c-1.3,0.7-3.4,0.6-4.8,0.8
			c-3.6,0.4-7.3,0.5-10.9,0.3c-7.4-0.5-17-2-19.7-10c-2-5.9-1.9-13-2.6-19.2c2,0.4,4.1,0.5,5.9,0.7c4.7,0.5,9.5,0.6,14.3,0.4
			C55.9,89,64,88.2,72,86.9z"/>
		<path class="st1" d="M66.6,28.6c0.4,3.4,0.3,7.3-2.4,9.8c-2.8,2.3-6.4,3.4-10,3c-6.6-0.5-11.6-6.3-10-13c0.2-0.8,1.4-0.5,1.2,0.3
			c-1,6.2,4,11,10,10.9c3.1,0.1,6-1.2,7.9-3.6c1.9-2.4,1.7-4.6,1.6-7.5C65,27.5,66.5,27.6,66.6,28.6z"/>
		<path class="st1" d="M63.2,51.7c0.6,0,0.8,1,0.2,1.1c-0.7,0-1.4,0.3-2,0.8c-0.5,0.5-0.9,1.2-1,1.9c-0.1,0.5-0.9,0.4-0.9-0.1
			C59.6,53.3,61.2,51.7,63.2,51.7z"/>
		<path class="st1" d="M58.6,51.2c0.2,1.4-0.1,2.9-1,4c-0.3,0.4-1,0-0.7-0.4c0.7-1,1-2.3,0.9-3.5c0-0.2,0.3-0.4,0.5-0.4
			C58.4,50.9,58.6,51,58.6,51.2z"/>
		<path class="st1" d="M40.2,50.3c0.3,0.3-0.1,0.7-0.4,0.5c-1.2-0.9-1.9-2.4-1.7-3.9c0-0.2,0.2-0.4,0.4-0.5c0.2,0,0.4,0.2,0.5,0.4
			c0,0,0,0.1,0,0.1C38.7,48.3,39.2,49.5,40.2,50.3z"/>
		<path class="st1" d="M39.1,51.7c0.3,0.3-0.1,0.9-0.5,0.6c-1.3-0.9-2.7-1.7-4.2-2.3c-0.5-0.2-0.3-1,0.2-0.9
			C36.3,49.7,37.8,50.6,39.1,51.7z"/>
		<path class="st1" d="M38.2,29.4C39,30,39.3,31,39,32c-0.3,0.9-1.2,1.4-2.1,1.4c-0.9,0-1.6-0.8-1.7-1.7c0-0.6,0.3-1.1,0.7-1.5
			c0.2-0.3,0.5-0.5,0.8-0.6c0.1-0.2,0.3-0.3,0.4-0.4C37.5,29,37.9,29.1,38.2,29.4z"/>
		<path class="st2" d="M27.6,56.9c-5.3,0.5-10.6-0.8-15.1-3.8c0.3-0.6,0.6-1.2,1-1.7c0.3-0.4-0.3-0.8-0.6-0.5
			c-0.4,0.5-0.8,1-1.1,1.6c-0.8-0.6-1.6-1.3-2.2-2.1c0.6-0.5,1.3-0.9,2-1.3c0.5-0.3,0.1-0.9-0.4-0.7c-0.8,0.4-1.6,0.8-2.3,1.2
			c-0.3-0.4-0.6-0.8-0.9-1.2c-1-1.4-1.5-3-1.7-4.6l2.5-4.7c0.8-0.7,1.9-1,3-0.9c0,0.4,0.1,0.8,0.1,1.2c0,0.2,0.3,0.4,0.5,0.4
			c0.2,0,0.3-0.2,0.4-0.4c0-0.3,0-0.7,0.1-1.1c1.2,0.2,2.3,0.6,3.4,1.1c-0.1,0.3-0.2,0.6-0.3,0.9c-0.2,0.6,0.7,0.8,0.9,0.2
			c0.1-0.3,0.2-0.5,0.3-0.7c0.4,0.2,0.9,0.4,1.2,0.6c2.6,1.4,4.9,3,7.6,4C26,48.5,26.6,52.7,27.6,56.9z"/>
	</g>
</g>
</svg>
