<?xml version="1.0" encoding="utf-8"?>
<!-- Generator: Adobe Illustrator 23.0.1, SVG Export Plug-In . SVG Version: 6.00 Build 0)  -->
<svg version="1.1" id="Camada_1" xmlns="http://www.w3.org/2000/svg" xmlns:xlink="http://www.w3.org/1999/xlink" x="0px" y="0px"
	 viewBox="0 0 84.3 77.4" style="enable-background:new 0 0 84.3 77.4;" xml:space="preserve">
<style type="text/css">
	.st0{fill:#FFFFFF;}
	.st1{fill:#222221;}
	.st2{fill:#87C1C5;}
</style>
<title>Ativo 9</title>
<g>
	<g id="OBJECTS">
		<path class="st0" d="M80.4,17c-2.4-2.8-4.9-5.5-7.3-8.2c-2.3-2.5-4.6-6.1-7.6-7.7C59.8-2,50.8,2.2,45,3.6L20.6,9.5
			c-6.5,1.6-13.4,2.1-16.3,9S0.3,33.1,0,40.4C0,41,0.1,41.5,0.2,42c-0.6,1.8,0.1,3.8,1.6,4.9c14.5,10.9,29.7,20.9,45.4,29.9
			c2.1,1.2,4.8,0.5,6.1-1.6C62.9,61.8,71.8,48,80.1,33.8c1.5-2.7,3.7-5.5,4.1-8.5C84.7,21.7,82.6,19.5,80.4,17z M9.7,40.4
			c0,0.5-0.1,1-0.1,1.5c0,0.1,0,0.1,0,0.2l-0.7-0.5C9.1,41.2,9.4,40.8,9.7,40.4z M25.8,52.1c0.1,0.5,0.3,0.9,0.5,1.4l-1.6-1
			C25.1,52.4,25.5,52.2,25.8,52.1z"/>
		<path class="st1" d="M76.4,22.4c0.5,0,0.8,0.3,0.9,0.8c0,0.1,0,0.2,0,0.3c-2.6,8.1-7.2,15.3-11.5,22.6c-5.1,8.5-10.2,17-15.3,25.5
			c-0.3,0.4-0.8,0.5-1.2,0.3C34.2,62.1,19,52.7,4.4,42.4c-0.1-0.1-0.2-0.2-0.2-0.3C3.8,41.9,3.8,41.4,4,41c0.1-0.1,0.2-0.2,0.4-0.3
			C5,36,5.9,31.3,6.7,26.5c0.5-2.9,0.6-6.3,3-8.4c2.8-2.4,7.9-2.9,11.3-3.9l14.8-4.3l14.7-4.3C53,4.9,56.4,3,59.1,3.8
			c3.1,0.9,6.1,4.6,8.3,6.7c3.3,3.2,6.4,6.6,9.2,10.1c0.3,0.4,0.2,1.1-0.2,1.4c0,0-0.1,0.1-0.1,0.1C76.3,22.2,76.4,22.3,76.4,22.4z
			 M75.4,22L75.4,22c-4-5-9.3-12-15.1-15.3c-1.6,6.8-3,13.7-4.1,20.6l1.3-0.3c5.6-1.4,12.6-2.2,17.7-4.9L75.4,22z M63.7,46
			c4.3-7.1,8.8-14.1,11.5-22c-4.6,2.2-10.4,2.9-15.2,4.2l-4,1c-0.5,3-0.9,6.1-1.3,9.1c-1.4,10.1-2.3,20.2-4.6,30.2
			c0.1-0.1,0.2-0.2,0.3-0.3c2.7-2.5,4.5-7.5,6.4-10.7L63.7,46z M58.8,6c-3.3-0.8-7.4,1.2-10.6,2.1l-11,3.3l-0.3,0.1l-11.7,3.4
			c-3.5,1-7.7,1.7-11,3.3c-1.1,0.6-2.1,1.4-2.9,2.3C17.4,24.4,23,29,28.1,34.1c2.5-7.4,5.4-14.7,8.1-22c0.1-0.3,0.3-0.5,0.6-0.6
			c0.3-0.1,0.6,0,0.8,0.2l10.3,9.7c1.8,1.7,5.3,3.9,6.4,6.3l0.3-0.1C55.8,20.5,57.2,13.2,58.8,6z M54.3,29.7l-12.3,3.2
			c-4.3,1.1-8.5,2.2-12.8,3.3c6,10.6,12.5,20.9,19.7,30.8c2.2-10.1,3.1-20.4,4.5-30.7C53.6,34.1,53.9,31.9,54.3,29.7z M52.8,27.9
			c-0.7,0.6-12-10.7-15.4-14.1c-2.6,6.8-5.2,13.7-8.1,20.4c3.4-0.9,6.8-1.7,10.2-2.6l13.1-3.4C52.6,28.1,52.7,28,52.8,27.9z
			 M40.1,63.9c2.1,1.3,5.5,4.5,8.1,4.9c-7.6-10.2-14.3-21-20.1-32.4c-7.4,1.9-14.8,3.9-22.2,5.6c7.6,4.6,15.1,9.5,22.5,14.3
			L40.1,63.9z M26.7,34.9c-5.4-4.4-10.7-9-16.2-13.4c-3.3,5-3.6,13.2-4.6,18.8C12.8,38.4,19.8,36.6,26.7,34.9L26.7,34.9z"/>
		<path class="st2" d="M75.3,21.9L75.3,21.9h-0.1c-5.1,2.8-12.1,3.5-17.7,4.9l-1.3,0.4c1.1-6.9,2.5-13.8,4.1-20.6
			C66,9.9,71.3,16.9,75.3,21.9z"/>
		<path class="st2" d="M75.2,24c-2.7,7.9-7.2,14.9-11.5,22l-6.9,11.5c-1.9,3.2-3.7,8.2-6.4,10.7c-0.1,0.1-0.2,0.2-0.3,0.3
			c2.3-9.9,3.2-20,4.5-30.1c0.4-3,0.9-6.1,1.3-9.1l4-1C64.8,26.9,70.6,26.2,75.2,24z"/>
		<path class="st2" d="M48.2,8.1c3.2-0.9,7.3-2.9,10.6-2.1c-1.6,7.2-3.1,14.4-4.2,21.7l-0.3,0.1c-1-2.4-4.5-4.6-6.4-6.3l-10.3-9.7
			c-0.2-0.2-0.5-0.3-0.8-0.2v-0.1l0.3-0.1L48.2,8.1z"/>
		<path class="st2" d="M41.9,32.8l12.4-3.2c-0.3,2.2-0.7,4.4-1,6.7C51.9,46.6,51,56.9,48.8,67c-7.1-9.9-13.7-20.2-19.6-30.8
			C33.4,35.1,37.6,33.9,41.9,32.8z"/>
		<path class="st2" d="M37.4,13.8c3.5,3.4,14.7,14.7,15.4,14.1c-0.1,0.1-0.2,0.2-0.2,0.3l-13.1,3.4c-3.4,0.9-6.8,1.7-10.2,2.6
			C32.2,27.5,34.8,20.6,37.4,13.8z"/>
		<path class="st2" d="M48.2,68.8c-2.6-0.4-6-3.6-8.1-4.9l-11.7-7.5c-7.5-4.8-14.9-9.7-22.5-14.3c7.4-1.8,14.8-3.7,22.2-5.6
			C33.9,47.8,40.6,58.6,48.2,68.8z"/>
		<path class="st2" d="M36.8,11.5L36.8,11.5c-0.3,0.2-0.5,0.4-0.6,0.6c-2.8,7.3-5.6,14.6-8.1,22C23,29,17.3,24.4,11.2,20.5
			c0.8-1,1.8-1.8,2.9-2.3c3.3-1.6,7.5-2.2,11.1-3.3L36.8,11.5z"/>
		<path class="st2" d="M10.5,21.5c5.5,4.4,10.8,8.9,16.2,13.4c-7,1.8-13.9,3.5-20.8,5.5C6.9,34.7,7.2,26.4,10.5,21.5z"/>
	</g>
</g>
</svg>
