<?xml version="1.0" encoding="utf-8"?>
<!-- Generator: Adobe Illustrator 23.0.1, SVG Export Plug-In . SVG Version: 6.00 Build 0)  -->
<svg version="1.1" id="Camada_1" xmlns="http://www.w3.org/2000/svg" xmlns:xlink="http://www.w3.org/1999/xlink" x="0px" y="0px"
	 viewBox="0 0 103.8 135.7" style="enable-background:new 0 0 103.8 135.7;" xml:space="preserve">
<style type="text/css">
	.st0{fill:#FFFFFF;}
	.st1{fill:#222221;}
	.st2{fill:#F6DF66;}
	.st3{fill:#D36EA1;}
</style>
<title>Ativo 12</title>
<g>
	<g id="OBJECTS">
		<path class="st0" d="M102.2,43.1c0-1.4-0.7-2.8-1.9-3.5c-1.8-1-3.6-1.9-5.6-2.7c2.1-2.2,4.3-4.4,6.5-6.5c1.7-1.8,1.7-4.6-0.1-6.3
			c-0.5-0.5-1.2-0.9-1.9-1.1c-2.3-0.6-5-1.5-7.7-2.3l3-3.1c2.5-2.6,1.1-6.3-2-7.5c-5.3-2-11.3-5.4-16.9-6.2
			c-4.2-0.6-7.8,3.1-10.6,6.3c-2.6-0.6-5.3-1.1-8-1.4c-0.8-2.6-1.6-5.7-3.7-7.4S48.6,0,45.9,0.2c-3.9,0.3-7.8,0.6-11.6,1.1
			c-2,0.3-4.3,1.7-4.1,4.1l0.1,1C29.6,6.6,29,7,28.5,7.5c-4.4,5-9.4,9.3-15,12.9c-2.2,1.4-2.9,4.9-1.1,6.8c-2,2.3-3.7,5-5.6,7.3
			S2.4,39.5,1,42.2c-2.5,4.8,0.2,8.2,4.9,9.6c5.3,1.5,9.6,4.5,14.5,6.6c0.2,2,0.4,3.9,0.7,5.9c-2,15-0.8,30.7-0.9,45.8
			c0,6.2-1.3,14.1,2.8,19.3c3.6,4.6,9.6,5.8,15.1,6.1c7.9,0.4,15.8,0.2,23.7-0.4c6.6-0.5,15.4-0.2,21.4-3.3s5.9-9.1,6.2-15
			c0.4-8.5,0.8-17,1.3-25.4c0.7-14.3,0.4-31.5,11.9-41.9C104.6,47.4,104,44.7,102.2,43.1z M66.2,125.3c1.2,0.1,2.4,0,3.5-0.3
			c0.2,0.1,0.3,0.2,0.5,0.2c-1.5,0.2-3,0.3-4.4,0.4C65.9,125.6,66.1,125.5,66.2,125.3L66.2,125.3z M65.2,19.1
			c-0.1,0.2-0.2,0.4-0.2,0.5l-0.3,0.2c-1-0.6-2.1-1-3.2-1.4c-0.1-0.3-0.1-0.7-0.3-1c1.1,0.4,2.2,0.9,3.3,1.4
			C64.7,18.9,65,19,65.2,19.1L65.2,19.1z M30.7,124.3c0.8,0.6,1.8,0.9,2.7,0.9c0.4,0.3,0.8,0.6,1.2,0.9c-0.5-0.1-1-0.3-1.5-0.4
			C32.2,125.4,31.4,124.9,30.7,124.3z"/>
		<path class="st1" d="M96.4,44.7c0.3,0.2,0.5,0.6,0.2,1c0,0,0,0,0,0c-3.5,4.7-7,9.5-10.8,13.9c0.4,0.2,0.6,0.6,0.5,1
			c-3.4,18.2-5.3,36.7-5.8,55.2c-0.1,4.1,1.7,10.7-3.2,12.3c-3,1-7,0.8-10.3,1c-4.5,0.4-8.9,0.6-13.4,0.7s-9,0.1-13.5,0
			c-2.3-0.1-5.8,0.3-7.9-1c-4-2.6-5-10-5.5-14.1c-1.1-8.4-0.8-17.1-1-25.6c-0.2-9-0.6-18-0.5-27h0c-0.3,0-0.6-0.2-0.6-0.5
			c0-0.3,0.2-0.6,0.5-0.6c-0.9-2.3-1.7-4.7-2.5-7.1c-3.3-2.7-7.1-4.7-11.2-5.8c-2.7-0.7-2.9-2.4-3.3-4.8c-0.5-0.6-0.4-1,0-2
			c0.9-2.5,3.6-5.2,5.1-7.3c1-1.5,2.1-4.2,3.7-5.1s2.9,0.2,4.2,1.3c0.1-0.1,0.3-0.3,0.4-0.4c-0.2-0.2-0.1-0.5,0.1-0.7
			c0,0,0.1-0.1,0.1-0.1c2-0.4,4-0.7,6.1-1.1c-2.7-1.8-5.3-3.8-7.9-5.8c-0.3-0.2-0.3-0.6-0.2-0.8c0-0.1,0.1-0.1,0.2-0.2
			c3.2-2.4,6.3-5.4,9.8-7.4c1.4-0.7,2.9-0.8,4.3-0.4c-0.3-1.6-0.7-4,0.1-5.1s4-1.3,5.4-1.6c3.7-0.9,8-2.2,10.7,1.2
			c2.1,0.5,2.4,4,2.8,6c3.3-0.2,6.6,0.2,9.8,1.2c1,0.4,2,1,2.9,1.8c1.2-1.6,2.7-4.1,4.5-5.2c-0.2-0.1-0.3-0.4-0.1-0.6
			c0.1-0.1,0.1-0.2,0.2-0.2c3.1-1,4.7-2.2,7.9-1.2c3.5,1.1,8,1.7,11.2,3.5c1,0.6,1.3,0.9,1,2.1s-2.3,2.8-3.1,3.9
			c-1.2,1.8-2.2,3.7-2.9,5.8c2.9,0.6,5.8,1.3,8.6,1.9c0.3,0.1,0.5,0.4,0.4,0.7c-1.3,3.8-2.9,7.5-4.7,11.1c2.1,0.5,4.1,0.9,6.3,1.1
			c0.3,0,0.5,0.2,0.6,0.4C95.9,41.8,96.2,43.3,96.4,44.7z M87.1,42.2l8.2,2.3c-0.3-1.1-0.5-2.2-0.7-3.4c-2.2,0-4.3-0.4-6.3-1.2
			C87.9,40.6,87.5,41.4,87.1,42.2z M94.7,45.8l-8.1-2.2c-0.1,0-0.1-0.1-0.2-0.1c-2.7,5.3-5.3,10.6-6.9,16.2c1.3-0.1,2.6-0.2,3.9-0.3
			c0.3,0,0.7,0.1,0.8,0.5C87.6,55.1,91.3,50.5,94.7,45.8z M90.8,31.6c1.2-3,1-3.3-2-4.3c-1.7-0.6-3.5-1.1-5.2-1.5
			c-0.1,0-0.1,0-0.2,0c-1.8-0.4-3.7-0.6-5.6-0.6c-0.2,0.2-0.5,0.2-0.7,0c0,0,0,0,0,0c-1.6,0-3.2,0.6-4.5,1.5c4.5,0.6,9,1.1,13.5,1.8
			c0.4,0.1,0.6,0.4,0.5,0.8c0,0,0,0.1,0,0.1c0.3-0.2,0.8,0.1,0.6,0.6c-5.1,9.4-8.7,19.5-10.7,30l2.1-0.1c1.3-7.3,5.6-14,8.8-20.5
			c0-0.2,0.1-0.4,0.3-0.5C88.8,36.4,89.9,34,90.8,31.6z M87.4,16.9c1.2-1.6,2.3-1.8,0.1-2.8c-2.9-1.1-5.8-2-8.8-2.8
			c-2-0.6-4-0.6-6,0c1.5,0.3,3.5,1.4,4.7,1.9l7,2.8c0.4,0.1,0.6,0.5,0.5,0.9c0,0.1-0.1,0.2-0.2,0.3c-2.1,2.2-4.1,4.5-6,6.9
			c1.5,0.1,3,0.4,4.4,0.6c0.7-2,1.6-3.9,2.7-5.7C86.3,18.3,86.8,17.6,87.4,16.9z M86.2,29.9c-0.1,0-0.1,0-0.2,0
			c-3.3-0.4-7.2-1.5-10.6-1.4c-2.8,0.1-2.8,0.2-3.9,2.6c-0.6,1.8-1.1,3.6-1.3,5.5c-1.5,7.6-1.5,15-1.3,22.6c0.2,0.3,0.4,0.7,0.6,1
			c1.9-0.1,3.8-0.2,5.6-0.3c0.8-5.4,2.3-10.7,4.4-15.8C81.3,39.3,83.1,34.1,86.2,29.9L86.2,29.9z M84.4,61.2c-0.1,0-0.3-0.1-0.4-0.2
			c-0.1,0.1-0.3,0.2-0.5,0.2c-18.7,1.7-38.2,2.7-56.9,1c1,14.4,1,29,1.4,43.4c0.2,6.4-0.2,17.3,6,21c5.7,3.3,16,1.6,22.5,1.4
			c3.5-0.1,7-0.3,10.6-0.6c1.9-0.1,3.8-0.2,5.7-0.5l1.9-0.2c3.1-0.8,4.4-2.5,3.9-5.1c0.6-2.9,0.1-6.6,0.2-9.6
			c0.1-3.8,0.3-7.7,0.6-11.5C80.3,87.3,82,74.2,84.4,61.2z M82.9,16.9l-7.8-3.1C73,13,72,12.6,70,14c-1.2,1.1-2.4,2.3-3.5,3.5
			c1.1,1.1,2,2.2,2.9,3.5c0.2,0.2,0.1,0.6-0.1,0.8c0,0,0,0.1-0.1,0.1c-2.4,3.8-4.7,7.6-6.7,11.6c0,0,0,0.1,0,0.2
			c-0.3,8,1.5,15.9,5.1,23.1c-1.1-9.9,0.5-20.2,3.4-29.7c0-0.1,0.1-0.2,0.1-0.3c0-0.2,0-0.3,0.1-0.4c1.5-1.6,3.6-2.5,5.8-2.4
			C78.7,21.4,80.6,19,82.9,16.9z M68.1,60.3c0-0.2-0.1-0.4-0.1-0.6c-4.6-6.8-7.1-14.8-7.1-23c-2.1,4.4-3.9,9-5.3,13.6
			c1.3,3.4,2.9,6.7,4.1,10.2C62.6,60.5,65.3,60.4,68.1,60.3z M67.7,22.1l-6.9-1.3c-3.6-0.7-5.5-1-7.6,2.5c-1.9,3.3-2.6,8.3-3.5,12
			c-1.8,8.5-2.4,17-3.6,25.6l5.3-0.1C53.6,47,59,33,67.7,22.1z M67.1,20.4c-1.9-2.1-3.8-3.9-6.9-4.4c-2.3-0.4-4.7-0.5-7-0.8
			c-0.3,0.2-0.7,0.2-0.9-0.1c0,0,0-0.1-0.1-0.1c-0.1,0-0.2,0-0.4-0.1c0,0.1,0,0.2,0,0.2c-5.3,14.9-7.7,30-9,45.6h2.7
			c0.2-11.1,1.7-22.2,4.7-32.9c0.7-2.5,1.6-8.4,4.1-9.7c1.3-0.7,3.8,0.5,5.1,0.7C61.9,19.4,64.5,19.9,67.1,20.4z M53.1,60.7l5.6-0.1
			c-1.5-2.5-2.7-5.2-3.7-8C54.3,55.2,53.6,57.9,53.1,60.7L53.1,60.7z M50.9,14.1l0.9-0.1C51.7,13,51.4,12,51,11
			c-0.9-1.9-1.5-1.6-3.5-1.4c-2.8,0.4-5.5,0.8-8.2,1.1c0,2.1,0.2,4.1,0.3,6.2c3.2,3.6,5.4,7.9,6.4,12.6c1.3-5,2.8-9.9,4.5-14.7
			c0-0.1,0.1-0.2,0.2-0.3C50.6,14.4,50.7,14.2,50.9,14.1C50.9,14.1,50.9,14.1,50.9,14.1z M45.7,8.6c0.9-0.1,2-0.4,3-0.6
			c-2.6-2.2-6.8-0.5-9.8,0.1c-1,0.2-3.2,0.4-3.8,1.5c-0.4,0.7-0.2,2.6-0.2,3.9c0.8,0.2,1.5,0.4,2.2,0.6c0.3,0.1,0.5,0.4,0.4,0.7
			c0,0.1-0.1,0.3-0.2,0.3c0.4,0.2,0.7,0.4,1,0.7c-0.3-1.8-0.4-3.7-0.4-5.5c0-0.3,0.2-0.5,0.5-0.6C40.8,9.2,43.3,8.9,45.7,8.6z
			 M45.3,32.3C45.1,32.2,45,32,45,31.9c-0.8-4.6-2.7-8.9-5.5-12.6c-0.4-0.6-1.5-2.4-2.2-2.6c-1.3-0.4-3.4,1.4-4.5,2l-4.9,3.1
			c1.6,1.6,2.9,3.5,4,5.5c0.7-0.2,1.3-0.2,2,0c2,0.7,3.1,4,3.8,5.7C40.7,40,41,48,41.9,55.6C42.3,47.8,43.4,39.9,45.3,32.3z
			 M39,60.8h2.4c-1.9-6.9-1.6-14.2-3.1-21.1c-0.9-4.2-1.9-10.5-7.3-10.9c-2.6-0.2-5.6,0.7-8.3,1.1c0.1,0.1,0,0.3,0,0.4
			c-0.2,0.2-0.4,0.5-0.6,0.7l0.1,0.1c0.6,0.5-0.2,1.6-0.9,1.1c-0.1-0.1-0.2-0.2-0.4-0.3c-0.3,0.3-0.6,0.7-1,1
			c4-0.6,8.1-1.1,12.2-1.7c0.4-0.1,0.9,0.1,1,0.6c1.6,4.5,2.7,9.1,3.4,13.8c0.3,2.4,0.5,4.8,0.8,7.2c0.2,1.7,0.6,3.4,0.8,5
			c0,0.3,0,1.8,0,3h0.2C38.5,60.7,38.8,60.7,39,60.8z M26.2,60.9l10.7-0.1c-2.3-4.3-1.6-12.6-2.3-16.6c-0.5-2.8-1-9.3-3.3-10.7
			c-2-1.3-7.8,0-11.1,0.5c0,0.1,0.1,0.1,0.1,0.2C21.6,43.3,23.9,52,26.2,60.9L26.2,60.9z M35.7,15.3c0.2-0.1,0.4-0.1,0.6-0.2
			l-1.6-0.4c-0.1,0-0.1,0-0.2,0c-1.2-0.4-2.5-0.4-3.8-0.1c-1,0.6-1.9,1.2-2.7,2l-6.7,5.1c2.6,2,5.1,4,7.6,6.1l0.9-0.1
			c0.3-0.1,0.8-0.2,1.2-0.3c-1.4-1.9-3-3.6-4.6-5.3c-0.3-0.2-0.3-0.7-0.1-1c0-0.1,0.1-0.1,0.2-0.1C29.3,19.3,32.5,16.4,35.7,15.3
			L35.7,15.3z M22,51.6c-0.1-0.3-0.1-0.5-0.2-0.8c-1.8-1.8-3.9-3.3-6.2-4.5c-1.6-0.8-4.5-1.3-6.3-2.3c0.3,1.5,1.5,2.6,3,2.9
			c1.5,0.3,2.9,0.8,4.3,1.4C18.6,49.2,20.4,50.3,22,51.6z M18.9,33.1c0.4-0.6,0.8-1.2,1.3-1.7c-1.6-0.9-2.5-0.5-4.2,1.3
			c-1,1.3-2,2.6-2.8,4c-0.9,1.2-2.2,2.6-2.8,4c-1.2,0.8-1.3,1.4-0.3,1.8c0.5,0.4,1.2,0.7,1.9,0.9c3.5,1.5,6.8,3.1,9.4,5.8
			c-1.2-4.8-2.1-9.6-2.7-14.5c0-0.2,0-0.4,0.1-0.5c-0.4-0.1-0.5-0.8,0-0.9L18.9,33.1z"/>
		<path class="st2" d="M95.3,44.4l-8.2-2.3c0.4-0.8,0.8-1.5,1.2-2.3c2,0.8,4.1,1.1,6.3,1.1C94.8,42.2,95,43.3,95.3,44.4z"/>
		<path class="st2" d="M86.7,43.6l8.1,2.2c-3.5,4.7-7.1,9.3-10.4,14.2c-0.1-0.3-0.4-0.5-0.8-0.5c-1.3,0.1-2.6,0.2-3.9,0.3
			c1.6-5.7,4.2-11,6.9-16.2C86.5,43.5,86.6,43.6,86.7,43.6z"/>
		<path class="st2" d="M88.9,27.3c3,1.1,3.2,1.3,2,4.3c-0.9,2.4-2,4.8-3.2,7.1c-0.2,0.1-0.3,0.3-0.3,0.5c-3.2,6.6-7.6,13.3-8.8,20.5
			l-2.1,0.1c2-10.5,5.6-20.6,10.7-30c0.2-0.4-0.2-0.7-0.6-0.6c0.1-0.3-0.1-0.7-0.4-0.8c0,0-0.1,0-0.1,0c-4.5-0.6-9-1.2-13.5-1.8
			c1.3-0.9,2.9-1.5,4.5-1.5c0.2,0.2,0.5,0.2,0.7,0c0,0,0,0,0,0c1.9,0,3.8,0.2,5.6,0.6c0.1,0,0.1,0,0.2,0
			C85.5,26.2,87.2,26.7,88.9,27.3z"/>
		<path class="st2" d="M87.5,14.1c2.2,1,1.1,1.2-0.1,2.8c-0.6,0.7-1.1,1.4-1.6,2.2c-1.1,1.8-2,3.7-2.7,5.7c-1.5-0.3-3-0.5-4.4-0.6
			c1.9-2.4,3.9-4.7,6-6.9c0.3-0.3,0.2-0.8-0.1-1.1c-0.1-0.1-0.1-0.1-0.2-0.1l-7-2.8c-1.2-0.5-3.2-1.6-4.7-1.9c2-0.6,4-0.6,6,0
			C81.7,12.1,84.6,13,87.5,14.1z"/>
		<path class="st2" d="M86,29.9c0.1,0,0.1,0,0.2,0c-3.1,4.2-4.9,9.4-6.7,14.2c-2.1,5.1-3.5,10.4-4.4,15.8c-1.9,0.1-3.8,0.2-5.6,0.3
			c-0.2-0.3-0.4-0.7-0.6-1c-0.2-7.6-0.2-15.1,1.3-22.6c0.2-1.9,0.6-3.7,1.3-5.5c1.1-2.4,1-2.5,3.9-2.6C78.7,28.4,82.6,29.5,86,29.9z
			"/>
		<path class="st3" d="M84,61c0.1,0.1,0.2,0.2,0.4,0.1c-2.4,13-4.1,26.1-5,39.3c-0.3,3.9-0.5,7.7-0.6,11.6c-0.1,3,0.4,6.7-0.2,9.6
			c0.5,2.6-0.8,4.2-3.9,5.1l-1.9,0.2c-1.9,0.3-3.8,0.4-5.7,0.5c-3.5,0.3-7,0.5-10.6,0.6c-6.5,0.3-16.9,1.9-22.5-1.4
			c-6.2-3.6-5.8-14.5-6-21c-0.4-14.5-0.4-29-1.4-43.4c18.8,1.7,38.2,0.8,56.9-1C83.7,61.2,83.9,61.1,84,61z M78.2,71.8
			c0.2-0.4,0.1-0.9-0.3-1.1c-0.1,0-0.2-0.1-0.2-0.1c0-0.1-0.1-0.2-0.1-0.3c-0.4-0.6-1-1.1-1.8-1.1c-0.2,0-0.4-0.1-0.6-0.1
			c-0.3-0.2-0.7-0.1-0.8,0.2l0,0c-0.3,0.1-0.6,0.4-0.8,0.7c-0.7,1.2-0.3,2.6,0.9,3.3c0.2,0.1,0.4,0.2,0.6,0.3c0.4,0.1,0.9,0,1.3-0.1
			C77.2,73.1,77.8,72.6,78.2,71.8L78.2,71.8z M62.9,74.4c0-0.8-1.2-0.8-1.3,0c0,1.8-1.5,3.3-3.4,3.3c-1.7,0-3.1-1.3-3.3-3
			c-0.1-0.8-1.3-0.4-1.2,0.3c-0.3,0.7-0.7,1.3-1,2c-1.5,0.3-2.3,0-2.3-1.1c-0.3-0.9,0.1-1.9,1-2.3c0.4-0.2,0-0.8-0.3-0.6
			c-1.5,0.7-2.1,2.5-1.3,3.9c0.2,0.4,0.5,0.7,0.8,1c1.3,0.8,2.9,0.4,3.7-0.8c0.1-0.1,0.1-0.2,0.2-0.3c1.4,2.1,4.2,2.7,6.3,1.3
			C62.1,77.4,62.9,75.9,62.9,74.4z M34.5,75.6c1.6,2,5,0.3,4.6-2.2c-0.2-1.2-1.3-2.2-2.5-2.2c-0.5,0-0.9,0.2-1.3,0.5
			c-0.4,0.2-0.7,0.5-0.9,0.8C33.8,73.5,33.8,74.7,34.5,75.6z"/>
		<path class="st2" d="M75.1,13.8l7.8,3.1c-2.3,2.1-4.2,4.5-5.7,7.1c-2.2-0.1-4.3,0.8-5.8,2.4c-0.1,0.1-0.2,0.3-0.1,0.4
			c-0.1,0.1-0.1,0.2-0.1,0.3c-2.9,9.5-4.5,19.8-3.4,29.7c-3.6-7.2-5.4-15.1-5.1-23.1c0-0.1,0-0.1,0-0.2c2-4,4.3-7.8,6.7-11.6
			c0,0,0-0.1,0.1-0.1c0.2-0.2,0.3-0.5,0.1-0.8c-0.8-1.3-1.8-2.4-2.9-3.5c1.1-1.3,2.3-2.5,3.5-3.6C72,12.6,73,13,75.1,13.8z"/>
		<path class="st1" d="M77.7,70.6c0.4,0.1,0.7,0.5,0.6,1c0,0.1,0,0.2-0.1,0.2c-0.4,0.7-1.1,1.3-1.9,1.7c-0.4,0.2-0.9,0.2-1.3,0.1
			c-1.3-0.3-2.1-1.6-1.7-2.9c0.1-0.2,0.1-0.4,0.3-0.6c0.2-0.3,0.5-0.5,0.8-0.7l0,0c0.2-0.3,0.6-0.4,0.8-0.2c0.2,0,0.4,0,0.6,0.1
			c0.7,0,1.4,0.5,1.8,1.1C77.6,70.4,77.6,70.5,77.7,70.6z"/>
		<path class="st2" d="M68,59.7c0,0.2,0.1,0.4,0.1,0.6c-2.8,0.1-5.6,0.2-8.4,0.3c-1.2-3.4-2.8-6.8-4.1-10.2
			c1.5-4.7,3.3-9.2,5.4-13.6C61,44.9,63.4,52.9,68,59.7z"/>
		<path class="st2" d="M60.9,20.7l6.9,1.3C59,33,53.6,47,51.5,60.7l-5.3,0.1c1.3-8.5,1.8-17.1,3.6-25.6c0.8-3.7,1.5-8.7,3.5-12
			C55.3,19.7,57.3,20,60.9,20.7z"/>
		<path class="st2" d="M60.2,16c3.1,0.5,5,2.3,6.9,4.4c-2.6-0.5-5.1-1-7.7-1.5c-1.3-0.3-3.8-1.4-5.1-0.7c-2.5,1.3-3.4,7.2-4.1,9.7
			c-3,10.7-4.6,21.8-4.8,32.9h-2.7c1.4-15.7,3.8-30.7,9-45.6c0-0.1,0-0.2,0-0.2c0.1,0,0.2,0,0.4,0.1c0.2,0.3,0.6,0.4,0.9,0.2
			c0,0,0.1,0,0.1-0.1C55.4,15.5,57.8,15.6,60.2,16z"/>
		<path class="st1" d="M61.7,74.4c0-0.8,1.3-0.8,1.3,0c0,2.5-2,4.6-4.5,4.6c-1.5,0-3-0.8-3.8-2.1c-0.6,1.3-2.2,1.9-3.6,1.3
			c-0.1,0-0.2-0.1-0.3-0.2c-1.3-1-1.5-2.8-0.5-4.1c0.3-0.3,0.6-0.6,1-0.8c0.4-0.2,0.7,0.3,0.3,0.6c-0.9,0.4-1.3,1.4-1,2.3
			c0.1,1,0.8,1.4,2.3,1.1c0.3-0.7,0.7-1.3,1-2c-0.1-0.7,1-1.1,1.2-0.3c0.1,1.8,1.7,3.3,3.5,3.2C60.3,77.8,61.8,76.2,61.7,74.4z"/>
		<path class="st2" d="M58.7,60.6l-5.6,0.1c0.5-2.8,1.2-5.5,1.9-8.1C56,55.3,57.2,58,58.7,60.6z"/>
		<path class="st2" d="M51.8,14.1l-0.9,0.1c-0.2,0-0.3,0.2-0.3,0.4c0,0,0,0.1,0,0.1c-0.1,0.1-0.1,0.2-0.2,0.3
			c-1.7,4.8-3.2,9.7-4.5,14.7c-1-4.7-3.2-9-6.4-12.6c-0.2-2.1-0.3-4.1-0.3-6.2c2.8-0.3,5.5-0.7,8.2-1.1c2-0.3,2.6-0.5,3.5,1.4
			C51.4,12,51.6,13,51.8,14.1z"/>
		<path class="st2" d="M48.7,8c-1,0.1-2.2,0.4-3,0.6c-2.4,0.3-4.8,0.6-7.2,1C38.2,9.6,38,9.9,38,10.2c0,1.9,0.1,3.7,0.4,5.5
			c-0.3-0.3-0.6-0.5-1-0.7c0.2-0.2,0.3-0.5,0.1-0.8c-0.1-0.1-0.2-0.2-0.3-0.2c-0.7-0.2-1.4-0.4-2.2-0.6c-0.1-1.3-0.3-3.3,0.2-3.9
			c0.6-1,2.8-1.2,3.8-1.5C41.9,7.5,46.1,5.8,48.7,8z"/>
		<path class="st2" d="M45,31.9c0,0.2,0.1,0.3,0.3,0.4c-1.9,7.7-3,15.5-3.4,23.3C41,48,40.7,40,37.7,32.9c-0.7-1.7-1.8-5-3.8-5.7
			c-0.7-0.2-1.3-0.2-2,0c-1.1-2-2.4-3.8-4-5.4l4.9-3.1c1-0.6,3.2-2.4,4.5-2c0.8,0.2,1.8,2,2.2,2.6C42.3,23,44.2,27.3,45,31.9z"/>
		<path class="st2" d="M41.4,60.8H39c-0.2-0.1-0.5-0.1-0.7,0H38c0-1.1,0-2.7,0-3c-0.2-1.7-0.6-3.3-0.8-5c-0.3-2.4-0.4-4.8-0.8-7.2
			c-0.7-4.7-1.8-9.3-3.4-13.8c-0.1-0.4-0.6-0.7-1-0.6c-4.1,0.6-8.1,1.1-12.2,1.7c0.3-0.3,0.6-0.7,1-1c0.1,0.1,0.2,0.2,0.4,0.3
			c0.6,0.5,1.5-0.6,0.9-1.1l-0.1-0.1c0.2-0.2,0.4-0.4,0.6-0.7c0.1-0.1,0.1-0.3,0-0.4c2.7-0.4,5.7-1.3,8.3-1.1
			c5.4,0.4,6.4,6.7,7.3,10.9C39.8,46.7,39.5,53.9,41.4,60.8z"/>
		<path class="st1" d="M39.1,73.4c0.5,2.5-3,4.2-4.6,2.2c-0.7-0.9-0.7-2.1-0.1-3c0.2-0.4,0.6-0.7,0.9-0.8c0.4-0.3,0.8-0.5,1.3-0.5
			C37.8,71.2,38.9,72.1,39.1,73.4z"/>
		<path class="st2" d="M36.9,60.8l-10.7,0.1c-2.3-8.9-4.6-17.6-5.9-26.8c0-0.1,0-0.2-0.1-0.2c3.3-0.5,9.1-1.8,11.1-0.5
			c2.3,1.5,2.9,8,3.3,10.7C35.3,48.2,34.6,56.5,36.9,60.8z"/>
		<path class="st2" d="M36.3,15.1c-0.2,0.1-0.4,0.1-0.6,0.2c-3.1,1.1-6.3,4-9.1,5.8c-0.3,0.2-0.4,0.6-0.2,0.9c0,0,0.1,0.1,0.1,0.1
			c1.6,1.7,3.2,3.4,4.6,5.3c-0.4,0.1-0.9,0.2-1.2,0.3l-0.9,0.1c-2.5-2.1-5-4.1-7.6-6.1l6.7-5.1c0.8-0.8,1.7-1.4,2.7-2
			c1.2-0.3,2.6-0.3,3.8,0.1c0.1,0,0.1,0,0.2,0L36.3,15.1z"/>
		<path class="st2" d="M21.8,50.8c0.1,0.3,0.1,0.5,0.2,0.8c-1.6-1.3-3.5-2.4-5.4-3.3c-1.4-0.6-2.8-1.1-4.3-1.4
			c-1.5-0.3-2.7-1.4-3-2.9c1.8,1,4.7,1.4,6.3,2.3C17.8,47.5,19.9,49,21.8,50.8z"/>
		<path class="st2" d="M20.1,31.4c-0.5,0.5-0.9,1.1-1.3,1.7h-0.1c-0.5,0.1-0.4,0.8,0,0.9c-0.1,0.2-0.1,0.4-0.1,0.5
			c0.6,4.9,1.6,9.7,2.7,14.5c-2.6-2.7-5.9-4.2-9.4-5.8c-0.7-0.1-1.3-0.4-1.9-0.9c-1-0.4-0.9-1,0.3-1.8c0.6-1.4,1.9-2.8,2.8-4
			c0.8-1.4,1.7-2.7,2.8-4C17.7,30.9,18.6,30.5,20.1,31.4z"/>
	</g>
</g>
</svg>
