<?xml version="1.0" encoding="utf-8"?>
<!-- Generator: Adobe Illustrator 23.0.1, SVG Export Plug-In . SVG Version: 6.00 Build 0)  -->
<svg version="1.1" id="Camada_1" xmlns="http://www.w3.org/2000/svg" xmlns:xlink="http://www.w3.org/1999/xlink" x="0px" y="0px"
	 viewBox="0 0 59.5 55.3" style="enable-background:new 0 0 59.5 55.3;" xml:space="preserve">
<style type="text/css">
	.st0{fill:#FFFFFF;}
	.st1{fill:#F6DF66;}
	.st2{fill:#222221;}
</style>
<title>Ativo 14</title>
<g>
	<g id="OBJECTS">
		<path class="st0" d="M56.4,15.9c-3.6-7-9.8-13.6-17.8-15.3C30.9-1.1,22,0.8,15.1,4.6C1.6,12.1-5.1,30.5,4.6,43.7
			c3.9,5.3,9.6,9.6,16.1,10.4C26.1,56.5,33,55,38.4,53c7.1-2.6,14.8-7.1,18.5-14C60.9,31.8,60,23.1,56.4,15.9z"/>
		<path class="st1" d="M36.8,5.6c11.1,3.6,19.5,16.3,16.1,28c-4.3,14.3-20.6,20-33.7,14.6C9.6,42.4,4,30.4,8.2,19.5S25.5,2,36.8,5.6
			z M45,27.3c0.2-0.3,0.1-0.8-0.3-1c-0.3-0.2-0.6-0.1-0.9,0.1c-1.2,1.2-2.7,2.5-4.6,1.9c-1.6-0.6-2.4-2.3-1.8-3.8
			c0-0.1,0-0.1,0.1-0.2c0.1-0.3-0.4-0.6-0.6-0.4c-1.5,1.7-0.5,4.4,1.3,5.5C40.5,30.7,43.7,29.4,45,27.3z M32.3,34.4
			c0-0.8-1.3-1-1.4-0.2c-0.3,1.9-2.6,3.4-3.9,1.3c-1-1.5,0.3-2.8,1-4c0.5-0.8-0.7-1.5-1.2-0.7c-0.6,0.9-1.5,1.4-2.6,1.4
			c-1,0.2-1.5-0.4-1.7-1.9c0.4-0.6,0.9-1,1.5-1.4c0.2-0.1,0.2-0.4,0.1-0.5c-0.1-0.1-0.3-0.2-0.5-0.1c-1.6,0.8-3.8,3.1-1.8,4.8
			c1,0.7,2.3,0.9,3.5,0.4c-0.1,0.4-0.2,0.9-0.1,1.3c0.1,1.3,0.9,2.4,2.1,3c1.9,0.8,4-0.1,4.8-2C32.2,35.3,32.3,34.9,32.3,34.4z
			 M30,19.8c0.3-0.3,0.3-0.8,0-1.1c-0.3-0.3-0.7-0.3-1,0c-1.4,1.1-2.9,2.3-4.8,1.8c-1.4-0.2-2.4-1.5-2.2-2.9
			c0.1-0.5,0.3-0.9,0.6-1.3c0.4-0.4-0.1-1.1-0.6-0.8c-2.1,1.4-1.7,4.4,0.2,5.8C24.6,23.1,28.1,22,30,19.8z"/>
		<path class="st2" d="M51.5,16.3c5.2,8.9,3.7,20.2-3.6,27.4c-8,8.1-19.9,9.8-30.1,5c-0.2-0.1-0.3-0.3-0.2-0.5c0,0,0-0.1,0.1-0.1
			C8.6,42.7,4,32,6.4,21.7C8.8,12.1,17.7,5,27.4,3.7S46.7,7.9,51.5,16.3z M52.9,33.6c3.5-11.6-5-24.4-16.1-28
			C25.5,2,12.5,8.4,8.2,19.5s1.3,22.9,11,28.7C32.3,53.6,48.7,47.9,52.9,33.6z"/>
		<path class="st2" d="M43.8,26.4c0.2-0.3,0.7-0.4,1-0.1c0.3,0.2,0.4,0.7,0.1,1c-1.3,2.1-4.5,3.4-6.7,2.1c-1.9-1-2.9-3.8-1.3-5.5
			c0.2-0.3,0.7,0,0.6,0.4c-0.6,1.5,0.1,3.3,1.6,3.9c0.1,0,0.1,0,0.2,0.1C41.1,28.9,42.6,27.6,43.8,26.4z"/>
		<path class="st2" d="M30.9,34.2c0.1-0.8,1.4-0.6,1.4,0.2c0,2-1.7,3.6-3.7,3.6c-0.5,0-0.9-0.1-1.4-0.3c-1.2-0.6-1.9-1.7-2.1-3
			c0-0.4,0-0.9,0.1-1.3c-1.2,0.5-2.5,0.3-3.5-0.4c-2.1-1.7,0.1-3.9,1.8-4.8c0.2-0.1,0.4,0,0.5,0.2c0.1,0.2,0,0.4-0.1,0.5
			c-0.6,0.4-1.1,0.8-1.5,1.4c0.1,1.5,0.7,2.1,1.7,1.9c1,0,2-0.6,2.6-1.4c0.5-0.7,1.7-0.1,1.2,0.7c-0.7,1.2-1.9,2.5-1,4
			C28.3,37.6,30.6,36.1,30.9,34.2z"/>
		<path class="st2" d="M28.9,18.7c0.3-0.3,0.8-0.3,1.1,0s0.3,0.8,0,1.1l0,0c-1.9,2.2-5.3,3.4-7.8,1.5c-1.9-1.4-2.3-4.4-0.2-5.8
			c0.5-0.3,1,0.4,0.6,0.8c-0.9,1.1-0.8,2.7,0.3,3.6c0.4,0.3,0.8,0.5,1.3,0.6C26,21,27.5,19.8,28.9,18.7z"/>
	</g>
</g>
</svg>
