<?xml version="1.0" encoding="utf-8"?>
<!-- Generator: Adobe Illustrator 23.0.1, SVG Export Plug-In . SVG Version: 6.00 Build 0)  -->
<svg version="1.1" id="Camada_1" xmlns="http://www.w3.org/2000/svg" xmlns:xlink="http://www.w3.org/1999/xlink" x="0px" y="0px"
	 viewBox="0 0 60.4 51.4" style="enable-background:new 0 0 60.4 51.4;" xml:space="preserve">
<style type="text/css">
	.st0{fill:#FFFFFF;}
	.st1{fill:#D36EA1;}
	.st2{fill:#222221;}
</style>
<title>Ativo 10</title>
<g>
	<g id="OBJECTS">
		<path class="st0" d="M60.1,27.6C58.1,17,42.9,6.4,32.7,11C26.5,0.8,10.4-5.2,2.6,6.1c-3.9,5.7-3.1,13.2,0.1,19
			c4.5,8.2,14,13.5,15.7,23.2c0.4,2.4,2.8,3.3,4.9,2.9c0.2,0,0.5,0,0.7-0.1C35.7,48.5,63.6,46,60.1,27.6z"/>
		<path class="st1" d="M50.9,35.9c-6.6,8-19.2,5.9-28.2,9.3C20,34.3,5.6,28.2,6.6,16c0.6-6.6,6.4-11.5,13-11
			c6.9,0.5,11.5,6.6,12.3,13c0,0.3,0.2,0.5,0.5,0.5c0,0,0,0,0,0c0.1,0.2,0.3,0.2,0.5,0.1c0,0,0.1-0.1,0.1-0.1
			C42.6,5,60.1,24.6,50.9,35.9z M43.9,36.4c0.9,0.6,2.2,0.4,2.9-0.5c0.1-0.2,0.2-0.3,0.3-0.5c0.2-0.7,0-1.4-0.5-1.8
			c-0.6-0.8-1.8-1.1-2.6-0.5c0,0,0,0-0.1,0c-0.9,0.8-1,2.1-0.2,2.9C43.7,36.2,43.8,36.3,43.9,36.4L43.9,36.4z M31,33.5
			c2.5-0.5,4.6-4.1,2.5-6.2c-0.4-0.4-1.2-0.1-1,0.5c0.4,0.7,0.5,1.6,0.4,2.4c-0.2,1-1,1.8-2,2c-2.3,0.6-3.5-1.4-3.6-3.4
			c0-0.1-0.1-0.3-0.2-0.3c0-0.2-0.1-0.3-0.1-0.5c-0.2-0.5-1.1-0.2-1,0.4c0.4,1.2-1.2,1.8-2,1.1c-1-0.8-1.2-3.1,0.3-3.6
			c0.2,0,0.3-0.2,0.3-0.4s-0.2-0.3-0.4-0.3l0,0c-2.5,0.4-2.3,4.1-0.6,5.3c0.9,0.6,2.1,0.5,2.9-0.2C26.7,32.5,28.7,33.9,31,33.5
			C30.9,33.5,31,33.5,31,33.5z M14.1,24.1c1,0.3,2.1-0.3,2.4-1.3c0.2-0.8-0.1-1.7-0.8-2.1c-0.6-0.4-1.3-0.4-2-0.1
			c-0.3,0.2-0.5,0.6-0.4,0.9c-0.6,0.9-0.3,2,0.5,2.5C13.9,24,14,24,14.1,24.1z"/>
		<path class="st2" d="M47,35.4c-0.4,1.1-1.5,1.6-2.6,1.3c-0.2-0.1-0.3-0.1-0.5-0.3c-0.9-0.7-1.1-2-0.4-2.9c0.1-0.1,0.2-0.2,0.3-0.3
			c0.8-0.6,2-0.5,2.6,0.3c0,0,0,0,0,0.1C47,34,47.2,34.7,47,35.4z"/>
		<path class="st2" d="M54.7,26.1c2.4,18.5-21,15.7-32,20.4c-0.8,0.3-1.4-0.8-0.7-1.1c-2.8-4.6-6-8.9-9.4-13c-2.5-2.8-4.6-6-6.1-9.5
			c-2-5.1-1.7-10.9,2.3-15c8.9-9,22.4-2.2,24.1,9.1c2.6-4.3,8.1-5.3,12.7-3.3C50.6,16.1,54,20.7,54.7,26.1z M22.7,45.1
			c9-3.4,21.6-1.2,28.2-9.3C60.1,24.6,42.6,5,33,18.5c-0.1,0.2-0.3,0.2-0.5,0.1c0,0-0.1-0.1-0.1-0.1c-0.3,0-0.5-0.2-0.6-0.4
			c0,0,0,0,0,0c-0.8-6.4-5.4-12.5-12.3-13c-6.6-0.4-12.4,4.5-13,11.1C5.6,28.2,20,34.3,22.7,45.1L22.7,45.1z"/>
		<path class="st2" d="M33.4,27.3c2.1,2.1,0.1,5.7-2.5,6.2c-2.2,0.4-4.2-1.1-4.6-3.2c-0.8,0.7-2,0.8-2.9,0.2
			c-1.7-1.2-1.9-4.9,0.6-5.3c0.2,0,0.4,0.1,0.4,0.3s-0.1,0.4-0.3,0.4l0,0c-1.5,0.5-1.3,2.7-0.3,3.6c0.8,0.7,2.3,0.1,2-1.1
			c-0.2-0.5,0.8-0.9,1-0.4c0.1,0.2,0.1,0.3,0.1,0.5c0.1,0,0.2,0.2,0.2,0.3c0.1,2,1.4,3.9,3.6,3.4c1-0.2,1.8-1,2-2
			c0.1-0.8,0-1.6-0.4-2.4C32.3,27.3,33,26.9,33.4,27.3z"/>
		<path class="st2" d="M16.6,22.2c-0.1,1.1-1,2-2.1,1.9c-0.1,0-0.2,0-0.4,0c-1-0.3-1.5-1.4-1.1-2.4c0-0.1,0.1-0.3,0.2-0.4
			c-0.1-0.4,0.1-0.7,0.4-0.9c0.7-0.3,1.4-0.2,2,0.1C16.2,20.9,16.5,21.6,16.6,22.2z"/>
	</g>
</g>
</svg>
