<?xml version="1.0" encoding="utf-8"?>
<!-- Generator: Adobe Illustrator 23.0.1, SVG Export Plug-In . SVG Version: 6.00 Build 0)  -->
<svg version="1.1" id="Camada_1" xmlns="http://www.w3.org/2000/svg" xmlns:xlink="http://www.w3.org/1999/xlink" x="0px" y="0px"
	 viewBox="0 0 113 91.6" style="enable-background:new 0 0 113 91.6;" xml:space="preserve">
<style type="text/css">
	.st0{fill:#FFFFFF;}
	.st1{fill:#222221;}
	.st2{fill:#5799A1;}
	.st3{fill:#87C1C5;}
</style>
<title>Ativo 2</title>
<g>
	<g id="OBJECTS">
		<path class="st0" d="M111.2,46.7c-3.6-7.4-13.8-12.2-21.8-9.9c-1.1-2.4-2.9-4.5-5.2-5.9c-3.7-2.3-8.2-3.1-12.5-2.3
			c-1.1-3.5-3.6-6.3-7-7.7c-2.6-1-5.4-1.2-8.1-0.5c0.2-0.8,0.4-1.6,0.4-2.4c0-3-1.4-5.8-3.6-7.7c-3.6-3.2-8-3.5-12.3-2.5
			c-0.2-2.4-1.1-4.5-4.3-6.2c-4.2-2.2-10.5-1.7-15-1C15.7,1.4,15.2,5.7,15,11c-0.3,6.8-3.1,13.1-6.3,18.9c-2.7,4.7-7.4,9.8-8.5,15.3
			c-1,5.8,3.1,8.7,8,10.4c2.8,1,6.4,2.4,9.6,2c1,3.4,3.4,6.2,6.6,7.7c2.1,1,4.3,1.6,6.6,1.8c0.5,0.1,3.5-0.2,3.8-0.1
			c0.8,0.3,1.7,1.7,2.5,2.2c3.4,2.1,7.2,2,10.9,1.1c3.4,6.5,10.6,10,17.8,8.7c2.5,9,13.6,13.9,23.3,12.2c5.6-1,11.4-4.2,14.7-9
			s2.6-9.5,0.6-14.1C112.2,64,115.2,54.5,111.2,46.7z"/>
		<path class="st1" d="M98.4,43.2c7.2,1.9,10.6,10.2,7.6,17c-1.6,3.7-3.7,3.1-7.2,2.4c-1.4-0.1-2.7-0.6-3.9-1.3
			c-0.6-0.4-1.1-0.9-1.5-1.5l-0.5-0.9c-0.6-1.8-2-1.9-4.1-0.5c1.6,2.3,4.7,4,6.6,5.9c1.1,1.1,1.9,2.3,2.5,3.7
			c5.2,5.9,1,16.3-6.5,17.9c-6.5,1.4-15.4-0.8-18.8-6.6c-1.2-1.4-1.7-3.3-1.4-5.2c0-0.2,0-0.5,0-0.7c-0.7,0.3-1.5,0.5-2.2,0.7
			c-7.7,1.7-15.6-1.7-19.7-8.4c-0.1,0-0.2,0.1-0.3,0.1c-2.9,0.6-7.2-2.2-10-3.5c-3.1,0.6-6.8-0.8-9.6-1.6c-4.6-1.4-4.3-2.2-4.3-6.8
			c0-0.2,0.2-0.4,0.4-0.4c0,0,0,0,0.1,0l0,0c1.6-3.1,2.5-6.5,2.8-10c0,0-0.1-0.1-0.1-0.1c-0.3-0.9-0.8-1.8-1.5-2.5
			c-0.6-0.6-1.3-1-2-1.3c-1.1,2-0.4,5.4-0.9,7.7c-0.4,1.8-1,3.6-1.9,5.2c-1.5,2.5-3.4,3.3-6.3,2.6c-3.9-1-13.3-4.3-10.8-9.8
			c0-1.2,0.8-2.2,1.5-3.5c2.2-4,4.2-8.2,6-12.5c3-7.6,5.3-15.5,6.8-23.6c0.1-0.4,0.4-0.6,0.7-0.6c1.9-3,9.8-1.7,12.9,0.1h0.1l0,0
			c0.2,0.1,0.5,0.3,0.7,0.5c0,0.1,0.1,0.1,0.1,0.2c5.7,5.2-0.2,11.5-3.9,16.7c2.2-0.5,4.2-1.6,5.9-3c2.4-2,3.7-4.6,5.4-7.1
			c0.1-0.2,0.3-0.3,0.5-0.3c1.9-1.8,4.6-1.3,6.8,0c1.6,0.9,4.1,2.4,3.9,4.4c1.7,3.2,0.3,7.1-2,10.1c-3.2,4.1-7.9,6.9-13,7.8
			c0.2,0.3,0.4,0.6,0.5,0.9l0,0c3.1,3.9,5.1,8.6,6,13.5c0.7-3.4,1.8-6.8,3.3-9.9c0.8-1.6,1.6-3,3.6-3.3c2.7-0.4,5.7,1.9,7.8,3.2
			c0.7,0.4,1.8,1,2.8,1.6c0.1-1,0.6-2,1.3-2.7c-2.1,0.1-4.2-0.5-6-1.7c-1.6-1.1-2.2-3.2-1.5-5c-0.2-0.7-0.1-1.4,0.1-2
			c0.9-2.2,3-3.6,5.3-3.8c0-0.2,0.3-0.4,0.5-0.4c1.5-0.1,3,0.4,4,1.5c2.9,1.1,4.4,4.2,3.4,7.2c3.2-0.7,6.4-0.5,9.5,0.7
			c0.4,0.1,0.9,0.2,1.3,0.3c0.1,0,0.3,0,0.4,0l0.4,0.2H80c0.1,0,0.1,0,0.1,0.1c3.4,1.7,5.6,5.1,5.8,8.8c1.3-1.5,4.7-1.6,6.4-1.6
			C94.4,42,96.5,42.4,98.4,43.2z M105.9,57.5c0.8-3.2,0.1-6.6-1.9-9.3c2.2,4.1,1.9,9.5-2.3,12.3c-0.2,0.2-0.6,0.1-0.8-0.1
			c-1.9,0.5-3.8,0.1-5.3-1.2c-0.9-0.7-1.6-1.7-1.8-2.9c-0.4-1.2,0.4-1.7-1-3s-3.4-0.7-4.5,0.6c-0.1,0.1-0.1,0.1-0.2,0.1
			c-0.2,0.8-0.2,1.6,0,2.4c0.3-0.6,0.8-1.1,1.5-1.3c1.9-0.6,3.2,1.2,4,2.6c1.4,2.4,3.4,3.4,6.1,3.9
			C103.2,62.4,105.1,60.9,105.9,57.5z M101.1,59.3c3.4-3.8,3.7-8.8-0.2-12.6c-2-1.9-4.6-3-7.4-3.2c-1.3-0.1-6.3-0.2-7.2,1.3
			C86.3,44.9,86.1,45,86,45c-0.1,1.5-0.5,3-1.3,4.4c-0.8,1.6-2.4,2.5-4.1,2.5c0.2,0.1,0.2,0.4,0.2,0.5c-1.4,5.5,3.6,8.8,5.3,13.5
			c0.6,1.5,1.1,3.8-0.3,4.7c-0.4,1.2-1.8,1.9-3,1.5c-1.4-0.5-2.2-2.1-1.8-3.5c-1-0.5-2-0.8-3-1.1c-1.2,2.3-3.1,4.1-5.3,5.3
			c0,0.1,0,0.2,0,0.3c-2.2,9.5,13.8,11.1,19,8.2c6.7-3.8,7.3-12,1.8-16.9c-3.2-2.8-9.9-7.5-5.3-12.1c0.1-0.1,0.2-0.1,0.3-0.1
			c1.5-1.3,3.7-1.3,5.2,0c0.7,0.7,1.2,1.5,1.4,2.4c0.8,2.2,0.8,3.5,3.1,4.4C99.1,59.2,100.1,59.3,101.1,59.3z M98.6,77.7
			c0.5-1.9,0.5-3.9,0.1-5.8c0,4-2,7.7-5.2,9.9c-3.6,2.5-11.1,2.8-16.5,0.6c3.4,2.1,7.4,3.2,11.4,2.9C93.2,85,97.4,82.8,98.6,77.7z
			 M85.4,69.6c1.3-2.7-4-8.7-5-10.6c-1.2-2.1-1.5-4.6-0.8-6.9c0-0.1,0.1-0.2,0.2-0.3c-0.5,0-1.1,0-1.7-0.2c-1,0-2-0.3-2.8-0.8
			c-0.6-0.5-1.2-1-1.6-1.7c-0.2-0.2-0.3-0.4-0.5-0.6c-0.6-1-1.6-1.2-2.9-0.6c1.2,1.7,3.3,3,4.4,4.5c1.4,1.6,2.3,3.5,2.7,5.6
			c0.2,0,0.4,0.1,0.4,0.3c1.4,2.6,1.5,5.7,0.4,8.4c1.2,0.2,2.4,0.5,3.5,1.1c0.1,0,0.1,0.1,0.2,0.2c0,0,0,0,0.1,0
			c0.6,0.2,1.2,0.5,1.6,0.9c0.4,0.4,0.8,0.8,1.2,1.3l0.1-0.1C84.9,69.7,85.1,69.6,85.4,69.6z M85,45c0.2-3-1.1-6-3.5-7.9
			c0.1,0.1,0.2,0.3,0.3,0.4c1.9,2.7,2.8,8.6-0.6,10.6c-0.2,0.1-0.5,0.1-0.7-0.1c-1.7,0.2-4.3,0.3-5.7-0.8c-0.4-0.4-0.7-0.9-0.8-1.4
			c-0.1-0.6-0.4-1.2-0.8-1.7c-1.2-1.2-2.7-0.6-3.7,0.4c-0.2,0.7-0.2,1.3,0,2c0.2-0.2,0.5-0.3,0.8-0.4c1.6-0.5,2.9,1.1,3.8,2.1
			c1.2,1.6,3,2.5,5,2.6C82.8,50.9,84.8,48.5,85,45z M82.6,70.6c0.4,0.3,1,0.4,1.5,0.2c-0.4-0.4-0.7-0.9-1.1-1.3
			c-0.2-0.2-0.4-0.4-0.7-0.7c-0.1-0.1-0.2-0.2-0.3-0.3C81.7,69.3,82,70.1,82.6,70.6L82.6,70.6z M80.6,47c3.7-2.5,0.6-9-2.1-10.8
			c-3.1-2-6.9-1.9-10.5-1.7c-0.7,1.5-2,2.5-3.5,3c0,0.2-0.1,0.4-0.2,0.5c-1.1,0.6-1.9,1.7-2.2,3c0.8,0.5,1.4,1.2,1.7,2.1
			c0.1,0.3,0.1,0.5,0.2,0.8c1.3,2.8,0.4,5.2-1.3,7.5c2,0.9,4.1,2.5,4.3,4.8c0.2,1.5-0.7,2.9-2.1,3.3c0.1,0.2-0.1,0.4-0.3,0.5
			c0,0,0,0,0,0c-1.1,0.2-2.2-0.5-2.5-1.6c-0.2-0.4-0.2-0.9-0.3-1.3c-0.2-0.6-0.2-0.6-0.8-0.7c-0.9-0.1-1.8-0.1-2.8-0.1
			c0,0-0.1,0-0.2,0c-0.9,0.8-1.7,1.7-2.5,2.5c-0.8,1-2,3-3.3,4.6c3.4,5.4,9.3,7.4,15.5,5.2s11-7.8,6.7-14.3c-1.9-2.9-7.5-6-5.8-9.7
			c-0.1-0.2-0.1-0.4,0-0.5c1.1-1.7,3.3-2.2,5-1.2c0,0,0,0,0,0c0.8,0.6,1.4,1.4,1.6,2.3c0.4,1,0.5,1.1,1.6,1.5
			c1.2,0.4,2.5,0.5,3.8,0.5C80.5,47.1,80.6,47.1,80.6,47z M64.5,73.6c7.3,0.3,15.6-5.7,13-13.4c-0.2,2.7-1.6,5.2-3.7,6.8
			c-7.2,5.7-17.6,5.4-22.5-2.6c-0.4,0.4-0.9,0.7-1.4,1C53.5,70.2,58.4,73.3,64.5,73.6z M67.5,32.1c0-1.2-0.5-2.4-1.4-3.3
			c0.1,0.4,0.1,0.9,0.1,1.3c-0.2,2.9-2.8,5-5.7,4.8c-0.1,0-0.1,0-0.2,0c-2-0.1-3.8-1-5-2.6c-0.4,3.4,5.2,5,8.1,4.4
			C65.8,36.3,67.4,34.4,67.5,32.1L67.5,32.1z M65.5,57.7c0.3-1.1,0.1-2.3-0.7-3.2c-0.9-0.9-1.9-1.6-3-2.1c-0.3,0.3-0.5,0.6-0.8,0.9
			C63.2,53.9,65,55.6,65.5,57.7L65.5,57.7z M64.9,58.6c0,0-0.1-0.1-0.1-0.1c-0.6-2.2-2.2-3.9-4.3-4.6c-0.5,0.5-1.1,1.1-1.6,1.6
			c0.7,0,1.3-0.1,2-0.1c0.5-0.1,1,0,1.4,0.3c0.3,0.4,0.5,0.8,0.6,1.3c0,0.9,0.5,1.7,1.2,2.2C64.5,58.9,64.8,58.8,64.9,58.6
			L64.9,58.6z M63.2,46.3l-0.3,0.5c-2.2,3.1-5.4,5.7-8,8.4c-2.1,2.2-4.1,6.5-6.8,7.7c-2.1,0.9-4.5-0.9-6.5-1.7
			c-0.4,0.3-0.8,0.5-1.3,0.7c2.2,1,5,2.4,6.7,2.4c3.1-0.1,4.6-2.2,6.2-4.4c1.5-2,3.2-3.8,5-5.6c1-0.9,2-1.8,2.9-2.8
			C62.3,50.1,63.1,48.3,63.2,46.3z M60.5,33.3c1.9,0.5,3.9-0.7,4.4-2.6s-0.7-3.9-2.6-4.4c-1.9-0.1-3.7,0.7-4.9,2.1
			C55.2,31.1,58,33.2,60.5,33.3L60.5,33.3z M58.3,49.2c2-2.1,4.3-4.5,1.7-7.3c-1.6-1.5-3.5-2.6-5.5-3.3c-7.2-1.4-8.5,9.1-10.1,13.3
			L44.3,52c0.2,2.8,0.1,6-1.7,8.2c1.9,0.9,3.7,1.9,5.7,0.3c0.8-0.9,1.5-1.9,2.1-2.9C52.8,54.7,55.6,52,58.3,49.2z M36.5,33.5
			C43,32.2,53.8,26,52,18.5c-2,8.1-10.7,13.4-18.7,12C34.6,31.3,35.7,32.3,36.5,33.5z M50.5,16.9c0.6-1.3-2.7-3-3.5-3.4
			c-1.4-0.8-3.1-0.9-4.6-0.3c0,0,0,0,0,0.1c-2,6.6-9,11.9-16,11.1c-0.1,0-0.2,0-0.4,0h-0.3c-0.3-0.1-0.5-0.3-0.4-0.6
			c0-0.1,0.1-0.2,0.1-0.2c0,0,0-0.1,0-0.1c1.4-3.5,3-6.9,4.9-10.2c0.5-0.8,2-2.7,1.9-3.7c-0.2-2-2.1-3.3-3.8-3.6
			c-1.9-0.4-5.9-1.3-7.7,0.3c0,0,0,0.1,0,0.1c-1.9,10.8-5.3,21.2-10.1,31c-1,2-4,6-3.5,8.1s5.1,4,7.2,4.5c4.1,0.9,3.8-2.4,4.7-5.8
			c0.9-3.1,1.6-6.2,2.7-9.2c0.1-0.3,0.4-0.5,0.7-0.5c0.1-0.1,0.3-0.2,0.5-0.2c9.7-0.1,7.7,14.7,4,19.9c1.6,0.9,3.2,1.6,4.8,2.2
			c2.6,0.8,5.5-0.1,7.1-2.2c1.3-1.9,0.6-6.6,0.2-8.8c-0.9-4.7-3.3-12.1-8.1-14.1c-0.6-0.3-0.5-1.1,0-1.4c-0.2-0.3-0.1-0.9,0.4-0.9
			c9.1,1.1,15.8-2.8,19.1-11.2C50.4,17.5,50.4,17.2,50.5,16.9L50.5,16.9z M43.2,54.2c0.1-4.5-0.9-8.9-3-12.9c1,3.2,1.3,6.6,1.1,10
			c-0.3,2.7-0.9,6.7-3.8,7.7c-3.5,1.1-8.9-1.8-11.6-3.8l-0.1-0.1c0,0.5,0,1,0.1,1.5c0.9,1.9,3.4,2.9,5.2,3.5s4.3,1.5,6.2,1.3
			C42.7,60.7,43.1,57.7,43.2,54.2z M32.8,16.2c1.3-1.9,2.8-3.5,2.2-6.2c-0.1-0.6-0.4-1.2-0.8-1.8c-0.1,1.1-0.4,2.1-0.9,3.1
			c-1.8,4-4.2,7.7-5.9,11.8c0.2,0,0.5-0.1,0.7-0.1L32.8,16.2z M28,40.8c-0.5-2.6-2.4-4.6-5-5.2c-0.8,4.6-1.9,9.1-3.4,13.5
			c-0.5,1.4-0.6,2.6-2.1,3.1C15.1,53,6.9,49.3,5.3,47c0.1,2.7,3.4,4.1,5.7,5.1c1.2,0.7,2.5,1.2,3.8,1.6c2.6,0.3,5.2-0.8,6.7-3
			c1.6-2.6,1.6-6.1,1.7-9c-0.1-0.9,0.1-1.9,0.7-2.7c-0.1-0.2,0-0.5,0.3-0.5C25.7,38.8,27.1,39.6,28,40.8z"/>
		<path class="st2" d="M103.9,48.2c2,2.7,2.7,6,1.9,9.3c-0.8,3.4-2.7,4.9-6.3,4.3c-2.7-0.5-4.7-1.4-6.1-3.9c-0.8-1.4-2.1-3.2-4-2.6
			c-0.6,0.2-1.2,0.6-1.5,1.3c-0.2-0.8-0.2-1.7,0.1-2.5c0.1,0,0.2-0.1,0.2-0.1c1.1-1.3,3.1-2,4.5-0.6s0.6,1.8,1,3
			c0.2,1.1,0.9,2.2,1.8,2.9c1.5,1.2,3.5,1.6,5.3,1.2c0.2,0.2,0.5,0.3,0.8,0.1C105.9,57.8,106.2,52.3,103.9,48.2z"/>
		<path class="st3" d="M100.9,46.7c3.9,3.8,3.6,8.8,0.2,12.6c-1,0.1-2,0-2.9-0.3c-2.4-0.8-2.3-2.2-3.1-4.4c-0.2-0.9-0.7-1.8-1.4-2.4
			c-1.5-1.3-3.7-1.3-5.2,0c-0.1,0-0.3,0-0.3,0.1c-4.6,4.7,2.2,9.3,5.3,12.1c5.5,4.9,4.9,13.1-1.8,16.9c-5.2,3-21.2,1.3-19-8.2
			c0-0.1,0-0.2,0-0.3c2.3-1.2,4.1-3,5.3-5.3c1,0.2,2,0.6,3,1.1c-0.4,1.5,0.4,3,1.8,3.5c1.2,0.4,2.6-0.2,3-1.5
			c1.4-0.9,0.9-3.2,0.3-4.7c-1.7-4.6-6.7-8-5.3-13.5c0.1-0.2,0-0.4-0.2-0.5c1.7,0.1,3.4-0.9,4.1-2.5c0.7-1.4,1.2-2.9,1.2-4.5
			c0.2,0,0.3-0.1,0.4-0.2c0.8-1.5,5.8-1.4,7.2-1.3C96.3,43.7,98.9,44.8,100.9,46.7z"/>
		<path class="st2" d="M98.7,71.9c0.4,1.9,0.4,3.9-0.1,5.8c-1.2,5.1-5.4,7.3-10.3,7.5c-4,0.3-8-0.8-11.3-2.9
			c5.3,2.2,12.9,1.9,16.5-0.6C96.7,79.5,98.7,75.8,98.7,71.9z"/>
		<path class="st3" d="M78.5,36.3c2.7,1.7,5.8,8.3,2.1,10.7c0,0-0.1,0-0.1,0.1c-1.3,0-2.5-0.1-3.8-0.5c-1.1-0.4-1.1-0.5-1.6-1.5
			c-0.3-0.9-0.9-1.7-1.6-2.3c-1.7-1.1-3.9-0.5-5,1.1c0,0,0,0,0,0c-0.1,0.2-0.1,0.4,0,0.5c-1.6,3.8,4,6.9,5.8,9.7
			c4.3,6.5-0.5,12.1-6.7,14.3s-12,0.2-15.5-5.2c1.3-1.6,2.4-3.6,3.3-4.6c0.8-0.9,1.6-1.7,2.5-2.5c0,0,0.1,0,0.2,0
			c0.9,0,1.8,0,2.8,0.1c0.7,0.1,0.6,0.1,0.8,0.7c0.1,0.4,0.2,0.9,0.3,1.3c0.3,1.1,1.3,1.8,2.5,1.6c0.2-0.1,0.4-0.3,0.3-0.5
			c0,0,0,0,0,0c1.5-0.4,2.4-1.8,2.2-3.3c-0.3-2.3-2.3-3.8-4.3-4.8c1.7-2.3,2.6-4.8,1.3-7.5c0-0.2-0.1-0.5-0.2-0.7
			c-0.4-0.9-1-1.6-1.7-2.1c0.2-1.3,1-2.4,2.2-3c0.2-0.1,0.3-0.3,0.2-0.5c1.5-0.5,2.8-1.5,3.5-3C71.5,34.4,75.3,34.2,78.5,36.3z"/>
		<path class="st2" d="M77.6,60.2c2.5,7.7-5.8,13.7-13,13.4c-6.1-0.3-11-3.4-14.7-8.2c0.5-0.3,1-0.6,1.4-1c4.9,8,15.4,8.3,22.5,2.6
			C76,65.4,77.4,62.9,77.6,60.2z"/>
		<path class="st2" d="M66.2,28.8c0.9,0.9,1.4,2,1.4,3.3c-0.1,2.3-1.8,4.2-4,4.6c-3,0.6-8.5-1-8.1-4.4c1.2,1.6,3,2.5,5,2.6
			c2.9,0.3,5.5-1.7,5.8-4.6c0-0.1,0-0.1,0-0.2C66.3,29.7,66.3,29.2,66.2,28.8z"/>
		<path class="st2" d="M62.9,46.8l0.3-0.5c-0.2,2-0.9,3.8-2.2,5.3c-0.9,1-2,1.8-2.9,2.8c-1.8,1.7-3.5,3.6-5,5.6
			c-1.7,2.1-3.1,4.2-6.2,4.4c-1.7,0.1-4.5-1.4-6.7-2.4c0.5-0.2,0.9-0.4,1.3-0.7c2,0.8,4.4,2.6,6.5,1.7c2.8-1.2,4.8-5.5,6.8-7.7
			C57.5,52.4,60.8,49.9,62.9,46.8z"/>
		<path class="st3" d="M62.3,26.4c1.9,0.5,3.1,2.4,2.6,4.4s-2.4,3.1-4.4,2.6c-2.6-0.2-5.3-2.2-3.2-4.9
			C58.6,27.1,60.4,26.3,62.3,26.4z"/>
		<path class="st3" d="M60,42c2.6,2.8,0.3,5.2-1.7,7.3c-2.7,2.8-5.5,5.4-8,8.5c-0.6,1-1.3,2-2.1,2.9c-2,1.5-3.7,0.5-5.7-0.3
			c1.8-2.1,1.9-5.4,1.7-8.2l0.1-0.1c1.7-4.3,2.9-14.8,10.2-13.4C56.5,39.4,58.4,40.5,60,42z"/>
		<path class="st2" d="M52,18.5c1.8,7.5-9,13.8-15.5,15c-0.9-1.2-2-2.2-3.2-3C41.4,31.9,50.1,26.6,52,18.5z"/>
		<path class="st3" d="M47,13.5c0.9,0.4,4.1,2.1,3.5,3.4c-0.1,0.2-0.1,0.5,0,0.8c-3.3,8.4-10,12.3-19.1,11.2
			c-0.5-0.1-0.6,0.5-0.4,0.9c-0.5,0.4-0.6,1.2,0,1.4c4.8,2,7.2,9.4,8.1,14.1c0.4,2.2,1.1,6.8-0.2,8.8c-1.7,2.2-4.5,3.1-7.1,2.2
			c-1.7-0.6-3.3-1.3-4.8-2.2c3.7-5.2,5.6-20-4-19.9c-0.2,0-0.4,0.1-0.5,0.2c-0.3,0-0.6,0.2-0.7,0.5c-1.1,3-1.9,6.1-2.7,9.2
			c-0.9,3.4-0.6,6.7-4.7,5.8c-2.2-0.5-6.7-2.3-7.2-4.5s2.5-6.1,3.5-8.1c4.8-9.8,8.2-20.2,10.1-31c0,0,0-0.1,0-0.1
			c1.8-1.5,5.7-0.7,7.7-0.3c1.7,0.3,3.6,1.6,3.8,3.6c0.1,0.9-1.5,2.9-1.9,3.7c-1.9,3.3-3.5,6.7-4.9,10.2c0,0,0,0.1,0,0.1
			c-0.2,0.2-0.2,0.5,0.1,0.7c0.1,0.1,0.1,0.1,0.2,0.1h0.3c0.1,0,0.2,0,0.4,0c7,0.8,14-4.5,16-11.1c0,0,0,0,0-0.1
			C43.9,12.6,45.6,12.7,47,13.5z"/>
		<path class="st2" d="M40.1,41.3c2.1,4,3.1,8.4,3,12.9c-0.1,3.5-0.4,6.5-5.9,7.2c-1.9,0.2-4.4-0.8-6.2-1.3s-4.3-1.6-5.2-3.5
			c-0.1-0.5-0.1-1-0.1-1.5l0.1,0.1c2.7,2,8,4.9,11.6,3.8c2.9-1,3.5-5,3.8-7.6C41.5,47.9,41.1,44.5,40.1,41.3z"/>
		<path class="st2" d="M35,10c0.6,2.6-1,4.3-2.2,6.1L28.1,23c-0.2,0-0.5,0.1-0.7,0.1c1.8-4.1,4.1-7.8,5.9-11.8c0.5-1,0.8-2,0.9-3.1
			C34.6,8.8,34.9,9.4,35,10z"/>
		<path class="st2" d="M23,35.6c2.6,0.6,4.5,2.6,5,5.2c-0.9-1.2-2.3-2-3.8-2.2c-0.3,0-0.4,0.3-0.3,0.5c-0.5,0.8-0.8,1.7-0.7,2.7
			c-0.1,3,0,6.4-1.7,9c-1.5,2.2-4.1,3.3-6.7,3c-1.3-0.4-2.6-1-3.8-1.6c-2.3-1-5.6-2.4-5.7-5.2c1.6,2.3,9.8,6,12.2,5.2
			c1.5-0.5,1.6-1.6,2.1-3.1C21.1,44.7,22.2,40.2,23,35.6z"/>
	</g>
</g>
</svg>
