<?xml version="1.0" encoding="utf-8"?>
<!-- Generator: Adobe Illustrator 23.0.1, SVG Export Plug-In . SVG Version: 6.00 Build 0)  -->
<svg version="1.1" id="Camada_1" xmlns="http://www.w3.org/2000/svg" xmlns:xlink="http://www.w3.org/1999/xlink" x="0px" y="0px"
	 viewBox="0 0 40.7 79.3" style="enable-background:new 0 0 40.7 79.3;" xml:space="preserve">
<style type="text/css">
	.st0{fill:#FFFFFF;}
	.st1{fill:#222221;}
	.st2{fill:#D36EA1;}
</style>
<title>Ativo 5</title>
<g>
	<g id="OBJECTS">
		<path class="st0" d="M40,73c-3.7-6-5.3-13.7-7.6-20.4c-2-5.8-3.7-11.6-5.8-17.3c1.4-0.5,2.4-1.6,2.9-3c0.4-1.6-0.1-3.3-1.3-4.3
			c5.2-3.5,8.6-8.8,6.7-16.1C32.6,3,22.9-1.5,14.4,0.4C5.1,2.6-2.6,11.6,0.8,21.2C2.7,26.4,8,31.6,13.6,32.7c0,0,0,0.1,0,0.1
			c-0.3,2.3,0.6,4.6,3,5.3c0.5,0.1,0.9,0.2,1.4,0.1c2,6.2,4.3,12.4,6.3,18.6c2.3,6.8,4,14.6,8.1,20.6C35.5,82,42.9,77.8,40,73z"/>
		<path class="st1" d="M38.1,72.9c0.1,0.2,0,0.4-0.2,0.5c-0.7,1.5-3.1,2.3-4.4,1.1c-0.2,0-0.3-0.1-0.4-0.3
			c-2.3-6.8-4.4-13.8-6.6-20.6c-2.1-6.6-5-13.3-6.4-20.2c-0.6,0.6-1.5,0.6-2.2,0.2c-1.7-1-1.2-2.9-0.3-4.3c-6.9,0.3-13-4.3-14.6-11
			c-1.9-8,3.9-14.1,11.4-15.7C22.2,1,30.3,4.9,32.3,12.9c1.8,7-2.5,12.5-8.5,15.2c1.2,0.9,2.3,2.5,1.1,3.8c-0.1,0.2-0.3,0.3-0.5,0.4
			l0,0C29.6,45.6,33.5,59.4,38.1,72.9z M34.1,74.1c1.1,0.4,2.3-0.1,2.9-1.1c-4.4-13.4-9.5-26.8-13.3-40.4l0,0c-0.3,0-0.7,0-1-0.1
			c-0.6-0.2-1-0.7-1.3-1.2c-0.2,0.7-0.5,1.4-1,1.9c2.9,6.1,4.6,12.9,6.7,19.3C29.5,59.6,31.9,66.8,34.1,74.1
			C34.1,74,34,74,34.1,74.1L34.1,74.1z M21.5,28c6.7-2.3,11.9-8,9.6-15.5c-2.1-6.9-8.9-10.2-15.7-9.1C7.9,4.7,1.8,10.8,4,18.8
			S14,29.4,21.5,28L21.5,28z M24.1,31.1c0.6-1-0.8-2-1.5-2.5l0,0L21.8,29c-0.2,0.1-0.4,0-0.5-0.2c0,0,0,0,0,0
			c-0.8,0.3-1.7,0.5-2.6,0.6c-0.5,1-1.4,2.3-0.4,3.3c0.6,0.6,1.4,0,1.8-0.6c0.2-0.5,0.4-1.1,0.6-1.7c0.1-0.3,0.4-0.4,0.7-0.3
			c0.1,0,0.1,0.1,0.2,0.1h0.1C22,30.6,23.4,32.3,24.1,31.1L24.1,31.1z"/>
		<path class="st0" d="M37,73c-0.6,1-1.9,1.5-3,1.1c0,0,0,0,0-0.1c-2.2-7.2-4.6-14.4-6.9-21.5c-2.1-6.4-3.8-13.2-6.7-19.3
			c0.5-0.6,0.8-1.2,1-1.9c0.3,0.5,0.7,1,1.3,1.2c0.3,0.1,0.7,0.2,1,0.1l0,0C27.5,46.2,32.6,59.5,37,73z"/>
		<path class="st2" d="M31.1,12.5c2.3,7.5-2.9,13.2-9.6,15.5h-0.1C14,29.4,6.3,26.8,4,18.8S7.9,4.7,15.4,3.5
			C22.2,2.3,29.1,5.7,31.1,12.5z M22.8,24.3c4.6-2,7.1-7,5.9-11.9c-0.1-0.7-1.2-0.4-1.1,0.3c1.3,5.9-2.9,10.8-8.6,11.5
			c-4.2,0.5-7.9-1.2-11.1-3.7c-0.3-0.2-0.6,0.2-0.4,0.5C11.6,24.9,17.4,26.7,22.8,24.3z M22.5,16.1c0.7-0.4,1.1-1.2,0.7-2
			c-0.1-0.2-0.3-0.5-0.5-0.6c-0.3-0.2-0.7-0.2-1.1,0c-0.1,0-0.2-0.1-0.4-0.1c-0.5,0.1-0.9,0.5-1,1c-0.1,0.9,0.5,1.7,1.4,1.8
			C21.9,16.2,22.2,16.2,22.5,16.1z M16.2,17.6c0.6-0.6,0.5-1.6-0.1-2.1c-0.2-0.2-0.4-0.3-0.7-0.3c-1-0.2-2.3,0.8-1.9,1.9
			c0,0.1,0.1,0.1,0.1,0.2c0,0,0,0.1,0,0.1c0.3,0.8,1.1,1.1,1.9,0.8C15.8,18.1,16,17.9,16.2,17.6z"/>
		<path class="st1" d="M28.7,12.5c1.2,4.9-1.4,9.9-5.9,11.9c-5.3,2.4-11.2,0.6-15.3-3.2c-0.2-0.2,0.1-0.7,0.4-0.5
			c3.3,2.5,6.9,4.2,11.2,3.7c5.8-0.7,9.9-5.6,8.6-11.5C27.5,12.1,28.5,11.8,28.7,12.5z"/>
		<path class="st2" d="M22.6,28.7c0.7,0.5,2.1,1.4,1.5,2.5c-0.7,1.2-2.1-0.5-2.5-1h-0.1c-0.2-0.2-0.6-0.2-0.8,0
			c-0.1,0.1-0.1,0.1-0.1,0.2c-0.1,0.6-0.3,1.1-0.6,1.6c-0.3,0.6-1.1,1.2-1.8,0.6c-1-0.9-0.1-2.3,0.4-3.3c0.9-0.1,1.7-0.3,2.6-0.6
			c0.1,0.2,0.3,0.3,0.5,0.3c0,0,0,0,0,0L22.6,28.7C22.5,28.6,22.6,28.6,22.6,28.7z"/>
		<path class="st1" d="M22.7,13.5c0.7,0.5,0.9,1.4,0.4,2.1c-0.1,0.2-0.4,0.4-0.6,0.5c-0.8,0.4-1.8,0-2.1-0.8
			c-0.1-0.3-0.2-0.5-0.1-0.8c0-0.5,0.4-0.9,1-1c0.1,0,0.2,0,0.4,0.1C21.9,13.4,22.3,13.3,22.7,13.5z"/>
		<path class="st1" d="M15.4,15.2c0.8,0.2,1.3,1,1.1,1.8c-0.1,0.2-0.2,0.5-0.3,0.7c-0.5,0.7-1.4,0.8-2,0.4c-0.2-0.2-0.4-0.4-0.5-0.7
			c0,0,0-0.1,0-0.1c0-0.1-0.1-0.1-0.1-0.2C13.1,16,14.4,15,15.4,15.2z"/>
	</g>
</g>
</svg>
