<?xml version="1.0" encoding="utf-8"?>
<!-- Generator: Adobe Illustrator 23.0.1, SVG Export Plug-In . SVG Version: 6.00 Build 0)  -->
<svg version="1.1" id="Camada_1" xmlns="http://www.w3.org/2000/svg" xmlns:xlink="http://www.w3.org/1999/xlink" x="0px" y="0px"
	 viewBox="0 0 75.5 65.2" style="enable-background:new 0 0 75.5 65.2;" xml:space="preserve">
<style type="text/css">
	.st0{fill:#FFFFFF;}
	.st1{fill:#222221;}
	.st2{fill:#845F34;}
</style>
<title>Ativo 11</title>
<g>
	<g id="OBJECTS">
		<path class="st0" d="M65.7,37.6c0.5-4.7-2.5-9-7.1-10.1c-0.5-0.1-1.1-0.2-1.6-0.2c-0.7-1.5-1.6-2.8-2.7-3.9c0.3-0.4,0.6-0.7,0.9-1
			c1.3,1.5,3.3,2.2,5.2,1.8c2.7-0.5,4.4-3,4-5.7c0-0.2-0.1-0.4-0.2-0.7c-0.4-1.2-1.2-2.3-2.3-2.9c0.1-0.1,0.2-0.2,0.4-0.3
			c0.4-0.3,0.8-0.5,1.2-0.6c1.7,1.7,4,2.5,6.3,2.2c3.6-0.4,6.1-3.7,5.7-7.3c-0.1-1-0.5-2-1.1-2.9c-0.9-1.4-2.1-2.4-3.6-3.1
			c-0.2-0.6-0.6-1.2-1.1-1.6l-0.3-0.2c-1.8-1.6-4.5-1.5-6.1,0.3c-0.1,0.1-0.1,0.1-0.2,0.2H63c-1.8-0.2-3.6,1.5-4,3.1
			c-0.2,0.8-0.2,1.7,0.1,2.4c-2.2,1-3.9,2.7-5.1,4.8c-0.5,1.1-0.9,2.3-0.9,3.5c-1.6,1-2.9,2.5-3.7,4.2c-3.2-1.7-6.8-2.8-10.4-3.1
			c-3.2-0.3-5,4.3-2.6,6.3c1.8,1.6-0.9,2.2-2.2,2.7c-0.1-4.1-4-8-8.4-9.1c-0.5-1.5-1.5-2.7-2.9-3.6c-1.2-0.8-2.6-1.4-4-1.7
			c0.3-1.5-0.3-3-1.5-3.9c-0.9-0.8-2.1-1.3-3.3-1.3c-1.6-2.1-4-3-7.1-1.2C5.3,5.9,4.3,7.6,4.2,9.5c-3.6,1.6-5.8,5.4-2.7,9.6
			c2,2.7,5.9,3.6,9.1,2.7c1.5-0.5,2.2-1.5,3.3-2.3c1.4-1,0.1-0.8,1.8-1c0.6,0,1.3,0.1,1.9,0.2c-0.5,0.5-0.9,1.1-1.3,1.7
			c-1.5,2.6,1.1,6.7,4.2,5.5c1.3-0.5,2.4-1.3,3.4-2.3c1.9,0,4.9,3,3,5.5c-0.4,0.5-0.5,1.3-0.2,1.9c-1.4,0.9-2.5,2.2-3.3,3.6
			c-0.5,1-0.8,2.1-0.9,3.2c-6.8,1.3-8.6,12.2-5,17.9c6.6,10.4,22.1,10.1,32.8,8.8c8.9-1.1,24.5-4,25-15.6
			C75.5,44,70.7,39.4,65.7,37.6z"/>
		<path class="st1" d="M69.3,6.5c0.3,2-2.1,3.2-3.7,2.1c-0.5-0.3-0.7-0.8-0.7-1.3c-0.6,0.1-1.2,0-1.7-0.4c-0.6-0.5-0.8-1.3-0.4-2
			c0.2-0.3,0.6-0.6,1-0.6c0-0.1,0-0.1,0-0.2c0.4-1.2,1.6-1.9,2.8-1.5c0.1,0,0.2,0.1,0.3,0.1c0.8,0.5,1.3,1.4,1.3,2.3
			C68.8,5.2,69.2,5.8,69.3,6.5z M67.1,4.9c0.1-0.6-0.1-1.2-0.7-1.5c-0.8-0.3-1.7,0-2.1,0.8h0.3c0.6,0.2,1.1,0.6,1.5,1.1
			c0.2-0.1,0.4-0.2,0.6-0.3C66.8,5,67,4.9,67.1,4.9z M65.2,6.3c0.1-0.2,0.2-0.3,0.3-0.4c-0.5-0.6-1.1-1.1-1.8-0.7
			c-0.4,0.3-0.2,0.8,0.2,1.1C64.3,6.4,64.7,6.5,65.2,6.3C65.2,6.3,65.2,6.3,65.2,6.3z"/>
		<path class="st1" d="M61.3,38.4c5.6,3.2,11.4,8.9,6.4,15.3s-16.6,7-24,7.4c-7.8,0.5-18.8,0.5-23.4-7.1c-3.7-6,0-12.8,5.6-16
			c0,0,0.1,0,0.1,0c1.2-3.6,4.2-6.8,7.8-7.3c0.4-0.9,1.1-1.7,1.8-2.3c3.3-2.7,8-2.8,5.5-8.5c-0.1-0.3,0.2-0.7,0.5-0.6
			c0.1-0.1,0.2-0.1,0.4-0.1c4.8,1.3,10.5,4.9,12.8,9.5c0.4,0.8,0.6,1.6,0.7,2.5C58.8,31.8,61.1,35.1,61.3,38.4L61.3,38.4z
			 M61.6,56.3c4.4-2,7.8-6,5.4-10.9c-1.2-2.5-3.6-4-5.9-5.4c-0.1,0.4-0.2,0.8-0.3,1.1c-0.1,0.3-0.4,0.5-0.7,0.4
			c-0.3-0.1-0.5-0.4-0.4-0.7c0.7-4-0.8-6.6-4.1-8.5c0.1,2.6-1.5,4.9-3.9,5.8c-0.7,0.3-1-0.8-0.3-1.1c5.9-2.4,2-9-1.2-11.7
			c-2.4-1.9-5-3.6-7.9-4.8c1,1.7,1.3,3.5-0.1,5.2c-1,1.1-2.2,1.9-3.5,2.4c-2.8,1.5-4.3,3.1-4.7,6.3c0,0.3-0.2,0.5-0.5,0.5
			s-0.5-0.2-0.5-0.5c0-0.8,0.1-1.6,0.3-2.4c-1.8,0.9-3.4,2.2-4.7,3.8c-1.3,2-2,4.3-2,6.7c0,0.6-1,0.8-1.1,0.2
			c-0.2-1.1-0.1-2.2,0.2-3.3c-6.2,5.2-7.9,13.8,0.3,18.3c5.1,2.8,12,2.6,17.7,2.2S56.3,58.7,61.6,56.3z"/>
		<path class="st2" d="M67,45.4c2.4,4.9-1,8.9-5.4,10.9c-5.3,2.4-12.2,3.2-18,3.5S31.1,60.4,26,57.6c-8.2-4.5-6.5-13.1-0.3-18.3
			c-0.3,1.1-0.3,2.2-0.2,3.3c0.1,0.7,1.1,0.5,1.1-0.2c0-2.4,0.7-4.7,2-6.7c1.2-1.6,2.9-2.9,4.7-3.8c-0.2,0.8-0.3,1.6-0.3,2.4
			c0,0.3,0.2,0.5,0.5,0.5s0.5-0.2,0.5-0.5c0.3-3.3,1.9-4.9,4.7-6.3c1.3-0.5,2.6-1.4,3.5-2.4c1.4-1.8,1.1-3.6,0.1-5.2
			c2.8,1.2,5.5,2.8,7.9,4.8c3.1,2.7,7,9.3,1.2,11.7c-0.7,0.3-0.4,1.4,0.3,1.1c2.4-0.9,4-3.2,3.9-5.8c3.2,1.9,4.8,4.4,4.1,8.5
			c-0.1,0.3,0.1,0.7,0.4,0.7c0.3,0.1,0.7-0.1,0.7-0.4c0.1-0.3,0.2-0.7,0.3-1.1C63.5,41.4,65.8,42.8,67,45.4z M58.8,53.8
			c0.6-0.6,0.7-1.5,0.2-2.2c-0.2-0.2-0.4-0.4-0.7-0.5H58c-0.2-0.1-0.3-0.2-0.5-0.2c-0.4,0-0.7,0.2-1,0.4c-0.5,0.4-0.7,1-0.6,1.6
			c0.2,0.9,1.1,1.5,2,1.3C58.3,54.2,58.6,54.1,58.8,53.8L58.8,53.8z M48.6,56c1.6-0.6,2.4-2.4,1.7-4c-0.1-0.2-0.2-0.4-0.3-0.5
			c-0.3-0.4-1,0-0.8,0.5c0.4,1.1,0.3,2.5-1,3.1s-2.3-0.4-2.8-1.5c0.1-0.3,0.1-0.5,0.1-0.8c0-0.3-0.5-0.5-0.7-0.2s-0.2,0.4-0.2,0.6
			c0,0,0,0,0,0.1s0,0,0,0c-0.2,1-0.8,1.9-1.7,2.4c-1.7,0.7-2.7-1.4-1.4-2.5c0.3-0.3-0.1-0.8-0.4-0.6c-1.1,0.7-1.4,2-0.7,3.1
			c0.3,0.5,0.7,0.8,1.2,1c1.5,0.5,2.7-0.6,3.3-1.8C45.8,55.9,47.3,56.4,48.6,56z M33.8,54.2c0.8-0.8,0.8-2,0-2.7
			c-0.1-0.1-0.2-0.2-0.3-0.3c-0.5-0.3-1.2-0.3-1.7,0.1c-0.8,0.4-1.3,1.4-1,2.2c0.4,1,1.5,1.4,2.5,1C33.5,54.4,33.7,54.3,33.8,54.2z"
			/>
		<path class="st0" d="M66.4,3.5c0.5,0.3,0.8,0.9,0.7,1.5C67,4.9,66.8,5,66.7,5c-0.2,0-0.4,0.1-0.6,0.3c-0.4-0.5-0.9-0.9-1.5-1.1
			h-0.3C64.7,3.5,65.6,3.1,66.4,3.5z"/>
		<path class="st0" d="M65.5,5.8c-0.1,0.1-0.2,0.3-0.3,0.4c0,0,0,0,0,0.1c-0.4,0.1-0.9,0.1-1.3-0.1c-0.4-0.2-0.6-0.8-0.2-1.1
			C64.4,4.7,65,5.3,65.5,5.8z"/>
		<path class="st1" d="M64.3,9c0.2,0,0.4,0.2,0.4,0.4c0,0.2-0.2,0.4-0.4,0.4c-2.7,0.1-5.2,1.2-7,3.2c-1,1-1.5,2.4-1.3,3.9
			c0.1,0,0.2-0.1,0.3-0.1c1.4-0.5,2.9-0.4,4.2,0.2c0.9,0.4,1.2,1.2,0.5,1.9c0,0.1,0,0.2,0,0.3c-1.7,2.1-4,1.1-5.2-0.7
			c-0.2,0.1-0.4,0.3-0.6,0.5c-1.1,1.2-1.6,2.9-1.2,4.5c0.1,0.7-1,0.8-1.2,0.1c-0.6-2.4,0.5-4.9,2.5-6.2c-0.2-0.4-0.2-0.9-0.2-1.4
			C55.2,11.4,60.3,8.6,64.3,9z M60.5,18.6c0.4-1.3-2.4-1.1-3-1c-0.4,0.1-0.8,0.2-1.1,0.4c0.8,1.3,2.4,1.7,3.7,1
			C60.3,18.9,60.4,18.8,60.5,18.6C60.5,18.7,60.5,18.6,60.5,18.6L60.5,18.6z"/>
		<path class="st1" d="M58.2,51.2c0.8,0.2,1.3,1.1,1,1.9c-0.1,0.3-0.2,0.5-0.5,0.7c-0.6,0.7-1.7,0.7-2.4,0c-0.2-0.2-0.4-0.5-0.5-0.8
			c-0.1-0.6,0.1-1.2,0.5-1.6c0.3-0.2,0.6-0.4,1-0.4c0.2,0,0.4,0.1,0.5,0.2L58.2,51.2z"/>
		<path class="st1" d="M50.1,51.5c0.9,1.4,0.5,3.3-0.9,4.3c-0.2,0.1-0.3,0.2-0.5,0.3c-1.4,0.4-2.8-0.1-3.6-1.3
			c-0.7,1.3-1.8,2.3-3.3,1.8c-1.2-0.4-1.9-1.6-1.5-2.8c0.2-0.5,0.5-1,1-1.2c0.3-0.2,0.8,0.3,0.4,0.6c-1.3,1.1-0.3,3.2,1.4,2.5
			c0.9-0.5,1.5-1.4,1.7-2.3l0,0c0,0,0,0,0-0.1c0.1-0.2,0.1-0.4,0.2-0.6s0.7-0.2,0.7,0.2c0,0.3-0.1,0.5-0.1,0.8
			c0.5,1.1,1.5,2,2.8,1.5s1.3-1.9,1-3.1C49.1,51.5,49.8,51.1,50.1,51.5z"/>
		<path class="st1" d="M33.5,51.2c0.9,0.6,1.2,1.8,0.6,2.7c-0.1,0.1-0.2,0.2-0.3,0.3c-0.8,0.7-2,0.6-2.7-0.1
			c-0.1-0.2-0.3-0.3-0.3-0.5c-0.3-0.9,0.1-1.8,1-2.2C32.3,50.9,32.9,50.9,33.5,51.2z"/>
		<path class="st1" d="M33,23.8c0.3,1.9-0.8,3.6-2,5c-0.5,0.5-1.3-0.2-1-0.7c1.1-1.9,2.3-3.8,0.6-5.8c-0.9-1.1-2.1-2-3.5-2.5
			c-0.6-0.2-1.2-0.3-1.9-0.2c0.2,1.6-0.7,3.1-2.2,3.8c-1.3,0.6-3.1,0.5-3.3-1c0-0.1-0.1-0.1-0.1-0.2c0-0.1,0-0.1,0-0.2l0,0
			c0-0.1,0.1-0.2,0.2-0.3c0.8-1.5,2.3-2.6,4-3v-0.1c-0.5-1.1-1.3-2-2.4-2.5c-2.2-1.2-5-0.8-6.9,0.9c-0.1,0.1-0.3,0.1-0.4,0
			c-0.1-0.1-0.1-0.3,0-0.4c3.1-3.3,9.1-2.4,10.8,1.9c1.4-0.1,2.8,0.2,4.1,0.9C30.6,20.1,32.6,21.8,33,23.8z M23.8,21.2
			c0.3-0.4,0.4-0.9,0.3-1.5c-1.4,0.4-2.6,1.2-3.5,2.3C21.2,23.6,23.4,21.7,23.8,21.2L23.8,21.2z"/>
		<path class="st1" d="M14.3,10.6c0.1,0.8-0.2,1.5-0.7,2.1c-0.4,0.4-0.9,0.7-1.4,1c0.1,0.4,0.1,0.7,0,1.1c-0.5,1.5-2,2.5-3.6,2.3
			c-0.8-0.1-1.6-0.6-2-1.3c-1-0.7-1.2-2-0.5-3c0.1-0.1,0.1-0.2,0.2-0.2c0.3-0.3,0.7-0.5,1.1-0.7c-0.7-1.4-0.2-3.1,1.2-3.8
			C8.7,8,8.9,7.9,9.1,7.9c0.7-0.2,1.5,0,2.1,0.5C12.6,8.1,14,9.1,14.3,10.6C14.3,10.5,14.3,10.5,14.3,10.6z M11.9,12.7
			c1.1-0.3,1.7-1.3,1.4-2.4c-0.3-0.7-1-1.2-1.8-1.3c0,0.1,0,0.2,0.1,0.3c-0.1,1-0.4,1.9-1,2.7c0.4,0.2,0.8,0.5,1.1,0.8L11.9,12.7z
			 M10.1,10.7c0.2-0.5,0.8-1.5,0.1-1.9C9.9,8.7,9.6,8.7,9.3,8.9c-1,0.3-1.5,1.4-1.2,2.3c0,0.1,0.1,0.3,0.2,0.4
			c0.5-0.1,0.9-0.1,1.4,0C9.8,11.3,10,11,10.1,10.7L10.1,10.7z"/>
		<path class="st0" d="M13.3,10.3c0.3,1.1-0.4,2.1-1.4,2.4h-0.2c-0.3-0.4-0.7-0.6-1.1-0.8c0.6-0.8,0.9-1.7,1-2.7
			c0-0.1,0-0.1-0.1-0.2C12.3,9.1,13,9.6,13.3,10.3z"/>
		<path class="st0" d="M10.2,8.8c0.7,0.4,0.1,1.4-0.1,1.9C10,11,9.8,11.3,9.6,11.6c-0.5-0.1-0.9-0.1-1.4,0c-0.5-0.9-0.2-2,0.7-2.6
			C9,9,9.2,8.9,9.3,8.9C9.6,8.8,9.9,8.7,10.2,8.8z"/>
	</g>
</g>
</svg>
