<?xml version="1.0" encoding="utf-8"?>
<!-- Generator: Adobe Illustrator 23.0.1, SVG Export Plug-In . SVG Version: 6.00 Build 0)  -->
<svg version="1.1" id="Camada_1" xmlns="http://www.w3.org/2000/svg" xmlns:xlink="http://www.w3.org/1999/xlink" x="0px" y="0px"
	 viewBox="0 0 60.6 90.6" style="enable-background:new 0 0 60.6 90.6;" xml:space="preserve">
<style type="text/css">
	.st0{fill:#FFFFFF;}
	.st1{fill:#222221;}
	.st2{fill:#D36EA1;}
	.st3{fill:#F8E689;}
</style>
<title>Ativo 8</title>
<g>
	<g id="OBJECTS">
		<path class="st0" d="M60.3,60.2c-5.5-15-10.2-30.8-17-45.3C37.3,2.4,24.8-3.6,11.7,2.3C-1.8,8.4-1.5,21.7,2.1,34
			c2.3,7.8,4.7,15.6,7.1,23.4c1.7,5.7,3,13.8,8.8,16.8c0.7,0.4,1.6,0.5,2.4,0.3c2.6,0.5,5.4-0.1,8.2-1c2,8.4,8.2,18.6,17.7,16.9
			c11.5-2,8-14.2,4.1-22.2c1.3-0.3,2.7-0.6,4.1-0.9c1-0.2,2-0.7,2.6-1.6C59.3,65.1,61.3,62.8,60.3,60.2z"/>
		<path class="st1" d="M53.9,60.3c0.1,0.4-0.1,0.8-0.5,0.9c-0.1,0-0.2,0-0.3,0c-0.1,0.2-0.2,0.3-0.4,0.4c-2.3,0.7-4.6,1.5-7,2.2l0,0
			C48,69.4,58.3,86.4,46,88.3c-9.8,1.5-12.9-13.7-13.9-20.7c-3.7,1-7.5,2-11.3,2.8c-0.2,0-0.4,0-0.5-0.2c-0.2,0.1-0.4,0-0.5-0.2
			C12.9,56.8,8.2,41.4,4.3,27C1.5,16.6,3.5,7.2,15.1,4.6c12-2.7,20.5,2.8,25.1,13.7C45.9,31.7,50,46.2,53.9,60.3z M52.3,60.3
			C52.3,60.3,52.4,60.3,52.3,60.3C49.2,49,45.6,37.7,41.7,26.6c-1.9-5.3-3.6-10.9-7.2-15.3c-4.6-5.6-11.4-6.7-18.2-5.5
			c-7,1.3-11.9,5.4-11.9,12.9c0,5.9,2.5,12.1,4.2,17.7c3.5,11.2,8.2,21.9,12,33.1C31,66,41.7,63,52.3,60.3z M50.7,81.6
			c0.4-1.9-1.1-4.6-1.8-6.4c-1.5-3.7-3-7.4-4.6-11.1l0,0c-3.8,1.1-7.7,2.2-11.5,3.3C35.1,73,35.4,80.8,40,85
			C43.9,88.5,49.7,86.8,50.7,81.6z"/>
		<path class="st2" d="M52.4,60.3C52.4,60.3,52.3,60.3,52.4,60.3C41.7,63,31,66,20.6,69.5c-3.7-11.1-8.5-21.8-12-33
			c-1.7-5.6-4.2-11.8-4.2-17.7c0-7.5,4.9-11.7,11.9-12.9c6.8-1.3,13.6-0.1,18.2,5.5c3.6,4.4,5.3,10,7.2,15.3
			C45.6,37.7,49.2,49,52.4,60.3z"/>
		<path class="st3" d="M48.9,75.2c0.7,1.8,2.2,4.4,1.8,6.4c-1,5.2-6.8,6.9-10.7,3.3c-4.6-4.2-4.9-12-7.2-17.6
			c3.8-1,7.7-2.2,11.5-3.3l0,0C45.9,67.8,47.4,71.5,48.9,75.2z"/>
	</g>
</g>
</svg>
