<?xml version="1.0" encoding="utf-8"?>
<!-- Generator: Adobe Illustrator 23.0.1, SVG Export Plug-In . SVG Version: 6.00 Build 0)  -->
<svg version="1.1" id="Camada_1" xmlns="http://www.w3.org/2000/svg" xmlns:xlink="http://www.w3.org/1999/xlink" x="0px" y="0px"
	 viewBox="0 0 87.5 104.5" style="enable-background:new 0 0 87.5 104.5;" xml:space="preserve">
<style type="text/css">
	.st0{fill:#FFFFFF;}
	.st1{fill:#222221;}
	.st2{fill:#F4D747;}
	.st3{fill:#5799A1;}
	.st4{fill:#87C1C5;}
</style>
<title>Ativo 16</title>
<g>
	<g id="OBJECTS">
		<path class="st0" d="M83,33.9c-0.6,0-1.2-0.1-1.7-0.1c2.7-5.8,2.7-12.6,1.6-19c-0.6-3.3-4.2-3.5-6.4-1.9C76.3,11.3,76,9.7,75.7,8
			c-0.7-3.6-5.5-3.6-7.1-0.9c-0.5-1.6-1.1-3.2-1.7-4.7c-1.1-2.4-5.2-2.3-6.3,0c-0.7,1.4-1.4,2.8-2.2,4.1C58,5.8,57.6,5,57.2,4.3
			c-0.7-1.2-2-1.9-3.3-1.7c-0.5-2.6-4.3-3.4-6.1-1.6c-1.5,1.5-2.9,3.1-4.1,4.8c-1.1-1-2.7-1.2-3.9-0.4c-0.1-2-1.8-3.4-3.8-3.3
			c-1.1,0.1-2.2,0.7-2.8,1.7c-0.6,0.8-1.1,1.6-1.5,2.5c-1.1-1.4-3.1-1.6-4.4-0.5C27.2,5.9,27.1,6,27,6.1c-0.1-0.2-0.2-0.4-0.3-0.6
			c-1.3-3.5-6.4-3.9-7.5,0c-0.4,1.4-0.7,2.9-0.9,4.4c-1.5-1.7-2.9-3.4-4.1-5.3c-1-1.7-3.2-2.2-4.8-1.1C8,4.2,7.4,5.7,7.8,7.2
			c0.7,4.1,1.8,8.1,3.4,12c-1.9-1.2-3.7-2.8-4-4.3c-0.8-4.1-7.2-3.1-7.2,1c0.2,8.7,4.4,16.8,11.4,22c-0.3,0.8-0.6,1.7-0.7,2.6
			c-0.5,4-0.1,8.3-0.1,12.3c0,2.9-0.7,6.8,1.4,9.2c0.8,0.8,1.8,1.4,2.8,1.7c2,0.8,1.4-0.2,1.2,2c-0.3,3.5-1.1,6.9-1.3,10.4
			c-0.3,6.7-0.3,13.9,4.6,19.2c4.1,4.4,10.1,6.4,15.9,7.5c8.2,1.5,16.5,2.1,24.7,1.7c5.8-0.3,12.8-0.4,16.3-5.9
			c3.7-5.8,1.5-14.9,1.3-21.3c-0.1-2.2-0.1-4.4-0.2-6.6c0-0.9,0-1.9,0-2.8c0-0.7,0.2-1.8,0.2-2.6c0.8,0,1.5-0.1,2.3-0.2
			c1.3-0.3,2.4-1,3.4-1.9c2.3-2.3,2.3-5.2,2.1-8.2c-0.1-5.1,0.5-10.2,1.8-15.2c0.6-2.4-0.9-4.9-3.3-5.5C83.7,34,83.3,33.9,83,33.9z"
			/>
		<path class="st1" d="M81.1,38.1c0.4-0.1,0.9,0.2,0.9,0.7c0,0.1,0,0.1,0,0.2c-0.4,4.2-0.9,8.3-1.3,12.5c-0.2,1.7-0.1,4.6-1.1,6.1
			c-0.7,0.8-1.5,1.5-2.5,1.8c0,0.1,0,0.1,0,0.2l-1.6,20.1c-0.3,4.4,0.1,10.2-2.3,14.2C68.7,101.1,55,99.4,48,99
			c-8.2-0.5-20.5-0.7-25.3-8.6S20,70,20.5,61c-1.4-0.2-2.7-0.5-4.1-0.9c-0.4-0.1-0.6-0.5-0.7-0.9c-0.5-6.7-1.1-13.3-1.2-20
			c0-0.3,0.2-0.6,0.5-0.6c0,0,0,0,0.1,0c0.1-0.1,0.3-0.2,0.4-0.2l5.3-0.2c-8.1-3.9-13.7-11.5-15-20.4c-0.1-0.3,0.1-0.6,0.4-0.7
			c0.2-0.1,0.5,0,0.6,0.2c3.7,3.6,7.5,7,11.6,10.2c-4.6-6-7.9-13-7.6-20.7c0-0.3,0.2-0.5,0.5-0.6c0.2,0,0.4,0.1,0.5,0.3
			c2.4,4.1,5.3,7.8,8.7,11.2c-0.8-3.8-0.5-7.8,1-11.5c0.1-0.3,0.5-0.4,0.7-0.3c0.1,0.1,0.2,0.2,0.3,0.3c1.2,3,3,5.8,5.2,8.1
			c0.3-2.1,0.7-4.1,1.3-6.1c0.1-0.3,0.5-0.5,0.8-0.4C29.9,7.8,30,8,30.1,8.2c0.4,1.3,0.9,2.7,1.3,4c0.6-2.8,2-5.4,4.1-7.5
			c0.2-0.2,0.5-0.2,0.7,0c0.1,0.1,0.1,0.2,0.1,0.3c0.1,2.4,0.9,4.7,2.2,6.6c0.9-1.3,1.8-2.6,2.9-3.8c0.2-0.2,0.5-0.2,0.7,0
			c0.1,0.1,0.1,0.2,0.1,0.3c0,1,0.1,2,0.2,3.1c1.4-3.3,3.6-6.2,6.5-8.3c0.2-0.2,0.5-0.2,0.7,0c0.1,0.1,0.1,0.2,0.1,0.3
			c0.2,3.4,1,6.7,2.2,9.8c0.7-2.1,1.2-4.2,1.5-6.3c0.1-0.5,0.8-0.5,1-0.1c1,1.9,1.9,3.8,2.6,5.9c2.7-1.9,5.1-4.3,7-6.9
			c0.1-0.3,0.5-0.4,0.7-0.2c0.1,0.1,0.2,0.2,0.3,0.3c1.3,3.4,2.6,7.5,2.3,11.2c0,0.1,0,0.2-0.1,0.3c-0.1,0.2-0.4,0.2-0.6,0.1
			c-0.1-0.1-0.2-0.2-0.2-0.3c-0.7-3.4-1.1-6.8-2.1-10.2c-2,2.4-4.4,4.5-7,6.3c0.8,2.5,1.3,5.1,1.4,7.8c0.8-2.4,1.4-4.8,1.8-7.2
			c0.1-0.3,0.4-0.5,0.7-0.4c0.1,0,0.2,0.1,0.3,0.2c1.7,1.7,2.4,4.6,2.6,7.3c1.2-1,2.3-2.1,3.3-3.4c1.8-2.2,3.3-4.7,4.3-7.4
			c0-0.3,0.3-0.5,0.6-0.5c0.3,0,0.4,0.2,0.5,0.5c1.3,4.5,1.5,9.3,0.6,13.9c1.8-2.2,3.5-4.4,5-6.8c0.2-0.3,0.6-0.4,0.9-0.2
			c0.1,0.1,0.2,0.2,0.3,0.4c2.6,8-2.1,14.7-7.4,20.2c2.7-0.1,5.3-0.1,7.9-0.2c0.5,0,0.8,0.3,0.8,0.8C81.1,38,81.1,38.1,81.1,38.1z
			 M80.3,39L80.3,39l-9.9,0.3c0,0.1-0.1,0.1-0.1,0.1c-0.2,0.3-0.6,0.3-0.9,0c0,0-0.1-0.1-0.1-0.1c-17.7,0.6-35.6,1.1-53.3,0.3
			c0.5,4.1,0.8,8.2,1.1,12.3c0.1,1.5-0.3,4.3,0.4,5.5c1.2,2.2,3.7,2,6,2.2c7.9,0.6,16,0.2,23.9,0c8.1-0.2,16.3-0.4,24.3-1.1
			c2-0.2,5.5-0.3,6.6-2.6c0.8-1.6,0.6-5.2,0.8-7.1C79.5,45.5,79.8,42.2,80.3,39L80.3,39z M70.3,37.5c5-5.2,10.1-11,8.5-18.6
			c-4.9,7.5-11.6,13.7-19.5,18l-0.4,0.8C62.7,37.6,66.5,37.5,70.3,37.5L70.3,37.5z M73,87.8c1.2-9.2,1.5-18.6,2.3-27.8
			c-3.7,0.9-8.5,0.5-11.1,0.7c-8.5,0.5-17.1,0.7-25.6,0.8c-5.5,0.1-11.2,0.4-16.7-0.3c0,8.1-1.5,17.7,1,25.4
			c3.2,9.9,16.4,10.2,25.1,10.7c4.3,0.3,8.5,0.2,12.8-0.1C67.3,96.7,72.1,94.9,73,87.8z M71.9,25.8c1.3-4.5,1.5-9.3,0.4-13.9
			c-1.8,4-4.5,7.4-8,10c0,1-0.1,2.1-0.2,3.1c-0.4,3.6-2.2,7.1-4,10.4C64.4,32.7,68.4,29.4,71.9,25.8L71.9,25.8z M63,23.3
			c0-0.2,0-0.4,0-0.5l0,0c-0.4,0.3-0.8-0.4-0.4-0.7l0.4-0.3c0.1-1.6-0.2-3.2-0.7-4.7c-1.5-3.3-1.4,1.5-1.9,3c-0.9,3-2.2,5.9-3.8,8.6
			c-1.6,2.8-5.4,6-6.3,9l7.2-0.1c0.1-0.2,0.2-0.5,0.3-0.7c0-0.1,0-0.2,0.1-0.2C60.2,32.5,62.9,28.2,63,23.3z M58.2,22.8
			c-0.2-0.1-0.4-0.3-0.4-0.5c-0.1-4.8-1.3-9.4-3.4-13.7c-1,4.7-2.7,9.2-5.1,13.3c0.8,4.7,1.1,9.4,0.8,14.1c1.1-2.5,3.9-4.8,5.2-7.1
			C56.4,26.9,57.4,24.9,58.2,22.8L58.2,22.8z M52,13.8c-0.2,0.1-0.5,0.1-0.7-0.1c0,0,0,0,0-0.1C50,10.6,49.2,7.5,49,4.3
			c-2.5,2.1-4.5,4.6-6,7.4c-0.1,0.2-0.3,0.2-0.5,0.1c0,0,0,0,0,0c0.4,3.1,1.2,6.1,2.3,8.9c0.3-2.9,0.5-5.8,0.7-8.7
			c0-0.3,0.3-0.6,0.6-0.6c0.3,0,0.5,0.2,0.6,0.4c1,2.9,1.8,5.9,2.4,8.9C50.2,18.4,51.1,16.1,52,13.8L52,13.8z M48.8,37.8
			c0.6-7.7-0.2-15.5-2.3-22.9c-0.6,7.8-1.1,15.8-4.4,23L48.8,37.8z M44.7,22c-0.3,0-0.5-0.1-0.6-0.3c-1.6-3.8-2.6-7.9-2.8-12.1
			c-3.2,3.9-5.4,8.5-6.4,13.4c1.7,5,3.9,9.8,6.6,14.3C43.2,32.4,44.3,27.2,44.7,22z M32.4,38l8-0.1c-2.5-4.1-4.6-8.5-6.2-13.1
			c-0.1,0-0.2-0.1-0.2-0.3c0-0.1,0-0.2,0-0.3c-1.6-4.5-3-9.2-4.4-13.7c-1.8,8.3-2.5,19.9,3.3,26.3c0.2,0.2,0.2,0.6,0,0.8
			C32.7,37.8,32.5,37.9,32.4,38c-0.1-0.1-0.2-0.1-0.3-0.2c-9-5.1-17.4-11.3-24.8-18.5c1.8,8.4,7.6,15.4,15.4,18.8
			C25.9,38.1,29.1,38,32.4,38z M37.9,12.6c-1.4-1.9-2.3-4.1-2.5-6.4c-1.7,2-3,4.3-3.7,6.8c0,0,0,0.1-0.1,0.1
			c0.9,2.8,1.8,5.7,2.7,8.5C35,18.4,36.2,15.4,37.9,12.6L37.9,12.6z M30.3,35.4c-1.9-3.4-3-7.2-3.1-11.2c-0.1,0.2-0.3,0.2-0.5,0.1
			c0,0,0,0,0,0c-5.8-4.3-10.8-9.7-14.7-15.9c0.4,8.1,4.6,14.2,9,20.7C23.9,31.4,27,33.5,30.3,35.4z M27.5,15.4
			c-0.1,0-0.2-0.1-0.3-0.1c-2.2-2.2-3.9-4.7-5.2-7.5c-1,3.3-1.3,6.8-0.9,10.2c0,0.1,0,0.2-0.1,0.2c1.9,1.9,4,3.8,6.1,5.6
			C27,20.9,27.1,18.1,27.5,15.4L27.5,15.4z"/>
		<path class="st2" d="M80.2,39L80.2,39c-0.4,3.3-0.7,6.5-1.1,9.8c-0.2,1.9,0,5.5-0.8,7.1c-1.2,2.2-4.6,2.4-6.6,2.6
			c-8,0.8-16.2,0.9-24.3,1.1c-7.9,0.2-16,0.7-23.9,0c-2.3-0.2-4.8,0-6-2.2c-0.7-1.2-0.3-4-0.4-5.5c-0.3-4.1-0.6-8.2-1.1-12.3
			c17.7,0.8,35.5,0.3,53.3-0.3c0.2,0.3,0.6,0.4,0.9,0.2c0,0,0.1-0.1,0.1-0.1c0.1,0,0.1-0.1,0.1-0.1L80.2,39z"/>
		<path class="st3" d="M78.8,18.9c1.6,7.5-3.5,13.4-8.5,18.6c-3.8,0.1-7.6,0.2-11.4,0.2l0.4-0.8C67.2,32.6,73.9,26.4,78.8,18.9z"/>
		<path class="st2" d="M75.2,60c-0.7,9.3-1.1,18.7-2.3,27.8c-0.9,7.1-5.7,8.8-12.2,9.3c-4.3,0.3-8.5,0.3-12.8,0.1
			c-8.7-0.5-21.9-0.8-25.1-10.7c-2.5-7.7-1-17.3-1-25.4c5.5,0.7,11.2,0.4,16.7,0.3c8.6-0.1,17.1-0.4,25.6-0.8
			C66.7,60.5,71.5,60.9,75.2,60z M66.3,77.1c1.2,0.6,2.6,0.1,3.2-1.1c0.3-0.5,0.3-1.1,0.2-1.7c-0.3-1.2-1.5-1.9-2.7-1.6
			c-0.7,0.2-1.3,0.7-1.5,1.4c-0.1,0.3-0.1,0.7-0.1,1C65.2,75.9,65.6,76.7,66.3,77.1z M49.9,86.1c7,0.1,11.6-6.6,11.4-13.2
			c-0.1-0.5-0.5-0.8-0.9-0.8c-0.4,0-0.7,0.4-0.8,0.8c-0.2,5.3-3.1,11.2-9.2,11.4c-6.9,0.3-8.5-5.7-8.6-11.4c0-0.6-1-0.8-1.1-0.2
			C39.7,79.3,42.4,85.9,49.9,86.1L49.9,86.1z M30.3,76.5c0.6-1.1,0.3-2.6-0.6-3.4c-1-0.9-2.5-0.7-3.4,0.3c-0.3,0.4-0.5,0.8-0.5,1.3
			c-0.1,0.1-0.1,0.2-0.1,0.3c-0.3,1.2,0.4,2.5,1.6,2.9C28.5,78.2,29.7,77.6,30.3,76.5L30.3,76.5z"/>
		<path class="st4" d="M72.3,11.9c1,4.6,0.9,9.4-0.4,13.9c-3.5,3.7-7.4,6.9-11.7,9.7c1.8-3.3,3.6-6.7,4-10.4
			c0.1-1.1,0.2-2.1,0.1-3.2C67.7,19.3,70.5,15.8,72.3,11.9z"/>
		<path class="st1" d="M69.8,74.3c0.3,1.3-0.5,2.6-1.7,2.9c-0.6,0.1-1.2,0.1-1.7-0.2c-0.8-0.4-1.1-1.3-0.9-2.1c-0.1-0.3,0-0.7,0.1-1
			c0.5-1.2,1.8-1.7,2.9-1.3C69.1,73,69.6,73.6,69.8,74.3L69.8,74.3z"/>
		<path class="st4" d="M67.3,17.2l0.2,0.2c-1,1.2-2.1,2.3-3.3,3.4c-0.2-2.8-0.9-5.6-2.6-7.3c-0.2-0.2-0.6-0.2-0.8,0
			c-0.1,0.1-0.1,0.2-0.2,0.3c-0.4,2.4-1,4.9-1.8,7.2c-0.2-2.6-0.6-5.3-1.4-7.8c2.6-1.7,5-3.8,7-6.3c1,3.4,1.4,6.7,2.1,10.2
			c0.1,0.2,0.3,0.4,0.5,0.3C67.2,17.4,67.3,17.3,67.3,17.2z"/>
		<path class="st3" d="M63,22.8c0,0.2,0,0.4,0,0.5c-0.1,4.9-2.8,9.2-5,13.5c-0.1,0.1-0.1,0.1-0.1,0.2c-0.1,0.2-0.2,0.5-0.3,0.7
			l-7.2,0.1c0.9-3,4.7-6.3,6.3-9c1.6-2.7,2.8-5.6,3.8-8.6c0.5-1.5,0.5-6.3,1.9-3c0.5,1.5,0.7,3.1,0.7,4.7l-0.4,0.3
			C62.2,22.4,62.6,23.1,63,22.8L63,22.8z"/>
		<path class="st1" d="M61.3,72.9c0.2,6.5-4.4,13.3-11.4,13.2c-7.5-0.1-10.2-6.7-9.2-13.3c0.1-0.7,1.1-0.5,1.1,0.2
			c0.1,5.7,1.7,11.7,8.6,11.4c6-0.2,9-6.1,9.2-11.4c0.1-0.5,0.5-0.8,0.9-0.8C60.9,72.2,61.3,72.5,61.3,72.9z"/>
		<path class="st4" d="M57.8,22.2c0,0.2,0.2,0.5,0.4,0.5c-0.8,2.1-1.8,4.1-2.9,6.1c-1.3,2.3-4.1,4.6-5.2,7.1c0.3-4.7,0-9.5-0.8-14.1
			c2.4-4.1,4.1-8.6,5.1-13.3C56.5,12.8,57.7,17.5,57.8,22.2z"/>
		<path class="st4" d="M51.2,13.6c0.1,0.2,0.4,0.3,0.6,0.2c0,0,0,0,0.1,0c-0.8,2.4-1.7,4.7-2.8,7c-0.6-3-1.4-6-2.4-8.9
			c-0.1-0.3-0.4-0.5-0.7-0.4c-0.3,0.1-0.4,0.3-0.4,0.6c-0.3,2.9-0.5,5.8-0.7,8.7c-1.1-2.9-1.9-5.9-2.3-8.9c0.1,0.1,0.4,0.1,0.5-0.1
			c0,0,0,0,0,0c1.5-2.8,3.5-5.4,6-7.4C49.2,7.5,50,10.6,51.2,13.6z"/>
		<path class="st3" d="M46.5,14.9c2.2,7.4,3,15.2,2.3,22.9L42,37.8C45.3,30.6,45.8,22.7,46.5,14.9z"/>
		<path class="st4" d="M44.1,21.7c0.1,0.2,0.3,0.4,0.6,0.3c-0.4,5.2-1.5,10.3-3.3,15.3c-2.7-4.5-4.9-9.3-6.6-14.3
			c1-4.9,3.2-9.5,6.4-13.4C41.5,13.7,42.5,17.8,44.1,21.7z"/>
		<path class="st3" d="M40.4,37.8l-8,0.1l0,0c0.3,0,0.6-0.3,0.6-0.6c0-0.1-0.1-0.3-0.2-0.4c-5.8-6.5-5-18-3.2-26.3
			c1.5,4.5,2.8,9.1,4.4,13.7c0,0.1,0,0.2,0,0.3c0,0.1,0.1,0.2,0.2,0.3C35.9,29.4,37.9,33.8,40.4,37.8z"/>
		<path class="st4" d="M35.4,6.1c0.2,2.3,1.1,4.6,2.5,6.4c-1.7,2.8-2.9,5.8-3.5,9c-1-2.8-1.8-5.7-2.7-8.5c0,0,0.1-0.1,0.1-0.1
			C32.4,10.4,33.7,8.1,35.4,6.1z"/>
		<path class="st3" d="M32.4,37.9L32.4,37.9c-3.3,0.1-6.5,0.1-9.7,0.2C14.8,34.7,9.1,27.7,7.3,19.3c7.5,7.2,15.8,13.4,24.8,18.5
			C32.2,37.9,32.3,37.9,32.4,37.9z"/>
		<path class="st1" d="M29.7,73.1c1,0.8,1.3,2.3,0.6,3.4c-0.6,1.1-1.9,1.7-3.1,1.3c-1.2-0.4-1.9-1.6-1.6-2.9c0-0.1,0.1-0.2,0.1-0.3
			c0-0.5,0.2-0.9,0.5-1.3C27.1,72.3,28.7,72.2,29.7,73.1z"/>
		<path class="st4" d="M27.1,24.2c0.1,3.9,1.2,7.7,3.1,11.2c-3.2-1.9-6.3-4-9.3-6.1c-4.4-6.5-8.6-12.7-9-20.7
			c3.8,6.2,8.8,11.5,14.7,15.8C26.8,24.5,27,24.4,27.1,24.2C27.1,24.3,27.1,24.2,27.1,24.2z"/>
		<path class="st4" d="M27.2,15.3c0.1,0.1,0.2,0.1,0.3,0.1c-0.4,2.8-0.5,5.5-0.4,8.3c-2.1-1.8-4.2-3.6-6.1-5.6
			c0.1,0,0.1-0.1,0.1-0.2C20.7,14.5,21,11,22,7.7C23.2,10.5,25,13.1,27.2,15.3z"/>
	</g>
</g>
</svg>
