<?xml version="1.0" encoding="utf-8"?>
<!-- Generator: Adobe Illustrator 23.0.1, SVG Export Plug-In . SVG Version: 6.00 Build 0)  -->
<svg version="1.1" id="Camada_1" xmlns="http://www.w3.org/2000/svg" xmlns:xlink="http://www.w3.org/1999/xlink" x="0px" y="0px"
	 viewBox="0 0 153.4 118.4" style="enable-background:new 0 0 153.4 118.4;" xml:space="preserve">
<style type="text/css">
	.st0{fill:#FFFFFF;}
	.st1{fill:#F5F5F5;}
	.st2{fill:#222221;}
	.st3{fill:#D36EA1;}
	.st4{fill:#E5B141;}
	.st5{fill:#F4D747;}
	.st6{fill:#CBD747;}
	.st7{fill:#87C1C5;}
</style>
<title>Ativo 17</title>
<g>
	<g id="OBJECTS">
		<path class="st0" d="M149.7,48.1c0-0.6-0.1-1.2-0.2-1.8c0-1.4-0.3-2.9-1-4.1c0.5-0.5,0.9-1,1.3-1.6c2.8-4,5.8-12.4,1.2-16.2
			c-3.5-2.9-9.7-2.9-15.1-1c-3.9-3.9-8.8-7.2-12.9-10.2c-6.2-4.8-13.2-8.4-20.7-10.8c-16.1-4.8-34.8-1.4-49.9,5
			C27.5,17.8,5.2,45.7,12.2,73.4c-7.4,4-8.9,13.7-1.5,18.7c-5.6,3.9-13.7,10.4-9.6,18c3.8,6.8,12.8,4.9,18.4,2
			c1.5-0.8,2.9-1.7,4.3-2.7c2,4.6,6.1,8.2,12.7,8.9c8.3,0.9,13.6-4.6,15.5-11.3c2.7,1.1,5.7,0.8,8.3-0.6c1.9-1,3.3-2.8,3.8-4.9
			c4,0.7,8.2,0.3,12-1.2c4-1.7,7.2-5.4,6.2-9.9c-0.7-3.2-3.3-5.4-6.2-6.8c0.8-1.1,1.4-2.4,1.8-3.7c2.1-7-1.9-13-9.1-13.9
			c-1.6-0.2-3.3-0.2-4.9,0.1c1.4-16.4,16.7-25.9,32.4-27.2c-1.5,1.4-2.7,3.1-3.4,5c-2.1,5.3,1.9,8.1,6.5,8.9
			c-0.2,0.3-0.4,0.7-0.5,1.1c-2.9,4.2-4.7,9.7-2.1,14.1c3.3,5.5,10.7,5,15.8,2.9c4.5-1.8,8.2-5,10.7-9.1c4.2,2,8.9,2.6,13.4,1.6
			c5.7-1.2,13.4-5.8,13.4-12.4c0-0.7-0.1-1.4-0.3-2C149.7,48.6,149.7,48.3,149.7,48.1z M26,42.4c-0.4,0.6-0.8,1.3-1.1,1.9
			s-0.6,1-0.9,1.5c0.5-1.2,1.1-2.5,1.7-3.7C25.8,42.2,25.9,42.3,26,42.4z M106.1,43.9c-0.1,0.1-0.1,0.1-0.2,0.2h-0.2
			c-0.5,0-1,0.1-1.5,0.1c0.7-0.3,1.4-0.4,2.1-0.5C106.2,43.7,106.1,43.8,106.1,43.9L106.1,43.9z M108.3,59.8
			c-1.3-0.3-1.8-0.8-1.6-1.5c0.4-0.5,0.9-1,1.4-1.5c1.8-1.4,4-2.2,6.3-2.1C112.9,57.4,110.6,60.2,108.3,59.8L108.3,59.8z"/>
		<path class="st1" d="M144,25.4c2.7,1.7,3.9,5,2.8,8c-1,3-3.8,4.6-6.7,5.2c-0.4,0.1-0.7,0.5-0.6,0.9c0,0.1,0.1,0.2,0.1,0.3
			c-0.1,0.4,0.2,0.8,0.5,0.9c10,2.5,4.3,13-1.7,16.2c-4.6,2.4-12.3,3.5-16.1-0.9c-0.1-0.1-0.3-0.2-0.5-0.2c-0.5-0.1-0.9,0.3-0.9,0.8
			c0,0,0,0,0,0c-0.4,5-6.8,8.4-11.4,8c-6.7-0.6-6.1-9.9-1.4-12.8c0.3,0,0.5-0.1,0.6-0.4c0.1-0.1,0.2-0.4,0.1-0.5
			c0-0.2-0.2-0.4-0.5-0.5c-1.6-0.2-3.2-0.4-4.7-0.8c-4-1.3-3.4-5.3-0.7-7.6c3.2-2.7,6.9-2.3,10.2-0.5c0.2,0.3,0.5,0.7,0.7,1
			c0.6,0.7,1.8-0.2,1.3-1c-3.4-5.1-2.9-12.7,4.3-13.8c4.4-0.8,8.8,1,11.4,4.6c0,0.7,0,1.3,0.1,2c0.1,0.6,0.9,0.4,1-0.1v-0.1
			c0.3,0.1,0.6,0,0.7-0.3c0-0.1,0-0.2,0-0.3c-0.1-0.4-0.2-0.9-0.4-1.3C133.6,27.5,138.8,22.4,144,25.4z"/>
		<path class="st2" d="M145.2,24.2c6.6,4.3,3.4,12.7-2.6,15.4c7.1,2.3,5.3,11.8,0.2,16.3c-4.8,4.2-15.4,7.3-20.5,2
			c-1.4,6.1-10.1,10.1-15.7,7.6c-5.3-2.3-4.8-10.6-0.7-13.8c-2.3-0.2-4.6-0.6-6.1-2.4c-1.8-2-1.2-4.7,0.2-6.8
			c2.7-3.8,7.6-5.1,11.8-3.2c-0.3-0.9-0.6-1.9-0.7-2.9C89,20.6,56,42.5,59.9,69c0,0.4-0.5,0.5-0.6,0.2C55.8,56.3,64.6,43,74.8,35.9
			c10.9-7.5,25.2-8.5,36.3-1.1c0-0.8,0.1-1.5,0.3-2.3c-11.5-7.2-26.1-8.6-38.5-2.5c-12,5.9-21.8,18.6-21.1,32.4l0,0
			c3.4,1,6.1,3.5,7.4,6.8c0.5,1.4,0.7,2.8,0.7,4.3c3.2-3.9,9.5-5.4,13.1-1.1S73.9,80.8,70,83c4.9,1,8.4,7.1,4.7,11.4
			c-5,6-14.8,5.1-21.8,2.8c0.1,1-0.3,2.1-1.1,2.7c-0.9,0.6-2.1,0.7-3.1,0.3l-0.5-0.2c2.9,5.9-4.1,12-9.8,13.2
			c-5.5,1.1-12.5-2.6-11.6-8.3c-4.7,5.1-14.2,9.6-19.1,3c-4.6-6.2,2.9-14.4,9.5-16.7c-2.1-0.3-4.1-1.3-5.5-3c-2-2.7-1.5-6.5,0.4-9
			c1.4-1.7,3.2-3,5.2-3.7C8.5,46.6,31.8,18,57.5,7.8c26.7-10.6,57.6-3.1,77,17.8C137.5,23.1,141.8,22,145.2,24.2z M146.8,33.3
			c1.1-3-0.1-6.3-2.8-8c-5.2-3-10.4,2.1-11.8,7c0.2,0.4,0.3,0.8,0.4,1.3c0.1,0.3-0.2,0.6-0.5,0.6c-0.1,0-0.2,0-0.3,0v0.1
			c-0.1,0.5-0.9,0.7-1,0.1c-0.1-0.7-0.2-1.3-0.1-2c-2.6-3.6-7-5.4-11.4-4.6c-7.2,1.1-7.7,8.7-4.3,13.8c0.5,0.8-0.7,1.7-1.3,1
			c-0.3-0.3-0.5-0.7-0.7-1c-3.3-1.8-7.1-2.2-10.2,0.5c-2.7,2.3-3.3,6.3,0.7,7.6c1.6,0.3,3.1,0.6,4.7,0.8c0.2,0,0.4,0.2,0.5,0.5
			c0.1,0.2,0.1,0.4-0.1,0.5c-0.1,0.2-0.3,0.4-0.6,0.4c-4.7,2.9-5.3,12.3,1.4,12.8c4.7,0.4,11-3,11.4-8c0-0.5,0.4-0.8,0.9-0.8
			c0,0,0,0,0,0c0.2,0,0.4,0,0.5,0.2c3.8,4.4,11.5,3.3,16.1,0.9c6.1-3.2,11.7-13.7,1.7-16.2c-0.4-0.1-0.6-0.5-0.5-0.9
			c-0.2-0.3-0.2-0.8,0.2-1c0.1-0.1,0.2-0.1,0.3-0.1C143,38,145.8,36.3,146.8,33.3z M131.6,29.3c0.5-0.9,1.1-1.8,1.8-2.6
			C115,7.1,86.3-0.8,60.7,8.1C48.1,12.4,37,20.3,28.8,30.8C18.5,44.1,15.7,58.9,18.3,75.2c2.1-0.6,4.2-0.7,6.3-0.3
			c-3.2-14.1,0.6-27,9-38.6c7.1-9.9,16.9-17.7,28.2-22.5c12.7-5.1,26.6-6,39.8-2.5c6.6,1.7,12.8,4.4,18.5,8
			C123.6,21.4,129.9,25,131.6,29.3L131.6,29.3z M129.9,29c-1.7-2.8-5.8-5.4-7.9-6.9c-2.5-1.8-5.2-3.4-8-4.8
			c-5.5-2.7-11.3-4.7-17.4-5.8c-12.3-2.3-25-0.8-36.4,4.3C49.6,20.7,40.4,28.4,33.8,38c-3.3,4.7-5.8,9.9-7.6,15.4
			c-2.4,7.4-1.6,14.1-0.8,21.5c2.7,0.5,5.2,1.7,7.2,3.5c-0.4-1.8-0.4-3.7,0.1-5.5c-5.1-20.5,11.8-42.2,28.8-51.4
			c18.9-10.1,41.9-8.5,59.2,4.2C124.1,25.7,127.4,26.8,129.9,29z M116.6,26.7c0.7-0.3,1.5-0.5,2.2-0.6c-16.5-11.3-38.2-13-56-3.7
			C54.1,27,46.7,33.7,41.3,41.9c-6.1,9.2-8.3,18.6-8,29.3c1.4-3.2,3.9-5.9,7-7.5c0,0,0,0,0-0.1c-0.6-16.8,12.4-31.5,26.6-38.6
			c15.8-7.9,34.1-8.5,48.9,1.9c0.1,0,0.1,0.1,0.1,0.2L116.6,26.7z M112,31c0.6-1.3,1.5-2.5,2.7-3.3c-14.7-9.8-32.3-9.3-47.8-1.3
			C51.9,34.1,43.4,47,41,63.3c1.6-0.8,3.3-1.3,5-1.5c1.7-0.2,3.5-0.1,5.2,0.3c-2.1-13.6,9.1-27,20.6-33C84.5,22.5,99.8,23.6,112,31z
			 M74.3,92.4c1-3.6-1.2-7.4-4.8-8.3c-0.4-0.1-0.9-0.2-1.4-0.2L67.7,84c-0.4,0.1-0.7-0.2-0.8-0.5c-0.1-0.3,0.1-0.6,0.3-0.7
			c1.6-0.8,3.4-1.5,4.7-2.8c1.9-2.2,1.6-5.4-0.6-7.3c0,0-0.1-0.1-0.1-0.1c-3.7-3.2-8.3-1-11.1,2.1c-0.1,0.1-0.2,0.1-0.3,0.1
			c0,0.1,0,0.1,0,0.2c-0.1,0.8-1.5,0.6-1.4-0.2c1.7-17.5-27.6-13.2-24.6,4.7c0,0.2-0.1,0.5-0.4,0.5c-0.2,0-0.3,0-0.4-0.2
			c-0.1,0.1-0.3,0.1-0.5,0c-4.2-2.9-8.9-4.3-13.9-2.8c-1.7,0.5-3.2,1.3-4.4,2.5c-2.1,1.7-2.5,4.8-1,7.1c1.7,3.1,3.9,3.3,7.2,3.7
			c0.8,0.1,0.9,1.4,0,1.3l-0.6-0.1c-6.1,1.8-15.3,9.8-10.1,16.3c2.6,3.2,8.5,1.6,11.5,0.1c2.5-1.3,4.6-3.3,6.2-5.7
			c0.2-0.3,0.7-0.4,1-0.2c0.1,0.1,0.2,0.2,0.3,0.4c0.1,0.1,0.1,0.2,0,0.4c-2.3,6.9,4.9,10.2,10.6,8.6c5.2-1.5,10.4-6.8,6.7-12.2
			c-0.4-0.6,0.3-1.3,0.8-1.1c0.1-0.2,0.3-0.2,0.5-0.1c0,0,0.1,0.1,0.1,0.1c0.5,1.1,2.8,1.4,3.7,0.7c0.6-0.4,0.8-1.3,0.3-1.9
			c-0.1-0.1-0.1-0.2-0.2-0.2C51,96.6,51,96.5,51,96.4l-0.3-0.1c-0.9-0.4-0.1-1.8,0.8-1.4c4.6,2.1,9.8,2.8,14.8,2
			C68.8,96.5,73.5,95.3,74.3,92.4z"/>
		<path class="st3" d="M133.3,26.7c-0.7,0.8-1.3,1.7-1.8,2.6c-1.7-4.3-8-7.8-11.4-10c-5.7-3.6-12-6.3-18.5-8
			c-13.2-3.5-27.2-2.6-39.8,2.5c-11.3,4.7-21.1,12.5-28.2,22.5c-8.4,11.7-12.1,24.5-9,38.6c-2.1-0.3-4.3-0.2-6.3,0.3
			c-2.6-16.3,0.3-31.1,10.5-44.4C37,20.3,48.1,12.4,60.7,8.1C86.3-0.8,115,7.1,133.3,26.7z"/>
		<path class="st4" d="M122.1,22.1c2.1,1.5,6.2,4.1,7.9,6.9c-2.6-2.2-5.9-3.3-9.2-3.2c-17.3-12.6-40.3-14.3-59.2-4.2
			c-17,9.2-33.9,31-28.8,51.4c-0.4,1.8-0.5,3.7-0.1,5.5c-2.1-1.8-4.6-3-7.2-3.6c-0.8-7.5-1.6-14.2,0.8-21.5C28,48,30.5,42.8,33.8,38
			c6.6-9.7,15.8-17.3,26.5-22.2c11.4-5.1,24.1-6.6,36.4-4.3c6,1.1,11.9,3.1,17.4,5.8C116.9,18.8,119.5,20.4,122.1,22.1z"/>
		<path class="st5" d="M118.8,26c-0.8,0.1-1.5,0.3-2.2,0.6l-0.7,0.3c0-0.1-0.1-0.1-0.1-0.2c-14.8-10.4-33-9.8-48.9-1.9
			c-14.2,7.1-27.2,21.8-26.6,38.6c0,0,0,0,0,0.1c-3.1,1.6-5.6,4.3-7,7.5c-0.3-10.7,1.8-20,7.9-29.2C46.6,33.7,54,27,62.7,22.4
			C80.6,13.1,102.3,14.8,118.8,26z"/>
		<path class="st6" d="M114.6,27.7c-1.2,0.8-2.1,2-2.6,3.3c-12.1-7.5-27.5-8.5-40.3-1.9c-11.4,5.9-22.7,19.4-20.6,33
			c-1.7-0.4-3.5-0.6-5.2-0.3c-1.7,0.2-3.4,0.7-5,1.5c2.4-16.2,11-29.1,25.8-36.8C82.3,18.4,99.9,17.9,114.6,27.7z"/>
		<path class="st7" d="M111.5,32.4c-0.2,0.7-0.3,1.5-0.3,2.3c-11.1-7.4-25.4-6.4-36.3,1.1c-10.2,7.1-19,20.4-15.6,33.3l0,0
			c-1.3-3.3-4-5.8-7.4-6.8l0,0C51.2,48.5,61,35.8,73,29.9C85.4,23.8,99.9,25.2,111.5,32.4z"/>
		<path class="st1" d="M68.1,83.9c3.7,0.2,6.6,3.4,6.4,7.2c0,0.5-0.1,0.9-0.2,1.4c-0.8,2.9-5.5,4.1-8.1,4.6c-5,0.8-10.2,0.1-14.8-2
			c-0.9-0.4-1.7,1-0.8,1.4l0.3,0.1c0,0.1,0.1,0.2,0.1,0.2c0.6,0.5,0.6,1.4,0.1,2c-0.1,0.1-0.1,0.1-0.2,0.2c-0.9,0.7-3.2,0.3-3.7-0.7
			c-0.1-0.2-0.3-0.2-0.5-0.1c0,0-0.1,0.1-0.1,0.1c-0.6-0.2-1.2,0.5-0.8,1.1c3.7,5.4-1.5,10.8-6.7,12.2c-5.7,1.6-12.8-1.7-10.6-8.6
			c0-0.1,0-0.3,0-0.4c-0.1-0.4-0.5-0.6-0.9-0.4c-0.1,0.1-0.3,0.1-0.4,0.3c-1.6,2.4-3.7,4.3-6.2,5.7c-3,1.6-8.9,3.1-11.5-0.1
			c-5.2-6.5,4-14.5,10.1-16.3l0.6,0.1c0.9,0.1,0.8-1.2,0-1.3c-3.3-0.4-5.5-0.7-7.2-3.7c-1.5-2.3-1.1-5.3,1-7.1
			c1.3-1.2,2.8-2.1,4.4-2.5c5-1.5,9.8,0,13.9,2.8c0.1,0.1,0.3,0.1,0.5,0c0.2,0.2,0.5,0.2,0.6,0c0.1-0.1,0.2-0.3,0.2-0.4
			c-3-17.8,26.3-22.2,24.6-4.7c-0.1,0.8,1.3,1,1.4,0.2c0-0.1,0-0.1,0-0.2c0.1,0,0.3,0,0.3-0.1c2.8-3,7.5-5.2,11.1-2.1
			c2.2,1.8,2.5,5.1,0.7,7.3c0,0,0,0.1-0.1,0.1c-1.3,1.4-3.1,2-4.7,2.8c-0.3,0.2-0.4,0.7-0.1,1c0.2,0.2,0.4,0.3,0.7,0.3L68.1,83.9z"
			/>
	</g>
</g>
</svg>
