<?xml version="1.0" encoding="utf-8"?>
<!-- Generator: Adobe Illustrator 23.0.1, SVG Export Plug-In . SVG Version: 6.00 Build 0)  -->
<svg version="1.1" id="Camada_1" xmlns="http://www.w3.org/2000/svg" xmlns:xlink="http://www.w3.org/1999/xlink" x="0px" y="0px"
	 viewBox="0 0 129.9 130" style="enable-background:new 0 0 129.9 130;" xml:space="preserve">
<style type="text/css">
	.st0{fill:#FFFFFF;}
	.st1{fill:#222221;}
	.st2{fill:#CC4B8B;}
	.st3{fill:#DC90B8;}
</style>
<title>Ativo 3</title>
<g>
	<g id="OBJECTS">
		<path class="st0" d="M129.7,55c-1-4-6.7-7.4-9.3-10.5c-6.6-7.7-11.3-16.9-15.7-26C100.9,10.6,96.2,3,87.1,0.7
			c-8.9-2.2-17.3,0.9-25,5.4c-4.6,2.7-7.7,3.5-12.5,0.8C46,4.9,42.4,3,38.1,3.4C28.9,4.3,24,14,19.7,21.1L9.6,37.7l-5,8.3
			c-1.4,2.3-3.9,5.1-4.5,7.7c-0.9,4.3,3.8,10.6,5.8,14.2c2.4,4.5,5.5,8.5,9.1,12.1c-8.2,19.5,1.6,42.7,22.8,48.5
			c9.6,2.6,24.1,2.3,32.4-3.9c7.7-5.7,9.5-16.6,8-25.9c8.2-0.8,15.4-4.5,21.8-10.1c8.4-7.5,16.2-15.8,24.2-23.7
			C126.7,62.3,130.7,59.3,129.7,55z M66.2,31.9l0.3,0.2c0.1,0.2,0.3,0.4,0.4,0.7c-0.8-0.6-1.5-1.2-2.3-1.8L66.2,31.9z M92,32.3
			c0.1,0,0.1-0.1,0.1-0.1l0.3-0.4c0.1,0.4,0.2,0.8,0.4,1.2L92,32.3z M44.8,22.8c-1.1-0.8-2.3-1.4-3.6-1.9
			C42.6,21,43.9,21.6,44.8,22.8z M38,112.3l0.7,1c-0.3-0.1-0.5-0.1-0.8-0.2C37.9,112.9,38,112.6,38,112.3z"/>
		<path class="st1" d="M122.2,57c0.4,0.1,0.6,0.6,0.5,1c0,0.1-0.1,0.1-0.1,0.2c-5.7,9.1-13.1,17-21.6,23.4
			C93.8,87,83.6,94.8,74.1,94c-0.4,4.3-0.3,8.6-0.4,12.9c-0.1,3.7,0.1,8.1-2.3,11.3c-5.3,7.1-18.3,7.1-25.9,5.2
			c-9.5-2.4-17.8-8.8-23.2-16.9c-3-4.6-4.8-9.8-5.3-15.2c-0.5-5.3-1.2-11.1,0.4-16.2C11.4,69.4,7.4,61,4,53.7
			c-0.2-0.4,0.3-0.8,0.6-0.5l0.1,0.1c5.4,6,7.6,14.1,13.2,20.1c1.1-3.2,2.6-6.3,4.4-9.2c-2.6-1.1-5.1-2.4-7.3-4.1
			c-1.4-1-5.1-3.3-5.3-5.2c-0.2-1.4,1-3,2.4-4.6c1.8-1.8,4-3.5,5.2-4.5c9.3-8.5,20.8-14.4,33.2-17c13.3-2.6,26.4-0.2,39,4.5
			c11.3,4.2,19,12.8,25.9,22.4c0.1,0.1,0.1,0.2,0.2,0.4c0.4,0.1,0.7,0.5,0.6,0.9c0,0.2-0.1,0.3-0.2,0.4c-6.7,5.7-14.9,9.5-23.2,11.9
			c-7.2,4.7-14.6,8.7-17.3,17.9c-0.5,1.8-0.9,3.6-1.1,5.4c9.8-0.3,20.2-8.2,27.5-14c7.5-6.1,13.6-13.3,19.2-21.1
			c-0.3,0-0.5-0.2-0.6-0.4l-0.2-0.4c-0.2-0.3-0.2-0.7,0-1c-3.2-3.4-9.5-14.7-10-15.8c-2.8-6.1-5.2-12.4-8.6-18.1
			c-3.8-6.4-9-12.3-16.4-14.6C76.2,4.6,68.8,8.2,61.6,13c-5.4,3.6-6.8,3.2-12.3,0c-4.5-2.4-8.9-4.5-13.7-1.5c-3.5,2.2-6.4,6-8.8,9.4
			c-6.1,8.6-9.9,20.1-16.9,28.3c-1.3,1.5-2.7,2.9-4.2,4.2c-0.3,0.2-0.6,0.1-0.8-0.1c-0.1-0.2-0.1-0.4,0-0.6
			c4.8-7,9.4-13.8,13.5-21.2c3.8-6.8,7.8-14.1,13.7-19.4c4.7-4.2,9.6-4.8,15.2-2c2,0.9,3.8,2.2,5.7,3.1c3.2,1.6,5,0.1,7.7-1.7
			c3.4-2.2,6.7-4.6,10.6-5.8c14.8-4.6,26.6,5.8,33.2,18c3.9,7.3,6.5,15.3,10.7,22.4c1.3,2.2,2.7,4.2,4.3,6.2
			c0.6,0.7,2.7,2.2,2.8,3.3C122.5,56.1,122.4,56.6,122.2,57z M113.9,56.9c-0.1,0-0.1-0.1-0.2-0.1c-5.8-8.2-12.2-15.6-21.2-20
			c-1.2,4-4.4,4.1-8.5,3.9c-1.7,0-7.5,0.2-8.6-1.9c-0.2,0.3-0.3,0.5-0.6,0.7c-1.2,1-2.6,1.6-4.1,1.8c-1.7,0.3-3.4,0.4-5.2,0.3
			c-2.3-0.1-5.9-0.4-7.3-2.7c-0.1-0.2-0.2-0.3-0.2-0.5c-1.8,3.6-8.1,3.1-11.6,3.2c-1.7,0-3.7,0.3-4.9-0.8c-2.8,2.2-6.4,2.7-9.9,2.8
			c-2.3,0-5.5,0.4-6.8-1.7c-3.9,2.7-8.6,6-11.2,9.8s0.1,5.9,3.4,8.2c1.9,1.3,3.8,2.5,5.9,3.5c8.6-12.9,23.5-21.1,39.3-19.9
			c0.4,0,0.7,0.3,0.8,0.6c2.5-1.1,5.1-2,7.9-2.5c8.8-1.7,17.9-0.1,25.5,4.6c6.9,4.4,10.2,11.8,3.4,18c-0.6,0.6-1.3,1.1-1.9,1.6
			C103.6,63.4,109,60.8,113.9,56.9z M101.2,59.7c3.2-6.7-4.2-11.6-9.2-14c-17.9-8.5-39.3,0-44,19.8c-0.2,0.6-1,0.3-0.9-0.3
			c1.1-8.6,6.2-16.1,13.8-20.2c-9.6-0.5-19,2.5-26.5,8.5c-7.7,6.2-15.8,17.6-16.1,27.8c-0.3,10.6,1.8,20.4,8.9,28.6
			c6.4,7.3,15.4,12.3,25.2,12.7c4.8,0.2,13.1-0.5,16.6-4.4s2.8-9.8,2.9-14.7c0.1-7.2,0.2-14.9,3.6-21.4c2.9-5.5,7.9-9.1,13-12.4
			c0-0.1,0.1-0.1,0.2-0.2l0.2-0.1c0.6-0.4,1.3-0.8,1.9-1.2C94.3,66.1,99.3,63.6,101.2,59.7z M91.4,36.2c-0.8-0.4-1.6-0.7-2.4-1
			c-4-1.5-8.1-2.8-12.2-3.8c-0.1,2-0.1,4.7-0.9,6.6c0.7,1.5,6.2,1.3,7.6,1.4c1,0.1,2,0.1,3,0C88.2,39.1,90.6,37.9,91.4,36.2z
			 M74.2,38c1.2-1.6,1.1-4.7,1.3-6.9c-5.3-1.2-10.7-1.7-16.2-1.5c-0.3,2.2-0.8,5-0.2,7c1,3.3,4.1,3.8,7.2,3.8
			C68.8,40.3,72.6,40.1,74.2,38z M58.5,29.6h-0.6c-5.6,0.4-11.1,1.6-16.4,3.6c0,1.4,0.1,2.8,0.4,4.2c1.2,3.4,3,2.9,5.3,2.8
			c3.6-0.1,8.8,0.6,10.6-3.2C57.4,34.7,58,31.8,58.5,29.6z M41.2,40.2c-1.1-1.7-0.9-4.5-0.9-6.5c-5,1.9-9.8,4.4-14.2,7.5
			c1.5,1.7,5.9,1.2,7.7,1C36.4,42,38.9,41.3,41.2,40.2z"/>
		<path class="st2" d="M120.3,57.2c0.1,0.2,0.3,0.4,0.6,0.4c-5.6,7.8-11.6,15-19.2,21.1c-7.3,5.8-17.7,13.7-27.5,14
			c0.2-1.8,0.6-3.6,1.1-5.4c2.8-9.2,10.2-13.2,17.3-17.9c8.3-2.5,16.5-6.3,23.2-11.9c0.3-0.3,0.4-0.8,0.1-1.1
			c-0.1-0.1-0.3-0.2-0.4-0.2c0-0.1-0.1-0.3-0.2-0.4c-6.8-9.6-14.6-18.2-25.9-22.4c-12.6-4.7-25.6-7.1-39-4.5
			c-12.4,2.6-23.9,8.5-33.2,17c-1.1,1-3.4,2.7-5.2,4.5l-2.2-1.3c7-8.2,10.8-19.7,16.9-28.3c2.3-3.3,5.3-7.2,8.8-9.4
			c4.8-3,9.2-0.9,13.6,1.6c5.6,3.1,6.9,3.6,12.3,0c7.2-4.8,14.6-8.4,23.5-5.6c7.3,2.3,12.6,8.2,16.4,14.6c3.4,5.8,5.8,12,8.6,18.1
			c0.5,1.1,6.8,12.4,10,15.8c-0.2,0.3-0.2,0.7,0,1L120.3,57.2z"/>
		<path class="st1" d="M113.8,56.8c0,0.1,0.1,0.1,0.2,0.1c-4.9,3.9-10.4,6.5-16,8.9c0.7-0.5,1.3-1.1,1.9-1.6
			c6.8-6.2,3.5-13.6-3.4-18c-7.6-4.7-16.7-6.3-25.5-4.6v-0.3c1.5-0.2,2.9-0.8,4.1-1.8c0.2-0.2,0.4-0.4,0.6-0.7
			c1.1,2.1,6.9,1.8,8.6,1.9c4.1,0.1,7.3,0.1,8.5-3.9C101.5,41.2,108,48.6,113.8,56.8z"/>
		<path class="st3" d="M92,45.7c5,2.4,12.5,7.3,9.3,14c-1.9,3.9-6.9,6.3-10.5,8.6c-0.6,0.4-1.3,0.8-1.9,1.2l-0.2,0.1
			c-0.1,0-0.1,0.1-0.2,0.2c-5.1,3.3-10.1,7-13,12.4c-3.5,6.5-3.6,14.2-3.7,21.4c-0.1,4.9,0.6,10.7-2.9,14.7s-11.8,4.6-16.6,4.4
			c-9.8-0.4-18.8-5.4-25.2-12.7c-7.1-8.1-9.3-17.9-8.9-28.6c0.3-10.1,8.4-21.6,16.1-27.8c7.5-6,16.9-9,26.5-8.5
			C53.3,49.2,48.1,56.7,47,65.3c-0.1,0.6,0.8,0.9,0.9,0.3C52.7,45.7,74,37.3,92,45.7z"/>
		<path class="st0" d="M89,35.2c0.8,0.3,1.6,0.6,2.4,1c-0.7,1.8-3.1,3-4.8,3.2c-1,0.1-2,0.1-3,0c-1.4,0-7,0.1-7.6-1.4
			c0.8-1.9,0.7-4.7,0.9-6.6C80.9,32.4,85,33.6,89,35.2z"/>
		<path class="st0" d="M75.5,31.1c-0.2,2.2-0.1,5.4-1.3,6.9c-1.6,2.1-5.4,2.3-7.9,2.3c-3.1,0-6.3-0.4-7.2-3.8c-0.6-2-0.1-4.8,0.2-7
			C64.7,29.3,70.2,29.8,75.5,31.1z"/>
		<path class="st1" d="M70.9,41.3v0.3c-2.7,0.5-5.3,1.3-7.8,2.5c-0.1-0.3-0.4-0.6-0.8-0.6c-15.8-1.2-30.6,7-39.3,19.9
			c-2-1-4-2.2-5.9-3.5c-3.2-2.3-6-4.4-3.4-8.2s7.4-7.1,11.2-9.8c1.3,2.1,4.5,1.7,6.8,1.7c3.5-0.1,7.1-0.6,9.9-2.8
			c1.3,1.2,3.3,0.9,4.9,0.8c3.5-0.1,9.8,0.4,11.6-3.2c0.1,0.2,0.1,0.3,0.2,0.5c1.3,2.2,5,2.5,7.3,2.7C67.4,41.6,69.2,41.5,70.9,41.3
			z"/>
		<path class="st0" d="M57.9,29.6h0.6c-0.5,2.2-1.1,5.1-0.7,7.4c-1.8,3.8-7,3.1-10.6,3.2c-2.3,0.1-4.1,0.6-5.3-2.8
			c-0.3-1.4-0.4-2.8-0.4-4.2C46.8,31.3,52.3,30.1,57.9,29.6z"/>
		<path class="st0" d="M40.3,33.6c0,2-0.2,4.9,0.9,6.5c-2.3,1.1-4.8,1.8-7.4,1.9c-1.8,0.1-6.2,0.7-7.7-1
			C30.5,38.1,35.3,35.6,40.3,33.6z"/>
		<path class="st2" d="M22.4,64.3c-1.8,2.9-3.3,6-4.5,9.2c-5.6-6-7.7-14.1-13.2-20.1l0.1-0.1c0.2,0.2,0.6,0.3,0.8,0.1
			c1.5-1.3,3-2.7,4.2-4.2l2.2,1.3c-1.5,1.5-2.6,3.1-2.4,4.6c0.2,1.9,3.9,4.2,5.3,5.2C17.3,61.8,19.8,63.2,22.4,64.3z"/>
	</g>
</g>
</svg>
