<?xml version="1.0" encoding="utf-8"?>
<!-- Generator: Adobe Illustrator 23.0.1, SVG Export Plug-In . SVG Version: 6.00 Build 0)  -->
<svg version="1.1" id="Camada_1" xmlns="http://www.w3.org/2000/svg" xmlns:xlink="http://www.w3.org/1999/xlink" x="0px" y="0px"
	 viewBox="0 0 55.4 55.6" style="enable-background:new 0 0 55.4 55.6;" xml:space="preserve">
<style type="text/css">
	.st0{fill:#FFFFFF;}
	.st1{fill:#222221;}
	.st2{fill:#D36EA1;}
	.st3{fill:#87C1C5;}
</style>
<title>Ativo 6</title>
<g>
	<g id="OBJECTS">
		<path class="st0" d="M54.3,40.4c-2-4.4-3.7-7.3-3-12.3c0.5-3.5,1.3-6.8,0.8-10.3C50.4,6.4,39.5,1.9,29.3,2.4
			c0.4-1-0.1-2.5-1.5-2.4c-2.9,0.3-12.4,2.7-14.2,6.7c-0.3-0.8-0.4-1.7-0.4-2.5c0.1-1.2-0.3-2.4-1-3.3C10.8-0.6,8,0,6.7,1.3
			C5,2.9,5.6,6.2,6.2,8.1c0.5,2,1.6,3.9,3,5.4c-1.5,0.7-2.9,1.7-4.1,2.8c-2,1.6-3.6,3.6-4.8,5.9c-0.5,0.9-0.2,2.1,0.7,2.6
			c0.3,0.2,0.6,0.2,0.9,0.2c0.4,0,0.9,0,1.4,0c-2.1,2.6-2.5,6.2-1,9.3c2.4,5.5,8.4,7.8,13.7,9.6c11.3,4,23,18,35.5,8.3
			C55.4,49.2,56.4,44.8,54.3,40.4z"/>
		<path class="st1" d="M53,38.9c0.9,4.1,0,8-3.4,10.6c-4.2,3.2-9.7,2.8-14.5,1.1c-7.3-2.6-13.1-7.2-20.9-8.5
			C4.4,40.6,0.5,31.5,5.3,23c-0.6,0-1.2,0-1.7-0.1c-0.3-0.1-0.5-0.4-0.4-0.8c0,0,0-0.1,0.1-0.1c2.2-3.1,4.7-7.7,8.7-8.6
			C8.5,11.1,7,6.2,7.6,2.3C7.6,2.2,7.7,2,7.8,2C7.7,2,7.6,1.7,7.8,1.6C8.6,1.1,9.6,1,10.5,1.1c0.7,0.2,1.3,0.8,1.5,1.5
			c0,0.1,0,0.2-0.1,0.3c0,0,0,0.1,0,0.2c-0.5,3,0.3,6,2.4,8.3c0.8-5.2,6.8-8.7,11.7-8.4c0.3,0,0.6,0.3,0.6,0.6
			c0,0.1-0.1,0.3-0.2,0.4C26.3,4,26.2,4.2,26,4.3c10.2-1.7,22.1,2.8,23.4,14.4c0.5,3.9-0.5,7.6,0.6,11.5
			C50.8,33.2,52.3,35.9,53,38.9z M47.8,49.1c6.4-3.8,3.8-10.2,1.8-15.6c-1.2-3-1.8-6.3-1.7-9.5c0.1-5.6-0.3-10.3-4.7-14.3
			c-4.9-4.4-11.5-5-17.7-3.9c-0.1,0-0.3,0-0.4-0.1c-0.8,1.5-1.3,3.1-2.4,4.3c3.1-0.3,6.3,0.6,8.7,2.6c0.2,0.2,0.3,0.6,0,0.9
			c0,0-0.1,0.1-0.1,0.1c-3.8,1.9-8.2,2.1-12.2,0.5c2.8,2.8,3.7,7.1,2.2,10.8c-0.1,0.3-0.5,0.5-0.8,0.4c0,0-0.1,0-0.1,0
			c-2.5-1.8-5.4-4.2-5.8-7.3c-1.9,2.9-5,4.8-8.4,5.1c-2.5,5.4-3.2,12.7,2.8,16.3c3.7,2.2,8.9,1.7,13,3.4
			C29.9,45.9,39.1,54.2,47.8,49.1z M29.8,12.9c-2.9-1.9-6.5-2.3-9.7-1.1c-0.7,0.3-1-0.9-0.3-1.1c0.3-0.1,0.6-0.2,0.8-0.3
			c1.5-1.2,2.7-2.7,3.3-4.6c0.3-0.6,0.6-1.2,0.9-1.8c-2,0.1-4,0.8-5.6,2c-2.1,1.5-3,3.6-4.1,5.8c-0.1,0.2-0.4,0.3-0.6,0.2
			c-0.1,0-0.2,0-0.2,0c-2.8-1.8-4.2-5.1-3.6-8.3C9.9,4,9.2,3.8,8.6,3.4c0.1,4,1.6,6.8,4.3,9.8h0.3c0.2,0,0.4,0.2,0.4,0.4
			c0,0.2-0.1,0.3-0.3,0.3c-3.9,1-6.2,4.6-8.4,7.8c4.2,0.1,8-2.3,9.6-6.1c0.1-0.2,0.3-0.4,0.6-0.3c0.2-0.1,0.4,0,0.5,0.2
			c0,0,0,0.1,0,0.1c0,3.6,2.2,5.9,4.8,8c1-3.2,0.1-6.7-2.4-9c-0.5-0.5,0.1-1.2,0.7-1c0-0.2,0.2-0.4,0.4-0.4c0,0,0,0,0.1,0
			C22.7,14.3,26.4,14.1,29.8,12.9z M10.9,2.8c0-0.1,0.1-0.2,0.2-0.3c-0.6-1.1-1.9-0.9-3-0.6c0.2,0,0.4,0.2,0.4,0.5v0.2
			C9.3,3.1,10.2,3.2,10.9,2.8L10.9,2.8z"/>
		<path class="st2" d="M49.7,33.5c2,5.4,4.5,11.8-1.8,15.6c-8.8,5.2-17.9-3.2-25.8-6.4c-4.1-1.7-9.2-1.2-13-3.4
			c-6-3.6-5.3-10.9-2.8-16.3c3.4-0.3,6.5-2.2,8.4-5c0.4,3.1,3.3,5.5,5.8,7.3c0.3,0.2,0.7,0.1,0.9-0.3c0,0,0-0.1,0-0.1
			c1.5-3.7,0.6-7.9-2.2-10.8c3.9,1.6,8.4,1.4,12.2-0.5c0.3-0.2,0.4-0.6,0.2-0.9c0-0.1-0.1-0.1-0.1-0.1c-2.4-2-5.6-3-8.7-2.6
			c1.1-1.2,1.6-2.8,2.4-4.3c0.1,0.1,0.3,0.1,0.4,0.1c6.2-1.1,12.8-0.4,17.7,3.9c4.5,4,4.8,8.7,4.7,14.3
			C47.9,27.3,48.5,30.5,49.7,33.5z M43.1,15.9c0.7-0.3,1-1,0.7-1.7c0-0.1-0.1-0.2-0.2-0.3C43,12.9,42.1,12.3,41,12
			c-0.2-0.1-0.5,0.1-0.5,0.3c-0.1,0.2,0,0.4,0.2,0.5c-0.2,0.9,0,1.7,0.5,2.5C41.6,15.9,42.4,16.1,43.1,15.9z M40.4,22.1
			c0.8-0.3,1.3-1.1,1.3-2c-0.2-1.1-0.8-2-1.7-2.6c-0.2-0.2-0.5-0.1-0.6,0c0,0-0.1,0.1-0.1,0.1l0,0c-0.2,1.1-1,2.1-0.7,3.3
			c0.1,0.8,0.9,1.3,1.7,1.2C40.3,22.1,40.3,22.1,40.4,22.1z M18.8,37c2-1.6-1.7-3.8-3.2-3.4c-0.2,0.1-0.3,0.3-0.2,0.5
			c0,0,0,0.1,0.1,0.1c-0.1,0.9,0.2,1.8,0.8,2.4C16.8,37.4,17.9,37.5,18.8,37z M16.2,29c0.5-0.5,0.5-1.3,0-1.7c0,0-0.1-0.1-0.1-0.1
			c-0.9-0.5-1.9-0.8-3-0.9c-0.2-0.1-0.3,0-0.4,0.2c0,0.2,0,0.3,0.2,0.4c0,0.1,0,0.1,0,0.2c0.1,0.9,0.5,1.7,1.2,2.2
			C14.7,29.7,15.6,29.6,16.2,29z M10.5,32c0.7-0.3,1.2-1,1.2-1.8c-0.1-1-0.6-1.8-1.4-2.4c-0.2-0.1-0.4-0.1-0.5,0.1
			c-0.1,0.1-0.1,0.3,0,0.4l0,0c-0.1,0-0.1,0-0.2,0c-0.7,0.7-1,1.6-0.8,2.5C9,31.6,9.7,32.1,10.5,32z"/>
		<path class="st1" d="M43.7,13.9c0.4,0.6,0.4,1.4-0.2,1.8c-0.1,0.1-0.2,0.2-0.3,0.2c-0.7,0.3-1.5,0-2-0.6c-0.5-0.7-0.6-1.6-0.5-2.5
			c-0.2-0.1-0.4-0.4-0.3-0.6s0.4-0.4,0.6-0.3l0,0C42.1,12.3,43,13,43.7,13.9z M42.7,15.2c0.8-0.2,0.2-1-0.2-1.4
			c-0.4-0.4-0.9-0.7-1.4-0.9C41.2,14,41.4,15.6,42.7,15.2L42.7,15.2z"/>
		<path class="st1" d="M42.5,13.9c0.4,0.4,1,1.1,0.2,1.4c-1.3,0.4-1.5-1.2-1.5-2.2C41.6,13.2,42.1,13.5,42.5,13.9z"/>
		<path class="st1" d="M41.6,20.1c0.1,0.9-0.5,1.7-1.3,2c-0.8,0.2-1.6-0.3-1.8-1c0,0,0-0.1,0-0.1c-0.3-1.1,0.4-2.2,0.7-3.3l0,0
			c0.1-0.2,0.4-0.4,0.6-0.3c0,0,0.1,0,0.1,0.1C40.8,18.1,41.4,19,41.6,20.1z M40,21.3c0.8-0.1,0.8-1.2,0.6-1.8
			c-0.3-0.5-0.6-0.9-1.1-1.3C39.3,19.4,38.8,21.5,40,21.3z"/>
		<path class="st1" d="M40.6,19.6c0.3,0.5,0.2,1.6-0.6,1.8c-1.3,0.2-0.8-1.9-0.5-3C40,18.7,40.3,19.1,40.6,19.6z"/>
		<path class="st3" d="M20.1,11.9c3.2-1.3,6.8-0.9,9.7,1.1c-3.4,1.3-7.1,1.4-10.6,0.5c-0.2,0-0.4,0.1-0.4,0.3c0,0,0,0,0,0.1
			c-0.5-0.3-1.2,0.5-0.7,1c2.4,2.3,3.4,5.8,2.4,9c-2.6-2.1-4.8-4.3-4.8-8c0-0.2-0.2-0.4-0.4-0.4c0,0-0.1,0-0.1,0
			c-0.3-0.1-0.5,0.1-0.6,0.3C12.8,19.6,9,22,4.8,21.8C7,18.6,9.3,15,13.2,14c0.2-0.1,0.3-0.3,0.2-0.5c0-0.1-0.2-0.3-0.3-0.3h-0.3
			c-2.7-3-4.2-5.9-4.3-9.8c0.6,0.4,1.4,0.5,2.1,0.3c-0.6,3.2,0.9,6.5,3.6,8.3c0.1,0,0.2,0,0.2,0c0.2,0.1,0.5,0,0.6-0.2
			c1.1-2.3,2-4.3,4.1-5.8c1.6-1.2,3.6-1.9,5.6-2c-0.4,0.6-0.7,1.2-0.9,1.8c-0.6,1.8-1.8,3.4-3.3,4.6c-0.3,0.1-0.6,0.1-0.8,0.3
			C19.1,11,19.4,12.1,20.1,11.9z"/>
		<path class="st1" d="M15.5,33.6c1.5-0.4,5.2,1.8,3.2,3.4c-0.9,0.5-2,0.4-2.6-0.4c-0.6-0.6-0.9-1.5-0.8-2.4
			c-0.1-0.2-0.1-0.4,0.1-0.5C15.5,33.6,15.5,33.6,15.5,33.6z M18.2,36.4c0.9-0.5-0.4-1.5-0.9-1.7c-0.4-0.2-0.9-0.3-1.4-0.3
			c0,0.5,0.2,1,0.6,1.5C16.8,36.2,17.6,36.7,18.2,36.4z"/>
		<path class="st1" d="M17.3,34.6c0.5,0.3,1.8,1.2,0.9,1.7c-0.6,0.4-1.4-0.2-1.8-0.6c-0.3-0.4-0.5-0.9-0.6-1.5
			C16.3,34.3,16.8,34.4,17.3,34.6z"/>
		<path class="st1" d="M16,27.2c0.5,0.4,0.7,1.2,0.3,1.7c0,0-0.1,0.1-0.1,0.1c-0.6,0.6-1.5,0.7-2.2,0.3c-0.7-0.6-1.1-1.4-1.2-2.3
			c0-0.1,0-0.1,0-0.2c-0.2-0.1-0.2-0.3-0.2-0.4c0.1-0.2,0.2-0.2,0.4-0.2C14,26.3,15.1,26.6,16,27.2z M15.6,28.5
			c0.7-0.8-1.3-1.3-2.3-1.5c0.2,0.5,0.4,1,0.8,1.4c0.4,0.4,1,0.5,1.4,0.1C15.5,28.6,15.6,28.5,15.6,28.5z"/>
		<path class="st1" d="M13.3,27c1,0.2,3,0.6,2.4,1.5c-0.4,0.4-1,0.5-1.4,0.1c0,0-0.1-0.1-0.1-0.1C13.7,28,13.4,27.5,13.3,27z"/>
		<path class="st1" d="M11.7,30.3c0,0.8-0.5,1.5-1.2,1.7c-0.8,0.1-1.5-0.4-1.7-1.1C8.7,30,9,29.1,9.6,28.4c0-0.1,0.1-0.1,0.2,0l0,0
			c-0.1-0.2-0.1-0.4,0.1-0.5c0.1-0.1,0.3-0.1,0.4,0C11.1,28.4,11.6,29.3,11.7,30.3z M10.6,31.1c0.9-0.8-0.1-1.9-0.7-2.6
			c0,0,0,0.1,0,0.1c-0.3,0.5-0.5,1.1-0.5,1.8C9.5,31,10.1,31.7,10.6,31.1z"/>
		<path class="st3" d="M11.2,2.6c-0.1,0-0.2,0.1-0.2,0.3l0,0c-0.8,0.3-1.6,0.3-2.3-0.2V2.4C8.6,2.2,8.4,2,8.2,2
			C9.2,1.7,10.6,1.5,11.2,2.6z"/>
		<path class="st1" d="M9.9,28.5c0.6,0.7,1.6,1.7,0.7,2.6c-0.6,0.6-1.1-0.1-1.2-0.7c0-0.6,0.2-1.2,0.5-1.8C10,28.6,10,28.6,9.9,28.5
			z"/>
	</g>
</g>
</svg>
