<?xml version="1.0" encoding="utf-8"?>
<!-- Generator: Adobe Illustrator 23.0.1, SVG Export Plug-In . SVG Version: 6.00 Build 0)  -->
<svg version="1.1" id="Camada_1" xmlns="http://www.w3.org/2000/svg" xmlns:xlink="http://www.w3.org/1999/xlink" x="0px" y="0px"
	 viewBox="0 0 247.4 220.9" style="enable-background:new 0 0 247.4 220.9;" xml:space="preserve">
<style type="text/css">
	.st0{fill:#55DBFF;}
	.st1{fill:#FF8A66;}
	.st2{fill:#FFFFFF;}
	.st3{fill:#FFE255;}
</style>
<title>Ativo 2</title>
<g>
	<g id="object">
		<path class="st0" d="M174,132.2c-13.8-4.6-25.4-14-32.8-26.4c-1.8-3-3.1-5.3-3.2-5.6c-0.4-1.6-2-2.6-3.5-3.3
			c-7.2-2.8-15.1,0.6-22.3,3.4s-16,4.9-22,0.1c-1.3-1-2.3-2.3-3.7-3.3c-5.8-4.2-13.8-0.7-20.3,2.3c-8.8,4.1-17.9,7.3-27.4,9.6
			c-7.5,1.8-15.3,3-22.4,6.1s-13.7,8.6-15.8,16.1c-2.4,8.3,1.4,17.6,8,23.1s15.6,7.6,24.2,7.3c7.8-0.3,17-2.1,22.3,3.7
			c5.8,6.3,2.1,16.2,2.3,24.8c0.3,15,13.9,27.2,28.5,30.1s29.8-1.6,43.4-8c8.4-3.9,17-8.7,26.3-8.5c6.8,0.2,13.1,3,19.6,5.1
			c18.7,6.1,40.5,5.7,56.8-5.4c7.5-5.1,12.8-5.7,15.1-24.9c2.6-21.6-16.6-27.8-22.8-29.4L174,132.2z"/>
		<path class="st1" d="M132.9,50.8c14.7-21.2,36.2-38.6,61.5-43.8c4.8-1,9.9-1.5,14.7-0.5c6.2,1.3,11.6,5.2,16.6,9.1
			c0.2,2.1-2.1,3.4-4.1,4.1s-4.4,1.4-5,3.4s1.4,4,3.1,5.4c-2.1,1.5-3.8,4.1-3.3,6.6s3.9,4.4,5.9,2.7c-0.9,2.3-0.5,4.9,1.1,6.8
			c0.4,0.4,0.7,0.9,0.9,1.5c-0.1,0.6-0.4,1.1-0.8,1.5c-11.3,11.4-24,21.8-32.3,35.5c-2.9,4.7-5.9,10.3-11.3,11.4s-11-3.9-10.6-9.3
			c-4.1,0.1-8-1.1-11.4-3.5c-3.3-2.4-5.2-6.3-5.1-10.4c-4,0.2-8.2,0.3-11.8-1.4s-6.4-5.9-5.1-9.7c-2.8,0.4-5.4-1.3-6.1-4
			C129.4,53.8,132.9,50.8,132.9,50.8z"/>
		<path d="M133.5,51.2c9.6-13.7,21.8-25.8,36.5-34.1c7.3-4.2,15.2-7.3,23.5-9.1c5-1.1,10.3-1.8,15.4-0.7c4.7,1,8.9,3.5,12.8,6.2
			c0.6,0.4,2.8,1.5,3,2.2c0.7,1.9-2.1,2.8-3.3,3.3c-1.5,0.5-3.2,0.9-4.3,2.1c-2.8,2.8-0.2,6,2.2,8l0.1-1.1c-2.4,1.9-4.8,5.2-3.3,8.4
			c1.1,2.5,4.3,3.8,6.6,2.2l-1-0.8c-0.5,1.4-0.6,2.9-0.3,4.3c0.4,1.6,2.4,3.4,1.6,5.1c-0.3,0.6-1.3,1.3-1.7,1.7l-2.3,2.3
			c-1.4,1.3-2.8,2.7-4.1,4c-5.7,5.3-11.1,10.9-16.2,16.7c-2.4,2.8-4.6,5.8-6.7,8.9c-1.9,2.9-3.5,6-5.7,8.7s-5.5,5.2-9.3,4.4
			c-4.1-0.8-6.9-4.4-6.9-8.6c0-0.4-0.3-0.7-0.7-0.7c-7.6-0.2-16-4.5-15.7-13.2c0-0.4-0.3-0.7-0.7-0.7c-3.8,0.2-7.9,0.4-11.4-1.3
			c-3.3-1.6-5.8-5.1-4.8-8.9c0.1-0.4-0.2-1-0.7-0.9c-2.8,0.4-6.3-1.9-5.1-5.1c0.6-1.3,1.4-2.4,2.5-3.2c0.7-0.6-0.3-1.6-1-1
			c-1.7,1.5-3.6,3.8-3.1,6.2c0.5,3.1,3.8,5,6.8,4.6l-0.7-0.9c-1,3.6,0.7,7.2,3.7,9.4c3.9,2.9,9.2,2.7,13.9,2.5l-0.7-0.7
			c-0.4,9.5,8.8,14.4,17.1,14.6l-0.7-0.7c0,5.1,3.7,9.4,8.7,10.1c5.4,0.7,9.4-3.7,12-7.8c3.9-6,7.6-11.8,12.4-17.2
			S211.7,60,216.9,55c1.5-1.4,3-2.8,4.4-4.3c1.1-1,2.6-2.1,3.3-3.4c0.5-0.8,0.4-1.8-0.2-2.5c-1.4-2.3-2.4-4-1.4-6.7
			c0.1-0.4-0.1-0.8-0.5-0.9c-0.2,0-0.4,0-0.5,0.1c-1.9,1.3-4.2-0.1-4.7-2.1c-0.7-2.4,1-4.6,2.8-6c0.3-0.2,0.5-0.7,0.2-1
			c0,0-0.1-0.1-0.1-0.1c-2.3-1.9-4.5-5-0.8-6.8c1.8-0.9,3.8-1.1,5.4-2.4c0.8-0.6,1.4-1.6,1.6-2.6c0.1-1.7-2.2-2.6-3.4-3.5
			c-3.7-2.8-7.8-5-12.2-6.5c-4.5-1.1-9.1-1.3-13.6-0.5c-17,2.6-32.8,11.4-45.6,22.7c-7.3,6.5-13.8,13.9-19.4,21.9
			C131.7,51.2,133,51.9,133.5,51.2z"/>
		<path d="M150.9,67l-8.3,10.4c-5.9,7.3-11.8,14.7-15.9,23.2c-1.1,2.3-2,5.1-0.6,7.2c1.6,2.4,5.4,2.2,7.6,0.4s2.8-4.8,4.5-7.2
			c6.9-9.6,20.7-29.5,20.2-30C158.2,70.8,150.9,67,150.9,67z"/>
		<path d="M150.4,66.5c-7.2,9-15,17.8-21.1,27.7c-2.1,3.4-6,8.9-4.3,13.1c1.3,3.1,5.2,3.5,8,2.2c1.7-1,3-2.5,3.8-4.3
			c0.9-1.9,2-3.6,3.1-5.3c2.3-3.1,4.5-6.3,6.7-9.5c3.9-5.7,8-11.3,11.5-17.2c0.7-1.1,1.5-2,0.3-3c-2-1.6-4.9-2.6-7.1-3.8
			c-0.8-0.4-1.6,0.8-0.7,1.2l5.1,2.7c0.7,0.5,1.4,0.9,2.2,1.2c-0.4-0.1,0.1-0.6-0.3-0.4c-0.1,0.1-0.4,0.7-0.4,0.8
			c-2.6,4.5-5.7,8.8-8.6,13c-3.6,5.3-7.4,10.4-11,15.7c-2.2,3.3-3.6,9.3-8.9,8c-6.2-1.6,0.6-11.6,2.4-14.5
			c5.9-9.5,13.4-18,20.4-26.7C152,66.8,150.9,65.8,150.4,66.5z"/>
		<path class="st2" d="M148.6,64.8l-8.3,10.4c-5.9,7.3-11.8,14.7-15.9,23.2c-1.1,2.3-2,5.1-0.6,7.2c1.6,2.4,5.4,2.2,7.6,0.4
			s2.8-4.8,4.5-7.2c6.9-9.6,20.7-29.5,20.2-30C156,68.6,148.6,64.8,148.6,64.8z"/>
		<path d="M148.1,64.3c-7.2,9-15,17.8-21,27.7c-2.1,3.4-6,8.9-4.3,13.1c1.3,3.1,5.2,3.6,8,2.2c1.7-1,3-2.5,3.8-4.3
			c0.9-1.9,2-3.7,3.1-5.4c2.3-3.2,4.5-6.3,6.7-9.5c3.9-5.7,8-11.3,11.5-17.2c0.7-1.1,1.5-2,0.3-3c-2-1.6-4.9-2.6-7.2-3.8
			c-0.8-0.4-1.5,0.8-0.7,1.2l5.1,2.7c0.7,0.5,1.4,0.9,2.2,1.2c-0.4-0.1,0.1-0.6-0.3-0.4c-0.1,0.1-0.4,0.7-0.4,0.8
			c-2.6,4.5-5.7,8.8-8.6,13c-3.6,5.3-7.4,10.4-11,15.7c-2.2,3.3-3.6,9.3-8.9,8c-6.2-1.6,0.6-11.5,2.4-14.5
			c5.9-9.5,13.4-18,20.4-26.7C149.7,64.6,148.7,63.5,148.1,64.3z"/>
		<path class="st3" d="M124.9,45.5c14.7-21.2,36.2-38.6,61.5-43.7c4.8-1,9.8-1.5,14.7-0.5c6.2,1.4,11.6,5.2,16.6,9.1
			c0.2,2.1-2.1,3.4-4.1,4.1s-4.4,1.4-4.9,3.4s1.4,4.1,3.1,5.4c-2.1,1.5-3.8,4.1-3.3,6.6s3.9,4.4,5.9,2.7c-0.9,2.3-0.5,4.9,1.1,6.8
			c0.4,0.4,0.7,0.9,0.9,1.5c-0.1,0.6-0.4,1.1-0.8,1.5c-11.3,11.4-24,21.8-32.3,35.5c-2.9,4.7-5.9,10.3-11.3,11.4s-11-3.9-10.6-9.3
			c-4.1,0.1-8-1.1-11.4-3.5c-3.3-2.4-5.2-6.3-5.1-10.4c-4,0.2-8.2,0.3-11.8-1.4s-6.4-5.9-5.1-9.7c-2.8,0.5-5.4-1.3-6.1-4
			C121.3,48.4,124.9,45.5,124.9,45.5z"/>
		<path d="M125.5,45.8c9.6-13.7,21.8-25.8,36.5-34.1c7.3-4.2,15.3-7.3,23.5-9.1c5-1.1,10.3-1.8,15.4-0.7c4.7,1,8.9,3.5,12.8,6.3
			c0.6,0.4,2.8,1.5,3,2.2c0.7,1.9-2.1,2.8-3.3,3.3c-1.5,0.5-3.2,0.9-4.3,2.1c-2.8,2.8-0.1,6,2.2,7.9l0.1-1.1
			c-2.4,1.9-4.8,5.2-3.3,8.4c1.1,2.5,4.3,3.8,6.6,2.2l-1.1-0.8c-0.5,1.4-0.6,2.9-0.3,4.3c0.4,1.6,2.4,3.4,1.6,5.1
			c-0.3,0.6-1.3,1.3-1.7,1.7l-2.4,2.3l-4.1,4c-5.7,5.3-11.1,10.8-16.2,16.7c-2.4,2.8-4.6,5.8-6.7,8.9c-1.9,2.9-3.5,6-5.6,8.7
			s-5.5,5.2-9.3,4.4c-4-0.9-6.9-4.4-6.9-8.6c0-0.4-0.3-0.7-0.7-0.7c-7.6-0.2-16-4.5-15.7-13.2c0-0.4-0.3-0.7-0.7-0.7
			c-3.8,0.2-7.9,0.4-11.4-1.3c-3.3-1.6-5.8-5.1-4.8-8.9c0.1-0.4-0.2-1-0.7-0.9c-2.8,0.4-6.3-1.9-5.1-5.1c0.5-1.3,1.4-2.4,2.5-3.3
			c0.7-0.6-0.3-1.6-1-1c-1.7,1.5-3.6,3.8-3.2,6.2c0.6,3.1,3.8,5,6.8,4.6l-0.7-0.9c-1,3.6,0.8,7.3,3.7,9.4c3.9,2.9,9.2,2.7,13.9,2.5
			l-0.7-0.7c-0.4,9.4,8.8,14.4,17.1,14.6l-0.7-0.7c0,5.1,3.7,9.4,8.7,10.1c5.4,0.7,9.4-3.7,12-7.8c3.9-6,7.6-11.8,12.4-17.2
			s10-10.4,15.3-15.4l4.4-4.3c1-1,2.5-2.1,3.3-3.4c0.5-0.8,0.4-1.8-0.2-2.5c-1.4-2.3-2.4-4-1.4-6.7c0.1-0.4-0.2-0.8-0.5-0.9
			c-0.2,0-0.3,0-0.5,0c-1.9,1.3-4.2-0.1-4.7-2.1c-0.7-2.4,1-4.6,2.8-6c0.3-0.2,0.4-0.7,0.2-1c0,0-0.1-0.1-0.1-0.1
			c-2.3-1.9-4.5-5-0.8-6.8c1.8-0.9,3.8-1.1,5.4-2.4c0.8-0.6,1.4-1.6,1.6-2.6c0.2-1.7-2.2-2.6-3.4-3.5c-3.7-2.9-7.8-5.1-12.2-6.5
			c-4.5-1.2-9.1-1.3-13.6-0.5c-17,2.6-32.8,11.4-45.6,22.7c-7.3,6.5-13.8,13.9-19.4,21.9C123.7,45.9,125,46.6,125.5,45.8z"/>
		<path class="st0" d="M130.4,51.6l32.2-31.9c1.9-1.9,4.1-4,6.9-3.9c0.3,0,0.5,0.1,0.8,0.2c0.2,0.3,0.3,0.7,0.1,1.1
			c-0.9,3.1-3.5,5.2-6,7.2L131,50.8L130.4,51.6z"/>
		<path class="st0" d="M130.9,52.1l19.4-19.3l10-10c1.4-1.4,2.8-2.9,4.3-4.2c1-0.8,6.1-4.1,4.4-0.6s-5.4,5.8-8.3,8.1l-11,8.9
			l-10.4,8.3c-3.1,2.5-6.9,4.8-9.5,7.8C129.3,51.8,130.3,52.8,130.9,52.1c2.2-2.5,5.4-4.5,8-6.6l10-8l9.6-7.7c3-2.4,6.3-4.7,9.1-7.4
			c1.4-1.3,3.8-4,3.4-6.1s-3.2-1.2-4.5-0.6c-3,1.3-5.3,4.2-7.6,6.5l-9,9l-20.1,20c-0.2,0.3-0.1,0.8,0.3,1
			C130.4,52.2,130.7,52.2,130.9,52.1z"/>
		<path class="st0" d="M146.4,60.8L183,25.6c0.5-0.6,1.1-1,1.8-1.2c1.7-0.4,3.3,1.6,3,3.4s-1.6,3.2-2.8,4.4
			C173.7,43.5,146.4,60.8,146.4,60.8z"/>
		<path class="st0" d="M146.9,61.3l21.3-20.5l10.8-10.4l2.4-2.3c0.4-0.5,0.9-0.9,1.4-1.3c0.7-0.5,2.6-1.6,3.5-1.2s0.8,2.3,0.6,2.8
			c-0.3,0.8-0.8,1.6-1.4,2.3c-0.6,0.6-1.2,1.2-1.8,1.8c-8.9,8.5-19.3,15.5-29.5,22.3c-2.8,1.8-5.5,3.7-8.3,5.5
			c-0.8,0.5-0.1,1.7,0.7,1.2c9-5.7,17.8-11.8,26.3-18.3c2.8-2.1,5.6-4.3,8.3-6.6c2.3-2,5.5-4.3,6.7-7.1c1-2.3-0.1-6.3-3.3-5.7
			c-1.8,0.3-3.1,2.2-4.4,3.4l-6.4,6.2l-28.1,27C145.2,60.9,146.2,62,146.9,61.3z"/>
		<path class="st0" d="M164.8,75.3l25.6-28.9c0.7-0.9,1.6-1.7,2.7-2.1c1.1-0.4,2.4,0.1,2.8,1.3c0.1,0.8-0.1,1.6-0.5,2.2
			c-6,10.8-19,15.5-27.6,24.4L164.8,75.3z"/>
		<path class="st0" d="M165.3,75.8L182.8,56c2.8-3.2,5.5-6.7,8.6-9.7c0.4-0.5,0.9-0.9,1.5-1.2c1.9,0.7,2.5,1.5,1.8,2.5
			c-0.3,0.7-0.8,1.4-1.3,2c-1,1.4-2.1,2.8-3.4,4c-4.7,4.7-10.4,8.1-15.7,12c-3.6,2.8-6.9,5.8-10.1,9.1c-0.2,0.3-0.1,0.8,0.2,1
			C164.7,75.9,165.1,75.9,165.3,75.8c3.1-3.3,6.4-6.3,10-9.1c4.7-3.5,9.7-6.5,14-10.4c2.1-1.9,10.1-9.2,6.5-12.2
			c-1.6-1.3-3.7-0.5-5,0.8c-2.9,2.6-5.3,5.9-7.9,8.8l-18.7,21.1C163.7,75.4,164.7,76.5,165.3,75.8z"/>
		<path d="M19,154.1l7-38l16.9-1.4c-0.3,0.8-0.5,1.6-0.7,2.4s-0.3,1.4-0.5,2.1s-0.3,1.4-0.4,2c-0.4,0-0.9,0.1-1.5,0.1h-2.1
			c-0.8,0-1.5,0-2.3,0h-2l-1.9,9.6c1.1-0.1,2.1-0.1,3.1-0.2c0.8,0,1.6-0.1,2.4-0.1s1.4,0,1.8-0.1c-0.1,1-0.3,2-0.4,2.9
			s-0.3,1.9-0.5,2.9c-0.4,0-0.9,0.1-1.7,0.1l-2.4,0.1l-3,0.1l-1.8,9.9l7.8-1.2l-0.5,6.1L19,154.1z"/>
		<path d="M37.1,154.3c1.1-5.1,2.1-10.1,3-14.9c0.3-2.1,0.7-4.2,1.2-6.4s0.8-4.4,1.1-6.5s0.7-4.2,1-6.2s0.5-3.8,0.6-5.4
			c0.5,0,0.8,0.1,1.2,0.1h1.1h1.8c0.7,0,1.4,0,2.1-0.1l2.3-0.1c0.5,2.5,0.9,4.9,1.3,7.2l1.2,6.3c0.4,2.1,0.8,3.9,1.1,5.4
			c0.1-0.7,0.3-1.5,0.5-2.5s0.4-1.9,0.6-3s0.4-2.1,0.6-3.1s0.4-2.1,0.6-3.1l1.5-7.1l6.5-0.8c-1.2,5.4-2.3,10.6-3.2,15.5
			c-0.4,2.1-0.8,4.2-1.3,6.4c-0.4,2.1-0.8,4.2-1.2,6.2s-0.7,3.8-0.9,5.5s-0.4,3.1-0.6,4.2c-0.4,0.1-0.8,0.1-1.3,0.3
			c-0.7,0.2-1.6,0.3-2.5,0.6l-2.8,0.6c-0.7,0.1-1.4,0.3-2.1,0.6c-0.2-2.8-0.4-5.6-0.7-8.1c-0.1-1.1-0.2-2.2-0.3-3.4
			s-0.3-2.3-0.4-3.3s-0.3-2.1-0.4-3s-0.3-1.7-0.4-2.4c-0.1,0.7-0.3,1.5-0.4,2.4s-0.4,1.8-0.5,2.8s-0.4,2-0.5,3.1s-0.4,2.1-0.6,3.1
			c-0.5,2.4-1,4.9-1.5,7.5L37.1,154.3z"/>
		<path d="M75,144.8c-0.4,1.6-1,3.1-1.8,4.6c-0.7,1.3-1.6,2.5-2.8,3.4c-1.1,0.9-2.5,1.4-3.9,1.4c-1.1,0-2.2-0.2-3.2-0.6
			c-1.4-0.5-2.7-1.3-3.8-2.2l3.7-8.2c0.2,0.4,0.6,0.7,1,0.9c0.5,0.3,1.1,0.4,1.7,0.4c0.4,0,0.8-0.4,1.1-1.1c0.4-0.8,0.7-1.6,0.9-2.5
			c0.3-1,0.5-1.9,0.6-2.9c0.1-1,0.3-1.8,0.3-2.4c0.7-3.5,1.3-6.9,1.9-10.3c0.6-3.4,1.3-6.9,2.1-10.3c1.6-0.1,3.2-0.4,4.7-0.7
			c1.6-0.3,3.1-0.7,4.7-1.1c-0.5,1.8-1.1,3.9-1.7,6.2c-0.6,2.3-1.1,4.7-1.6,7.1c-0.5,2.4-1,4.8-1.5,7.1c-0.5,2.3-0.9,4.4-1.3,6.3
			C75.9,141.4,75.5,143.1,75,144.8z"/>
		<path d="M104.8,133.4c-0.6,2.4-1.4,4.8-2.5,7.1c-1,2.1-2.2,4-3.6,5.8c-1.3,1.6-2.7,3-4.3,4.3c-1.4,1.1-2.9,2-4.5,2.7
			c-1.4,0.6-2.9,0.9-4.4,0.9c-1.1,0-2.2-0.2-3.2-0.7c-1-0.5-1.8-1.1-2.5-2c-0.8-1-1.4-2.1-1.7-3.4c-0.4-1.6-0.6-3.3-0.6-4.9
			c0-2.1,0.3-4.2,0.8-6.3c0.5-2.2,1.2-4.4,2-6.6c0.8-2.2,1.9-4.2,3.2-6.2c1.2-1.9,2.6-3.6,4.1-5.2c1.4-1.4,3-2.7,4.8-3.6
			c1.6-0.9,3.5-1.3,5.3-1.3c1.4-0.1,2.8,0.3,4,1c1,0.6,1.9,1.5,2.4,2.6c0.6,1.1,1,2.3,1.3,3.6c0.2,1.3,0.4,2.7,0.4,4
			C105.7,128,105.4,130.7,104.8,133.4z M85.7,143.2c0.1,0.4,0.3,0.8,0.6,1.1c0.3,0.3,0.6,0.6,0.9,0.8c0.4,0.2,0.8,0.4,1.2,0.4
			c1.6,0,3.1-0.6,4.3-1.6c1.3-1.1,2.3-2.5,3.1-4.1c0.8-1.6,1.5-3.4,1.9-5.1c0.4-1.6,0.7-3.3,0.7-5c0-0.5,0-0.9-0.1-1.4
			c0-0.5-0.2-0.9-0.3-1.4c-0.2-0.4-0.4-0.8-0.8-1.1c-0.4-0.3-0.9-0.5-1.4-0.5c-1.1,0-2.2,0.3-3.2,0.9c-1,0.6-1.9,1.4-2.6,2.3
			c-0.8,1-1.5,2.1-2,3.2c-0.6,1.2-1.1,2.4-1.5,3.6c-0.4,1.2-0.7,2.4-0.9,3.6c-0.2,1-0.2,2-0.3,3.1C85.5,142.4,85.5,142.8,85.7,143.2
			z"/>
		<path d="M106.3,153.3l2.4-10.7c0-1.5,0-3.2-0.1-5s-0.1-3.6-0.2-5.4s-0.2-3.6-0.3-5.3s-0.2-3.2-0.3-4.5s-0.2-2.7-0.3-4.3l8.7-3.3
			v9.2c0,0.9,0,1.8,0,2.7s0,1.7,0,2.5v2c0.5-1.2,1-2.7,1.7-4.5c0.7-1.8,1.3-3.5,1.8-5.2c0.7-2,1.4-4,2.1-6.2l8.3,1.9
			c-1.5,3.1-3,6.1-4.5,9.1c-0.6,1.3-1.3,2.7-1.9,4.1l-2,4.2c-0.7,1.4-1.3,2.8-2,4.1s-1.2,2.6-1.8,3.7c-0.2,0.9-0.4,1.9-0.7,3
			s-0.5,2.2-0.8,3.1c-0.3,1.2-0.7,2.4-1,3.5L106.3,153.3z"/>
		<path d="M83.3,189.4c-0.7,1.6-1.8,3-3.1,4.2c-1.3,1.2-2.9,2.1-4.6,2.7c-1.8,0.7-3.7,1-5.7,1c-1.5,0-3-0.4-4.3-1.1
			c-1.6-0.9-3-2.2-4.1-3.7l3.9-7.7c0.3,0.5,0.7,1,1.1,1.4c0.5,0.5,1.1,0.9,1.7,1.3c0.6,0.3,1.2,0.6,1.9,0.9c0.5,0.2,1.1,0.3,1.7,0.4
			c0.5,0,0.9-0.1,1.3-0.2c0.5-0.1,0.9-0.4,1.3-0.6c0.4-0.3,0.7-0.6,0.9-1c0.2-0.4,0.4-0.9,0.3-1.3c0-0.9-0.3-1.7-0.8-2.4
			c-0.6-0.8-1.3-1.5-2-2.1c-0.8-0.7-1.7-1.3-2.7-2c-0.9-0.7-1.8-1.4-2.6-2.1c-0.8-0.7-1.5-1.6-2.1-2.5c-0.6-0.9-0.9-2-0.8-3.1
			c0-1.9,0.6-3.7,1.7-5.2c1.1-1.6,2.5-3,4.1-4.1c1.7-1.2,3.5-2.1,5.4-2.8c1.8-0.6,3.7-1,5.6-1c0.9,0,1.8,0.1,2.7,0.4
			c0.8,0.2,1.6,0.6,2.2,1.1c0.6,0.5,1.2,1.2,1.5,2c0.4,0.9,0.6,1.9,0.6,2.9c0,0.5,0,1-0.1,1.5c-0.1,0.5-0.2,1-0.2,1.6l-7.7,2.2
			c0.1-0.3,0.1-0.6,0.2-0.9c0.1-0.3,0.1-0.6,0.1-0.9c0.1-0.8-0.1-1.6-0.6-2.3c-0.3-0.5-0.9-0.7-1.5-0.7c-0.4,0-0.7,0.1-1,0.3
			c-0.4,0.2-0.9,0.5-1.2,0.8c-0.4,0.3-0.7,0.7-1,1.2c-0.3,0.4-0.4,1-0.4,1.5c0,0.8,0.2,1.5,0.7,2.1c0.5,0.6,1.1,1.1,1.8,1.6
			c0.7,0.5,1.5,1,2.3,1.5c1.9,1.2,3.4,3,4.1,5.1c0.5,1.5,0.8,3.1,0.7,4.7C84.5,185.9,84,187.7,83.3,189.4z"/>
		<path d="M105.2,189.8c0,0-0.4,0.7-1.4,2.1c-0.8,1.4-1.9,2.5-3.2,3.5c-1.2,0.9-2.5,1.6-3.9,2c-1.3,0.4-2.7,0.6-4.2,0.6
			c-0.9,0-1.7-0.1-2.5-0.4c-0.8-0.3-1.6-0.7-2.3-1.2c-0.7-0.5-1.3-1.2-1.7-2c-0.5-0.9-0.7-1.9-0.7-2.9v-0.4c0-0.1,0-0.3,0-0.4
			c0.1-1.5,0.4-3.2,0.7-5.3s0.7-4.2,1-6.5s0.7-4.5,1.2-6.8s0.8-4.3,1.2-6.2s0.6-3.4,0.9-4.6s0.4-2,0.5-2.3l2.7-0.3
			c1-0.1,2-0.2,2.9-0.3l3.3-0.3c-0.9,4.3-1.7,8.2-2.5,11.7c-0.3,1.5-0.6,3-0.9,4.5s-0.6,2.9-0.8,4.1s-0.5,2.3-0.7,3.2
			s-0.3,1.6-0.5,2.2s-0.3,1.3-0.4,2.2c-0.2,0.8-0.2,1.6-0.2,2.4c0,0.5,0.2,1,0.5,1.4c0.2,0.3,0.6,0.6,1.1,0.6c0.6,0,1.1-0.3,1.5-0.7
			c0.4-0.5,0.8-1.1,1-1.7c0.3-0.7,0.5-1.4,0.6-2.1c0.1-0.7,0.2-1.2,0.3-1.6c0.2-1,0.4-2.2,0.7-3.4s0.5-2.6,0.8-3.9l0.8-4.2
			c0.3-1.4,0.5-2.8,0.8-4.2c0.6-3.1,1.2-6.4,1.8-9.7l8.1-0.5c-0.4,1.9-0.7,3.5-1,5.1s-0.6,3.3-0.9,5.2c-0.3,2-0.7,4-1.1,6.1
			s-0.8,4.2-1.3,6.3s-0.8,3.9-1.2,5.6L105.2,189.8z"/>
		<path d="M106.3,197.4c1.1-5.1,2.1-10.1,3-14.9c0.4-2.1,0.7-4.2,1.2-6.4s0.8-4.4,1.2-6.5s0.7-4.2,1-6.2s0.5-3.8,0.6-5.4
			c0.5,0,0.8,0.1,1.2,0.1h1.1h1.8l2.1-0.1l2.3-0.1c0.5,2.5,0.9,4.9,1.3,7.2c0.4,2,0.8,4.1,1.2,6.2s0.8,4,1.1,5.4
			c0.1-0.7,0.3-1.5,0.5-2.5s0.4-1.9,0.6-3s0.4-2.1,0.6-3.1s0.4-2.1,0.6-3.1c0.5-2.3,1-4.7,1.5-7.2l6.5-0.8
			c-1.2,5.5-2.3,10.6-3.2,15.5c-0.4,2.1-0.8,4.2-1.3,6.4c-0.4,2.2-0.8,4.2-1.1,6.2s-0.7,3.8-0.9,5.5s-0.4,3.1-0.6,4.2
			c-0.4,0.1-0.8,0.1-1.3,0.2l-2.5,0.6l-2.8,0.6c-0.7,0.2-1.4,0.4-2.1,0.6c-0.2-2.9-0.4-5.6-0.7-8.1c-0.1-1.1-0.2-2.2-0.3-3.4
			s-0.3-2.3-0.4-3.3s-0.3-2.1-0.4-3s-0.3-1.7-0.4-2.4c-0.1,0.7-0.3,1.5-0.4,2.4s-0.3,1.8-0.5,2.8s-0.4,2-0.5,3.1s-0.4,2.1-0.6,3.1
			c-0.5,2.4-1,4.9-1.5,7.5L106.3,197.4z"/>
		<path d="M152.7,189.4c-0.7,1.6-1.8,3-3.1,4.2c-1.3,1.2-2.9,2.1-4.6,2.7c-1.8,0.7-3.7,1-5.7,1c-1.5,0-3-0.4-4.3-1.1
			c-1.6-0.9-3-2.2-4.1-3.7l4-7.7c0.3,0.5,0.7,1,1.1,1.4c0.5,0.5,1.1,0.9,1.7,1.3c0.6,0.3,1.2,0.6,1.9,0.9c1,0.4,2,0.5,3,0.1
			c0.5-0.1,0.9-0.4,1.3-0.6c0.4-0.3,0.7-0.6,0.9-1c0.2-0.4,0.4-0.8,0.4-1.3c0-0.9-0.3-1.7-0.8-2.4c-0.6-0.8-1.3-1.5-2-2.1
			c-0.8-0.7-1.7-1.3-2.7-2c-0.9-0.7-1.8-1.4-2.6-2.1c-0.8-0.7-1.5-1.6-2.1-2.5c-0.6-0.9-0.9-2-0.9-3.1c0-1.9,0.6-3.7,1.6-5.2
			c1.1-1.6,2.5-3,4.1-4.1c1.7-1.2,3.5-2.1,5.4-2.8c1.8-0.6,3.7-1,5.6-1c0.9,0,1.8,0.1,2.7,0.4c0.8,0.2,1.6,0.6,2.2,1.1
			c0.6,0.5,1.2,1.2,1.5,2c0.4,0.9,0.6,1.9,0.6,2.9c0,0.5,0,1-0.1,1.5c-0.1,0.5-0.2,1-0.2,1.6l-7.7,2.2c0.1-0.3,0.1-0.6,0.2-0.9
			c0.1-0.3,0.1-0.6,0.1-0.9c0.1-0.8-0.1-1.6-0.6-2.3c-0.3-0.5-0.9-0.7-1.5-0.7c-0.4,0-0.7,0.1-1,0.3c-0.4,0.2-0.9,0.5-1.2,0.8
			c-0.4,0.3-0.7,0.7-1,1.2c-0.3,0.4-0.4,1-0.4,1.5c0,0.8,0.2,1.5,0.7,2.1c0.5,0.6,1.1,1.1,1.8,1.6c0.7,0.5,1.5,1,2.3,1.5
			c1.9,1.2,3.3,3,4.1,5.1c0.5,1.5,0.8,3.1,0.7,4.7C154,185.9,153.5,187.7,152.7,189.4z"/>
		<path d="M153.6,197.3c1-5,2-9.8,2.9-14.6c0.4-2,0.7-4.1,1.1-6.3s0.8-4.4,1.1-6.5s0.7-4.2,1-6.2s0.5-3.8,0.7-5.5
			c0.8,0,1.6,0.1,2.3,0.1s1.4,0.1,2.1,0.1l2.1,0.1h2.3c-0.6,2.5-1.2,5.1-1.8,7.6s-1.1,5.1-1.6,7.6l5.3-0.6c0.5-2.5,1-5,1.3-7.3
			s0.9-4.8,1.6-7.3c0.8-0.1,1.7-0.3,2.7-0.4l2.8-0.2l3-0.3c-0.5,1.6-1,3.4-1.4,5.3c-0.4,1.9-0.9,3.9-1.3,5.9s-0.8,4.1-1.2,6.2
			s-0.8,4.1-1.1,6c-0.8,4.5-1.5,9.1-2.2,13.9l-8.3,1c0.5-2.1,0.9-4.2,1.2-6.3c0.4-1.7,0.7-3.5,1.1-5.3s0.7-3.4,0.9-4.8l-5.2,0.5
			c-0.3,1.4-0.6,2.9-0.9,4.7s-0.6,3.5-0.9,5.1l-1.2,5.8L153.6,197.3z"/>
		<path d="M183.9,196.2c-0.9,0.1-1.9,0.2-2.9,0.3l-2.7,0.4c-0.4,0-0.9,0.1-1.3,0.2c0.4-1.5,0.7-3.2,1.1-5.1s0.8-3.8,1.1-5.9
			c0.4-2,0.8-4.1,1.1-6.2s0.7-4.1,1-6.1c0.8-4.6,1.5-9.2,2.2-14l8.3-1.3c-0.8,4.8-1.6,9.4-2.4,14c-0.3,1.9-0.7,4-1,6.1
			c-0.3,2.1-0.7,4.2-1,6.3s-0.6,4.1-0.9,6s-0.6,3.7-0.8,5.3C185.5,196.1,184.8,196.1,183.9,196.2z"/>
		<path d="M187.8,197.4c1.1-5.1,2.1-10.1,3.1-14.9c0.4-2.1,0.7-4.2,1.1-6.4s0.8-4.4,1.1-6.5s0.7-4.2,1-6.2s0.5-3.8,0.6-5.4
			c0.5,0,0.9,0.1,1.2,0.1h1.1h1.8l2.1-0.1l2.3-0.1c0.5,2.5,0.9,4.9,1.3,7.2l1.2,6.2c0.4,2.1,0.8,4,1.1,5.4c0.1-0.7,0.3-1.5,0.5-2.5
			s0.4-1.9,0.6-3s0.4-2.1,0.6-3.1s0.4-2.1,0.6-3.1c0.5-2.3,1-4.7,1.6-7.2l6.5-0.8c-1.2,5.4-2.3,10.6-3.2,15.5
			c-0.4,2.1-0.8,4.2-1.3,6.4s-0.8,4.2-1.1,6.2s-0.7,3.8-0.9,5.5s-0.4,3.1-0.6,4.2c-0.4,0.1-0.8,0.1-1.3,0.2l-2.5,0.6l-2.8,0.6
			c-0.7,0.2-1.4,0.3-2.1,0.6c-0.2-2.9-0.4-5.6-0.7-8.1c-0.1-1.1-0.2-2.2-0.4-3.4s-0.3-2.3-0.4-3.3s-0.3-2.1-0.4-3s-0.3-1.7-0.4-2.4
			c-0.1,0.7-0.3,1.5-0.4,2.4s-0.4,1.8-0.5,2.8s-0.4,2-0.5,3.1s-0.4,2.1-0.6,3.1c-0.5,2.4-1,4.9-1.5,7.5L187.8,197.4z"/>
		<path d="M212.1,197.2l7-38l16.9-1.4c-0.3,0.8-0.5,1.6-0.6,2.4c-0.2,0.7-0.4,1.4-0.5,2.1s-0.3,1.4-0.4,1.9c-0.4,0-0.9,0.1-1.5,0.1
			l-2.1,0.1c-0.8,0-1.5,0-2.3,0h-2l-1.9,9.6c1.1-0.1,2.1-0.1,3.1-0.2c0.8,0,1.6-0.1,2.4-0.1s1.4,0,1.8-0.1c-0.1,1-0.3,2-0.4,2.9
			s-0.3,1.9-0.5,2.9c-0.4,0-0.9,0.1-1.7,0.1s-1.6,0-2.4,0.1l-3,0.1l-1.9,9.8l7.8-1.2l-0.5,6.1L212.1,197.2z"/>
	</g>
</g>
</svg>
