<?xml version="1.0" encoding="utf-8"?>
<!-- Generator: Adobe Illustrator 23.0.1, SVG Export Plug-In . SVG Version: 6.00 Build 0)  -->
<svg version="1.1" id="Camada_1" xmlns="http://www.w3.org/2000/svg" xmlns:xlink="http://www.w3.org/1999/xlink" x="0px" y="0px"
	 viewBox="0 0 506.7 444.3" style="enable-background:new 0 0 506.7 444.3;" xml:space="preserve">
<style type="text/css">
	.st0{fill:#FFFFFF;}
	.st1{fill:#55DBFF;}
	.st2{fill:#FFE255;}
	.st3{fill:none;}
	.st4{fill:#FF8A66;}
</style>
<title>Ativo 8</title>
<g>
	<g id="object">
		<path d="M181.1,407.6c-17.6-3.2-35.3,1.5-52.9,2.5c-22.8,1.2-39.8-8.7-50-29.4C67.8,359.3,66.5,335,60,312.4
			c-2.7-9.9-6.9-19.2-12.5-27.8c0,0.1,0,0.2-0.1,0.3c-0.4,1.4-1.8,2.2-3.2,1.9c-0.8-0.3-1.6-0.6-2.4-0.9c5.8,9.2,10.4,18.2,13.4,29
			c3.3,12,5.4,24.3,8.1,36.4c4.7,21.2,12.2,44.9,31.7,57.1c16.4,10.3,36.1,6.8,54.2,4.7c7-1,14.1-1.4,21.1-1.3
			c0.1-0.1,0.1-0.2,0.2-0.3C172.8,409.3,177.3,408.2,181.1,407.6z"/>
		<path class="st0" d="M357.4,35.7c-0.4-3.3-5.6-3.3-5.2,0c2.6,21.5,0.5,43.4-6.2,64c-1,3.2,4,4.5,5,1.3
			C357.9,79.9,360,57.6,357.4,35.7z"/>
		<path d="M364.9,421.2L364.9,421.2c-0.3-0.2-0.6-0.4-0.8-0.6c-0.8-0.7-1.4-1.5-1.9-2.4c-1.9,1.1-3.8,2.1-5.7,3.1
			c0.9,1.6,1.3,3.5,1.3,5.3c3.2-1.5,6.4-3.2,9.6-5h-0.3C366.3,421.9,365.5,421.8,364.9,421.2z"/>
		<path class="st1" d="M143.3,69.8c0.7,9.3-0.2,18.6,0.6,27.9c0.2,1.2-0.6,2.3-1.8,2.4c0,0,0,0-0.1,0c-0.2,0.1-0.5,0.1-0.7,0.2
			c-7.6,0.5-15.1,1.1-22.7,0.5c-5.4-0.4-14.2-0.3-18.5-4c-1.2-1.1-2.1-2.6-2.5-4.2c-2.4,2.2-4.8,4.3-7,6.6
			c-0.2,8.2-1.2,15.7-9.6,21.8c-4.8,3.5-10.3,5.4-15.8,7.4c-7.6,10.1-14.3,20.9-20.1,32.2c1.2,12.1,0.3,24.3-2.7,36.1
			c-1.8,6.9-4.7,13.9-4.1,21.1c0.5,5.4,3.4,10.6,2.8,16.1c-0.7,7.1-7.4,10.8-12.1,5.7c0.4,2.8,0.9,5.5,1.5,8.3
			c2.5-0.7,5.2,0.1,7,3.3c0.1,0.2,0.2,0.5,0.3,0.8c2.3,6.9,2.5,14,5.8,20.7c2,3.9,5.3,7.4,3.8,12c5.6,8.5,9.8,17.9,12.5,27.8
			c6.5,22.6,7.8,47,18.3,68.3c10.1,20.7,27.2,30.6,50,29.4c17.6-0.9,35.3-5.6,52.9-2.5c1.5-0.2,3-0.4,4.1-0.5
			c5.9-0.6,11.3,0.7,16.7,2.8c6.7,2.6,12.8,6.5,19.6,8.9c8.1,2.8,16.4,3.5,24.9,3c8.1-0.5,16.1-1.5,24.1-2.4c6-0.6,12.7-2.1,18.5,0
			c6.9,2.5,9.8,9.6,4,14.9c-0.3,0.2-0.5,0.5-0.8,0.7c3.8,0.1,7.7,0,11.5-0.2c4.4-6.5,15.3-8.5,22.2-10.5c4.3-1.1,8.5-2.6,12.6-4.5
			c2.5-1.2,5-3.5,7.9-3.9c3.4-0.5,6.8,0.9,8.9,3.6c0.4,0.5,0.8,1,1.1,1.6c1.9-1,3.9-2,5.7-3.1c-1-1.9-1.6-4-1.7-6.2
			c-0.4-4.1,0.9-6.5,2.2-10.2c1-2.9-0.3-6.9,2.3-9.3c2-1.9,4.3-0.7,6.2,0.7c4.1,3.5,6.7,8.3,7.6,13.6c1.1-0.9,2.2-1.8,3.3-2.8
			c14.4-12.6,18.9-27,18-45.9c-1.7-33.8-18.5-69.1-11.2-103c1.8-8.3,6.2-14.9,10.5-22.2c5.5-9.1,10.4-18.5,14.7-28.2
			c6.8-15.6,11.5-32.8,8.5-49.8c-3.1-18.1-13.9-33.7-26-47c-9.2-10.1-19.3-19.4-30.2-27.6c-2.4,14.5-7.1,28.6-13.9,41.7
			c-0.3,0.7-1,1.2-1.8,1.3l-2.2,0.9c-1,0.3-2-0.1-2.6-0.9c-6.7,2.3-16.2,1.4-21.3,1.4c-12.7,0.2-22.6,7.4-34.7,9.8
			c-11,2.2-19.1-2.6-27.2-9.6c-11.9-10.3-26.3-16.6-41.6-8.5c-11.1,5.9-17.5,17-30.5,19.4c-12.8,2.3-21.1-0.5-30.7-9.3
			c-5-4.6-10-9.2-15.1-13.7c-2.4-2.2-6.8-4.7-7.7-7.9c-0.2-0.9,0-1.8,0.7-2.5c2.1-1.3,4.5-2.2,6.9-2.7c-1.3-7.3-0.5-15.7-0.6-23
			c0-3.9,1.3-11.4-0.8-14.7c-0.1-0.1-0.1-0.2-0.2-0.3l-1,0.5C143,64.3,143.1,67.3,143.3,69.8z M63.3,163.8c-3.8,1.7-8.1-0.1-9.8-3.8
			c-0.2-0.5-0.4-0.9-0.5-1.4c-2.4-3.5-1.5-8.2,1.9-10.7c4-2.7,9.4-1.7,12.2,2.2c0.1,0.2,0.3,0.4,0.4,0.7
			C70,155.4,68.2,161.6,63.3,163.8L63.3,163.8z"/>
		<path class="st2" d="M332.8,119.5c3.2,0.1,6.3-0.3,9.4-1.1l0.6-0.2c-10.4-18.7-15.3-39.8-15.4-61.3c-0.1-11.6,1.2-23.3,3.8-34.6
			c1.5-6.4,4.2-13.8,10-17c-2.3-0.1-4.7,0-7,0.4c-4.9,0.7-9.7,1.8-14.4,3.5C308.8,13,298,20.1,286.4,22
			c-10.6,1.8-17.2-5.5-25.5-10.7c-12.2-7.6-23.8-1.7-34.6,5.4c-8.3,5.5-17.2,11.7-27.6,11.7c-5.1,0-9.6-1.4-14.7-1
			c-1.8,0.1-3.6,0.3-5.3,0.5c-9.2,1-18.6,3.4-26.2,9c-3.5,2.6-12.4,11.2-10.6,16.5c0.9,2.6,4.8,2.8,6.3,5.6c2.7,5,0.8,15,0.9,20.5
			c0.1,6.3-0.8,13.8,0.6,20c0.1,0.4,0.1,0.8,0,1.2c0,0,0,0.1,0,0.2c-0.4,2.5-3.1,3.4-5.3,4c-0.3,0.1-0.6,0.1-0.9,0.2
			c0.3,0.2,0.6,0.3,1,0.6c2.4,1.2,4.7,4.1,6.7,5.9c4.9,4.3,9.6,9.1,14.5,13.3c7.6,6.5,15,7,24.3,5.5c13.6-2.2,21.3-16.9,34.4-21.2
			c10.2-3.2,21.2-2.1,30.5,3c11.3,6.5,18.6,19.9,33.4,17.1c10-1.9,18.6-7.9,28.8-9.4C322.4,119.2,327.6,119.6,332.8,119.5z
			 M263.5,49.7c-3.7,0.4-7.1,1.8-10,4c-2.6,2.1-6.3-1.6-3.7-3.7c3.9-3.2,8.7-5.1,13.7-5.6C266.8,44.2,266.8,49.4,263.5,49.7z
			 M225.7,30.5c1.3-3.1,5.9-0.5,4.5,2.5c-1.3,3.1-2,6.4-2,9.7c0,3.3-5.2,3.3-5.2,0C223,38.5,223.9,34.3,225.7,30.5z M197.8,75.8
			l-16,1.2c-3.3,0.2-3.3-5,0-5.2l16-1.2C201.1,70.4,201.1,75.6,197.8,75.8z M183.3,51.4c-2.6-2.1,1.1-5.7,3.7-3.7
			c4.2,3.3,8.8,6.1,13.7,8.3c3.1,1.4,0.4,5.9-2.6,4.5C192.8,58.1,187.8,55.1,183.3,51.4z M152.1,87c1.4-2.5,5.3-3.8,7.5-1.6
			s1.6,6.5-1.7,7.2c-0.2,0-0.5,0-0.7,0c-1.1,0.3-2.3,0.2-3.3-0.4C152.4,91.3,151.2,88.7,152.1,87z M188,122
			c-18,6.9-30.9-6.2-37.5-21.7c-1.3-3,3.2-5.6,4.5-2.6c5.7,13.3,15.8,25.3,31.7,19.3C189.8,115.8,191.1,120.8,188,122z M200.7,100.5
			l7.3-7.1c2.4-2.3,6.1,1.3,3.7,3.7l-7.3,7.1C202,106.5,198.4,102.8,200.7,100.5L200.7,100.5z M209.2,81.4c-5.6-9-3.1-22.2,5.8-28.2
			c9.1-6.2,22.9-3.6,29,5.5c5.9,8.9,3.3,20.4-4.1,27.3c-0.2,0.5-0.6,1-1.1,1.3C229.3,93.3,215.5,91.4,209.2,81.4L209.2,81.4z
			 M231.2,106c-1.4,0.3-2.8-0.5-3.2-1.9l-2.3-6c-0.3-1.4,0.5-2.8,1.9-3.1c1.4-0.3,2.8,0.5,3.2,1.8c0.8,2,1.6,4,2.3,6
			C233.4,104.2,232.6,105.6,231.2,106z M260.5,84.7c-3.6-1.7-7.3-3-11.1-4c-3.3-0.8-1.9-5.8,1.3-5c4.3,1.1,8.4,2.6,12.4,4.5
			C266.1,81.6,263.5,86.1,260.5,84.7L260.5,84.7z"/>
		<path class="st0" d="M142.7,104.4L142.7,104.4z"/>
		<path class="st2" d="M36.9,174.8c-1,11.8-8.5,20.9-8.7,33c-0.1,6.7-0.3,15.2,2.1,21.5c1.1,2.7-0.2,2.6,3.1,4.1
			c3.9,1.8,2.8-0.4,2.3-3.8c-0.4-2.6-1.4-5.1-1.9-7.7c-1.8-9.3,1.3-17.7,3.6-26.6c3.5-13.4,3.5-26.5,1.8-40.1
			c-1.2-9.3-0.2-16.8,7.4-23.1c9.6-8,23.9-8.1,33-16.5c8.2-7.6,5.8-18.1,6.5-28.1c-3.4,3.3-4.4,11.6-6.5,14.9
			c-2.7,3.9-6.3,7.2-10.5,9.4c-12.8,7.4-28.8,9.2-32.2,26.4C34.5,150.4,37.9,162.6,36.9,174.8z"/>
		<path class="st2" d="M29.1,259.3c0.4,2.5,1.8,5,2.8,7.4c2.4,5.4,5.3,10.6,10.3,13.5c-1.2-3.6-4.5-8.2-5.5-10.8
			c-1.8-5.2-2.1-10.6-3.8-15.9C30.5,249.7,28.8,257.5,29.1,259.3z"/>
		<path class="st2" d="M62.3,158.2c1.5-1.6,1.5-4.1,0-5.7c-1.4-1.4-4-1.4-5.1,0.4c-0.2,0.4-0.4,0.8-0.4,1.2c0,0.1,0.1,0.8,0,1.1
			l0,0.1l0.4,0.5c0.2,0.3,0.4,0.6,0.5,1c0.1,0.3,0.2,0.5,0.2,0.8C58.3,159.9,61.2,159.4,62.3,158.2z"/>
		<path class="st2" d="M18.9,179.6c1.6-2,3.1-4.2,4.4-6.4c-0.8-1.4-2.5-2-4-1.5c-2.4,0.7-3.4,3.4-3.4,5.7c0,0.9,0,2.9,0.8,3.6
			C17.5,181.6,18.2,180.4,18.9,179.6z"/>
		<path class="st2" d="M276.2,435.4c2.2-0.5,4.4-1,6.6-1.6c2-0.5,3.8-1.3,5.6-2.3c-0.6-2.5-1.2-4.9-1.8-7.4
			c-2.4-2.3-13,0.3-16.1,0.6c-6,0.6-11.9,1.3-17.9,1.9c-9.4,0.9-18.8,1.1-28-1.4c-9.5-2.5-17.5-8.2-26.8-11.3
			c-5.5-1.9-12.3-2.8-17.8-0.5c-1.8,0.8-5.6,1.4-3.4,3.4c0.7,0.4,1.5,0.5,2.4,0.5c0.1,0,0.3,0,0.4,0c8.8,0.9,17.6,1.9,25.8,5.4
			c9.4,4,17.6,10.8,27.4,13.9s20.3,2.8,30.4,1.3C267.4,437.3,271.8,436.4,276.2,435.4z"/>
		<path class="st2" d="M347.5,426.6c-5.2-4.8-4.1-3.1-9.5-0.8c-3.5,1.4-7,2.6-10.7,3.5c-5.2,1.5-16.8,3.2-19.7,8.9
			c7.3,0.2,14.7,0.4,22,0.3c3.8,0.1,7.7-0.3,11.4-1.2c2.9-0.7,5.7-2.1,8-4.1C352.7,430.6,352.2,428.4,347.5,426.6z"/>
		<path class="st2" d="M366.9,405c-1.3,2.8-2.5,8.6,0.1,11.2c0.1,0,0.3,0.1,0.4,0.1c1.7,0.8,3.8-1.8,4.8-3c1.7-2.1,1.7-4.1,1.1-6.7
			c-0.4-1.8-1-3.5-1.9-5.1c-0.3-0.6-2.2-3.8-2.8-4.1C369,398.1,367.4,404,366.9,405z"/>
		<path class="st3" d="M46.9,139.3c-2.9,3.9-3.3,7.8-2.9,12c3.7-6.5,7.6-12.8,11.9-18.9C52.4,134,49.3,136.4,46.9,139.3z"/>
		<path d="M142,62.1l1-0.5c-1.3-1.8-3.5-2.3-5.1-3.7c-0.3,0.2-0.7,0.3-1,0.5c0.6,0.2,1.2,0.3,1.7,0.5
			C140.1,59.5,141.3,60.6,142,62.1z"/>
		<path d="M30.5,247.9c-0.6-2.7-1.1-5.5-1.5-8.3c-0.4-0.5-0.8-0.9-1.1-1.5c-2.8-4.3-4.3-10.6-4.9-17.1c-0.4,10.1,0.7,20.1,3.1,29.9
			C27.1,249.5,28.7,248.4,30.5,247.9z"/>
		<path d="M366.3,80.3c10.9,8.2,21,17.5,30.2,27.6c12.1,13.4,22.9,28.9,26,47c2.9,17.1-1.8,34.3-8.5,49.8
			c-4.3,9.7-9.2,19.1-14.7,28.2c-4.3,7.3-8.7,13.9-10.5,22.2c-7.4,33.9,9.5,69.2,11.2,103c1,18.9-3.5,33.3-17.9,45.9
			c-1.1,0.9-2.2,1.9-3.3,2.8c0.3,1.9,0.2,3.9-0.3,5.8c-0.3,0.9-0.6,1.8-1.1,2.6c10-7.1,18.8-15.8,23.3-26.1
			c6.7-15.3,4.9-32.9,2.5-48.9c-3-19.9-8.5-39.5-10.2-59.6c-0.8-8.7-0.9-17.8,1.4-26.3c2.8-10.5,10.1-19.5,15.2-28.9
			c8.9-16.2,16.9-33.8,18.7-52.4c3.8-39.4-27-72.2-55.8-94.6c-1.7-1.4-3.5-2.7-5.3-3.9C366.9,76.4,366.6,78.3,366.3,80.3z"/>
		<path d="M59.1,130.8c-1.1,0.5-2.1,1-3.2,1.5c-4.3,6.1-8.2,12.4-11.9,18.9c0.1,1.6,0.4,3.4,0.6,5.2c0.2,1.4,0.3,2.8,0.5,4.2
			c5.8-11.3,12.5-22,20.1-32.2C63.1,129.2,61.1,130,59.1,130.8z"/>
		<path d="M303.8,434.8c-3.8,0.2-7.7,0.3-11.5,0.2c-2.8,2.1-5.9,3.7-9.3,4.7c0.8,0,1.6,0.1,2.4,0.2c5.5,0.3,11,0.4,16.6,0.1
			C302,438.2,302.7,436.4,303.8,434.8z"/>
		<path d="M90.6,99.3c2.3-2.3,4.7-4.5,7-6.6c-0.5-2.1-0.8-4.2-0.8-6.3c-2.1,1.8-4.1,3.7-6.1,5.5C90.7,94.4,90.6,96.9,90.6,99.3z"/>
		<path d="M97.6,92.7c0.4,1.6,1.3,3.1,2.5,4.2c4.3,3.6,13.1,3.5,18.5,4c7.6,0.6,15.1,0,22.7-0.5c0.2,0,0.5-0.1,0.7-0.2
			c1.2-0.1,2-1.2,1.9-2.4c0,0,0,0,0-0.1c-0.8-9.3,0.1-18.6-0.6-27.9c-0.2-2.5-0.2-5.5-1.3-7.7c-0.7-1.5-1.9-2.6-3.4-3.2
			c-0.5-0.2-1.1-0.3-1.7-0.5c-6.3-1.8-15-1.7-21.1-2c-5.7-0.3-12.5-0.9-16.4,4.3s-2.7,13-2.4,19.1c0.1,1.8-0.1,4.2-0.1,6.6
			C96.8,88.5,97.1,90.6,97.6,92.7z"/>
		<path class="st4" d="M239.9,86c7.4-6.9,10-18.4,4.1-27.3c-6.1-9.1-19.9-11.8-29-5.5c-8.8,6.1-11.4,19.2-5.8,28.2
			c6.2,10,20.1,12,29.6,5.9C239.3,87,239.7,86.5,239.9,86z"/>
		<path class="st4" d="M233.1,102.8c-0.8-2-1.6-4-2.3-6c-0.4-1.3-1.8-2.1-3.2-1.8c-1.4,0.4-2.2,1.8-1.9,3.2l2.3,6
			c0.4,1.3,1.8,2.1,3.2,1.8C232.6,105.6,233.4,104.2,233.1,102.8z"/>
		<path class="st4" d="M204.4,104.2l7.3-7.1c2.4-2.3-1.3-6-3.7-3.7l-7.2,7.1C198.4,102.8,202,106.5,204.4,104.2z"/>
		<path class="st4" d="M197.8,70.7l-16,1.2c-3.3,0.2-3.3,5.4,0,5.2l16-1.2C201.1,75.6,201.1,70.4,197.8,70.7z"/>
		<path class="st4" d="M200.6,56c-4.9-2.2-9.5-4.9-13.7-8.2c-2.6-2-6.3,1.6-3.7,3.7c4.5,3.6,9.5,6.7,14.8,9.1
			C201.1,61.9,203.7,57.4,200.6,56z"/>
		<path class="st4" d="M228.2,42.8c0-3.4,0.7-6.7,2-9.7c1.3-3-3.2-5.6-4.5-2.6c-1.7,3.9-2.6,8.1-2.7,12.3
			C223,46.1,228.2,46.1,228.2,42.8z"/>
		<path class="st4" d="M263.5,44.5c-5,0.4-9.8,2.4-13.7,5.6c-2.6,2.1,1.1,5.7,3.7,3.7c2.9-2.3,6.3-3.7,10-4
			C266.8,49.4,266.8,44.2,263.5,44.5z"/>
		<path class="st4" d="M263.1,80.1c-4-1.9-8.1-3.4-12.4-4.5c-3.2-0.8-4.6,4.2-1.3,5c3.8,1,7.6,2.3,11.1,4
			C263.5,86.1,266.1,81.6,263.1,80.1z"/>
		<path d="M186.7,117c-15.9,6.1-26-5.9-31.7-19.3c-1.3-3.1-5.8-0.5-4.5,2.6c6.6,15.6,19.6,28.6,37.5,21.7
			C191.1,120.8,189.8,115.8,186.7,117z"/>
		<path d="M157.3,92.6c0.2,0,0.5,0,0.7,0c3.3-0.7,3.9-5,1.7-7.2s-6.1-0.9-7.5,1.6c-0.9,1.7,0.3,4.3,1.9,5.2
			C155,92.8,156.2,92.9,157.3,92.6z"/>
		<path d="M368.1,54.4c-0.3-11.9-1.5-45.1-16.8-49.9c-4.7-10.2-34,0.1-39.7,2.4c-7.4,3-15,7.2-22.7,9.2c-9.4,2.5-15.2-1.8-22.3-7
			c-9-6.6-18-8.6-28.7-4.6c-11.6,4.5-20.6,14.3-32.6,17.8c-6.6,1.9-11.6-0.6-18.1-0.5c-2.6,0.1-5.3,0.7-7.9,1
			c-9,1-18.2,2.9-26.1,7.6c-7,4.1-19.3,15.6-17,25c0.2,1,0.8,1.9,1.6,2.5c1.6,1.3,3.8,1.9,5.1,3.7c0.1,0.1,0.1,0.2,0.2,0.3
			c2.1,3.4,0.7,10.8,0.8,14.7c0.1,7.3-0.8,15.6,0.6,23c-2.4,0.5-4.8,1.4-6.9,2.7c-0.7,0.6-0.9,1.6-0.7,2.5c0.9,3.3,5.2,5.8,7.7,7.9
			c5.1,4.5,10.1,9.1,15.1,13.7c9.6,8.8,17.9,11.6,30.7,9.3c13-2.4,19.4-13.5,30.5-19.4c15.3-8.1,29.7-1.8,41.6,8.5
			c8.1,7,16.2,11.8,27.2,9.6c12.1-2.4,22-9.6,34.7-9.8c5.1-0.1,14.6,0.9,21.3-1.4c0.6,0.8,1.7,1.2,2.6,0.9l2.2-0.9
			c0.8-0.1,1.4-0.6,1.8-1.3c6.8-13.1,11.5-27.2,13.9-41.7c0.3-1.9,0.6-3.9,0.8-5.8C367.9,67.8,368.3,61.1,368.1,54.4z M288.4,129.4
			c-14.8,2.8-22.1-10.6-33.4-17.1c-9.3-5.2-20.4-6.3-30.6-3.1c-13.1,4.2-20.8,19-34.4,21.2c-9.4,1.5-16.7,1-24.3-5.5
			c-5-4.3-9.6-9-14.5-13.3c-2-1.8-4.3-4.7-6.7-5.9c-0.4-0.2-0.7-0.4-1-0.6c0.3-0.1,0.7-0.1,0.9-0.2c2.2-0.6,4.8-1.5,5.3-4
			c0,0,0-0.1,0-0.2c0.1-0.4,0.1-0.8,0-1.2c-1.4-6.2-0.5-13.7-0.6-20c-0.1-5.4,1.9-15.5-0.9-20.5c-1.5-2.8-5.4-3-6.3-5.6
			c-1.9-5.3,7-13.9,10.6-16.5c7.5-5.6,17-8,26.2-9c1.8-0.2,3.6-0.4,5.3-0.5c5.1-0.4,9.6,1,14.7,1c10.4-0.1,19.3-6.3,27.6-11.7
			c10.8-7.1,22.4-13,34.6-5.4c8.3,5.2,14.9,12.5,25.5,10.7c11.6-1.9,22.4-9,33.4-12.8c4.7-1.6,9.5-2.8,14.4-3.5
			c2.3-0.4,4.7-0.5,7-0.4c-5.8,3.2-8.5,10.6-10,17c-2.6,11.4-3.9,23-3.8,34.6c0.1,21.4,5,42.6,15.4,61.3l-0.6,0.2
			c-3.1,0.8-6.2,1.1-9.4,1.1c-5.2,0.1-10.4-0.3-15.6,0.5C307.1,121.5,298.4,127.5,288.4,129.4L288.4,129.4z M142.7,104.4
			L142.7,104.4z M351,101c-1,3.2-6.1,1.9-5-1.3c6.7-20.6,8.8-42.5,6.2-64c-0.4-3.3,4.8-3.3,5.2,0C360,57.7,357.8,79.9,351,101z
			 M348.3,23.3c-2.4-2.4,1.3-6,3.7-3.7S350.6,25.6,348.3,23.3L348.3,23.3z"/>
		<path d="M27.8,238.1c0.3,0.5,0.7,1,1.2,1.5c4.7,5.1,11.4,1.4,12.1-5.7c0.6-5.5-2.3-10.7-2.8-16.1c-0.6-7.2,2.3-14.3,4.1-21.1
			c3-11.8,3.9-24,2.7-36.1c-0.1-1.4-0.3-2.8-0.5-4.2c-0.3-1.8-0.5-3.5-0.6-5.2c-0.3-4.2,0-8,2.9-12c2.4-3,5.5-5.4,9-7
			c1.1-0.5,2.1-1,3.2-1.5c2-0.9,4-1.6,6.1-2.4c5.5-2,11-3.9,15.8-7.4c8.4-6.1,9.3-13.7,9.6-21.8c0.1-2.4,0.1-4.9,0.2-7.4
			c0.1-2.6,0.4-5.1,0.9-7.7c0.1-0.4,0.1-0.9-0.1-1.3c-0.2-1.2-1.3-1.9-2.5-1.8c-11.9,0.4-9,11.2-14.1,18.9
			c-8.3,12.5-26.8,12-36.5,23c-8.3,9.4-8,22.9-7.2,34.6c0.5,6.8,1.2,13.8,0,20.5c-1.4,7.3-6.3,13.1-7.6,20.4
			c-1.2,7.5-1.5,15.1-0.8,22.6C23.5,227.6,25,233.8,27.8,238.1z M69,111.9c4.2-2.2,7.8-5.5,10.5-9.4c2.1-3.3,3.1-11.6,6.5-14.9
			c-0.6,10,1.7,20.5-6.5,28.1c-9.1,8.4-23.4,8.5-33,16.5c-7.5,6.3-8.5,13.8-7.4,23.1c1.7,13.6,1.7,26.7-1.8,40.1
			c-2.3,8.9-5.5,17.4-3.6,26.6c0.5,2.6,1.6,5.1,1.9,7.7c0.5,3.4,1.6,5.6-2.3,3.8c-3.3-1.6-2-1.4-3.1-4.1c-2.4-6.3-2.3-14.8-2.1-21.5
			c0.2-12.1,7.7-21.1,8.7-33c1.1-12.2-2.3-24.4,0-36.6C40.2,121.1,56.2,119.2,69,111.9z"/>
		<path d="M47.4,284.9c0-0.1,0-0.2,0.1-0.3c1.4-4.5-1.9-8-3.8-12c-3.3-6.7-3.5-13.8-5.8-20.7c-0.1-0.3-0.2-0.5-0.3-0.8
			c-1.9-3.2-4.5-4-7-3.3c-1.8,0.6-3.4,1.7-4.5,3.2c-1.5,1.8-2.4,4.1-2.4,6.5c0.1,5.6,3.5,12,6.2,16.8c2.9,5.2,6.8,9.3,12.1,11.6
			c0.8,0.3,1.6,0.6,2.4,0.9C45.7,287.1,47,286.2,47.4,284.9z M32.9,253.5c1.6,5.2,1.9,10.7,3.8,15.8c0.9,2.6,4.3,7.2,5.5,10.8
			c-5-2.9-7.9-8.1-10.3-13.5c-1-2.4-2.4-4.9-2.8-7.4C28.8,257.5,30.5,249.7,32.9,253.5z"/>
		<path d="M67.4,150.8c-2.4-4.2-7.7-5.7-11.9-3.3c-0.2,0.1-0.4,0.3-0.7,0.4c-3.4,2.5-4.2,7.2-1.9,10.7c0.9,4,4.8,6.6,8.8,5.7
			c0.5-0.1,1-0.3,1.4-0.5C68.2,161.6,70,155.4,67.4,150.8z M58,157.6c0-0.3-0.1-0.6-0.2-0.8c-0.1-0.4-0.3-0.7-0.5-1l-0.4-0.5l0-0.1
			c0-0.3-0.1-1,0-1.1c0.1-0.4,0.2-0.8,0.4-1.2c1.1-1.8,3.7-1.8,5.1-0.4c1.5,1.6,1.5,4.1,0,5.7C61.2,159.4,58.3,159.9,58,157.6z"/>
		<path d="M28.7,172.6c0,0,0-0.1,0-0.1l0,0c-1.7-4-4.7-6.6-9.3-6.1c-5.1,0.6-8.3,5.3-8.7,10.2c-0.3,4,1.4,10,6.3,10.1
			c2.7,0.1,4.4-2,5.9-3.9c2-2.4,3.7-5,5.3-7.8C28.9,174.5,29.1,173.5,28.7,172.6z M15.8,177.4c0.1-2.3,1.1-5,3.4-5.7
			c1.5-0.6,3.2,0.1,4.1,1.5c-1.3,2.2-2.7,4.4-4.4,6.4c-0.7,0.8-1.3,2.2-2.3,1.4S15.7,178.3,15.8,177.4z"/>
		<path d="M292.3,435c0.3-0.2,0.6-0.4,0.8-0.7c5.8-5.3,2.9-12.4-4-14.9c-5.8-2.1-12.5-0.6-18.5,0c-8,0.9-16,1.9-24.1,2.4
			c-8.5,0.5-16.8-0.2-24.9-3c-6.8-2.4-12.9-6.3-19.6-8.9c-5.4-2.1-10.9-3.4-16.7-2.8c-1.1,0.1-2.6,0.3-4.1,0.5
			c-3.8,0.6-8.4,1.7-10.5,3.8c-0.1,0.1-0.1,0.2-0.2,0.3c-5.6,5.9,3.4,10.1,8.3,10.7h0.3c0.1,0,0.2,0.1,0.4,0.1
			c9.1,0.9,17.8,2.1,26.1,6.1c6,2.9,11.5,6.8,17.4,9.7c11.1,5.5,23.1,6.7,35.3,5.5c7-0.7,16.6-1.4,24.7-4
			C286.3,438.7,289.5,437.1,292.3,435z M232.6,436.7c-9.9-3.1-18-9.9-27.4-13.9c-8.2-3.5-17-4.5-25.8-5.4c-0.1,0-0.3,0-0.4,0
			c-0.8,0-1.6-0.2-2.4-0.5c-2.2-2,1.6-2.6,3.4-3.4c5.6-2.3,12.3-1.4,17.8,0.5c9.2,3.1,17.3,8.8,26.8,11.3c9.2,2.4,18.6,2.3,28,1.4
			c6-0.6,12-1.3,17.9-1.9c3.1-0.3,13.7-2.9,16.1-0.6c0.6,2.5,1.2,4.9,1.8,7.4c-1.7,1-3.6,1.8-5.6,2.3c-2.1,0.7-4.4,1.1-6.6,1.6
			c-4.4,1-8.8,1.9-13.3,2.6C252.9,439.5,242.4,439.8,232.6,436.7L232.6,436.7z"/>
		<path d="M356.5,421.2c-0.3-0.6-0.7-1.1-1.1-1.6c-2.1-2.7-5.5-4.1-8.9-3.6c-2.8,0.4-5.4,2.6-7.9,3.9c-4.1,1.8-8.3,3.3-12.6,4.5
			c-7,2-17.8,4-22.2,10.5c-1.1,1.6-1.7,3.4-1.9,5.3c0,0.2-0.1,0.3-0.1,0.5c0,1.2,0.8,2.2,1.9,2.5l0.8,0.2l0,0h0.1
			c0.3,0.1,0.6,0.1,0.9,0.1c13.1,0.3,30.3,3.3,42.4-3.1c5-2.6,9.6-8.1,9.8-13.7C357.7,424.7,357.3,422.8,356.5,421.2z M349,433.2
			c-2.3,2-5,3.4-8,4.1c-3.7,0.9-7.5,1.3-11.4,1.2c-7.4,0.1-14.7-0.1-22-0.3c2.9-5.7,14.5-7.4,19.7-8.9c3.6-1,7.2-2.2,10.7-3.6
			c5.4-2.3,4.3-4,9.5,0.8C352.2,428.4,352.7,430.6,349,433.2L349,433.2z"/>
		<path d="M378.8,406.8c-0.8-5.3-3.5-10.1-7.6-13.6c-1.9-1.5-4.2-2.6-6.2-0.7c-2.6,2.3-1.2,6.4-2.3,9.3c-1.3,3.7-2.7,6.1-2.2,10.2
			c0.1,2.2,0.7,4.3,1.7,6.2c0.5,0.9,1.1,1.7,1.9,2.4c0.2,0.3,0.4,0.5,0.7,0.6h0c0.6,0.5,1.5,0.6,2.2,0.3h0.3c4.1,0.3,8-2.7,10.1-6.4
			c0.5-0.8,0.8-1.7,1.1-2.6C379,410.6,379.1,408.7,378.8,406.8z M371.4,401.6c0.9,1.6,1.5,3.4,1.9,5.1c0.6,2.6,0.5,4.6-1.1,6.7
			c-0.9,1.2-3,3.8-4.8,3c-0.1,0-0.3-0.1-0.4-0.1c-2.5-2.7-1.3-8.5-0.1-11.2c0.5-1.1,2.1-6.9,1.7-7.6
			C369.2,397.8,371,401,371.4,401.6L371.4,401.6z"/>
		<path class="st2" d="M123.7,188.4c-3.3,2.5-5.7,6-6.9,9.9c-1.2,4.2-1.1,8.6,0.2,12.7c0.3,1.5,1,3,1.9,4.3c0.4,0.4,0.7,0.8,1,1.3
			c-3.1,0.9-5.7,0.9-7.6,0.1c-1.9-0.9-3.3-2.8-4.2-5.8c-1.1-3.7-0.6-7.8,1.4-12.1c4.5-9.2,12.7-16.2,22.5-19.3
			c0.8-0.2,2-0.5,3.5-0.8l2,27.5l12.8-3.7l-2-27.5l12.6-3.6l5.1,69l-12.5,3.6l-2.6-34.7l-12.8,3.7l2.6,34.7l-12.5,3.6L123.7,188.4z"
			/>
		<path class="st2" d="M182.4,232.3c-3-1.5-5.2-4.7-6.6-9.4c-1.2-4.5-1.7-9.2-1.5-13.9c0.1-5.1,1.5-10.2,4-14.7
			c2.6-4.6,6.9-7.9,11.9-9.2c6.4-1.9,10.4,0,12,5.6c0.9,3.2,0.9,6.6-0.2,9.8c-1.1,3.3-3,6.3-5.5,8.7c-2.6,2.5-5.6,4.5-9,5.7
			c0.4,1.8,0.7,3,0.8,3.5c0.8,2.8,1.9,4.6,3.2,5.4s3,0.8,5.2,0.1c2.9-0.7,5.4-2.3,7.4-4.5c2.2-2.7,4-5.6,5.4-8.7l2.9-0.9
			c-3.3,12.6-9.7,20.3-19.2,23C189.1,234,185.5,233.8,182.4,232.3z M192.6,206.4c1.5-2,2.6-4.2,3.1-6.7c0.6-2.4,0.5-4.9-0.2-7.3
			c-0.7-2.4-1.8-3.4-3.2-2.9c-2.1,0.6-3.6,3-4.5,7.3c-1,4.5-1.2,9.1-0.7,13.7C189.3,209.7,191.2,208.2,192.6,206.4L192.6,206.4z"/>
		<path class="st2" d="M218.9,222.5c-2.2-1.2-3.8-3.6-4.8-7.1c-0.5-1.9-0.8-3.9-0.9-5.9l-3.4-46.3l12.4-5.5l3.7,49.8
			c0,1,0.2,1.9,0.5,2.9c0.2,0.9,0.7,1.8,1.6,2.2c1,0.3,2,0.3,2.9-0.1c1.8-0.6,3.2-1.8,4.1-3.5c1.1-2,1.6-4.2,1.5-6.4l3.6-1.1
			c-0.3,6.9-1.8,11.9-4.6,15.1c-2.3,2.9-5.4,5.1-9,6.3C224,224,221.2,223.7,218.9,222.5z"/>
		<path class="st2" d="M245.6,214.7c-2.2-1.2-3.8-3.6-4.8-7.1c-0.5-1.9-0.8-3.9-0.9-5.9l-3.4-46.3l12.4-5.5l3.7,49.8
			c0,1,0.2,1.9,0.5,2.9c0.2,0.9,0.7,1.8,1.6,2.2c1,0.3,2,0.3,3-0.1c1.8-0.6,3.2-1.8,4.1-3.5c1.1-2,1.6-4.2,1.5-6.4l3.6-1.1
			c-0.3,6.9-1.8,11.9-4.5,15.1c-2.3,2.9-5.4,5.1-9,6.3C250.7,216.2,247.9,216,245.6,214.7z"/>
		<path class="st2" d="M272.7,205.9c-3.1-1.5-5.4-4.6-6.8-9.4c-1.2-4.5-1.7-9.2-1.5-13.8c0.1-5.1,1.5-10.2,4-14.7
			c2.6-4.6,6.9-7.9,12-9.2c6.8-2,11.6,0.8,14.5,8.5c1.2-0.7,2.2-1.8,2.8-3.1c0.7-1.5,1.2-3.1,1.6-4.7l2.8-0.8
			c-0.5,2.9-1.1,5.8-2,8.6c-0.7,2.1-1.9,4.1-3.5,5.7c1.2,5,1.5,10.2,0.8,15.3c-0.5,4.2-2.1,8.2-4.6,11.7c-2.2,3-5.4,5.2-9,6.3
			C279.6,207.5,275.8,207.4,272.7,205.9z M289.5,190.5c0.9-4.6,0.9-9.4,0.1-14c-1.5-0.1-2.6-1.2-3.2-3.3c-0.7-2.3-0.3-4,1.1-5.2
			c-0.4-1.3-1.1-2.6-2-3.6c-0.8-0.6-1.8-0.7-2.7-0.4c-1.9,0.6-3.3,2.5-4.3,5.7c-1,3.7-1.4,7.4-1.3,11.2c0,3.6,0.5,7.3,1.4,10.8
			c0.8,2.8,1.7,4.6,2.6,5.3c0.9,0.8,2.2,0.9,3.9,0.4C287.2,196.8,288.7,194.5,289.5,190.5z"/>
		<path class="st4" d="M503.9,252.4c-0.4-4.3-3.2-8.1-7.1-9.8c1.2-2.2,2.2-4.5,3-6.9c2.3-6.9,2.4-14.2,0.4-21.2
			c-3.2-11.1-11.7-17.8-22.7-17.8c-3.3,0-6.5,0.5-9.6,1.5c-11,3.2-19.2,9.6-24.4,19c-2.1,3.8-3.8,7.8-5,12
			c-2.3-4.9-6.1-8.9-10.9-11.4c-3.5-1.8-7.4-2.7-11.4-2.7c-6.1,0.1-12,1.9-17.1,5.2c-1.5-0.2-3.1,0-4.6,0.4l-18,5.2
			c-1.8,0.5-3.5,1.5-4.9,2.9c0-2.2-0.3-4.4-0.9-6.6C367.8,212.7,359,206,349,206c-2.1,0-4.3,0.3-6.4,0.9
			c-5.8,1.6-10.7,5.6-13.5,10.9c-2.8,5.2-3.5,11.3-1.8,17c0.8,2.7,2,5.2,3.8,7.5c-1.4,2.2-2.1,4.8-1.9,7.4l0.5,7
			c-2.2-3.4-5.3-6.1-8.9-7.9c-3.5-1.8-7.4-2.7-11.4-2.7c-2.5,0-5,0.3-7.4,0.9l-0.8-11.1c-0.5-6.7-6.3-11.7-13-11.2
			c-1.4,0.1-2.7,0.4-4,1l-17.8,7.9c-4.7,2.1-7.6,6.9-7.2,12l2.3,31c-1-2.9-2-5.7-2.9-8.5c-1.6-4.9-6.3-8.3-11.5-8.3
			c-1.7,0-3.4,0.3-4.9,1l-17.8,7.9c-4.3,1.9-7.1,6.1-7.2,10.8c-0.1,7.2-0.6,14-1.2,20.3c-0.4,3.4-0.8,6.8-1.4,10.3
			c-0.3-3.1-0.9-6.2-1.8-9.3c-2.9-10.1-8.7-14.8-13-17c-3.5-1.8-7.4-2.7-11.4-2.7c-6.1,0.1-12.1,1.9-17.2,5.2
			c-0.4,0-0.8-0.1-1.2-0.1c-1.1,0-2.3,0.2-3.4,0.5l-18,5.2c-3.9,1.1-6.9,4.1-8.1,7.9c-0.3-0.2-0.6-0.5-0.8-0.6
			c-2-1.4-4.4-2.2-6.9-2.2c-1.1,0-2.3,0.2-3.4,0.5l-18,5.2c-2.3,0.7-4.3,2-5.9,3.8c-1.2-0.4-2.4-0.6-3.6-0.6c-1.1,0-2.3,0.2-3.4,0.5
			l-18,5.2c-1.4,0.4-2.8,1.1-4,2c-0.2-1.2-0.5-2.4-0.8-3.6c-2.3-8.6-8.6-15.6-16.9-18.9c-4-1.6-8.3-2.4-12.7-2.4
			c-4.3,0-8.6,0.7-12.8,1.9c-6.7,1.9-12.9,5.2-18.1,9.7c-5.1,4.4-8.9,10-11.1,16.3c-2.2,6.5-2.3,13.5-0.4,20
			c1.8,6.5,5.5,12.4,10.5,16.9c0.9,0.8,1.9,1.7,2.9,2.5c-2.6,1.6-5,3.6-7,6c-3.5,4.2-5.8,9.2-6.8,14.5c-1,5.4-0.7,11.1,0.9,16.4
			c1.8,6.3,5.4,12,10.4,16.3c5,4.2,11.1,6.9,17.6,7.8c2,0.3,4,0.4,6,0.4c4.7,0,9.3-0.7,13.8-2.1c7.7-2.2,14.8-6,20.8-11.4
			c4.4-3.9,8-8.7,10.5-14c1.8,2,3.9,3.7,6.2,5c3.7,2.1,7.9,3.2,12.2,3.2c2.7,0,5.4-0.4,7.9-1.2c5.3-1.6,10-4.4,13.9-8.2
			c0.3-0.3,0.7-0.7,1-1c2.6,1,5.4,1.5,8.2,1.5c2.6,0,5.2-0.4,7.8-1.1c4.6-1.4,8.9-3.7,12.5-6.8c2.4,0.8,5,0.9,7.4,0.2l18-5.2
			c5.1-1.5,8.7-6.2,8.7-11.5l1.1,0.7c3.9,2.5,8.4,3.7,13,3.6c3.2,0,6.3-0.5,9.3-1.4c6.5-2,12.2-5.9,16.4-11.2c1.3,0.5,2.6,0.9,4,1.2
			c2.2,0.5,4.4,0.8,6.7,0.8c3.4-0.1,6.9-0.6,10.1-1.6c4.9-1.4,9.6-3.7,13.7-6.6c2.9-2,5.5-4.5,7.6-7.3c0.6,0.6,1.2,1.2,1.9,1.6
			c2,1.4,4.4,2.2,6.9,2.2c1.1,0,2.3-0.2,3.4-0.5l18-5.2c5.1-1.5,8.7-6.2,8.7-11.5c0.4,0.3,0.7,0.5,1.1,0.7c3.9,2.4,8.4,3.7,13,3.6
			c3.2,0,6.3-0.5,9.3-1.4c6.6-2,12.5-6.1,16.6-11.6c3.4,1.6,7.1,2.5,10.8,2.5c2.7,0,5.4-0.4,7.9-1.2c4.9-1.5,9.4-3.9,13.3-7.3
			c2.5,1,5.2,1.1,7.7,0.4l18-5.2c5.1-1.5,8.7-6.2,8.7-11.5l1.1,0.7c3.9,2.4,8.4,3.7,13,3.6c3.2,0,6.3-0.5,9.3-1.4
			c7.1-2.1,13.2-6.6,17.5-12.7c3.9,1.7,8,2.6,12.2,2.5c3.7,0,7.4-0.6,11-1.7C496.7,284.9,505.8,271.1,503.9,252.4z M44.9,382.2
			c-0.5,0.9-1.3,1.5-2.3,1.7l-0.2,0.1c0-0.1,0-0.1-0.1-0.2c-0.1-0.2-0.1-0.5-0.2-0.7c0.7-0.6,1.5-1,2.4-1.2l0.6-0.2
			C45,381.8,45,382,44.9,382.2z M68,338.3l-1-0.7c2.2-1.3,4.1-3.1,5.6-5.1l0.8,10.3C71.7,341.1,69.9,339.6,68,338.3z"/>
		<path class="st2" d="M506.4,251.7c-0.7-4.9-3.8-9.2-8.3-11.4c0.3,1.2,0.6,2.4,0.9,3.6c8.8-17.1,6.2-44.9-16.3-49.3
			c-9.8-1.9-20.8,1.6-28.9,7.2c-9.2,6.4-14.7,16-17.9,26.6l4.8-0.6c-3.8-7.2-9.8-12.6-17.9-14.5c-4.4-1-8.9-1-13.3,0
			c-4.7,1-8.7,3.8-13.4,4.5c-4.3,0.7-8.6,2.3-12.8,3.5c-4.9,1.4-9.7,2.4-13.7,5.7l4.4,1.8c-0.4-16.7-16.3-29.5-32.8-24.2
			s-22.1,25.2-12.4,39V241c-2.8,5.1-2.1,10.1-1.7,15.7l4.8-1.3c-7.4-10.1-18.5-13.5-30.5-10.8l3.3,2.5c-0.5-6.7,0.2-14.8-4.6-20.1
			c-6.8-7.5-15.2-4.3-22.9-0.8c-5.9,2.6-14.2,4.8-18,10.5c-3.6,5.5-2.1,12.5-1.7,18.7l1.6,21.3l5.1-0.7c-3.2-9.2-6.5-19.9-18.6-18.6
			c-5.3,0.6-10.9,4.1-15.6,6.2c-5.4,2.4-11.1,4.3-13.8,10.1c-2.2,4.7-1.5,10.5-1.8,15.6c-0.4,6.8-1.1,13.6-2.2,20.4l5.1,0.7
			c-1.2-10.1-4.3-20.4-13-26.6c-9-6.4-21.2-6-30.8-1.2c-11.3,5.5-29.9,3.1-35.3,17.1l4.3-1.1c-6.6-5.2-13.1-3.2-20.4-1.1
			C116,299,108.6,300,104,305l2.5-0.7c-5.9-1.4-10.9,0.7-16.5,2.3c-4.8,1.4-10.3,2.3-14.5,5.2l3.8,1.5c-2.3-11.6-9.7-21-21-24.9
			c-12.6-4.3-27.5-1-38.5,6C9.3,301,1.4,311.8,0.2,324.3c-1.3,13.5,5.2,25.6,15.4,34c0.2-1.4,0.4-2.7,0.5-4.1
			c-22.6,14.5-19.7,50.2,4,62.1c23.5,11.7,54.4-2,65.7-24.6l-4.1,0.5c12.7,13.5,32.8,10.3,44.9-2.2l-2.5,0.7
			c11.1,3.7,22.2-0.1,31-7.2l-2.5,0.7c7.3,2.1,15.3-1.7,22.3-3.7c8-2.3,14.6-5.9,15.2-15.3l-3.9,2.2c14.1,9.5,32.6,3.6,42.9-8.7
			l-2.5,0.7c15.8,5.6,34.5-1.4,44.8-14.2h-3.7c7.7,7.4,16.8,3.4,25.6,0.8s17.1-5.3,17.8-16.1l-3.9,2.2c14.3,9.6,32.9,3.5,43.2-9
			l-3.1,0.4c12.4,5.5,25,1.9,35.2-6.4l-2.5,0.7c7.4,2.4,15.5-1.5,22.6-3.6c8-2.3,14.6-5.9,15.2-15.3l-3.9,2.2
			c15.1,10.2,34.2,2.7,44.4-10.6l-2.9,1.2c13.1,5.4,29.4,1.9,40-7.3c9.3-8,12.4-20.1,11.4-32c-0.3-3.3-5.5-3.3-5.2,0
			c0.9,10.1-1.2,20.4-8.9,27.5c-9.4,8.7-24.1,11.6-35.9,6.8c-1.1-0.3-2.3,0.2-2.9,1.2c-8.6,11.2-24.7,17.3-37.3,8.8
			c-1.7-1.2-3.8,0.4-3.9,2.3c-0.7,10.1-14.8,11.3-22.5,13.5c-1.6,0.6-3.3,0.9-5,1.1c-1.4,0-3-0.9-4.3-0.8c-1.7,0.1-2.8,1.6-4.1,2.5
			c-7.8,5.5-17.7,7.9-26.7,3.9c-1-0.6-2.3-0.4-3.1,0.4c-8.8,10.8-24.4,16.6-36.9,8.2c-1.7-1.2-3.8,0.4-3.9,2.2
			c-0.5,8.3-8.5,9.5-14.9,11.3s-14,5.6-19.6,0.2c-1-1-2.7-1-3.7,0c-9.3,11.4-25.5,17.8-39.8,12.8c-0.9-0.3-1.9,0-2.5,0.7
			c-8.9,10.6-24.3,16.2-36.6,7.9c-1.8-1.2-3.8,0.4-3.9,2.3c-0.7,10-14.6,11.2-22.2,13.5c-0.9,0.3-1.8,0.6-2.6,0.8
			c-3.1,0.7-5.8-1-8.5,0.5c-3.9,2.2-6.9,4.9-11.4,6.2c-4.8,1.4-9.9,1.3-14.6-0.3c-0.9-0.3-1.9,0-2.5,0.7
			c-10.2,10.4-26.7,13.6-37.5,2.2c-1-1-2.7-1-3.7,0c-0.1,0.1-0.3,0.3-0.4,0.5c-9.4,19-33.9,31.4-54.7,24.3
			c-22.9-7.8-28.9-41.1-7.9-54.7c1.3-0.8,1.9-3,0.5-4.1c-8.4-7-14.3-16.3-14-27.6c0.2-11.7,7.4-22.1,17.1-28.2
			c18.8-11.9,47.1-9.2,51.9,15.8c0.4,1.4,1.8,2.2,3.2,1.8c0.2-0.1,0.4-0.1,0.6-0.2c3.9-2.7,9.3-3.5,13.8-4.8c2.2-0.6,4.4-1.4,6.7-2
			c1.2-0.4,2.4-0.6,3.6-0.7c2.1,0,3.3,0.9,5.2,0s2.9-2.6,5-3.4c0.5-0.2,1.1-0.3,1.7-0.5c2.4-0.8,4.9-1.4,7.3-2.1
			c5.5-1.6,12.5-5,17.6-1c1.1,1,2.7,1,3.7-0.1c0.3-0.3,0.5-0.7,0.6-1c2.3-6,8.5-6.8,13.9-8.3l7.8-2.3c2.2-0.6,4.4-0.6,6.5-1.1
			c4.1-0.9,7.6-3.8,11.9-4.7c5.6-1.2,11.5-0.4,16.5,2.4c8.3,4.7,11.3,14.5,12.4,23.4c0.3,2.6,4.6,3.9,5.1,0.7
			c1.5-9.1,2.4-18.2,2.7-27.4c0.2-5.5,0.7-9.7,6-12.5c1.1-0.6,2.3-1,3.5-1.5c4.2-1.9,8.5-3.8,12.7-5.6c2.9-1.3,5.8-1.9,8.9-0.5
			c5.4,2.3,6.4,9,8.1,14c0.9,2.6,5.3,2.4,5.1-0.7c-0.5-6.3-0.9-12.6-1.4-19c-0.5-7.6-3.3-17.5,5-21.8c5.6-2.9,11.4-5.5,17.3-7.7
			c6.9-2.5,12.9,1.5,13.7,8.7c0.4,3.4,0.5,6.8,0.7,10.2c0,1.5,1.2,2.6,2.7,2.6c0.2,0,0.4,0,0.6-0.1c9.6-2.1,18.7,0.3,24.7,8.4
			c1.4,1.9,5,1.5,4.8-1.3c-0.3-4.4-1.3-9,1-13.1c0.5-0.8,0.5-1.8,0-2.6c-7.8-11-4.1-26.9,9.3-31.4s25.9,5.8,26.2,19.2
			c0,1.5,1.3,2.6,2.7,2.6c0.6,0,1.3-0.3,1.7-0.7c3.1-2.6,7.6-3.3,11.4-4.4c3.4-1,6.8-2.2,10.3-3c1.2-0.3,2.9,0,4-0.4
			c1.4-0.5,2.7-1.2,4-1.9c4.1-2.1,8.6-3.2,13.2-3.3c9,0,15.9,4.9,20,12.7c1.1,2,4.1,1.4,4.8-0.6c5.2-16.8,19.4-32.1,38.5-30.4
			c20.5,1.8,22.6,27.2,15.1,41.9c-0.7,1.2-0.3,2.8,0.9,3.6c3.3,1.6,5.5,4.7,5.9,8.3C501.9,256.3,506.9,254.9,506.4,251.7z"/>
		<path d="M42.6,380.9c-0.1,0.1-0.2,0.3-0.3,0.4c0.1-0.3,0.4-0.5,0.1-0.2c-0.1,0.1-0.4,0.3,0,0s0,0-0.1,0s-0.5,0.2-0.1,0.1
			s-0.2,0-0.2,0.1l-0.5,0.1l3.2,1.8c-0.1-0.3-0.3-1.3-0.1-0.2c-0.3,0.6-0.5,1.2-0.8,1.8c0,0,0.1-0.1,0.1-0.1
			c0.2-0.2-0.6,0.4-0.3,0.2c0.2-0.1,0.4-0.2,0.6-0.3s0,0.1-0.2,0.1c0.2,0,0.3-0.1,0.5-0.2l1.1-0.4L42.6,380.9
			C42.8,380.6,42.8,380.6,42.6,380.9c-0.7,1.2-0.3,2.8,0.9,3.5c1.2,0.7,2.8,0.3,3.5-0.9c0.2-0.4,0.4-0.8,0.5-1.2
			c0.7-1.8-1.4-3.8-3.2-3.2c-1.1,0.3-2.3,0.7-3.3,1.3c-0.7,0.4-1.3,1.1-1.6,1.9c-0.2,0.8-0.1,1.6,0.2,2.3c0.4,1.4,1.8,2.2,3.2,1.8
			c1.7-0.3,3.2-1.4,4.1-2.9c0.7-1.2,0.3-2.8-0.9-3.5C45,379.2,43.4,379.7,42.6,380.9L42.6,380.9L42.6,380.9z"/>
		<path d="M69.3,336c-0.3-0.2-0.6-0.5-1-0.7v4.5c2.4-1.5,4.4-3.3,6.2-5.5l-4.4-1.8c0.3,3.4,0.5,6.9,0.8,10.3l4.4-1.8
			C73.3,339.1,71.3,337.5,69.3,336c-2.8-2-5.4,2.5-2.7,4.5c1.7,1.3,3.4,2.6,4.9,4.1c1.5,1.4,4.6,0.5,4.4-1.8
			c-0.3-3.4-0.5-6.9-0.8-10.3c-0.2-2-2.9-3.8-4.4-1.8c-1.4,1.9-3.1,3.4-5.1,4.7c-1.2,0.8-1.6,2.4-0.9,3.6c0.2,0.4,0.5,0.6,0.9,0.9
			l1,0.7C69.4,342.4,72,337.9,69.3,336z"/>
		<path class="st2" d="M34.2,405.4c-4.2-0.5-8.2-2.3-11.5-5c-3.2-2.8-5.5-6.4-6.6-10.5c-1.1-3.5-1.3-7.1-0.6-10.7
			c0.6-3.3,2-6.4,4.2-9c2.1-2.5,4.8-4.3,7.9-5.1c2.6-0.9,5.4-0.9,8,0c2.4,0.9,4.4,2.7,5.5,5c-4.3,1.3-7.5,3.4-9.4,6.5
			c-1.9,3.1-2.4,7-1.2,10.5c1.4,6.3,7.6,10.2,13.9,8.9c0.5-0.1,1-0.3,1.5-0.4c4.1-1.1,7.6-3.8,9.6-7.6c2-3.8,2.4-8.3,1.1-12.5
			c-1.2-3.9-3.4-7.5-6.5-10.2c-4.2-3.6-8.7-7-13.5-9.9c-4.9-3.1-9.6-6.5-14.1-10.3c-3.3-3-5.8-6.9-7-11.2c-1.3-4.2-1.2-8.7,0.2-12.8
			c1.5-4.3,4.1-8.1,7.6-11.1c3.9-3.4,8.6-5.8,13.5-7.2c6.8-2,12.6-2,17.6,0c4.9,1.9,8.5,6,9.8,11c1,3,1,6.3-0.2,9.3
			c-1,2.6-3.2,4.5-5.9,5.3c-3,1-6.3,0.3-8.8-1.7c1.3-1.7,2.1-3.6,2.4-5.7c0.4-2.1,0.2-4.3-0.4-6.4c-0.6-2.4-2.1-4.5-4.2-5.7
			c-2.2-1.1-4.8-1.3-7.2-0.5c-3.2,0.8-5.8,3-7.2,6c-1.5,3.1-1.6,6.7-0.5,10c1,3.3,2.9,6.3,5.6,8.5c3.9,3.1,8,5.9,12.2,8.5
			c4.4,2.6,8,4.9,10.8,6.9c2.9,2.1,5.6,4.6,7.9,7.4c2.5,3,4.3,6.5,5.4,10.3c1.6,5.2,1.5,10.7-0.2,15.8c-1.8,5.3-4.9,10.1-9.2,13.8
			c-4.6,4.1-10.1,7.1-16,8.7C44.1,405.6,39.1,406.1,34.2,405.4z"/>
		<path class="st2" d="M95.7,384.8c-3.2-1.8-5.5-5.2-7-10.2c-0.7-2.8-1.2-5.6-1.4-8.4l-3.2-42.6l18-5.2l3.4,45.1
			c0.1,1.2,0.3,2.4,0.6,3.6c1,3.4,2.7,4.8,5.2,4c2.3-0.7,4.2-2.4,5.2-4.7c1.2-2.9,1.8-6.1,1.7-9.2l-3.2-42.6l18-5.2l3.4,45.1
			c0,1.4,0.3,2.8,0.7,4.1c0.2,1.3,1.1,2.5,2.2,3.2c1.4,0.5,2.9,0.5,4.3-0.1c2.4-0.7,4.3-2.5,5.2-4.8c1.2-2.9,1.8-6,1.7-9.2l5.3-1.5
			c-0.5,9.9-2.5,17.1-6.1,21.6s-7.7,7.5-12.3,8.8c-3.1,1.1-6.5,0.9-9.4-0.5c-2.7-1.4-4.8-4-6.4-7.8c-1.5,5.4-3.6,9.4-6.2,12
			c-2.5,2.5-5.5,4.3-8.8,5.3C102.8,386.9,98.9,386.6,95.7,384.8z"/>
		<path class="st2" d="M195,355.6c-3.2-2.1-5.5-5.3-6.5-9c-0.6-2-0.9-4.1-1.1-6.1c-0.2-2.3-0.4-4.6-0.6-6.8
			c-0.1-2.2-0.2-3.6-0.2-4.3c-0.2-3.1-0.4-6.2-0.6-9.2c-0.1-2.4-0.5-4.8-1.1-7.1c-1.2-4.3-3.4-6-6.4-5.1c-2.2,0.7-3.8,2.3-4.8,4.9
			c-1.1,3-1.7,6.2-1.6,9.5l3.2,42.6l-18,5.2l-4.9-66.4l18-5.2l0.5,6.9c2.8-5.9,7-9.6,12.6-11.3c4.3-1.2,8-1.1,11.1,0.6
			c3.2,1.6,5.5,4.8,6.8,9.5c0.8,2.7,1.3,5.5,1.5,8.3c0.3,3.1,0.5,7,0.6,11.5c0.1,2.8,0.2,5.5,0.4,8.1c0.1,2,0.4,4.1,0.9,6
			c0.3,1.4,1.1,2.7,2.3,3.6c1,0.7,2.4,0.8,4.3,0.2c2.3-0.6,4.3-2.2,5.2-4.4c1.2-3.1,1.9-6.3,2.1-9.6l5.3-1.5
			c-0.4,10.1-2.2,17.3-5.3,21.6s-6.9,7.1-11.2,8.4C202.3,357.9,198.2,357.6,195,355.6z"/>
		<path class="st2" d="M233.9,346.2c-3-0.6-5.7-2.1-7.9-4.2c-2-2-3.4-4.4-4.2-7.1c-0.8-2.5-0.8-5.2-0.1-7.8c0.6-2.2,1.8-4.2,3.4-5.8
			c1.5-6.7,2.6-13.4,3.4-20.2c0.7-6.7,1.1-13.8,1.3-21.3l17.8-7.9c3.5,10.5,7.6,21.9,12.2,34c1.9,4.9,3.1,8.4,3.8,10.7
			c0.5,1.6,0.8,3.2,0.9,4.9c2.7-2.7,5.1-5.7,7.2-8.9l5.3-1.5c-3.6,7.8-8.6,15-14.6,21.2c-1.7,3.3-4.2,6.2-7.3,8.3
			c-3.1,2.2-6.5,3.9-10.2,4.9C241.2,346.7,237.5,346.9,233.9,346.2z M244.7,331.8c1.6-2.4,1.7-5.7,0.5-9.8
			c-1.1-3.5-2.4-6.9-3.8-10.3c-3.6-9.3-6-15.5-7.2-18.7c-0.3,8.9-1.4,17.8-3.3,26.6c2,0.2,3.6,1.6,4.1,3.5c0.5,1.6,0.3,3.2-0.3,4.7
			c-0.6,1.5-1.9,2.6-3.4,3c-1.7,0.5-3,0.3-3.9-0.6c0.9,3,2.1,5,3.7,6.1c1.6,1.1,3.8,1.2,6.4,0.4
			C240.6,336.1,243.1,334.3,244.7,331.8L244.7,331.8z"/>
		<path class="st2" d="M316,320.4c-3.2-2.1-5.5-5.3-6.5-9c-0.6-2-0.9-4.1-1.1-6.1c-0.2-2.3-0.4-4.6-0.6-6.8s-0.2-3.6-0.2-4.3
			c-0.2-3.1-0.4-6.2-0.6-9.2c-0.1-2.4-0.5-4.8-1.1-7.1c-1.2-4.2-3.4-5.9-6.4-5.1c-2.2,0.6-3.8,2.3-4.8,4.9c-1.1,3-1.7,6.2-1.6,9.5
			l3.2,42.6l-18,5.2l-6.6-90.3l17.8-7.9l2.4,33.5c2.8-5.9,7-9.7,12.5-11.3c4.3-1.2,8-1.1,11.1,0.5s5.5,4.8,6.8,9.5
			c0.8,2.7,1.3,5.5,1.5,8.3c0.3,3.1,0.5,7,0.6,11.5c0.1,2.8,0.2,5.5,0.4,8.1c0.1,2,0.4,4.1,0.9,6c0.3,1.4,1.1,2.7,2.3,3.5
			c1,0.7,2.4,0.8,4.3,0.3c2.3-0.6,4.3-2.2,5.2-4.4c1.2-3.1,1.9-6.3,2.1-9.6l5.3-1.5c-0.4,10.1-2.2,17.3-5.3,21.6
			c-2.7,4-6.6,6.9-11.2,8.4C323.3,322.7,319.1,322.4,316,320.4z"/>
		<path class="st2" d="M344,237.6c-2.4-1.3-4.2-3.5-4.9-6.2c-0.8-2.6-0.5-5.5,0.8-7.9c1.3-2.5,3.5-4.3,6.1-5
			c5.5-1.6,11.3,1.6,12.9,7.1c0.8,2.6,0.5,5.5-0.9,7.9c-1.3,2.4-3.6,4.2-6.2,4.9C349.2,239.2,346.4,238.9,344,237.6z M353,310
			c-3.2-1.8-5.5-5.2-7-10.2c-0.7-2.8-1.2-5.6-1.4-8.4l-3.2-42.6l18-5.2l3.4,45.1c0,1.4,0.3,2.8,0.7,4.1c0.3,1.3,1.1,2.5,2.2,3.2
			c1.4,0.5,2.9,0.5,4.3,0c2.5-0.8,4.7-2.6,5.9-5c1.5-2.8,2.3-6,2.2-9.3l5.3-1.5c-0.5,9.9-2.7,17.2-6.6,21.8s-8.2,7.6-13,9
			C360.2,312.2,356.3,311.8,353,310z"/>
		<path class="st2" d="M422.5,289.4c-3.2-2.1-5.5-5.3-6.5-9c-0.6-2-0.9-4.1-1.1-6.1c-0.2-2.3-0.4-4.6-0.6-6.8s-0.2-3.6-0.2-4.3
			c-0.2-3.1-0.4-6.2-0.6-9.2c-0.1-2.4-0.5-4.8-1.1-7.1c-1.2-4.2-3.4-5.9-6.4-5.1c-2.2,0.6-3.8,2.3-4.8,4.9c-1.1,3-1.7,6.2-1.6,9.5
			l3.2,42.6l-18,5.2l-4.9-66.4l18-5.2l0.5,6.9c2.8-5.9,7-9.6,12.6-11.3c4.3-1.2,8-1.1,11.1,0.6c3.2,1.6,5.5,4.8,6.8,9.5
			c0.8,2.7,1.3,5.5,1.5,8.3c0.3,3.1,0.5,7,0.6,11.5c0.1,2.8,0.2,5.5,0.4,8.1c0.1,2,0.4,4.1,0.9,6c0.3,1.4,1.1,2.7,2.3,3.5
			c1,0.7,2.4,0.8,4.3,0.3c2.3-0.6,4.3-2.2,5.2-4.4c1.2-3.1,1.9-6.3,2.1-9.6l5.3-1.5c-0.4,10.1-2.2,17.3-5.3,21.6
			c-3.1,4.3-6.9,7.1-11.2,8.4C429.8,291.7,425.7,291.4,422.5,289.4z"/>
		<path class="st2" d="M459.9,277.7c-4.3-2.2-7.5-6.7-9.5-13.6c-1.8-6.5-2.5-13.3-2.1-20c0.2-7.4,2.2-14.7,5.8-21.2
			c3.6-6.5,9.4-10.9,17.2-13.2c9.2-2.7,14.9,0,17.3,8c1.4,4.6,1.3,9.5-0.3,14c-1.6,4.8-4.3,9.1-7.9,12.5c-3.7,3.6-8.1,6.4-13,8.2
			c0.4,1.9,0.6,3.2,0.8,3.8c2,6.9,5.6,9.6,10.8,8.1c2.6-0.8,5-2.2,7-4.1c2.3-2,4.3-4.3,5.9-6.9c1.3,13-4.1,21.3-16.3,24.8
			C469.5,280.2,464.3,279.9,459.9,277.7z M474.5,240.6c2.2-2.8,3.8-6.1,4.5-9.7c0.8-3.5,0.7-7.1-0.3-10.6c-1-3.4-2.5-4.8-4.6-4.2
			c-2.9,0.9-5,4.3-6.4,10.5c-1.4,6.5-1.8,13.1-1.3,19.7C469.7,245.3,472.5,243.3,474.5,240.6L474.5,240.6z"/>
	</g>
</g>
</svg>
