<?xml version="1.0" encoding="utf-8"?>
<!-- Generator: Adobe Illustrator 23.0.1, SVG Export Plug-In . SVG Version: 6.00 Build 0)  -->
<svg version="1.1" id="Camada_1" xmlns="http://www.w3.org/2000/svg" xmlns:xlink="http://www.w3.org/1999/xlink" x="0px" y="0px"
	 viewBox="0 0 238 173.7" style="enable-background:new 0 0 238 173.7;" xml:space="preserve">
<style type="text/css">
	.st0{fill:#FF8A66;}
	.st1{fill:#55DBFF;}
	.st2{fill:#FFE255;}
	.st3{fill:#FFFFFF;}
</style>
<title>Ativo 5</title>
<g>
	<g id="object">
		<path class="st0" d="M40.4,43.5c-4.6,2.9-7.6,12.1-6.2,17.3c1.4,5.1,6.7,8.5,7.6,13.6c0.8,4.5-1.8,8.9-5,12.1s-7.1,5.8-9.8,9.5
			c-3.2,4.3-4.2,9.8-2.8,15c1.6,5.2,5.9,9,11.3,9.8c3.7,0.5,7.4-0.7,11.2-0.8c6.9-0.1,13.3,3.5,16.9,9.4c2.8,4.8,3.5,10.7,6.4,15.5
			c2.7,4.5,7.4,7.5,12.7,8.1c5.3,0.4,10.4-2.2,13.2-6.8c1.4-2.5,1.9-5.4,3.7-7.6c4.1-4.9,11.9-3.4,17.7-0.7
			c20.5,9.8,35.7,30.2,57.9,34.9c5.8,1.2,12.7,0.9,16.6-3.6c4-4.8,3-12.2,6.3-17.5c3.6-5.8,11.1-7.5,17.8-9s14.2-4.1,16.7-10.5
			c2.3-5.9-0.9-12.5-4.8-17.6s-8.6-9.9-9.9-16.1c-2.8-13,10.3-25,9.1-38.3c-0.6-7.4-5.7-13.7-11.5-18.3c-3.5-2.8-7.5-5.2-11.9-5.5
			c-5.3-0.4-10.6,2.3-15.9,1.7c-6.6-0.7-25.1-2.5-28.1-8.4s-18.5-10.6-25.3-11.3c-16.8-1.9,2.6,11.7-10.5,14
			C122.6,32.8,58.5,32.2,40.4,43.5z"/>
		<path class="st1" d="M65.1,103.3c-1.5,0.3-4.3-0.1-5.5,1c0.3,1.1,0.5,2.3,0.8,3.4c0.2,0.6,0.4,1.3,0.6,1.9c0.3,0.8,0.2,1,1,1.2
			c1.1,0.3,3-0.7,4.1-1.2c1.3-0.6,2.6-0.9,2.6-2.5c-0.1-1.1-0.4-2.1-0.8-3.1C67.1,102.5,66.5,103,65.1,103.3z"/>
		<path class="st2" d="M26.8,36.1c3.3-1.5,5.3,0.7,8,1.9c0.1-3.1,2.2-5.7,5.1-6.5c3.3-0.9,6.5,0.7,8.6,3.1c0.6-2.3,2.5-4.1,4.8-4.7
			c3.4-0.8,6.2,1.7,9.4,2.5c-4.3-7.1-9.3-14.5-16.8-18.4c-6.7-3.5-14.8-2.9-21.9-1.4C17.1,14.2,8.9,17,5,23.3
			c-4.3,7-2.1,16.4-2.9,24.4c2.1-1.6,5-1.6,7.1-0.1c0-2.9,1.7-5.5,4.4-6.7c3-1.1,6.4-0.2,8.5,2.3C22.7,40.3,23.9,37.4,26.8,36.1z"/>
		<path class="st3" d="M94.5,149.3c0.8-4,1.5-8,2.2-12c1.6-8.8,2.9-17.7,4-26.5c0.1-1.1,0.3-2.2,0.4-3.3c-1,2-1.7,4.1-2.2,6.2
			c-1.4,7.3-2,14.8-3.2,22.1c-0.5,3.3-1,6.6-1.5,9.9s-0.6,6.8-1.3,10c-0.6,2.7-3.5,5.3-5.8,6.7c-1.8,1.1-3.9,1-5.8,1.5
			c-2.5,0.8-5.1,1.4-7.8,1.9c-5.9,0.9-12,0.9-17.8-0.9c-2.8-0.9-5.5-2-8.1-3.3c-1.8-0.9-4.4-1.6-5.4-3.5c-1.5-2.6-2-6.2-2.8-9
			c-1-3.2-1.9-6.4-2.9-9.6c-1.8-6.1-3.9-12.3-5.4-18.5c-0.8-3.3-0.7-7-2.1-10.2c-0.7-1.6-1.5-3.1-2.4-4.6c0.9,3.8,1.9,7.6,3,11.4
			c2.2,8.1,4.5,16.1,6.8,24.2c1.2,4.1,2.4,8.3,3.7,12.5c0.7,2.2,1.2,4.6,2.9,6.4c1.3,1.2,2.8,2.2,4.5,2.9c13,6.4,29.8,5.9,42.2-1.8
			C93.7,159.1,93.7,153.8,94.5,149.3z"/>
		<path class="st3" d="M25.4,101.2L25.4,101.2c5.7-3,15.2-8.8,19.1-0.8c1,2,1.5,3.9,3.3,5.3c0.9,0.7,1.9,1.2,2.9,1.7
			c-4.6-12.2-8.8-24.5-12.6-37c-4.1-0.1-8.3-0.6-12.3-1.7c-2.1-0.6-6.3-2-8-4.3c1.9,12.4,4.5,24.6,7.4,36.8L25.4,101.2z"/>
		<path class="st3" d="M44.6,70.5h-0.7c1.3,3.9,2.7,7.9,4.1,11.8c3.1,8.8,6.4,17.6,9.9,26.3c0.3-0.1,0.7-0.2,1-0.3
			c-0.3-1.3-0.6-2.5-0.9-3.8c-0.2-0.2-0.1-0.6,0-0.8c0.8-1,1.9-1.6,3.2-1.6c1.2-0.2,2.4-0.1,3.6-0.4c0.8-0.3,1.7-0.5,2.5-0.6
			c1.1,0,1.5,0.6,1.9,1.5c0.1,0.3,0.3,0.7,0.4,1.1c0.5,0.4,1,0.9,1.4,1.4c-0.1-2.7-0.7-6.2-3.8-6.3c-2.2-0.1-6.4-0.1-7.7,1.8
			c-0.6,0.9-2.1,0-1.5-0.8c0.8-1.2,2.1-2.1,3.6-2.3c2.2-0.4,4.5-0.5,6.7-0.4c3.8,0.4,4.3,6,4.3,9c0,0.4-0.2,0.7-0.5,0.8
			c0.4,0.7,1,1.2,1.8,1.4l0.4,0.1c1.6-12.8,2.8-25.6,4.1-38.4h-0.1h-0.2c-3.7,0.4-7.3,0.6-11,0.7C59.6,70.9,52.1,70.6,44.6,70.5z"/>
		<path class="st3" d="M99.7,64.4c-1.3,0.7-2.6,1.3-4,1.7c-2.2,0.8-4.4,1.5-6.6,2c-0.1,0.2-0.2,0.3-0.4,0.4
			c-0.6,0.3-1.2,0.5-1.9,0.7c-1,7.1-2,14.1-2.9,21.2c-0.4,3.1-0.8,6.3-1.2,9.4c4.9-5.3,12.8-6.3,19.7-6.9
			c0.7-10.3,0.7-20.6,0.1-30.8l-0.4,0.5C101.3,63.3,100.5,63.9,99.7,64.4z"/>
		<path class="st3" d="M39,55.5c1.4,4.4,2.8,8.9,4.3,13.3c10.8,0.2,21.7,0.8,32.5-0.2c1-0.1,1.9-0.2,2.8-0.3c0.3-3.3,0.7-6.5,1-9.7
			l0.6-6c-5.5-0.4-11.1-0.3-16.7,0.1c-5.4,0.5-10.7,1.2-16.1,1.6c-2.9,0.2-5.9,0.1-8.8,0.1C38.8,54.8,38.9,55.1,39,55.5z"/>
		<path class="st3" d="M89.1,53.8c-0.7,4.3-1.3,8.7-2,13c1.8-0.4,3.5-0.8,5.2-1.4c2.5-0.8,6-1.5,7.8-3.4c3.4-3.5-1-5.6-3.9-6.5
			C93.9,54.8,91.5,54.2,89.1,53.8z"/>
		<path class="st3" d="M19.7,62.1c0,2,0,1.8,1.6,2.7c1.3,0.7,2.7,1.4,4.1,1.8c4,1.2,8.1,1.9,12.2,1.9c-1.4-4.7-2.7-9.4-4-14.1
			c-1.1,0.1-2.1,0.2-3.1,0.3c-0.1,0-0.3,0-0.4,0C27,55.6,24.1,57,21.6,59C20.2,60,19.7,60.1,19.7,62.1z"/>
		<path class="st3" d="M90.4,35.1c0.5-2.8,0.9-5.7,1.5-8.5c-1.4-0.2-2.9-0.5-4.2-1c-0.7-0.2-1.4-0.5-2-0.8c-0.9,5.6-1.7,11.3-2.4,17
			c-1.1,8.9-2.1,17.8-3,26.8c1.7,0,3.4-0.2,5-0.6C86.9,56.9,88.6,46,90.4,35.1z"/>
		<path class="st3" d="M93.6,13.1c-1,0.1-1.9,0.3-2.8,0.6c-0.8,2.4,3.1,5.5,5,6.9c0.3-0.2,0.7-0.3,1-0.4
			C94.9,18.4,93.2,15.5,93.6,13.1z"/>
		<path class="st3" d="M87.3,16.6c-0.1,0.2-0.2,0.4-0.2,0.5c-0.1,1.3,2.8,3.1,3.4,3.5c1,0.6,2,1.1,3,1.6c0.2-0.2,0.4-0.5,0.6-0.7
			l0.2-0.1c-1.4-1-2.6-2.2-3.6-3.6c-0.8-1-1.4-2.1-1.6-3.4c-0.6,0.5-1.2,1.1-1.5,1.8C87.4,16.4,87.4,16.5,87.3,16.6z"/>
		<path class="st3" d="M134,22.2c-0.8-0.2-1.5-0.8-1.8-1.6c-0.8-2.2-0.3-4.7,1.4-6.4c-0.9-0.1-1.8-0.1-2.4-0.2
			c-1.8-0.2-3.5-0.4-5.3-0.6c-2.9-0.3-5.9-0.5-8.8-0.7c-6.3-0.3-12.5-0.2-18.8,0.2c-0.9,0-1.8,0.1-2.9,0.1c-0.8,2.2,1.5,5.5,3.2,6.5
			c0.1,0.1,0.2,0.2,0.3,0.3c2.7-0.2,5.7,0.5,8,0.8c6.3,0.7,12.6,1.3,18.9,2C128.5,22.8,131.5,23.2,134,22.2z"/>
		<path class="st3" d="M89,21.7c-0.9-0.6-1.8-1.3-2.5-2.2c-0.2,1.1-0.3,2.3-0.5,3.4c1.2,1.1,4.5,2,6.3,2c0.1-0.4,0.2-0.7,0.4-1
			C91.4,23.3,90.1,22.6,89,21.7z"/>
		<path class="st3" d="M85,69.7c-1.6,0.4-3.3,0.5-4.9,0.5l-0.8,8.4c-1,10-2,20-3.3,30c1.1-0.2,2.1-0.9,2.7-1.9
			c0.7-1.2,1.4-2.5,1.9-3.8c1.2-10.1,2.5-20.2,4-30.3C84.7,71.6,84.9,70.6,85,69.7z"/>
		<path class="st0" d="M80,107.8c-1.5,2.1-4.1,2.9-6.5,2.1c-1.2-0.6-2.3-1.4-3-2.6c0,0.2,0,0.5,0,0.7c-0.1,1.6-1.5,2.1-2.8,2.7
			c-1.7,0.9-3.6,1.6-5.6,1.9c-1,0.2-2-0.5-2.3-1.5c-0.2-0.4-0.3-0.8-0.5-1.3c-0.6,0.2-1.3,0.3-1.9,0.4c-3.8,0.1-7.5-1.1-10.6-3.4
			c-2.7-2.1-2.8-5.5-5-7.8c-3.5-3.9-12,1.5-15.5,3.4c1.7,2.6,3.2,5.4,4.4,8.3c1,2.5,1,5.1,1.5,7.7c1.2,6.4,3.5,12.7,5.3,18.9
			c1.8,5.9,3.4,11.8,5.3,17.7c0.5,1.8,0.6,2.4,2.4,3.5c0.5,0.4,1.3,0.6,1.8,0.9c1.2,0.6,2.4,1.2,3.7,1.7c2.5,1.2,5.1,2.1,7.8,2.8
			c6,1.2,12.2,1,18.1-0.6c2.5-0.7,5-1.3,7.5-1.8c1.8-0.4,3.4-1.4,4.6-2.8c1.5-1.4,2.5-3.3,2.7-5.4c0.3-2.6,0.7-5.1,1-7.7
			c0.8-5.9,1.8-11.7,2.7-17.6c0.8-5.5,0.9-11.6,2.6-17c0.9-2.9,2.6-5.6,3.4-8.6c0.7-2.6,0.9-5.3,0.6-8c-4.7,0.4-9.7,1-13.9,3.3
			c-2.2,1.2-4,2.8-5.3,4.9C81.5,104.5,81.1,106.3,80,107.8z M68.4,135.9c0.1-2.5,1.6-4.6,1.6-7.1v-1.6c0-0.5,0.4-0.8,0.8-0.8
			c2.5,0.2,5,0.4,7.6,0.8c1.3,0.2,4.4,0.2,5.3,1.4c0.8,1-0.1,3.6-0.4,4.6c-0.4,1.8-1.1,4.4-2.3,5.9s-2.9,1-4.5,0.8
			c-2.1-0.3-4.8-0.5-6.7-1.4C68.8,138.1,68.2,137,68.4,135.9z M43.4,107.1c1.4-0.1,2.8,0.3,3.8,1.2c1.3,0.7,2.5,1.6,3.5,2.7
			c1.4,2-1.1,5.3-2.7,6.5c-0.9,0.6-1.7-0.8-0.9-1.5c0.9-0.7,1.6-1.7,1.9-2.8c0.3-0.9-0.1-1.8-0.9-2.3c-1.3-1.1-3.1-2.3-4.9-2.2
			C42.3,108.9,42.3,107.2,43.4,107.1L43.4,107.1z M39.7,116.8c-0.9-0.4-2.2-0.7-2.4-1.8c-0.3-1.4,1.2-2.9,1.4-4.3
			c0-0.2,0-0.4,0.1-0.6c0.6-0.8,0.9-1.6,2-1.7s2.4,0.8,3.4,1.3s2.7,1.2,3.1,2.4c0.4,1-0.5,2.2-1,3s-1.2,2.4-2.5,2.7
			S40.9,117.3,39.7,116.8L39.7,116.8z M43.1,127.6c0.4-2.1,0.8-3.8,3-4.4c1.7-0.5,3.5-0.9,5.2-1.5c1-0.4,2.7-1.6,3.8-1.4
			c1.7,0.2,3.2,3.4,4.1,4.7c1.1,1.6,1.6,3.1,0.3,4.7c-0.7,0.9-1.9-0.4-1.2-1.2c1-1.2-1.6-4.2-2.3-5c-1.3-1.3-1.8-1.1-3.4-0.5
			c-1.5,0.6-3.1,1.1-4.7,1.5c-1.9,0.5-2.8,1.6-3.2,3.6C44.6,129.2,42.9,128.7,43.1,127.6L43.1,127.6z M44.7,131.6
			c0-0.1-0.1-0.1-0.1-0.2c0-0.1,0-0.1,0-0.2v-0.6c0-0.4,0.3-0.7,0.6-0.8c1.8-0.8,3.6-1.6,5.3-2.6c1.1-0.8,2.3-1.5,3.5-2.1
			c0.3-0.1,0.6,0,0.8,0.2c0.9,1.1,1.6,2.4,2,3.7c0.7,1.1,1.2,2.2,1.6,3.5c0.4,1.8-1,2.6-2.5,3.2c-2,0.8-5.2,2.3-7.4,1.7
			S45.5,133.4,44.7,131.6L44.7,131.6z M81.9,155.3c-4.2-2.3-8.9-3.5-13.7-3.6c-0.3,0.6-0.7,1.2-1.2,1.7c-0.8,0.7-2-0.5-1.2-1.2
			c0.2-0.1,0.3-0.3,0.4-0.4c-0.5,0-1,0-1.5,0.1c0,0,0,0.1,0,0.1c0.7,1.4,2.4,3.6,1.9,5.3s-2.7,1.8-4.1,2.2c-2.1,0.7-4.6,1.9-6.9,1.6
			c-4-0.5-6.7-6.7-8.3-9.8c0,0,0-0.1,0-0.1l0,0V151c0-0.1,0-0.3,0-0.4l0.3-1.4c0.1-0.3,0.3-0.5,0.6-0.6c3.2-0.5,6.4-1.4,9.4-2.6
			c1.2-0.5,2.5-1,3.7-0.3s2.1,2.8,2.8,4.5c1-0.1,1.9-0.2,2.9-0.2c0.2-2.1-1.3-4.6-2.2-6.4c-0.2-0.8-0.6-1.6-1.1-2.3
			c-1.1-1-2.8-0.2-4,0.1l-6.6,1.8c-2.8,0.8-4.5,1.1-5.3,4.3c-0.2,0.4-0.7,0.7-1.1,0.5c-0.4-0.1-0.6-0.5-0.5-0.9
			c0.8-3.3,2.2-4.3,5.5-5.2l6.6-1.8c1.4-0.4,3.3-1.3,4.8-1c2.8,0.4,4,5.2,4.8,7.3c0.5,1.2,0.8,2.4,0.8,3.7c5,0.2,9.8,1.5,14.2,3.8
			C83.7,154.3,82.8,155.8,81.9,155.3L81.9,155.3z M83.2,106.3c1.6-0.5,3.3-1,4.9-1.5c1.3-0.5,2.6-0.8,4-1c1.9,0,2.9,2.1,3.5,3.6
			c0.4,1-1.2,1.4-1.6,0.4c-0.5-1.2-1-2.2-2.5-2.2c-0.8,0.1-1.7,0.3-2.5,0.6c-1.8,0.5-3.5,1-5.3,1.6
			C82.7,108.2,82.2,106.6,83.2,106.3L83.2,106.3z M86.7,108.7c1.4-0.4,3.6-1.5,5-0.5c1.2,0.8,1.4,2.8,1.8,4c0.4,1.4,0.9,3-0.3,4.2
			s-3.8,1.8-5.4,2.2c-4,0.9-4.8-3.3-5.9-6.2C79.5,110.2,85.8,109,86.7,108.7L86.7,108.7z M84.2,122.7c1.1,0.3,3,0.5,3.9,1.3
			c1.6,1.5-0.5,5.1-1,6.8c-0.7,2.2-1,5.6-3.3,6.8c-1,0.5-1.8-1-0.9-1.5c1.6-0.8,2.2-4.6,2.7-6.2c0.6-1.8,1.8-3.8-0.3-5
			c-1.5-0.9-4.2-1.2-5.9-1.5c-2.7-0.5-4.4,0.3-6.5,1.9c-0.8,0.7-2-0.5-1.2-1.2c2.2-1.8,4.2-2.9,7-2.6
			C80.6,121.8,82.4,122.2,84.2,122.7L84.2,122.7z"/>
		<path class="st1" d="M60.8,147.8c-1.3-1.3-3,0-4.5,0.5c-1.7,0.7-3.5,1.2-5.3,1.5c-1.5,0.3-1.8-0.2-2.1,0.9c1.8,3.5,4.4,9.5,9,8.4
			c1.7-0.4,3.3-1,5-1.5c2.8-0.9,1.6-2.2,0.5-4.3C62.7,151.7,62,149,60.8,147.8z"/>
		<path class="st1" d="M70.9,137.1c0.9,0.7,3.2,0.8,4.3,0.9c2.2,0.4,3.7,0.8,5-1.2c0.7-1.4,1.3-3,1.5-4.6c0.1-0.5,0.7-2.3,0.4-2.7
			s-2-0.4-2.4-0.4c-2.7-0.5-5.5-0.8-8.2-1.1v0.6c0,1.3-0.2,2.7-0.6,3.9C70.7,134,69.6,136,70.9,137.1z"/>
		<path class="st1" d="M54.2,127.3c-0.9-0.4-2.1,0.8-2.8,1.3c-1.6,0.9-3.3,1.8-5,2.5c0.4,1.2,1,2.3,1.7,3.4c1.1,1.5,2.3,1.1,4,0.7
			c1.1-0.3,2.3-0.7,3.4-1.2c1.6-0.7,1.4-1.6,0.6-3.1C55.7,130.4,54.8,127.7,54.2,127.3z"/>
		<path class="st1" d="M44.3,115.2c0.3-0.5,1.2-1.5,1.2-2.1c0.1-1-1.5-1.5-2.2-1.9s-1.7-1.2-2.3-1c-0.3,0.1-0.5,0.4-0.7,0.7
			c-0.1,0.6-0.2,1.1-0.4,1.6c-0.3,0.8-1.1,1.7-0.6,2.3s2,0.8,2.6,1C43,116.2,43.6,116.2,44.3,115.2z"/>
		<path class="st1" d="M83.3,111.4c0.1,0.1,0.1,0.1,0.1,0.2l1.1,2.8c0.7,1.7,1.2,2.7,3.4,2.4c0.7-0.2,1.4-0.4,2-0.7
			c0.6-0.2,1.1-0.4,1.7-0.7c0.5-0.7,0.6-1.6,0.3-2.4c-0.1-0.9-0.4-1.8-0.8-2.7c-0.9-1.2-1.7-0.6-2.8-0.3c-1.2,0.3-4.6,1.7-5.3,1.1
			C83.1,111.2,83.2,111.3,83.3,111.4z"/>
		<path d="M138.8,15.5c0-0.1,0-0.2-0.1-0.4c-0.3-1.1-1.4-1.9-2.6-1.9c-0.7-0.3-1.5-0.5-2.3-0.6c-6.6-1-13.3-1.6-20-1.8
			c-6-0.2-12.1,0-18.1,0.5c-0.4-0.3-1-0.3-1.3,0.1c0,0,0,0,0,0l0,0l-0.8,0.1c-3.4,0.4-5.9,1.4-7.4,3.9l-0.1,0.1
			c-0.4,0.5-0.7,1-0.7,1.7c-0.1,0.4-0.3,0.9-0.4,1.4c-0.2,0.9-0.4,1.9-0.6,2.8c-0.3,0.1-0.6,0.4-0.6,0.8c0,0.4,0.1,0.7,0.2,1.1
			c-1.7,9.1-2.7,18.4-3.7,27.7c-1.1-0.1-2-0.1-2.6-0.2c-8.2-0.4-16.3,0.5-24.4,1.3c-3.9,0.4-7.8,0.8-11.8,0.8c-1.1,0-2.3,0-3.4,0
			c-1.2-3.6-2.3-7.3-3.4-10.9c-0.3-0.8-0.5-1.7-0.8-2.5c0.4,0.2,0.9,0.4,1.4,0.5c0.5,0.1,0.9-0.2,1-0.7c0-0.1,0-0.2,0-0.3
			c-0.4-2.9,1.5-5.5,4.4-5.9c0.3,0,0.5-0.1,0.8-0.1c2.8,0,5.2,1.9,6.7,4.2c0.1,0.5,0.6,0.7,1.1,0.6s0.7-0.6,0.6-1.1
			c-0.1-2,1.1-3.9,2.9-4.8c1.9-0.9,3.8-0.2,5.6,0.6c2,0.9,3.8,1.8,6,1.9c0.5,0,0.8-0.4,0.8-0.9c0-0.1,0-0.3-0.1-0.4
			c-7-11.5-15.5-23-30.2-23.3c-4.7-0.1-9.3,0.5-13.8,1.8C22.9,8.7,25,5.1,23.3,2s-5.8-2.3-7.1,0.7c-0.5,1.1-0.2,2-1.7,2.2
			c-0.9,0.1-1.8-0.2-2.7,0.3C10.7,5.7,10,6.8,10.2,8c0.2,1.7,1.3,3.2,2.9,4c0.8,0.5,1.7,0.8,2.7,1l0.8,0.1L16,13.3
			c-5.3,2.1-10.7,5.2-13.2,10.6c-3.6,7.7-1.2,16.8-2.5,25c0,0.2,0,0.5,0.2,0.7c-0.1,0.2-0.2,0.4-0.3,0.6c-0.5,1,1,1.8,1.5,0.9
			c0.9-2.3,3.5-3.4,5.8-2.6c1.1,0.4,1.9,1.2,2.4,2.3c0.4,0.8,1.9,0.3,1.6-0.7c-1.1-2.8,0-6.4,3-7.6c3-1,6.3,0.4,7.4,3.3
			c0.3,0.4,0.8,0.5,1.2,0.3c0.2-0.1,0.3-0.3,0.4-0.5c0.5-3,1.3-7.4,4.9-8.1c0.4-0.1,0.7-0.1,1.1-0.1c1.2,5.2,2.5,10.4,3.9,15.5
			c-0.7,0-1.5,0.1-2.2,0.2h-0.1c-0.2-0.1-0.4-0.1-0.5,0l0,0c-2.6,0.4-5,1.4-7.2,2.8c-1.9,1.2-4.9,2.7-5.8,4.9
			c-0.1,0.3-0.2,0.5-0.2,0.8c-0.2,0-0.4,0.1-0.6,0.1c-0.4,0.1-0.7,0.4-0.6,0.8c0,0.1,0,0.1,0,0.2c2.8,18.1,6.6,36.1,11.5,53.7
			c2.4,8.8,4.9,17.5,7.4,26.2c1.3,4.5,2.6,9,4,13.5c1,3.2,2.4,5.7,5.3,7.5c11.9,7.5,28.5,7.6,41.1,2.1c2.7-1.2,6.3-2.6,8.1-5
			c2.3-3,2.3-8,3-11.6c1.7-9.3,3.3-18.5,4.7-27.8c3-20.4,4.6-41.1,3.1-61.7c0-0.4-0.3-0.7-0.7-0.8c-0.6-3.7-7.4-5.8-13.9-6.9
			c0.2-1.3,0.4-2.5,0.6-3.8c1.1-6.8,2.1-13.6,3.4-20.3c0.1-0.5,0.2-1,0.3-1.5c0.2-0.1,0.3-0.1,0.5-0.2c0.4-0.2,0.5-0.8,0.3-1.2
			c-0.1-0.1-0.1-0.2-0.2-0.2c0.1-0.2,0.2-0.4,0.3-0.6c0.7-0.1,1.3-0.5,1.6-1.2c0.1-0.2,0.1-0.4,0-0.5c1-0.6,2.1-0.9,3.3-0.9
			c3.4,0.1,6.8,0.5,10.2,1c6.7,0.7,13.7,2,20.4,2c3.9,0,8-1.4,8.9-5.5C139.3,17.8,139.3,16.6,138.8,15.5z M106.9,20.5
			c-2.3-0.3-5.3-0.9-8-0.8c-0.1-0.1-0.2-0.2-0.3-0.3c-1.7-1.1-4-4.4-3.2-6.5c1-0.1,2-0.1,2.9-0.1c6.3-0.4,12.5-0.5,18.8-0.2
			c2.9,0.1,5.9,0.4,8.8,0.7c1.8,0.2,3.5,0.4,5.3,0.6c0.7,0.1,1.5,0.1,2.4,0.2c-1.6,1.7-2.2,4.2-1.4,6.4c0.3,0.8,1,1.4,1.8,1.6
			c-2.6,1-5.6,0.5-8.2,0.3C119.5,21.9,113.2,21.2,106.9,20.5L106.9,20.5z M100.1,62c-1.8,1.9-5.3,2.7-7.8,3.4
			c-1.7,0.5-3.4,1-5.2,1.4c0.6-4.3,1.3-8.7,2-13c2.4,0.5,4.8,1,7.1,1.8C99.2,56.4,103.5,58.5,100.1,62z M47.3,163.6
			c-1.7-0.7-3.2-1.7-4.5-2.9c-1.7-1.8-2.2-4.1-2.9-6.4c-1.2-4.2-2.5-8.4-3.7-12.6c-2.3-8-4.6-16.1-6.8-24.2c-1-3.8-2-7.6-3-11.4
			c0.9,1.5,1.7,3,2.4,4.6c1.4,3.2,1.4,6.8,2.1,10.2c1.5,6.3,3.6,12.4,5.4,18.6c1,3.2,1.9,6.4,2.9,9.6c0.8,2.9,1.3,6.5,2.8,9
			c1.1,1.9,3.6,2.6,5.4,3.5c2.6,1.3,5.4,2.4,8.2,3.3c5.8,1.8,11.8,1.7,17.8,0.9c2.6-0.5,5.2-1.1,7.8-1.9c2-0.5,4.1-0.4,5.8-1.5
			c2.3-1.4,5.2-4,5.8-6.7c0.8-3.2,0.9-6.7,1.3-10s1-6.6,1.5-9.9c1.1-7.3,1.7-14.9,3.2-22.1c0.5-2.1,1.3-4.2,2.2-6.2
			c-0.1,1.1-0.3,2.2-0.4,3.3c-1.1,8.9-2.5,17.7-4,26.5c-0.7,4-1.4,8-2.2,12c-0.8,4.4-0.8,9.8-5,12.4C77.1,169.4,60.3,170,47.3,163.6
			z M21.6,58.9c2.4-2,5.3-3.4,8.4-4.1c0.1,0,0.3,0,0.4,0c1-0.2,2.1-0.3,3.1-0.3c1.3,4.7,2.6,9.4,4,14.1c-4.1-0.1-8.2-0.7-12.2-1.9
			c-1.4-0.5-2.8-1.1-4.1-1.8c-1.6-0.9-1.5-0.8-1.6-2.7S20.2,60,21.6,58.9z M13.6,40.9c-2.7,1.2-4.4,3.8-4.4,6.7
			c-2.1-1.5-5-1.5-7.1,0.1c0.7-8-1.4-17.4,2.9-24.4c3.9-6.3,12.1-9.2,19-10.6c7.1-1.6,15.2-2.1,21.9,1.4
			c7.6,3.9,12.5,11.3,16.9,18.4c-3.2-0.9-5.9-3.4-9.4-2.5c-2.3,0.6-4.2,2.4-4.8,4.7c-2.2-2.4-5.3-4-8.6-3.1c-3,0.8-5.1,3.4-5.1,6.5
			c-2.7-1.2-4.7-3.5-8-1.9c-2.9,1.3-4,4.2-4.7,7.1C20.1,40.6,16.6,39.7,13.6,40.9L13.6,40.9z M47.5,54.3c5.4-0.4,10.7-1.2,16.1-1.6
			c5.5-0.5,11.1-0.5,16.7-0.1l-0.6,6c-0.3,3.2-0.7,6.5-1,9.7c-0.9,0.1-1.9,0.2-2.8,0.3c-10.8,1-21.6,0.4-32.5,0.2
			c-1.5-4.4-2.9-8.8-4.3-13.3c-0.1-0.4-0.2-0.7-0.3-1.1C41.6,54.4,44.6,54.5,47.5,54.3z M82.5,102.9c1.3-2.1,3.1-3.8,5.3-4.9
			c4.2-2.4,9.1-2.9,13.9-3.3c0.3,2.7,0.1,5.4-0.6,8c-0.8,3-2.5,5.6-3.4,8.6c-1.6,5.4-1.7,11.4-2.6,17c-0.9,5.9-1.8,11.7-2.7,17.6
			c-0.4,2.6-0.7,5.1-1,7.7c-0.2,2.1-1.1,4-2.7,5.4c-1.2,1.4-2.8,2.4-4.6,2.8c-2.6,0.5-5,1.2-7.5,1.8c-5.9,1.6-12.1,1.8-18.2,0.6
			c-2.7-0.7-5.3-1.6-7.8-2.8c-1.2-0.6-2.5-1.1-3.7-1.7c-0.6-0.3-1.3-0.6-1.8-0.9c-1.8-1.1-1.8-1.7-2.4-3.5
			c-1.8-5.9-3.5-11.8-5.3-17.7c-1.8-6.3-4.1-12.5-5.3-18.9c-0.5-2.6-0.5-5.3-1.5-7.7c-1.3-2.9-2.7-5.6-4.4-8.3
			c3.6-1.9,12-7.3,15.5-3.4c2.2,2.4,2.3,5.8,5,7.8c3,2.3,6.8,3.4,10.5,3.4c0.6-0.1,1.3-0.2,1.9-0.4c0.2,0.4,0.3,0.9,0.5,1.3
			c0.3,1,1.2,1.6,2.3,1.5c2-0.3,3.8-1,5.6-1.9c1.3-0.6,2.7-1.1,2.8-2.7c0-0.2,0-0.5,0-0.7c0.7,1.1,1.8,2,3,2.6
			c2.4,0.8,5-0.1,6.5-2.1C81.1,106.3,81.5,104.5,82.5,102.9L82.5,102.9z M78.1,70h0.2h0.1c-1.3,12.8-2.5,25.6-4.1,38.4l-0.4-0.1
			c-0.8-0.3-1.4-0.8-1.8-1.4c0.3-0.1,0.6-0.4,0.5-0.8c0-3-0.6-8.6-4.3-9c-2.3-0.2-4.5,0-6.7,0.4c-1.5,0.2-2.8,1.1-3.6,2.3
			c-0.6,0.9,0.8,1.8,1.5,0.8c1.3-1.9,5.5-1.8,7.7-1.8c3.1,0.1,3.7,3.6,3.8,6.3c-0.4-0.5-0.9-1-1.4-1.4c-0.1-0.4-0.3-0.7-0.4-1.1
			c-0.4-1-0.8-1.6-1.9-1.5c-0.8,0.1-1.7,0.3-2.5,0.6c-1.2,0.3-2.4,0.2-3.6,0.4c-1.2,0-2.4,0.6-3.2,1.6c-0.2,0.2-0.2,0.5,0,0.8
			c0.3,1.2,0.5,2.5,0.9,3.8c-0.3,0.1-0.7,0.2-1,0.3c-3.5-8.7-6.7-17.4-9.9-26.3c-1.4-3.9-2.8-7.9-4.1-11.8h0.7
			c7.5,0.1,15,0.4,22.5,0.3C70.8,70.6,74.4,70.4,78.1,70z M68.6,107.1c0,1.6-1.2,2-2.6,2.5c-1,0.4-2.9,1.5-4,1.2
			c-0.8-0.2-0.7-0.3-1-1.2c-0.2-0.6-0.4-1.3-0.6-1.9c-0.3-1.1-0.6-2.3-0.8-3.4c1.2-1.1,4-0.7,5.5-1c1.5-0.3,2-0.8,2.7,0.7
			C68.2,105.1,68.5,106.1,68.6,107.1L68.6,107.1z M80.6,102.8c-0.5,1.3-1.2,2.6-1.9,3.8c-0.6,1-1.6,1.6-2.7,1.9
			c1.2-10,2.3-20,3.3-30l0.8-8.4c1.6,0.1,3.3-0.1,4.9-0.4c-0.1,0.9-0.3,1.9-0.4,2.8C83.2,82.6,81.8,92.7,80.6,102.8L80.6,102.8z
			 M25.8,68.6c4,1.1,8.1,1.7,12.3,1.7c3.8,12.4,7.9,24.7,12.6,36.9c-1-0.4-2-1-2.9-1.7c-1.8-1.4-2.3-3.3-3.3-5.3
			c-4-8-13.4-2.1-19.1,0.8h-0.1h-0.1c-3-12.2-5.5-24.4-7.4-36.8C19.6,66.6,23.7,68,25.8,68.6z M102.4,92.9
			c-6.9,0.6-14.8,1.5-19.7,6.9c0.4-3.1,0.8-6.3,1.2-9.4c0.9-7.1,1.9-14.1,2.9-21.2c0.6-0.2,1.3-0.4,1.9-0.7c0.2-0.1,0.3-0.2,0.4-0.4
			c2.2-0.5,4.5-1.2,6.6-2c1.4-0.4,2.7-0.9,4-1.7c0.9-0.4,1.7-1.1,2.4-1.8l0.4-0.5C103.1,72.4,103.1,82.7,102.4,92.9z M85.3,67.9
			c-1.6,0.4-3.3,0.6-5,0.6c0.9-8.9,1.9-17.9,3-26.8c0.7-5.7,1.5-11.3,2.4-17c0.6,0.3,1.3,0.6,2,0.8c1.4,0.5,2.8,0.9,4.2,1
			c-0.6,2.8-1,5.6-1.5,8.5C88.6,46,86.9,56.9,85.3,67.9L85.3,67.9z M95.8,20.5c-1.9-1.4-5.8-4.5-5-6.9c0.9-0.3,1.9-0.5,2.8-0.6
			c-0.4,2.4,1.3,5.4,3.1,7.1C96.4,20.2,96.1,20.4,95.8,20.5z M89,14.5c0.2,1.3,0.8,2.4,1.7,3.4c1,1.3,2.3,2.6,3.6,3.6l-0.2,0.1
			c-0.2,0.2-0.4,0.4-0.6,0.7c-1-0.5-2-1-3-1.6c-0.7-0.4-3.5-2.2-3.4-3.5c0.1-0.2,0.2-0.4,0.2-0.5c0.1-0.1,0.2-0.2,0.2-0.4
			C87.9,15.6,88.4,15,89,14.5z M86,22.9c0.2-1,0.3-2.2,0.5-3.4c0.8,0.8,1.6,1.5,2.5,2.2c1.1,0.9,2.4,1.6,3.7,2.1
			c-0.1,0.3-0.3,0.7-0.4,1C90.5,24.9,87.1,24,86,22.9z"/>
		<path d="M82.7,153.8c-4.4-2.3-9.2-3.6-14.2-3.8c0-1.3-0.3-2.5-0.8-3.7c-0.9-2.1-2-6.9-4.8-7.3c-1.5-0.2-3.4,0.7-4.8,1l-6.6,1.8
			c-3.2,0.9-4.6,1.8-5.5,5.2c-0.1,0.5,0.2,0.9,0.7,1c0.4,0.1,0.8-0.2,0.9-0.5c0.8-3.2,2.5-3.5,5.3-4.3l6.6-1.8
			c1.2-0.3,2.9-1.1,4-0.1c0.5,0.7,0.9,1.5,1.1,2.3c0.8,1.8,2.4,4.3,2.2,6.4c-1,0-1.9,0.1-2.9,0.2c-0.7-1.7-1.5-3.7-2.8-4.5
			s-2.5-0.2-3.7,0.3c-3,1.2-6.1,2.1-9.4,2.6c-0.3,0.1-0.5,0.3-0.6,0.6l-0.3,1.4c0,0.1,0,0.3,0,0.4v0.1l0,0c0,0,0,0.1,0,0.1
			c1.6,3.1,4.2,9.3,8.3,9.8c2.3,0.3,4.8-0.9,6.9-1.6c1.4-0.4,3.6-0.6,4.1-2.2s-1.2-3.9-1.9-5.3c0,0,0-0.1,0-0.1c0.5,0,1-0.1,1.5-0.1
			c-0.1,0.2-0.3,0.3-0.4,0.4c-0.8,0.7,0.4,1.9,1.2,1.2c0.5-0.5,0.9-1,1.2-1.7c4.8,0.1,9.5,1.3,13.7,3.6
			C82.8,155.8,83.7,154.3,82.7,153.8z M63.5,153.2c1,2.1,2.2,3.5-0.5,4.3c-1.7,0.5-3.3,1.1-5,1.5c-4.6,1.1-7.2-4.8-9-8.4
			c0.3-1.1,0.7-0.6,2.1-0.9c1.8-0.4,3.6-0.9,5.3-1.5c1.4-0.5,3.1-1.9,4.5-0.5C62,149,62.7,151.7,63.5,153.2L63.5,153.2z"/>
		<path d="M69.8,138.5c1.9,0.9,4.6,1.1,6.7,1.4c1.6,0.2,3.3,0.6,4.5-0.8s1.9-4.1,2.3-5.9c0.3-1.1,1.1-3.6,0.4-4.6
			c-0.9-1.2-4-1.2-5.3-1.4c-2.5-0.4-5-0.7-7.6-0.8c-0.5,0-0.8,0.4-0.8,0.8v1.6c0,2.6-1.4,4.7-1.6,7.1
			C68.2,137,68.8,138.1,69.8,138.5z M71.1,132.7c0.4-1.3,0.6-2.6,0.6-3.9v-0.6c2.7,0.2,5.5,0.6,8.2,1.1c0.3,0.1,2.2,0.1,2.4,0.4
			s-0.3,2.2-0.4,2.7c-0.3,1.6-0.8,3.1-1.5,4.6c-1.3,2-2.9,1.5-5,1.2c-1.1-0.2-3.4-0.2-4.3-0.9C69.6,136,70.7,134,71.1,132.7
			L71.1,132.7z"/>
		<path d="M78.8,121.5c-2.9-0.4-4.8,0.8-7,2.6c-0.8,0.7,0.4,1.9,1.2,1.2c2.1-1.7,3.8-2.4,6.5-1.9c1.7,0.3,4.3,0.6,5.9,1.5
			c2,1.2,0.8,3.1,0.3,5c-0.5,1.6-1.1,5.5-2.7,6.2c-1,0.5-0.1,1.9,0.9,1.5c2.3-1.1,2.7-4.6,3.3-6.8c0.5-1.6,2.6-5.3,1-6.8
			c-0.8-0.8-2.8-1-3.9-1.3C82.4,122.2,80.6,121.8,78.8,121.5z"/>
		<path d="M48.6,137.3c2.2,0.6,5.5-0.9,7.4-1.7c1.5-0.6,2.8-1.4,2.5-3.2c-0.4-1.2-0.9-2.4-1.6-3.5c-0.5-1.3-1.2-2.6-2-3.7
			c-0.2-0.2-0.5-0.3-0.8-0.2c-1.2,0.6-2.4,1.3-3.5,2.1c-1.7,1-3.5,1.9-5.3,2.6c-0.4,0.1-0.6,0.4-0.6,0.8v0.6c0,0.1,0,0.1,0,0.2
			c0,0.1,0,0.2,0.1,0.2C45.5,133.4,46.4,136.8,48.6,137.3z M55.4,134c-1.1,0.5-2.2,0.9-3.4,1.2c-1.6,0.4-2.8,0.8-4-0.7
			c-0.7-1.1-1.3-2.2-1.8-3.4c1.7-0.7,3.4-1.6,5-2.5c0.8-0.4,2-1.7,2.8-1.3c0.6,0.3,1.5,3,1.8,3.6C56.7,132.4,57,133.3,55.4,134z"/>
		<path d="M44.8,128.1c0.4-2,1.3-3.1,3.2-3.6c1.6-0.4,3.1-0.9,4.7-1.5c1.6-0.6,2.1-0.9,3.4,0.5c0.8,0.8,3.3,3.8,2.3,5
			c-0.7,0.8,0.5,2,1.2,1.2c1.3-1.6,0.8-3.1-0.3-4.7c-0.9-1.3-2.4-4.5-4.1-4.7c-1.2-0.2-2.8,1-3.8,1.4c-1.7,0.6-3.5,1-5.2,1.5
			c-2.2,0.7-2.5,2.3-3,4.4C42.9,128.7,44.6,129.2,44.8,128.1z"/>
		<path d="M43.8,117.8c1.2-0.2,1.9-1.7,2.5-2.7s1.3-2,1-3c-0.4-1.2-2.1-1.8-3.1-2.4s-2.2-1.4-3.4-1.3s-1.4,0.9-2,1.7
			c-0.1,0.2-0.2,0.4-0.1,0.6c-0.2,1.4-1.7,2.9-1.4,4.3c0.2,1.1,1.5,1.4,2.4,1.8C40.9,117.3,42.5,118.1,43.8,117.8z M39.3,114.8
			c-0.5-0.6,0.3-1.6,0.6-2.3c0.2-0.5,0.4-1,0.4-1.6c0.2-0.3,0.3-0.6,0.7-0.7c0.6-0.2,1.7,0.7,2.3,1s2.2,0.9,2.2,1.9
			c0,0.6-0.9,1.6-1.2,2.1c-0.6,1-1.2,0.9-2.3,0.6C41.3,115.7,39.7,115.3,39.3,114.8L39.3,114.8z"/>
		<path d="M43.4,108.8c1.7-0.2,3.5,1.1,4.9,2.2c0.8,0.5,1.2,1.4,0.9,2.3c-0.3,1.1-1,2.1-1.9,2.8c-0.9,0.6,0,2.1,0.9,1.5
			c1.6-1.2,4-4.5,2.7-6.5c-1-1.1-2.2-2.1-3.5-2.8c-1.1-0.9-2.5-1.3-3.8-1.2C42.3,107.2,42.3,108.9,43.4,108.8z"/>
		<path d="M81.9,112.4c1.1,2.9,1.9,7.1,5.9,6.2c1.6-0.4,4.2-1,5.4-2.2s0.7-2.8,0.3-4.2c-0.4-1.2-0.6-3.2-1.8-4c-1.4-1-3.6,0.1-5,0.5
			C85.8,109,79.5,110.2,81.9,112.4z M88.4,110c1.1-0.3,1.9-0.8,2.8,0.3c0.4,0.8,0.7,1.7,0.8,2.7c0.3,0.8,0.2,1.7-0.3,2.4
			c-0.6,0.3-1.1,0.5-1.7,0.7c-0.6,0.3-1.3,0.5-2,0.7c-2.2,0.3-2.7-0.7-3.4-2.4l-1.1-2.8c0-0.1-0.1-0.2-0.1-0.2
			c-0.1-0.1-0.1-0.2-0.3-0.3C83.8,111.7,87.2,110.3,88.4,110z"/>
		<path d="M83.7,107.9c1.8-0.6,3.5-1.1,5.3-1.6c0.8-0.3,1.6-0.5,2.5-0.6c1.5,0,2,1,2.5,2.2c0.4,1,2,0.6,1.6-0.4
			c-0.6-1.6-1.6-3.6-3.5-3.6c-1.4,0.2-2.7,0.5-4,1c-1.6,0.4-3.3,0.9-4.9,1.5C82.2,106.6,82.7,108.2,83.7,107.9z"/>
		<path d="M227.6,56.6c-1.1-4.7-3.8-5.3-5.3-5.3c-0.4,0-0.8,0-1.1,0.1c-0.9,0.2-1.8,0.6-2.6,1.2l-0.3-0.4l-1.9,0.4
			c-2.4,0.5-4.8,1.3-7,2.3l-1.3,0.7c-0.8-0.3-1.7-0.4-2.6-0.4c-0.8,0-1.6,0.1-2.4,0.3c-3.1,0.7-5.8,2.7-7.5,5.4
			c-0.1,0.2-0.2,0.4-0.3,0.6c-0.5-0.8-1.1-1.5-1.9-2c-0.9-0.6-2-0.9-3.1-0.9c-0.5,0-1,0.1-1.5,0.2c-1.5,0.4-2.9,1.1-4,2.2l-0.2,0.2
			c-0.8-0.4-1.7-0.6-2.6-0.6c-0.5,0-1.1,0.1-1.6,0.2c-1.3,0.3-2.5,1-3.5,1.8l-0.8-0.7l-1.5,0.3c-2.4,0.5-4.8,1.3-7,2.3l-1.8,1
			c-0.8-0.4-1.7-0.6-2.6-0.6c-0.5,0-1,0.1-1.5,0.2c-1.5,0.4-2.9,1.2-4,2.2l-0.2,0.2c-0.8-0.4-1.7-0.6-2.6-0.6
			c-0.5,0-1.1,0.1-1.6,0.2c-1.3,0.3-2.5,1-3.5,1.8l-0.8-0.7l-1.5,0.3c-2.2,0.5-4.4,1.2-6.5,2.1l-0.1-0.5l-3.6,0.8
			c-2,0.4-3.8,1.1-5.5,2.1l-0.5-0.7l-2,0.5c-2.3,0.5-4.6,1.2-6.7,2.1c0.3-1.3,0.4-2.6,0.1-3.8c-0.5-2-2-3.7-3.9-4.4
			c-1.1-0.5-2.4-0.8-3.6-0.7c-1,0-2,0.1-3,0.4c-2.4,0.6-4.6,1.9-6.3,3.8c-1.9,2.1-2.6,4.9-1.9,7.6c0.5,1.8,1.4,3.5,2.7,4.9
			c1.1,1.3,2.2,2.5,3.5,3.6l-0.6,0.3c-1.3,0.9-2.3,2.1-2.9,3.5c-0.8,1.3-1.2,2.8-1.4,4.3l-0.1,0.8l0.3,0.7c0.6,1.3,1.8,2.3,3.8,3.3
			c1.2,0.6,2.5,0.8,3.8,0.8c0.9,0,1.8-0.1,2.6-0.3c3-0.6,5.7-2.3,7.6-4.6c0.3-0.3,0.5-0.7,0.8-1.1c1.1,1.6,2.9,2.5,4.7,2.5
			c0.5,0,1-0.1,1.5-0.2c1.6-0.4,3.1-1.2,4.3-2.3c0.8,0.4,1.6,0.5,2.5,0.5c0.5,0,1-0.1,1.5-0.2c1.4-0.4,2.8-1,3.9-2l0.2,0.8l3.6-0.8
			c1.9-0.4,3.7-1,5.4-2l0.3,0.6l2.4-0.6c4-0.9,5.3-1.6,6-2.2l0.9-0.7c0.8,0.5,1.8,0.8,2.8,0.8c0.5,0,1.1-0.1,1.6-0.2
			c1.4-0.4,2.7-1,3.8-2l0.2,0.8l3.6-0.9c1.9-0.4,3.7-1,5.4-2l0.3,0.7l2.4-0.6c4-0.9,5.3-1.6,6-2.2l0.9-0.7c0.8,0.5,1.8,0.8,2.8,0.8
			c0.5,0,1.1-0.1,1.6-0.2c1.5-0.4,2.9-1.1,4-2.2c0.6-0.5,1.1-1.1,1.6-1.6c1.3,0.8,2.7,1.3,4.3,1.3c0.7,0,1.4-0.1,2.1-0.2
			c2.1-0.5,4.1-1.5,5.7-3c0.3-0.2,0.5-0.5,0.8-0.8l0.9,1.7l2.5-0.6c2.1-0.4,4.1-1.1,6-2.2l1.8-1.3l-0.7-2.1
			c-0.1-0.2-0.1-0.4-0.2-0.8c-0.3-2.1-0.5-4.3-0.5-6.4h0.9l0.6-0.2c1-0.4,1.9-1.1,2.7-1.9c0.6-0.6,1.1-1.2,1.5-1.9l0.4-0.8l0.5-1
			L227.6,56.6z M121.2,79.3v0.3l-0.1-0.1L121.2,79.3z M122.7,81.2c0.1,0.1,0.3,0.2,0.4,0.3c0,0,0,0.1,0,0.2
			C122.9,81.5,122.8,81.3,122.7,81.2z"/>
		<path class="st2" d="M122.8,87.2c0.6,2.2,0.1,4.5-1.4,6.2c-1.5,1.8-3.7,3.1-6,3.6c-1.5,0.4-3.1,0.3-4.5-0.3
			c-1-0.3-1.8-0.9-2.4-1.8c0.2-1.1,0.5-2.2,1.1-3.1c0.4-1,1.1-1.8,2-2.4c1.4,0.5,3,2,4.8,4.6c1.6-0.4,2.2-1.5,1.8-3.2
			c-0.4-1.2-1-2.3-1.9-3.2c-1-1.2-2.2-2.2-3.3-3.2c-1.2-1-2.3-2.2-3.4-3.4c-0.9-1.1-1.6-2.3-2-3.7c-0.5-1.7,0-3.6,1.2-4.9
			c1.2-1.4,2.9-2.4,4.7-2.8c1.5-0.5,3.2-0.4,4.7,0.2c1.1,0.4,1.9,1.3,2.2,2.4c0.2,1.2,0.1,2.4-0.4,3.4c-0.4,1.1-1,2.2-1.7,3.1
			l-1,1.2c0.4,0.3,0.9,0.7,1.4,1.3c0.9,0.9,1.7,1.8,2.4,2.7C121.8,84.8,122.5,85.9,122.8,87.2z M117.2,75.8c0.3-0.4,0.5-0.9,0.6-1.4
			c0.2-0.5,0.2-1,0.1-1.5c-0.2-0.5-0.6-1-1.2-1.1c-0.7-0.2-1.5-0.2-2.2,0c-0.7,0.1-1.4,0.5-1.9,1c-0.4,0.4-0.6,1-0.5,1.6
			c0.2,0.6,0.5,1.2,1,1.7c0.4,0.5,0.9,1,1.4,1.5l0.7,0.6c0.4-0.3,0.7-0.6,1-1C116.6,76.7,116.9,76.2,117.2,75.8z"/>
		<path class="st2" d="M126.4,91c-0.3-1.8-0.4-3.7-0.3-5.6c0.1-1.6,0-3.3-0.1-4.9c-0.1-0.6-0.8-1.2-1.9-2L124,78
			c2.1-0.9,4.3-1.5,6.5-2c0.3,0.5,0.5,1.1,0.6,1.7c0.2,1.8,0.3,3.7,0.2,5.6c-0.1,1.8,0,3.5,0.2,5.3c0.2,0.7,0.5,0.9,1,0.8
			c0.8-0.3,1.6-0.7,2.3-1.4c0-0.6-0.1-1.8-0.1-3.6c0.1-2.9-0.2-5.8-0.7-8.7c1.4-0.8,2.9-1.3,4.5-1.6l0.7-0.2c0.4,2.3,0.6,4.7,0.6,7
			c0,2,0.1,4.1,0.4,6.1c0.1,0.6,0.3,0.8,0.6,0.8c0.7-0.4,1.3-0.9,1.9-1.4l1,1c-1.7,2.3-3.4,3.7-5.1,4c-0.7,0.2-1.5,0.1-2.1-0.2
			c-0.6-0.3-1.1-0.8-1.3-1.5c-1.6,2.1-3.2,3.3-4.8,3.7c-0.8,0.2-1.6,0.1-2.3-0.3C127.1,92.6,126.6,91.9,126.4,91z"/>
		<path class="st2" d="M146.1,89.4l-0.7,0.2c-0.4-2.3-0.5-4.6-0.5-6.8c0-1.9-0.1-3.9-0.3-5.8c-0.3-0.9-0.8-1.8-1.6-2.3l-0.4-0.4
			l-0.1-0.5c2-0.9,4.1-1.6,6.2-2c0.5,0.6,0.9,1.3,1,2.2c1.8-2.1,3.4-3.4,4.7-3.7c1.5-0.5,3,0.3,3.5,1.7c0,0,0,0,0,0.1
			c0.7-0.8,1.4-1.6,2.2-2.3c0.7-0.7,1.7-1.3,2.7-1.5c0.8-0.2,1.6-0.1,2.3,0.3c0.7,0.5,1.2,1.2,1.4,2.1c0.3,1.7,0.4,3.3,0.3,5
			c-0.1,1.6,0,3.2,0.3,4.7c0.2,0.8,0.4,1.1,0.6,1.1c0.5-0.3,0.9-0.6,1.3-1l0.4-0.3l1,1.1c-0.6,0.9-1.3,1.7-2.2,2.4
			c-0.8,0.7-1.7,1.3-2.7,1.5c-1.8,0.4-3-0.4-3.5-2.5c-0.2-1.6-0.4-3.1-0.3-4.7c0-1.6,0-3.1-0.3-4.7c-0.2-0.7-0.4-1-0.9-0.9
			c-0.9,0.3-1.6,0.7-2.2,1.4c0.1,0.5,0.1,2.3,0.2,5.2c0,2.3,0.2,4.6,0.6,6.8c-1.5,0.8-3.2,1.4-4.9,1.7c-0.2-0.6-0.4-1.3-0.5-1.9
			c-0.3-1.8-0.4-3.6-0.4-5.4c0.1-1.6,0-3.3-0.3-4.9c-0.1-0.7-0.5-0.9-0.9-0.8c-0.8,0.3-1.6,0.7-2.2,1.4c0,0.2,0,1.4,0,3.4
			c-0.1,2.9,0.1,5.7,0.6,8.6C149.2,88.6,147.7,89.1,146.1,89.4z"/>
		<path class="st2" d="M173,83.1l-0.7,0.2c-0.4-2.3-0.5-4.6-0.5-6.8c0-1.9-0.1-3.9-0.3-5.8c-0.3-0.9-0.8-1.7-1.6-2.3l-0.4-0.4
			l-0.1-0.5c2-0.9,4.1-1.6,6.2-2c0.6,0.6,0.9,1.4,1.1,2.2c1.8-2.2,3.4-3.4,4.7-3.7c1.5-0.5,3,0.3,3.5,1.8c0,0,0,0,0,0.1
			c0.7-0.8,1.4-1.6,2.2-2.3c0.7-0.7,1.7-1.2,2.6-1.5c0.8-0.2,1.6-0.1,2.3,0.3c0.7,0.5,1.2,1.2,1.4,2.1c0.3,1.7,0.4,3.3,0.3,5
			c-0.1,1.6,0,3.2,0.3,4.7c0.2,0.8,0.4,1.1,0.6,1.1c0.5-0.3,0.9-0.6,1.3-1l0.4-0.3l1,1.1c-0.6,0.9-1.3,1.7-2.2,2.4
			c-0.8,0.7-1.7,1.2-2.7,1.5c-1.8,0.4-3-0.4-3.5-2.5c-0.2-1.6-0.3-3.2-0.3-4.8c0-1.6,0-3.1-0.3-4.7c-0.2-0.7-0.4-1-0.9-0.9
			c-0.9,0.3-1.6,0.7-2.2,1.4c0.1,0.5,0.1,2.2,0.2,5.2c0,2.3,0.2,4.5,0.6,6.8c-1.5,0.8-3.2,1.4-4.9,1.6c-0.2-0.6-0.4-1.3-0.5-1.9
			c-0.3-1.8-0.4-3.6-0.4-5.4c0-1.6,0-3.3-0.2-4.9c-0.2-0.7-0.5-0.9-0.9-0.8c-0.9,0.2-1.6,0.8-2.2,1.4c0,0.2,0,1.4,0,3.4
			c-0.1,2.9,0.1,5.7,0.6,8.6C176.1,82.2,174.6,82.8,173,83.1z"/>
		<path class="st2" d="M197.3,70.5c-0.8-2.7-0.4-5.5,1.1-7.9c1.3-2.1,3.3-3.6,5.6-4.1c1.3-0.4,2.6-0.3,3.8,0.2
			c1.1,0.4,1.8,1.4,2.1,2.5c0.3,1.1,0.2,2.2-0.2,3.2c-0.4,0.9-0.9,1.7-1.7,2.4c-1.3,1.1-2.8,2-4.4,2.7l-0.9,0.3
			c0.7,2.3,1.9,3.2,3.6,2.8c0.6-0.2,1.2-0.5,1.8-0.9c0.5-0.4,0.9-0.8,1.3-1.2l0.4-0.6l1.1,1c-0.2,0.5-0.6,0.9-0.9,1.3
			c-0.4,0.5-0.9,1-1.4,1.5c-1.2,1.1-2.7,1.8-4.4,2.2c-1.5,0.4-3.2,0.1-4.4-0.8C198.5,74,197.6,72.3,197.3,70.5z M204.9,65.8
			c0.5-1.1,0.7-2.3,0.3-3.5c-0.3-1.3-0.9-1.9-1.6-1.7c-0.9,0.2-1.5,1.2-1.6,2.9c-0.1,1.5,0,3.1,0.3,4.6
			C203.4,67.7,204.3,66.9,204.9,65.8z"/>
		<path class="st2" d="M214.3,73.3l-0.3,0.1c-0.2-0.4-0.3-0.9-0.4-1.3c-0.2-1.9-0.4-3.9-0.3-5.9c0-1.8-0.1-3.7-0.2-5.5
			c-0.3-0.9-0.8-1.7-1.6-2.3l-0.4-0.4l-0.1-0.5c2-0.9,4.1-1.6,6.2-2c0.5,0.8,0.9,1.6,1.1,2.6c0.3-0.8,0.7-1.5,1.3-2.2
			c0.6-0.8,1.4-1.5,2.4-1.7c1.3-0.3,2.3,0.7,2.8,3l-0.4,0.7c-0.3,0.5-0.6,0.9-1,1.3c-0.5,0.5-1,0.9-1.6,1.2
			c-0.3-0.3-0.6-0.5-0.9-0.8c-0.6-0.6-0.9-0.8-1.1-0.8c-0.6,0.4-1,0.9-1.4,1.5c-0.1,3.4,0.1,6.8,0.6,10.2c0.1,0.5,0.2,0.9,0.3,1.1
			C217.7,72.5,216.1,73,214.3,73.3z"/>
		<path d="M238,99.8c-0.1-1.5-0.3-4-0.6-7.7c-0.3-2.6-0.5-5.2-0.5-7.9l0.1-3.9l-4.4,1c-2,0.3-3.8,1-5.5,2.1l-0.3,0.2l-0.5-0.8
			l-2.1,0.5c-2.2,0.4-4.3,1.3-6.3,2.5l-0.7,0.5h-0.3c-1-0.1-1.9-0.2-2.9-0.2c-1,0-2,0.1-3,0.3l-2,0.5v0.2c-0.8,0-1.6,0.1-2.4,0.3
			c-2.2,0.5-4.1,1.9-5.3,3.8c-0.1-3-0.4-6-0.9-9c-0.2-0.9-0.6-1.8-1.2-2.5l-1.1-1.5l-1.9,0.4c-2.2,0.5-4.3,1.4-6.1,2.6l-2,1.3
			l1.3,3.6c0.4,1.8,0.6,3.6,0.7,5.4c-0.7,0-1.4,0.2-2.1,0.3c-2.5,0.6-4.6,2.4-5.7,4.8c-0.3-0.7-0.8-1.3-1.4-1.7l0.2-0.3
			c1.9-2.6,1.4-6.2-1.1-8.2c-0.1-0.1-0.2-0.2-0.4-0.2c-0.9-0.5-1.9-0.8-2.9-0.8c-0.5,0-1.1,0.1-1.6,0.2c-1.4,0.3-2.7,1.2-3.6,2.3
			c-0.3-0.7-0.7-1.3-1.3-1.8l-1.2-1l-1.5,0.3c-2.1,0.5-4.2,1.4-6,2.6l-2.1,1.3l1.4,3.7c0.4,2.3,0.7,4.6,0.7,6.9
			c-0.9-0.7-2.1-1.2-3.3-1.2c-0.4,0-0.9,0.1-1.3,0.2c-0.6,0.1-1.3,0.4-1.8,0.7l-0.7,0.1h-0.2c-3.2,0.7-5.9,2.9-7.3,5.9
			c-0.2-7-0.5-9.1-0.7-10.1c-0.1-0.8-0.5-1.6-1-2.3l-1.2-1.4l-1.8,0.4c-2.4,0.6-4.6,1.6-6.6,3l-2,1.4l1,2.3c0.1,0.2,0.1,0.3,0.1,0.5
			c0.4,2.2,0.6,4.4,0.7,6.6l-1,0.2c0-2.1-0.1-4.3-0.5-6.4c-0.3-1.4-0.9-2.6-1.9-3.7l-1.2-1.2l-1.7,0.4c-2.6,0.5-5.1,1.4-7.5,2.5
			l-1.6,0.9l0.1,3.8l1.5,1.2c0.2,0.2,0.4,0.4,0.6,0.7l0.2,0.2c0.3,2.6,0.5,6.6,0.5,11.9c0,7.7,0.2,9.7,0.3,10.6l0.5,3.2l3.5-0.8
			c3.5-0.8,5.5-1.7,6.7-2.8l1.2-1.1l-0.3-1.7c-0.4-3-0.6-6.1-0.6-9.1l1.2-0.3c0,2.2,0.1,4.4,0.5,6.6c0.3,1.7,1.4,3.2,2.8,4.2
			c1,0.6,2.1,1,3.3,1c0.5,0,1.1-0.1,1.6-0.2c2.1-0.5,4.1-1.9,6-4.4c1.4,1.1,3,1.6,4.7,1.6c3.7,0,7.1-2.2,8.7-5.5
			c1.1,1.5,2.8,2.4,4.7,2.4c0.5,0,1-0.1,1.5-0.2c1.5-0.4,2.8-1.1,4-2.1c0.4-0.3,0.8-0.7,1.2-1l0.1,0.1c0.9,0.6,2,0.9,3.1,0.9
			c0.5,0,1-0.1,1.5-0.2c1.4-0.4,2.7-1,3.8-2c0.7-0.6,1.3-1.2,1.9-1.8c1.6,1.2,3.6,1.6,5.6,1.2c1.2-0.3,2.4-0.9,3.4-1.7l0.4-0.3
			c0.7,0.3,1.5,0.5,2.2,0.5c0.5,0,1-0.1,1.6-0.2c2.1-0.6,4-1.9,5.4-3.6c1.2,0.8,2.6,1.2,4,1.2c0.6,0,1.1-0.1,1.7-0.2
			c1.2-0.3,2.4-0.9,3.3-1.8c0.6,0.2,1.3,0.4,2,0.3c0.5,0,1.1-0.1,1.6-0.2c1.4-0.4,2.7-1,3.7-2c0.4-0.4,0.8-0.7,1.1-1
			c0.4,0.2,0.8,0.4,1.2,0.5c-0.6,1.1-0.7,2.4-0.4,3.7c0.4,1.7,1.7,3.1,3.4,3.7c0.8,0.3,1.6,0.4,2.5,0.4c0.6,0,1.2-0.1,1.8-0.2
			c3-0.6,5.5-2.7,6.8-5.4C237.7,105.8,238.2,102.8,238,99.8z"/>
		<path class="st1" d="M140.7,122.5c-0.8-0.5-1.3-1.4-1.5-2.3c-0.4-3.1-0.6-6.3-0.5-9.4c-1.1,0.1-2.1,0.2-3.1,0.5
			c-1.4,0.3-2.7,0.8-4,1.3c-0.1,3.9,0.2,7.9,0.7,11.8c-0.8,0.7-2.6,1.4-5.4,2.1l-0.4,0.1c-0.3-3.4-0.4-6.7-0.3-10.1
			c0-4.2-0.1-8.4-0.5-12.6c-0.1-0.5-0.4-0.9-0.7-1.3c-0.3-0.4-0.7-0.8-1.1-1.2l-0.5-0.4v-0.6c2.1-1,4.4-1.8,6.7-2.2
			c0.5,0.7,0.9,1.4,1,2.3c0.4,3.1,0.6,6.3,0.5,9.5l7.1-1.7c0-3.2-0.3-6.4-0.9-9.6c-0.1-0.3-0.2-0.7-0.3-1c1.7-1.2,3.6-2.1,5.6-2.5
			c0.2,0.3,0.3,0.7,0.4,1.1c0.3,1.3,0.5,4.9,0.7,10.8c0,3.7,0.2,7.4,0.7,11c0.2,0.7,0.3,1,0.6,0.9c0.7-0.4,1.4-0.9,2-1.5l1,1.2
			c-1.7,2.5-3.4,3.9-5.1,4.3C142.4,123.1,141.5,123,140.7,122.5z"/>
		<path class="st1" d="M156.1,119.9c-1.5,0.4-3.1,0.1-4.4-0.8c-1.4-1.2-2.3-2.8-2.6-4.6c-0.7-2.5-0.5-5.1,0.5-7.5
			c0.9-2.3,3-3.9,5.4-4.4l1.3-0.2c0.4-0.3,0.8-0.6,1.3-0.7c1.9-0.5,3.3,1.1,4.2,4.8c1-0.3,2-0.7,3-1.1l0.6-0.3l0.6,1.4
			c-0.9,0.7-1.9,1.2-3,1.7l-0.7,0.3c0.2,2.5-0.3,5-1.3,7.4C160.2,117.9,158.4,119.4,156.1,119.9z M157.4,116.3
			c1-0.2,1.8-1.1,2.3-2.6c0.5-1.5,0.7-3,0.7-4.6c-2.6,0.6-4.1,0-4.6-2c-0.2-0.8-0.2-1.5,0-2.3l0.1-0.4c-0.1,0-0.3,0-0.4,0
			c-0.1,0-0.2,0.1-0.3,0.2c-0.7,0.9-1,2-1.1,3.2c-0.2,1.7-0.1,3.5,0.4,5.1C155.1,115.4,156.1,116.6,157.4,116.3z"/>
		<path class="st1" d="M168.9,116.9c-0.8,0.2-1.6,0.1-2.3-0.3c-0.7-0.5-1.2-1.3-1.4-2.2c-0.4-3.4-0.5-6.8-0.5-10.2
			c0.1-4.1-0.3-8.2-1-12.3l-0.6-1.6c1.6-1,3.3-1.8,5.1-2.3c0.4,0.5,0.7,1.1,0.8,1.7c0.5,2,0.7,5.9,0.8,11.8
			c-0.1,3.4,0.1,6.8,0.4,10.2c0.2,0.9,0.4,1.3,0.6,1.3l2.4-1.5l1,1.1c-0.8,0.9-1.6,1.8-2.6,2.6C170.9,116.1,169.9,116.6,168.9,116.9
			z"/>
		<path class="st1" d="M180,99.1c0.3,1.8,0.4,3.7,0.3,5.5c-0.1,1.7-0.1,3.4,0.2,5.2c0.2,0.8,0.4,1.1,0.6,1.1
			c0.5-0.3,1.1-0.7,1.5-1.1l0.4-0.3l0.9,1.1c-0.2,0.3-0.4,0.6-0.7,0.9c-0.5,0.6-1.1,1.2-1.8,1.7c-0.7,0.7-1.6,1.2-2.6,1.4
			c-0.7,0.2-1.5,0.1-2.2-0.3c-0.7-0.5-1.1-1.2-1.2-2c-0.2-1.7-0.3-3.3-0.2-5c0.1-1.6,0.1-3.1-0.1-4.7c-0.2-1-0.8-2-1.6-2.7l-0.4-0.4
			l-0.1-0.5c2-0.9,4-1.6,6.2-2C179.6,97.6,179.9,98.3,180,99.1z M174.4,94c-0.6-0.4-1.1-1-1.2-1.8c-0.2-0.8,0-1.7,0.5-2.4
			c0.5-0.7,1.2-1.3,2.1-1.5c0.7-0.2,1.6-0.1,2.2,0.3c0.6,0.4,1,1,1.2,1.8c0.2,0.8,0,1.7-0.6,2.4c-0.5,0.7-1.3,1.3-2.1,1.5
			C175.8,94.5,175,94.4,174.4,94z"/>
		<path class="st1" d="M202.5,106.2c-1.7,2.3-3.3,3.6-4.9,4c-1.3,0.5-2.8-0.3-3.3-1.6c0,0,0-0.1,0-0.1c-0.5,0.9-1.2,1.7-2.1,2.3
			c-0.7,0.5-1.4,1-2.2,1.2c-1.2,0.3-2.4,0-3.4-0.8c-1.3-1.2-2.1-2.8-2.4-4.5c-0.8-2.7-0.7-5.5,0.3-8.1c0.9-2.2,2.3-3.4,4-3.9
			c1.5-0.4,3.1-0.4,4.6,0.2c-0.1-3.2-0.4-6.5-1.1-9.6l-0.5-1.5c1.6-1,3.3-1.8,5.2-2.2c0.3,0.4,0.5,0.9,0.6,1.4c0.6,3.7,1,7.5,1,11.3
			c0,3.9,0.4,7.7,1,11.5c0.1,0.6,0.3,0.8,0.6,0.8c0.5-0.3,0.9-0.6,1.2-1l0.3-0.3L202.5,106.2z M190.9,96.4c-0.9,0.2-1.4,1.2-1.6,3
			c-0.2,1.7-0.1,3.5,0.2,5.2c0.2,1.1,0.5,2.1,1.1,3.1c0.3,0.4,0.8,0.6,1.2,0.4c0.9-0.2,1.6-0.8,2.1-1.6c-0.2-1-0.4-4.4-0.6-10.2
			C192.5,96.3,191.7,96.2,190.9,96.4z"/>
		<path class="st1" d="M211.4,90.4c0.1-0.3,0.1-0.7,0.2-1c1.6-0.3,3.2-0.3,4.9-0.1c-0.1,2.2-0.1,4.5,0,6.7c0.1,1.6,0.3,3.3,0.6,4.9
			c0.2,0.9,0.4,1.4,0.6,1.3c0.5-0.3,1-0.7,1.5-1.1l0.4-0.3l1,1.1l-0.7,0.9c-0.5,0.6-1.1,1.2-1.7,1.7c-0.7,0.6-1.6,1.1-2.5,1.4
			c-1.2,0.5-2.6-0.2-3.1-1.4c0,0,0,0,0,0c-0.9,1.4-2.2,2.5-3.8,3c-1.2,0.3-2.5,0-3.5-0.7c-1.3-1.1-2.1-2.6-2.4-4.3
			c-0.8-2.7-0.7-5.6,0.2-8.2c0.6-2,2.2-3.5,4.2-4C208.6,89.9,210.1,90,211.4,90.4z M210.2,103.9c0.7-0.2,1.3-0.6,1.8-1.2
			c-0.6-3.5-0.9-7.1-0.7-10.6c-0.7-0.1-1.3-0.1-2,0c-0.9,0.2-1.4,1.2-1.6,3.1c-0.2,2-0.1,4,0.4,5.9
			C208.6,103.2,209.3,104.1,210.2,103.9z"/>
		<path class="st1" d="M224.9,103.4c-2.1,0.5-3.3-0.4-3.9-2.7c-0.2-1.6-0.3-3.2-0.4-4.8c-0.1-2.2-0.3-4.4-0.8-6.6
			c-0.1-0.4-0.2-0.7-0.4-1c1.6-1,3.4-1.7,5.2-2c0.3,0.5,0.5,1.1,0.6,1.7c0.3,1.8,0.4,3.6,0.4,5.4c0,1.8,0.1,3.5,0.4,5.3
			c0.2,0.8,0.6,1.1,1.2,0.9c1-0.3,1.9-0.9,2.5-1.8c-0.2-1.5-0.6-5.4-1.2-11.8c1.4-0.8,2.9-1.3,4.5-1.6l0.7-0.2
			c0,2.8,0.2,5.5,0.5,8.3c0.4,3.6,0.6,6,0.6,7.4c0.2,2.5-0.3,5-1.3,7.3c-0.9,2-2.7,3.4-4.8,3.8c-0.8,0.2-1.7,0.2-2.6-0.1
			c-0.7-0.2-1.3-0.8-1.5-1.6c-0.2-1.2,0.3-2.3,1.2-3.1c1.3-1.3,2.8-2.3,4.4-3c0-1.1-0.1-2.2-0.2-3.2
			C228.8,101.7,227,102.9,224.9,103.4z M227.6,106.8c-0.7,0.7-1,1.3-0.9,1.7s0.4,0.6,0.9,0.5c0.6-0.2,1.2-0.6,1.6-1.2
			c0.6-0.8,1-1.8,1.1-2.8C229.3,105.5,228.4,106.1,227.6,106.8L227.6,106.8z"/>
	</g>
</g>
</svg>
