<?xml version="1.0" encoding="utf-8"?>
<!-- Generator: Adobe Illustrator 23.0.1, SVG Export Plug-In . SVG Version: 6.00 Build 0)  -->
<svg version="1.1" id="Camada_1" xmlns="http://www.w3.org/2000/svg" xmlns:xlink="http://www.w3.org/1999/xlink" x="0px" y="0px"
	 viewBox="0 0 185.6 189.6" style="enable-background:new 0 0 185.6 189.6;" xml:space="preserve">
<style type="text/css">
	.st0{fill:#55DBFF;}
	.st1{fill:#FFE255;}
	.st2{fill:#ABFF4A;}
	.st3{fill:#FFFFFF;}
	.st4{fill:#FF8A66;}
	.st5{fill:#4D4D4D;}
</style>
<title>Ativo 7</title>
<g>
	<g id="object">
		<path class="st0" d="M61.5,169.8c-2.5-3.5-3.6-7.8-3.2-12.1c0.4-3.4,1.3-6.7,1.9-10.1c-0.2,0.4-0.4,0.6-0.5,0.8
			c-1.5,2.1-3.2,4.3-5.7,5.3c-3.8,1.4-8.1-1-7.6-5.3c0.6-5.4,7.9-9.6,12.3-11.4c0.7-0.3,1.5-0.5,2.3-0.7c-0.2-0.2-0.4-0.4-0.5-0.7
			c-1.1-2-0.6-4.5,1-6.1l0.1-0.1c-0.2-2.1,0.1-4.2,0.7-6.2c1.1-2.6,2.4-5.1,3.8-7.5c1.1-2.1,2.1-4.4,3.2-6.6
			c-1.5,0.1-3.2,0.1-4.9,0.1c-7.9,0-14.3-0.6-14.3-1.4s6.4-1.4,14.3-1.4c2.3,0,4.4,0,6.3,0.1c0.2-0.3,0.3-0.5,0.5-0.8
			c1.1-1.5,2.2-1.5,4-1.7c3.8-0.3,7.6-0.8,11.4-1.5c2.7-0.5,5.6-1.5,8.4-1.4s5.5,1.7,8.2,2.6c3.1,1,6.2,1.7,9.4,2.3
			c2.2,0.5,9.7,1.4,6.8,5.5c-0.1,0.1-0.2,0.2-0.3,0.4c-1,1.6-2.7,2.7-4.2,3.9c-2.5,2-5,4.1-7.5,6.1c-4.1,3.3-8.5,5-13.2,7.2
			c-4.7,2.2-9.2,4.7-13.7,7.2c0.7,0.2,1.3,0.4,2,0.5c3,0.7,6.9-0.3,9.4,1.7c1.1,0.8,1.8,2,2,3.3c1.2,0,2.5-0.2,3.7-0.5l2.8-0.7
			c1-2.5,2.4-4.8,3.6-7.3c0.9-1.8,1.4-3.7,2.1-5.5c-0.5-0.6-0.4-1.5,0.2-2c0.1-0.1,0.2-0.1,0.3-0.2c0.2-0.1,0.4-0.1,0.6-0.1
			c0.1-0.2,0.3-0.4,0.4-0.6c-0.2-0.8,0.2-1.5,0.8-1.9c0.3-0.2,0.7-0.2,1,0.1l0.2-0.1c0.3-0.7,0.9-1.2,1.6-1.5c0.3-0.2,0.7-0.1,1,0.1
			c3.2-1.3,7-1.8,10-2.7c2.1-0.6,5.2-2.4,5.8,0.6c0.5,2.3-0.3,4.4-2.7,5c-3.2,0.9-7.8,0.3-11.2,1.7c-0.2,0.6-0.8,1-1.4,1
			c0.3,0.3,0.3,0.8,0,1.2c-0.1,0.1-0.3,0.2-0.4,0.2h-0.3c0.2,0.5,0,1-0.5,1.2c-0.1,0-0.2,0.1-0.3,0.1c-0.3,0-0.6,0-0.9,0
			c-1.3,2.8-2.3,5.8-3,8.8l1.5-0.4c1.4-0.7,2.8-1.1,4.3-1.2c4-1.1,8.4-2.6,12.6-1.9c1.7,0.3,3.9,1.5,3,3.3c0.3,0.1,0.5,0.4,0.6,0.8
			c0.8,6-1.1,12.3-2,18.2c-0.6,4.3-3.7,8.4-5.5,12.3c-1.6,3.7-3.1,7.8-5.3,11.3c2.8-0.8,5.6-1.6,8.3-2.6
			c36.9-13.8,60.7-50.8,58.9-90c-5.6-1.5-11.4-2.5-17.2-3c-3.2-0.4-6.5-0.2-9.7,0.6c-2.4,0.7-4.5,1.9-7,2.3c-5.4,0.9-11,0-16.4-0.9
			s-10.8-2.3-16.3-2.8c-5.4-0.4-10.7-0.5-16.1-0.1c-11,0.6-21.8,2-32.8,3c-11.2,1.1-22.5,1.6-33.8,1.5C23.7,89,12.8,88.3,1.9,87.6
			c-2.9,44.3,26.7,84.2,70,94.2c-0.3-0.3-0.5-0.6-0.8-0.9C68,177.2,64.2,174,61.5,169.8z M143.9,102.1c0,0.8-9.8,1.4-21.8,1.4
			s-21.8-0.6-21.8-1.4s9.8-1.4,21.8-1.4S143.9,101.3,143.9,102.1z M118.3,91.8c0,0.6-6.6,1.1-14.8,1.1s-14.8-0.5-14.8-1.1
			s6.6-1.1,14.8-1.1S118.3,91.2,118.3,91.8z M97.1,87.2c5.2,0,9.4,0.4,9.4,0.9s-4.2,0.9-9.4,0.9s-9.4-0.4-9.4-0.9
			S91.9,87.2,97.1,87.2z M94.3,94.6c11.2,0,20.2,0.8,20.2,1.7s-9,1.7-20.2,1.7s-20.2-0.8-20.2-1.7S83.2,94.6,94.3,94.6z"/>
		<path class="st1" d="M105.5,119c-7.7,3-15.7,5.6-22.8,9.7c0.2,0.1,0.3,0.2,0.4,0.3c1.6-0.6,3.3-1.3,4.8-2c2.9-1.4,5.6-3.3,8.6-4.4
			c1.5-0.6,5.1-2,6.7-0.8c0.3,0.2,0.5,0.5,0.7,0.8c0.2-0.2,0.5-0.3,0.7-0.5c2.4-1.7,4.6-3.7,6.9-5.5
			C109.5,117.3,107.5,118.2,105.5,119z"/>
		<path class="st2" d="M68.7,129.8c0.8,0.4,1.3,1.2,1.3,2.1c0,0.1,0,0.2,0,0.3c0.6-1,1.3-1.9,2.2-2.7c1.8-1.7,5.4-1.8,8.1-1.4
			c5.2-3,10.7-5.6,16.3-7.6c5-1.9,10-3.6,14.8-6c1.2-0.6,2.3-1.2,3.5-1.8c0.5-0.2,1-0.5,1.4-0.8c0.5-0.9,0.6-2,0.1-2.9
			c-0.4-0.5-3.2-0.8-3.9-0.9l-3.3-0.7c-2.6-0.5-5.2-1.2-7.7-2.1c-2.5-0.9-4.9-2.3-7.6-2.1s-5.5,1.1-8.2,1.5c-2.3,0.4-4.6,0.7-7,1
			c-1.4,0.2-3.6,0-4.9,0.5s-2,2-2.6,3.2l-3.8,7.3c-1.3,2.4-3,5-3.8,7.6c-0.4,1.5-0.6,3.1-0.5,4.6C65.1,128.5,67,128.8,68.7,129.8z"
			/>
		<path class="st2" d="M119.5,171c0.9-2.1,1.8-4.2,2.8-6.3c1.3-2.7,2.9-5,3.3-8.1c0.7-5.5,2.5-11.1,1.9-16.6
			c-1.2,0.8-2.6,1.6-3.9,2.2c-1.8,1-3.7,1.9-5.6,2.6c-4.3,1.9-8.8,3.2-13.4,3.9c-4.4,0.4-8.8,0.5-13.2,0.3
			c-2.9,3.2-7.7,5.2-11.4,4.4c-1.5-0.4-2.9-1-4.2-1.8c0.9,1.9,1.3,4.2,0,6s-4.1,2.1-6.3,2.4c-1.7,0.3-4.1,1-5.8,0.3
			s-2.9-2.6-3.5-4.5c-0.2,1-0.3,2.1-0.3,3.1c0.1,0,0.3,0.1,0.4,0.2c1.8,1.8,4.1,2.9,6.6,3.2c1.1,0.1,1.1,1.9,0,1.8
			c-2.6-0.3-5-1.3-7-2.9c0.1,1.2,0.4,2.4,0.9,3.6c1.2,0.7,2.6,1.2,4,1.4c1.1,0.1,0.6,1.9-0.5,1.7c-0.8-0.1-1.6-0.3-2.4-0.6
			c1.6,2.7,3.6,5.2,5.9,7.5c1.9,2,3.8,3.9,5.6,6s3.1,5,5.9,6s5.7,0.5,8.5,0.1c2.1-0.3,4.3-0.2,6.4,0.2c5.8,0.9,13.3,1.8,17.9-2.8
			C115.7,180.9,117.5,175.4,119.5,171z"/>
		<path class="st1" d="M114.5,138.8c-4.9,6.3-11.4,8.4-19.3,8.4h-2.4v0.1h3c5.6,0,10.7-0.3,16.1-2c2.7-0.8,5.3-1.8,7.9-3
			c1.7-0.8,5.1-1.9,6.1-3.4c1.8-2.7-5.7-1.4-7-1.1C117.5,138,116,138.4,114.5,138.8L114.5,138.8z"/>
		<path class="st3" d="M72.5,148.9c-0.4-0.5-0.8-1-1.1-1.5c-0.5-1.1-0.8-2.2-0.8-3.4c-0.2-0.3-0.4-0.6-0.6-0.9
			c-0.5,0.2-1,0.2-1.5,0.2c-0.2,1.9-0.2,3.8,0.1,5.8c0.2,1.1-1.5,1.6-1.7,0.5c-0.3-2.2-0.4-4.4-0.1-6.6l-0.4-0.2
			c-0.5-0.3-1-0.6-1.3-1.1c-0.6,0.6-1.2,1.2-1.7,1.8c-0.1,0.5-0.1,1-0.2,1.8c-0.2,1.5-0.6,3-1.1,4.5c-0.7,2.1-0.6,4.4,0.3,6.4
			c1.2,2.7,2.7,2.7,5.3,2.4c1.2-0.2,2.5-0.4,3.7-0.6c2.1-0.5,4-0.9,3.4-4.3c-0.4-1.1-0.9-2.2-1.6-3.2
			C72.9,150,72.7,149.4,72.5,148.9z"/>
		<path class="st3" d="M85.3,139.1c-2.7-0.1-8.5-2.4-11.5-1.2c3.4,0,6,2.3,8.8,4.2c0.9,0.6,0,2.2-0.9,1.5c-2.6-1.8-5.3-4.4-8.7-3.9
			h-0.2c-0.1,0.3-0.2,0.6-0.3,0.9c-0.2,0.4-0.4,0.7-0.6,1c0,0.3,0.1,0.5,0.1,0.8c0.5,2.7,0.6,4,2.7,5.9s4.6,3.7,7.6,3.6
			c2.4-0.1,5.2-1.9,7.1-3.5s3.5-4,2.7-6.6C91.2,138.8,87.8,139.3,85.3,139.1z"/>
		<path class="st3" d="M70.4,135.6c0.4,0.1,0.8,0.3,1.2,0.6c1.9-1.9,5.8-2.5,8.2-3.4c1.1-0.1,1.4-0.6,1.1-1.6c0.3-1.1,0-1.5-1.1-1.2
			c-0.9-0.1-1.7-0.1-2.6,0c-2.6,0-4.1,1.1-5.6,3.3C71.1,133.9,70.7,134.7,70.4,135.6z"/>
		<path class="st3" d="M64.4,140c0-0.1,0-0.2,0-0.3c-1.2,0.2-2.4,0.7-3.5,1.4c-1.5,1-2.1,2.6-3.5,3.7c-0.9,0.7-2.1-0.5-1.2-1.2
			c0.7-0.8,1.4-1.6,2-2.5c0.7-0.7,1.4-1.3,2.3-1.8c1.1-0.6,2.3-1.1,3.5-1.3l-0.5-0.2c-1.9,0.1-3.8,0.6-5.5,1.4
			c-1.7,0.9-3.4,1.9-4.9,3.1c-1.1,0.7-2.1,1.6-3,2.5c-0.9,0.8-1.5,1.9-1.9,3c0.2,1.2,0.5,2.4,0.7,3.6c2,2.7,6.2,0,7.6-1.7
			C57.8,148.3,61.1,142.4,64.4,140z"/>
		<path class="st3" d="M61.9,134.2c0.5,1.3,2.4,1.9,4.1,2.5c0.2-0.2,0.4-0.4,0.7-0.5c-0.6-0.6-1.2-1.2-1.9-1.6
			c-0.9-0.7,0-2.2,0.9-1.5c1,0.7,1.9,1.6,2.7,2.5l0,0c0.1-1.1,0-2.2-0.1-3.3c-0.4-1.5-2.7-1.8-4-1.7c-1.4,0-2.6,1.2-2.6,2.6
			C61.7,133.5,61.8,133.9,61.9,134.2z"/>
		<path class="st4" d="M67,138.7c0,0.2,0,0.4,0.1,0.6c0.1,0.4-0.1,0.8-0.5,1c-0.1,0-0.2,0-0.3,0c0.4,0.6,1.1,1,1.8,1.2
			c1.2,0.3,2.5-0.3,2.9-1.5C72.5,136.4,67.2,136.7,67,138.7z"/>
		<path class="st3" d="M108.2,127.6c0.3,0.2,0.6,0.3,0.9,0.4c0.1,0,0.2,0.1,0.3,0.1l0.2-0.3c-0.4-0.3-0.7-0.6-1-1
			C108.4,127.1,108.2,127.3,108.2,127.6L108.2,127.6z"/>
		<path class="st3" d="M112,125c0.1,0.2,0.3,0.3,0.4,0.4l0.4-0.2l0.2-0.1c0.9-0.4,1.9-0.6,2.7-0.9c2.8-0.8,7.5-0.3,9.5-2.2
			c0.5-0.4,2-1.4,0.9-2.3c-0.8,0.1-1.6,0.4-2.4,0.7l-5.9,1.7c-2.2,0.5-4.4,1.2-6.4,2.2C111.6,124.5,111.8,124.8,112,125z"/>
		<path class="st3" d="M110.7,126.5l0.2-0.1c-0.2-0.2-0.4-0.5-0.6-0.7s-0.2-0.2-0.3-0.4c-0.1,0.1-0.2,0.2-0.3,0.3
			C110,125.9,110.3,126.2,110.7,126.5z"/>
		<path class="st3" d="M101,144.7c3.8-0.4,4.6-6.5,5.7-9.7c0.5-1.6,1.1-3.5,1.9-5.3c-0.4-0.1-0.7-0.3-1.1-0.5
			c-0.8,2.4-1.8,4.7-2.9,6.9C103,138.8,101.8,141.7,101,144.7z"/>
		<path class="st1" d="M44,84.1c12.5-0.3,25-1.6,37.5-2.8c12-1.1,24.2-2.8,36.3-1.6c11.4,1.2,24.3,6.4,35.5,2.3
			c9.4-3.5,20.4-1.1,29.9,1.3c-5.3-50-50.1-86.3-100.2-81C76.6,2.9,70.2,4.3,64,6.3C30.6,17.4,6.4,47.6,2.3,82.4
			C16.2,83.3,30.1,84.3,44,84.1z"/>
		<path d="M24.7,29.7C11.1,44.5,2.6,63.3,0.4,83.3c0,0.5,0.4,0.8,0.9,0.9C15.6,85.1,29.8,86,44,85.8c12.5-0.3,25-1.6,37.5-2.7
			c11.7-1.1,23.5-2.7,35.2-1.7c6.4,0.5,12.6,2.1,19,3c4.6,0.6,9.9,1.6,14.6,0.6c2.6-0.6,5-1.9,7.7-2.5c2.9-0.5,5.8-0.6,8.6-0.3
			c5.9,0.5,11.8,1.6,17.6,3.1c0.5,0.1,1-0.2,1.1-0.6c0-0.1,0-0.1,0-0.2c-3.4-35.7-27.4-67-61.3-79.1C89-7,50,2.6,24.7,29.7z M64,6.3
			c47.7-15.9,99.3,9.9,115.2,57.7c2.1,6.2,3.5,12.7,4.2,19.2c-9.6-2.4-20.5-4.8-29.9-1.3c-11.2,4.2-24.1-1.1-35.5-2.3
			c-12.1-1.2-24.3,0.5-36.3,1.6c-12.5,1.1-25,2.5-37.5,2.8c-13.9,0.2-27.8-0.7-41.7-1.6C6.4,47.6,30.6,17.4,64,6.3z"/>
		<path d="M184.8,87.1c-6-1.6-12.1-2.7-18.2-3.3c-4.6-0.4-9.2,0.3-13.6,1.9c-5.2,2-11.3,1.3-16.7,0.5c-10.3-1.6-19.9-3.8-30.3-3.5
			c-22.2,0.5-44.2,4.7-66.4,4.7c-12.8,0-25.7-0.9-38.5-1.7c-0.5,0-0.9,0.4-0.9,0.9c-2.7,40.4,21.4,78.8,59.3,93.4
			c4.6,1.8,9.4,3.2,14.3,4.2c-0.6-0.8-1.2-1.6-1.8-2.4c-43.3-10-72.9-49.9-70-94.2c10.9,0.7,21.8,1.4,32.7,1.6
			c11.3,0.1,22.6-0.4,33.8-1.5c10.9-1,21.8-2.4,32.8-3c5.4-0.4,10.7-0.3,16.1,0.1c5.5,0.5,10.8,1.8,16.3,2.8s11,1.8,16.4,0.9
			c2.5-0.4,4.6-1.6,7-2.3c3.2-0.7,6.5-0.9,9.7-0.6c5.8,0.5,11.5,1.5,17.2,3c1.8,39.2-22,76.2-58.9,90c-2.7,1-5.5,1.9-8.3,2.6
			c-0.4,0.7-0.9,1.3-1.3,2c19.9-4.9,37.6-16.3,50.3-32.3c14-17.9,21.1-40.3,19.9-63C185.4,87.6,185.2,87.2,184.8,87.1z"/>
		<path class="st5" d="M100.3,102.1c0,0.8,9.8,1.4,21.8,1.4s21.8-0.6,21.8-1.4s-9.8-1.4-21.8-1.4S100.3,101.3,100.3,102.1z"/>
		<path class="st5" d="M50,107.8c0,0.8,6.4,1.4,14.3,1.4c1.7,0,3.4,0,4.9-0.1c0.4-0.9,0.9-1.7,1.4-2.5c-1.9-0.1-4.1-0.1-6.3-0.1
			C56.5,106.4,50,107.1,50,107.8z"/>
		<path d="M94.3,98c11.2,0,20.2-0.8,20.2-1.7s-9-1.7-20.2-1.7s-20.2,0.8-20.2,1.7S83.2,98,94.3,98z"/>
		<path d="M88.8,91.8c0,0.6,6.6,1.1,14.8,1.1s14.8-0.5,14.8-1.1s-6.6-1.1-14.8-1.1S88.8,91.2,88.8,91.8z"/>
		<ellipse cx="97.1" cy="88.1" rx="9.4" ry="0.9"/>
		<path d="M116.5,181.3c2.2-3.5,3.6-7.6,5.3-11.3c1.7-4,4.8-8,5.5-12.3c0.9-5.9,2.7-12.2,2-18.2c0-0.3-0.3-0.6-0.6-0.8
			c0.9-1.8-1.3-3-3-3.3c-4.2-0.7-8.6,0.8-12.6,1.9c-1.5,0.1-3,0.5-4.3,1.2l-1.5,0.4c0.7-3,1.7-6,3-8.8c0.3,0,0.6,0,0.9,0
			c0.5,0,0.9-0.4,0.9-0.9c0-0.1,0-0.2-0.1-0.3h0.3c0.4-0.1,0.7-0.5,0.6-1c0-0.2-0.1-0.3-0.2-0.4c0.6,0,1.2-0.4,1.4-1
			c3.4-1.4,7.9-0.8,11.2-1.7c2.4-0.6,3.2-2.7,2.7-5c-0.7-3-3.7-1.2-5.8-0.6c-3,0.8-6.8,1.4-10,2.7c-0.3-0.3-0.7-0.3-1-0.1
			c-0.7,0.3-1.3,0.8-1.6,1.5l-0.2,0.1c-0.3-0.3-0.7-0.3-1-0.1c-0.7,0.4-1,1.2-0.8,1.9c-0.1,0.2-0.3,0.4-0.4,0.6
			c-0.2-0.1-0.4,0-0.6,0.1c-0.7,0.3-1,1.2-0.7,1.9c0,0.1,0.1,0.2,0.2,0.3c-0.7,1.8-1.2,3.7-2.1,5.5c-1.2,2.4-2.6,4.8-3.6,7.3
			l-2.8,0.7c-1.2,0.3-2.4,0.4-3.7,0.5c-0.2-1.3-0.9-2.5-2-3.3c-2.6-2-6.5-1-9.4-1.7c-0.6-0.1-1.3-0.4-2-0.5c4.5-2.4,9-5.1,13.7-7.1
			s9.1-3.9,13.2-7.2c2.5-2,5-4.1,7.5-6.1c1.5-1.2,3.2-2.3,4.2-3.9c0.1-0.1,0.2-0.2,0.3-0.4c2.8-4.1-4.6-5-6.8-5.5
			c-3.2-0.6-6.3-1.4-9.4-2.3c-2.7-0.9-5.3-2.5-8.2-2.6s-5.7,0.9-8.4,1.4c-3.8,0.7-7.6,1.1-11.4,1.5c-1.8,0.2-2.9,0.1-4,1.7
			c-0.2,0.3-0.3,0.5-0.5,0.8c-0.5,0.8-1,1.7-1.4,2.5c-1.1,2.2-2.1,4.5-3.2,6.6c-1.4,2.4-2.7,5-3.8,7.5c-0.6,2-0.9,4.1-0.7,6.2
			l-0.1,0.1c-1.6,1.6-2.1,4.1-1,6.1c0.1,0.2,0.3,0.5,0.5,0.7c-0.8,0.1-1.6,0.4-2.3,0.7c-4.4,1.9-11.8,6.1-12.3,11.4
			c-0.5,4.4,3.9,6.6,7.6,5.3c2.5-0.9,4.3-3.1,5.7-5.3c0.1-0.1,0.3-0.4,0.5-0.8c-0.6,3.4-1.5,6.7-1.9,10.1c-0.4,4.3,0.7,8.6,3.2,12.1
			c2.7,4.1,6.4,7.4,9.7,11.1c0.3,0.3,0.5,0.6,0.8,0.9c0.6,0.8,1.2,1.6,1.8,2.4c1.6,2.1,3.3,4.1,6.3,4.7c4.6,1,9.2-0.8,13.8-0.1
			s8.4,1.2,13,0.1c3.4-0.9,6.4-2.9,8.4-5.7C115.7,182.6,116.1,182,116.5,181.3z M94.3,187.2c-2.1-0.4-4.3-0.5-6.4-0.2
			c-2.8,0.4-5.7,1-8.5-0.1s-4.1-3.8-5.9-6s-3.7-4.1-5.6-6c-2.3-2.3-4.2-4.8-5.9-7.5c0.8,0.3,1.6,0.5,2.4,0.6
			c1.1,0.1,1.6-1.6,0.5-1.7c-1.4-0.2-2.8-0.7-4-1.4c-0.5-1.2-0.8-2.4-0.9-3.6c2,1.6,4.4,2.6,7,2.9c1.1,0.1,1.1-1.6,0-1.8
			c-2.5-0.3-4.8-1.4-6.6-3.2c-0.1-0.1-0.2-0.2-0.4-0.2c0-1.1,0.1-2.1,0.3-3.2c0.6,1.9,1.8,3.9,3.5,4.5c1.7,0.6,4,0,5.8-0.3
			c2.2-0.4,4.8-0.6,6.3-2.4s0.9-4.1,0-6c1.3,0.8,2.7,1.4,4.2,1.8c3.7,0.8,8.5-1.2,11.4-4.4c4.4,0.2,8.8,0.1,13.2-0.3
			c4.6-0.7,9.1-2,13.4-3.9c1.9-0.8,3.8-1.7,5.6-2.6c1.4-0.6,2.7-1.4,3.9-2.2c0.6,5.6-1.2,11.1-1.9,16.6c-0.4,3.1-2,5.3-3.3,8.1
			c-1,2.1-1.9,4.2-2.8,6.3c-1.9,4.4-3.8,9.8-7.3,13.3C107.6,189,100.1,188.1,94.3,187.2z M48.9,151.3c-0.2-1.2-0.5-2.4-0.7-3.6
			c0.4-1.1,1-2.2,1.9-3c0.9-0.9,1.9-1.8,3-2.5c1.5-1.2,3.2-2.2,4.9-3.1c1.7-0.8,3.6-1.3,5.5-1.4l0.5,0.2c-1.2,0.2-2.4,0.7-3.5,1.3
			c-0.8,0.5-1.6,1.1-2.3,1.8c-0.6,0.9-1.3,1.7-2,2.5c-0.9,0.7,0.4,1.9,1.2,1.2c1.4-1.1,2-2.7,3.5-3.7c1-0.7,2.2-1.2,3.5-1.4
			c0,0.1,0,0.2,0,0.3c-3.3,2.4-6.6,8.3-7.8,9.6C55.1,151.3,50.9,154,48.9,151.3z M63.8,124.1c0.9-2.6,2.5-5.1,3.8-7.6l3.8-7.3
			c0.6-1.3,1.2-2.7,2.6-3.3s3.5-0.3,4.9-0.5c2.3-0.3,4.7-0.6,7-1c2.7-0.4,5.4-1.4,8.2-1.5s5.1,1.2,7.6,2.1c2.5,0.9,5.1,1.6,7.7,2.1
			l3.3,0.7c0.7,0.2,3.5,0.4,3.9,0.9c0.5,0.9,0.4,2-0.1,2.9c-0.4,0.4-0.9,0.6-1.4,0.8c-1.1,0.6-2.3,1.2-3.5,1.8
			c-4.8,2.3-9.8,4.1-14.8,6c-5.7,2-11.2,4.5-16.4,7.6c-2.7-0.4-6.3-0.2-8.1,1.4c-0.8,0.8-1.6,1.7-2.2,2.7c0-0.1,0-0.2,0-0.3
			c0-0.9-0.5-1.7-1.3-2.1c-1.7-0.9-3.6-1.2-5.5-1C63.2,127.2,63.3,125.6,63.8,124.1z M104.6,136.1c1.1-2.2,2.1-4.6,2.9-6.9
			c0.3,0.2,0.7,0.4,1.1,0.5c-0.8,1.7-1.3,3.6-1.9,5.3c-1.1,3.2-1.8,9.3-5.7,9.7C101.8,141.6,103,138.8,104.6,136.1L104.6,136.1z
			 M123.9,120.5c0.8-0.3,1.6-0.5,2.4-0.7c1.1,0.9-0.5,1.9-0.9,2.3c-2,1.9-6.7,1.3-9.5,2.2c-0.8,0.3-1.8,0.5-2.7,0.9l-0.2,0.1
			l-0.4,0.2c-0.1-0.1-0.3-0.3-0.4-0.4c-0.2-0.2-0.4-0.5-0.5-0.7c2.1-0.9,4.2-1.7,6.4-2.2L123.9,120.5z M110,125.3
			c0.1,0.1,0.2,0.3,0.3,0.4s0.4,0.5,0.6,0.7l-0.2,0.1c-0.4-0.3-0.7-0.6-1-1C109.8,125.4,109.9,125.3,110,125.3z M108.5,126.9
			c0.3,0.4,0.6,0.7,1,1l-0.2,0.3c-0.1,0-0.2,0-0.3-0.1c-0.3-0.1-0.6-0.3-0.9-0.4l0,0C108.3,127.4,108.4,127.1,108.5,126.9
			L108.5,126.9z M125.9,138.8c-1,1.5-4.4,2.7-6.1,3.4c-2.6,1.2-5.2,2.2-7.9,3c-5.4,1.8-10.5,2.1-16.1,2h-3v-0.1h2.4
			c7.9,0,14.3-2.1,19.3-8.4l0.1-0.1c1.5-0.4,2.9-0.8,4.4-1.1C120.2,137.4,127.7,136.1,125.9,138.8L125.9,138.8z M71.4,158
			c-1.2,0.3-2.5,0.5-3.7,0.6c-2.5,0.4-4,0.3-5.3-2.4c-0.9-2-1-4.3-0.3-6.4c0.5-1.5,0.9-3,1.1-4.5c0.1-0.8,0-1.4,0.2-1.8
			c0.5-0.6,1.1-1.2,1.7-1.8c0.4,0.5,0.8,0.8,1.3,1.1l0.4,0.2c-0.3,2.2-0.2,4.4,0.1,6.6c0.2,1.1,1.9,0.6,1.7-0.5
			c-0.3-1.9-0.3-3.8-0.1-5.8c0.5,0,1-0.1,1.5-0.2c0.2,0.3,0.4,0.6,0.6,0.9c0.1,1.2,0.4,2.3,0.8,3.4c0.3,0.5,0.7,1.1,1.1,1.5
			c0.2,0.5,0.4,1.1,0.7,1.6c0.7,1,1.2,2,1.6,3.2C75.3,157.1,73.5,157.5,71.4,158z M77.2,129.9c0.9-0.1,1.7-0.1,2.6,0
			c1.1-0.3,1.4,0.1,1.1,1.2c0.4,1,0,1.5-1.1,1.6c-2.5,0.9-6.4,1.5-8.2,3.4c-0.4-0.3-0.8-0.5-1.2-0.6c0.3-0.9,0.7-1.7,1.2-2.4
			C73.1,130.9,74.6,129.9,77.2,129.9L77.2,129.9z M70.9,140c-0.4,1.2-1.7,1.8-2.9,1.5c-0.7-0.2-1.4-0.6-1.8-1.2
			c0.4,0,0.8-0.3,0.9-0.7c0-0.1,0-0.2,0-0.3c0-0.2,0-0.4-0.1-0.6C67.2,136.7,72.5,136.4,70.9,140z M64.3,130.5
			c1.3-0.1,3.7,0.2,4,1.7c0.1,1.1,0.2,2.2,0.1,3.3l0,0c-0.8-0.9-1.7-1.8-2.7-2.5c-0.9-0.7-1.8,0.9-0.9,1.5c0.7,0.5,1.3,1,1.9,1.6
			c-0.2,0.2-0.4,0.3-0.7,0.5c-1.7-0.6-3.6-1.3-4.1-2.5c-0.6-1.3,0-2.8,1.3-3.4C63.6,130.6,63.9,130.5,64.3,130.5L64.3,130.5z
			 M92.1,141.9c0.8,2.6-0.9,5-2.7,6.6s-4.6,3.4-7.1,3.5c-2.9,0.1-5.5-1.7-7.6-3.6s-2.2-3.2-2.7-5.9c0-0.3-0.1-0.5-0.1-0.8
			c0.2-0.3,0.4-0.6,0.6-1c0.1-0.3,0.2-0.6,0.3-0.9H73c3.4-0.5,6.1,2.1,8.7,3.9c0.9,0.6,1.8-0.9,0.9-1.5c-2.8-1.9-5.4-4.2-8.8-4.2
			c3-1.2,8.8,1.1,11.5,1.2S91.2,138.8,92.1,141.9z M103.9,122.4c-0.1-0.3-0.4-0.6-0.7-0.8c-1.6-1.2-5.1,0.3-6.7,0.8
			c-3,1.2-5.7,3-8.6,4.4c-1.5,0.8-3.2,1.4-4.8,2c-0.1-0.1-0.3-0.2-0.4-0.3c7.1-4.1,15.2-6.6,22.8-9.7c2-0.8,4-1.6,6-2.6
			c-2.3,1.9-4.5,3.8-6.9,5.5C104.4,122.1,104.2,122.3,103.9,122.4z"/>
		<path d="M165.7,72c-0.6-0.6-1.4-1-2.2-1.2c0.1-0.5,0.1-1,0.1-1.5c0.1-2.3-0.9-4.5-2.7-6c-1.6-1.3-3.7-2.1-5.8-2
			c-3.5,0-6.8,1.7-8.8,4.6c-0.2,0.2-0.3,0.4-0.4,0.6c0-1.6-0.6-3.1-1.8-4.1c-1.1-1-2.5-1.5-3.9-1.5c-0.8,0-1.5,0.1-2.2,0.4
			c0.1-0.6,0.2-1.2,0.2-1.7c0-3.7-2.6-6.1-6.4-6.1h-0.3c0-0.3,0-0.7,0-1c-0.2-1.8-1-3.4-2.3-4.7c-1.4-1.4-3.3-2.1-5.2-2.1
			c-8.2,0-11.1,9.5-12.2,15.6c-2.3,0.4-4.3,1.6-5.9,3.3c-0.7-1.1-1.9-1.9-3.2-2.2c-1.2-1-2.8-1.5-4.4-1.4c-3.1,0-6,1.3-8.2,3.4
			c-1-2-3.2-3.3-5.5-3.1c-1.2,0-2.3,0.4-3.3,1c-1-0.7-2.1-1.1-3.3-1c-1.9,0-3.6,0.9-4.7,2.3c-0.7-0.6-1.4-1-2.3-1.2
			c-1.2-1-2.8-1.5-4.4-1.4c-0.5,0-1,0-1.5,0.1c1.6-5.2-0.2-11-4.5-14.3c-3.2-2.5-7.3-3.7-12.3-3.7h-1c-4.1,0.1-8.1,1.8-11.1,4.7
			C30.8,52.8,28,60.6,28,70.8c0,7.4,1.2,12.6,3.8,16.1c1.7,2.4,4.4,3.8,7.3,3.8c2.5,0,4.9-0.9,6.7-2.6c1.5-1.5,2.6-3.3,3.2-5.4
			c0.5-1.6,0.8-3.3,1-5c0.2-1.5,0.3-2.7,0.4-3.6s0.2-1.6,0.2-2.1V72c1-0.2,2-0.5,3-0.8c-0.5,1.5-0.7,3.1-0.6,4.7
			c-0.1,2.2,0.6,4.5,2,6.2c1.5,1.9,3.8,3,6.2,2.9c1.7,0,3.5-0.4,5-1.2c1.2,0.7,2.6,1,4,1c1.1,0,2.2-0.2,3.3-0.7
			c0.8,0.4,1.8,0.7,2.7,0.7c2.4,0.1,4.6-1.3,5.6-3.4L82,81c0.3-0.9,0.7-1.8,1-2.7c0.6,0.2,1.3,0.4,2,0.4c0.3,1.2,0.9,2.4,1.7,3.4
			c1.5,1.9,3.8,3,6.2,2.9c1.7,0,3.5-0.4,5-1.2c1.2,0.7,2.6,1,4,1c1.4,0,2.7-0.4,3.9-1c1.3,0.8,2.8,1.2,4.4,1.2c1.8,0,3.5-0.4,5-1.3
			c1.4,0.9,3,1.3,4.6,1.3c1.7,0,3.4-0.4,4.9-1.1c1.4,0.7,2.9,1.1,4.4,1.1c1.8,0,3.5-0.4,5.1-1.3c2,0.9,4.2,1.4,6.4,1.3
			c2.6,0,5.2-0.4,7.6-1.3c1.7,0.9,3.6,1.4,5.6,1.4c2.5,0,5-0.7,7.3-1.9c2-1,3.8-2.5,5.1-4.3c0.7-0.9,1-2.1,1.1-3.3
			C167.4,74.3,166.8,73,165.7,72z"/>
		<path class="st3" d="M39.1,86.8c-1.7,0-3.2-0.9-4.1-2.2c-2-2.7-3-7.3-3-13.7c0-9.1,2.3-15.9,7-20.3c2.3-2.2,5.3-3.5,8.5-3.5h0.9
			c4.1,0,7.3,1,9.7,2.9c2.3,1.7,3.6,4.4,3.6,7.3c0,3-1.4,5.8-3.8,7.5c-2.6,2-6.1,3.3-10.5,3.8c-0.2,0.1-0.3,0.6-0.4,1.6
			c-0.1,0.5-0.1,1.1-0.2,1.6s-0.1,1.3-0.2,2.2s-0.2,2.1-0.4,3.5c-0.2,1.5-0.5,2.9-0.9,4.3c-0.4,1.4-1.2,2.6-2.2,3.6
			C41.9,86.3,40.5,86.8,39.1,86.8z M39.7,83.4c1.1,0,1.9-1,2.3-2.9c0.2-1,0.4-2.1,0.5-3.1s0.2-2.4,0.4-4.2s0.3-3.3,0.5-4.5l-1.1-0.4
			c-0.4-0.1-0.8-0.3-1.2-0.5c-0.2-0.1-0.5-0.3-0.8-0.5c-0.3-0.2-0.6-0.5-0.7-0.8c-0.1-0.5-0.2-0.9-0.2-1.4c0-0.6,0.1-1,0.4-1
			c0.7,0.1,1.4,0.4,2.1,0.7c0.6,0.3,1.3,0.6,1.9,0.7c0.2-0.7,0.5-1.7,0.8-3.2c0.3-1.3,0.7-2.6,1.1-3.8c0.4-1.1,1.4-1.9,2.6-1.9
			c1.2,0,1.8,0.3,1.8,1c-0.1,0.4-0.6,1.7-1.5,3.7c-0.7,1.4-1.1,2.9-1.2,4.4c2.7-0.1,5.2-1,7.4-2.6c1.7-1.3,2.8-3.3,2.8-5.4
			c0.1-2-0.8-3.8-2.4-5c-1.9-1.3-4.2-1.9-6.5-1.8c-2.4-0.1-4.8,0.6-6.7,2.1c-1.6,1.4-2.8,3.1-3.6,5c-1.7,4.1-2.5,8.5-2.5,12.9
			C35.9,79.2,37.2,83.4,39.7,83.4z"/>
		<path class="st3" d="M57,75.9c0-2.8,1.1-5.6,3.1-7.6c2-2.2,4.2-3.3,6.5-3.3c1.3,0,2,0.3,2,1v0.3h1.1c0.9,0,1.3,0.4,1.3,1.2v0.3
			l-1.4,8.2c0,0.2,0,0.4,0,0.5c0,0.8,0.3,1.1,0.8,1.1c1.2,0,2.6-1.1,4.3-3.2c0.1-0.2,0.4-0.4,0.7-0.4c0.3,0,0.6,0.2,0.8,0.7
			c0.2,0.4,0.3,0.9,0.3,1.3c0,0.3,0,0.6-0.1,0.8c-0.8,1.1-1.8,2-2.8,2.8c-1,0.8-2.1,1.2-3.3,1.3c-0.9,0.1-1.8-0.3-2.5-0.9
			c-0.6-0.6-1-1.4-1.1-2.3v0.1c-0.5,1-1.2,1.8-2.1,2.4c-1,0.6-2.1,0.9-3.3,0.8c-1.2,0-2.3-0.5-3.1-1.4C57.4,78.6,56.9,77.2,57,75.9z
			 M62.4,77.8c1-0.1,1.9-0.6,2.4-1.4c0.8-0.9,1.3-2,1.6-3.1l1.3-5.3c-2,0.1-3.8,1-4.9,2.6c-1.3,1.3-2.1,3.1-2.2,4.9
			C60.6,77,61.2,77.8,62.4,77.8L62.4,77.8z"/>
		<path class="st3" d="M77.5,74.9c0.8-2.2,1.8-4.3,3.2-6.2c1.6-2.3,2.8-3.5,3.8-3.5c1.4,0,2.1,0.5,2.1,1.6c0,0.8-0.2,1.6-0.5,2.4
			c-0.2,0.5-0.4,1.1-0.5,1.6c0,0.5,0.3,0.7,1,0.7c1.2-0.2,2.4-0.7,3.4-1.4c0.1,0,0.3,0,0.4,0c0.2,0,0.4,0.2,0.7,0.5
			c0.3,0.2,0.4,0.6,0.4,0.9c0,0.2-0.1,0.4-0.2,0.6c-1.5,1.5-3.5,2.4-5.6,2.6c-2.2,0-3.2-0.9-3.2-2.8c0-0.1,0.3-1.1,0.8-3.1
			c-0.3,0.4-0.5,0.7-0.8,1.1c-1.8,3-3.2,6.2-4.4,9.6c-0.4,0.8-1.1,1.3-2,1.2c-1.3,0-2-1-2-3.1v-0.4c0-3.4,0.5-6.8,1.5-10
			c0.5-1.5,1.3-2.2,2.3-2.2c0.4,0,0.7,0.1,1,0.4c0.3,0.3,0.4,0.6,0.4,1L77.5,74.9z"/>
		<path class="st3" d="M88.7,75.9c0-2.8,1.1-5.6,3.1-7.6c2-2.2,4.2-3.3,6.5-3.3c1.3,0,2,0.3,2,1v0.3h1.1c0.9,0,1.3,0.4,1.3,1.2v0.3
			l-1.3,8.2c0,0.2,0,0.4,0,0.5c0,0.8,0.3,1.1,0.8,1.1c1.2,0,2.6-1.1,4.3-3.2c0.1-0.2,0.3-0.3,0.6-0.4c0.3,0,0.6,0.2,0.8,0.7
			c0.2,0.4,0.3,0.8,0.3,1.3c0,0.3,0,0.6-0.1,0.8c-0.8,1.1-1.8,2-2.8,2.8c-1,0.8-2.1,1.2-3.3,1.3c-0.9,0-1.8-0.3-2.5-0.9
			c-0.6-0.6-1-1.4-1.1-2.3v0.1c-0.5,1-1.2,1.8-2.1,2.4c-1,0.6-2.1,0.9-3.3,0.8c-1.2,0-2.3-0.5-3.1-1.4C89,78.6,88.6,77.2,88.7,75.9z
			 M94.1,77.8c1-0.1,1.9-0.6,2.4-1.4c0.8-0.9,1.3-2,1.6-3.1l1.3-5.3c-2,0.1-3.8,1-4.9,2.6c-1.3,1.3-2.1,3.1-2.2,4.9
			C92.3,77,92.8,77.8,94.1,77.8z"/>
		<path class="st3" d="M105.4,75.4c0-2.6,0.9-5.1,2.5-7.1c1.7-2.1,3.5-3.2,5.7-3.2c0.6,0,1.1,0.1,1.7,0.3
			c1.4-10.5,4.4-15.8,8.8-15.8c0.9,0,1.8,0.4,2.4,1c0.6,0.6,1,1.4,1.1,2.2c0,0.3,0,0.7,0,1c-0.1,3-0.9,6-2.4,8.6
			c-0.9,1.6-1.6,2.9-2.1,3.8s-1.4,2.2-2.7,4.1s-2,3-2.2,3.2V74c0,2.7,0.7,4.1,2.2,4.1c1.6,0,3.4-1.2,5.1-3.5
			c0.2-0.2,0.5-0.3,0.8-0.2c0.4,0,0.7,0.2,1,0.4c0.3,0.2,0.5,0.6,0.5,1c0,0.4-0.1,0.8-0.4,1.1c-2.1,2.7-4.6,4.1-7.3,4.1
			c-2.1,0-4-1.3-4.7-3.3c-0.7,2.1-2.8,3.5-5,3.4c-1.3,0-2.6-0.6-3.4-1.6C105.8,78.4,105.3,76.9,105.4,75.4z M110.9,77.8
			c0.9,0,1.7-0.5,2.2-1.3c0.7-1.4,1.2-3,1.3-4.6l0.6-3.6c-1.6,0-3.2,0.8-4.2,2.1c-1.1,1.3-1.7,3-1.7,4.7v0.5
			C109.2,77,109.8,77.8,110.9,77.8z M123.3,53.6c-1,0-1.9,0.8-2.5,2.6c-0.3,0.9-0.7,1.9-1.1,3.2c-0.7,3.2-1.2,6.4-1.6,9.6
			c0.1-0.2,0.3-0.4,0.4-0.7c0.1-0.1,0.4-0.6,1.1-1.7s1.3-2.1,1.8-3.1c0.7-1.2,1.3-2.5,1.8-3.8c0.6-1.3,0.9-2.8,1-4.2
			C124.2,54.2,123.9,53.6,123.3,53.6z"/>
		<path class="st3" d="M124.5,76.3c0-1.7,0.3-3.3,0.8-4.9c0.3-1.5,0.9-2.9,1.5-4.2c0.3-0.6,0.7-1.2,1.3-1.6c0.4-0.2,0.8-0.3,1.2-0.3
			c0.4,0,0.8,0.1,1.2,0.3c0.3,0.1,0.5,0.4,0.5,0.7c-0.1,0.5-0.3,0.9-0.5,1.3c-0.6,1.2-1.1,2.4-1.4,3.7c-0.5,1.4-0.8,2.9-0.9,4.4
			c0,1.5,0.6,2.2,1.7,2.2c1.3,0,2.9-1.1,4.8-3.2c0.2-0.3,0.6-0.5,0.9-0.5c0.4,0,0.7,0.1,1,0.4c0.3,0.2,0.5,0.6,0.5,1
			c0,0.5-0.2,0.9-0.5,1.2c-2.3,2.7-4.8,4.1-7.3,4.1c-1.3,0.1-2.5-0.4-3.4-1.3C124.9,78.8,124.4,77.5,124.5,76.3z M131.5,62.1
			c-1.7,0-2.6-0.7-2.6-2.2c0-0.7,0.3-1.4,0.8-1.9c0.6-0.5,1.4-0.7,2.1-0.7c1.6,0,2.4,0.7,2.4,2.1c0.1,0.7-0.2,1.5-0.8,2
			C132.9,61.9,132.2,62.2,131.5,62.1L131.5,62.1z"/>
		<path class="st3" d="M140.7,81.1c-1.8,0-3.6-0.4-5.1-1.2c-1.3-0.6-2.4-1.6-3.1-2.9c1.4-2.4,3.3-6,5.6-10.7
			c0.4-0.9,1.2-1.5,2.2-1.5c0.4,0,0.9,0.2,1.2,0.4c0.3,0.3,0.5,0.7,0.5,1.2c0,0.4-0.1,0.8-0.3,1.1c-0.2,0.3-0.3,0.6-0.3,0.9
			c0.2,0.7,0.5,1.3,1,1.8c0.7,0.9,1.4,1.8,2.1,2.8c0.6,0.8,0.9,1.7,1,2.7c0,0.7-0.2,1.4-0.5,2c1.5-0.5,3-1.7,4.7-3.8
			c0.2-0.2,0.4-0.3,0.7-0.3c0.3,0,0.6,0.2,0.9,0.6c0.3,0.3,0.4,0.7,0.5,1.1c0,0.3-0.1,0.6-0.2,0.8c-1,1.5-2.5,2.7-4.1,3.4
			C145.2,80.7,143,81.1,140.7,81.1z M139.5,78.4h0.2c1.6,0,2.4-0.7,2.4-2.1s-0.8-3.3-2.3-5.5l-3.1,6.4
			C137.4,77.8,138.4,78.3,139.5,78.4z"/>
		<path class="st3" d="M147.3,74.7c0-2.4,0.8-4.7,2.3-6.5c1.3-1.9,3.3-3,5.6-3c1.2,0,2.3,0.3,3.2,1.1c0.9,0.7,1.3,1.8,1.3,2.9
			c0,1.7-0.8,3.3-2.1,4.2c-1.9,1.3-4.1,2.2-6.5,2.6c0.4,1.3,1.6,2,3.4,2c2.7-0.1,5.3-1.2,7.2-3.2c0.2-0.1,0.4-0.2,0.6-0.2
			c0.3,0,0.6,0.1,0.8,0.3c0.2,0.2,0.4,0.5,0.4,0.8c0,0.4-0.1,0.7-0.3,1c-2.2,2.7-5.6,4.4-9.1,4.5c-1.7,0-3.4-0.5-4.7-1.6
			C147.8,78.3,147.1,76.5,147.3,74.7z M155.3,68.3c-1.2,0.1-2.3,0.7-3,1.8c-0.9,1.1-1.4,2.4-1.4,3.8c4-1.3,5.9-2.8,5.9-4.3
			C156.8,68.7,156.2,68.3,155.3,68.3L155.3,68.3z"/>
		<path d="M77.4,32.6c1.4,0.1,2.8-0.1,4.1-0.3c1.4-0.3,2.3-1.5,2.3-2.9c0,0,0-0.1,0-0.1c-0.1-1.3-1.2-2.3-2.5-2.2c0,0-0.1,0-0.1,0
			c-1.6,0-3.8-0.1-6.6-0.3s-4.9-0.3-6.2-0.3c-2.6-0.1-5.1,0.4-7.5,1.4c-2.1,1.1-3.6,3.2-4.1,5.6c-0.1,0.2-0.1,0.4-0.1,0.6
			c0,1.2,0.9,2.2,2.1,2.2c0.1,0,0.2,0,0.2,0c1,0.1,1.9-0.4,2.3-1.3c0.1-0.4,0.3-0.7,0.6-1c0.3-0.3,0.6-0.6,1-0.8
			c0.6-0.4,2-0.9,5-0.9c-1.1,2.5-2,5-2.7,7.7c-0.6,2.3-0.9,4.6-1,7c0,0.6,0,1.2,0.1,1.8c0.3,1.4,1.5,2.5,2.9,2.5
			c0.7,0,3.2-0.3,3.2-3.8v-0.7c0.2-4.9,1.1-9.7,2.8-14.3C74.6,32.5,76,32.6,77.4,32.6z"/>
		<path d="M137.7,27.2c-0.7-0.7-1.6-1.1-2.5-1.1c-1.6,0-3,0.7-4,1.9c-1.1,1.2-2,2.6-2.6,4.1c-0.9,2.1-1.5,4.3-1.9,6.5l0,0
			c0-1.2-0.8-2.2-2-2.3c-0.6-0.6-1.4-0.9-2.2-0.8c-2,0.1-3.9,1-5.1,2.5c-0.2-0.5-0.5-0.9-0.9-1.3c-0.8-0.7-1.9-1.1-3-1.1
			c-1.9,0-3.7,0.9-4.8,2.4c-0.2,0.2-0.3,0.4-0.4,0.6c0.1-0.3,0.2-0.6,0.2-0.8c0-0.4-0.2-0.9-0.4-1.2c0.6-0.1,1.1-0.4,1.5-0.8
			c0.6-0.6,1-1.4,0.9-2.3c0.1-1.5-1.1-2.8-2.6-2.8c-0.1,0-0.3,0-0.4,0c-0.8,0-1.6,0.3-2.3,0.8c-0.7,0.6-1,1.4-1,2.3
			c0,0.7,0.2,1.5,0.7,2c-0.1,0-0.3,0.1-0.4,0.2c-0.6,0.4-1.1,1-1.4,1.7c-0.2,0.3-0.3,0.6-0.4,0.9c-0.2-0.5-0.4-1-0.8-1.5
			c-0.7-1-1.9-1.5-3.1-1.5c-1,0-1.9,0.2-2.8,0.6c-0.5,0.3-1,0.6-1.5,1c-0.4,0.1-0.7,0.2-1,0.5l-0.1,0.1c-0.4,0.4-0.8,0.8-1.3,1.2
			c-0.2-0.7-0.6-1.4-1.1-1.9c-0.8-0.9-2-1.4-3.2-1.4c-1.9,0-3.7,0.9-4.9,2.4l0,0c0-1.4-1.2-2.5-2.5-2.4c-0.1,0-0.2,0-0.3,0
			c-0.8,0-1.6,0.4-2.1,1c-0.1-0.1-0.2-0.2-0.3-0.3c-0.4-0.4-1.1-0.7-1.7-0.7c-1.4,0-2.6,1-2.8,2.4c-0.7,2.2-1,4.4-1,6.7v0.2
			c0,3.2,2.1,3.5,2.7,3.5c1.1,0,2.1-0.6,2.6-1.6l0.1-0.2c0.3-1,0.7-1.8,1.1-2.7c0.7,0.4,1.5,0.7,2.3,0.6h0.2
			c0.2,0.9,0.6,1.7,1.2,2.4c0.9,1,2.2,1.6,3.5,1.6c1.8,0.1,3.5-0.8,4.6-2.3c-0.1,0.5-0.2,1-0.3,1.7c-0.5,2.4-0.7,3.9-0.8,4.6v0.4
			c0,0,0,0.1,0,0.1c0,0.5,0.2,1.1,0.5,1.5l0.2,0.3c0.3,0.4,0.7,0.6,1.2,0.6c0.6,0,1.2-0.2,1.7-0.6c0.6-0.3,1.1-0.9,1.3-1.5
			c0.3-1.2,0.6-2.4,0.8-3.6l0.3-1.3c0.2,0,0.4,0.1,0.7,0.1c1.4,0,2.8-0.5,3.8-1.5c0.6-0.6,1.2-1.3,1.6-2c0.2,0.8,0.5,1.6,1.1,2.2
			c0.8,0.8,2,1.3,3.2,1.3c1.2,0,2.3-0.4,3.3-1c0.9,0.7,2.1,1.1,3.3,1.1c1.4,0,2.8-0.4,4.1-1.1c0.7,0.7,1.7,1,2.7,1
			c1,0,2-0.2,2.9-0.7l0.3-0.2c0.7,0.6,1.6,0.9,2.4,0.8c1.1,0,2.1-0.4,3-1.1l0.1-0.1c0.8,0.8,1.9,1.3,3,1.3c2.3-0.1,4.5-1.2,5.9-3
			c0.5-0.5,0.7-1.1,0.8-1.8c0-0.7-0.3-1.3-0.8-1.7c-0.4-0.4-1-0.6-1.6-0.6c-0.6,0-1.2,0.2-1.6,0.6l-0.1,0.1c-0.5,0.7-1.2,1.2-2,1.5
			c-0.1-0.3-0.1-0.6-0.1-0.9c0-0.1,0-0.3,0-0.7c1.8-1.5,3.3-3.3,4.6-5.3c1.4-2.1,2.4-4.4,2.7-6.9c0,0,0-0.1,0-0.1v-0.2
			C138.7,28.8,138.3,27.9,137.7,27.2z M86.5,43.6c-0.1,0.1-0.1,0.2-0.2,0.3c0-0.1,0-0.3,0-0.4c0-0.2,0-0.3,0-0.5
			c0.1,0.2,0.2,0.3,0.4,0.5L86.5,43.6z M96.6,43.5c-0.1,0.1-0.1,0.1-0.2,0.1c0.1-0.3,0.2-0.5,0.2-0.8c0.1,0.1,0.1,0.3,0.2,0.4
			C96.8,43.4,96.7,43.4,96.6,43.5z M107,41.9c-0.1,0.4-0.1,0.8-0.1,1.2v0.3l-0.3,0.2C106.7,43,106.8,42.5,107,41.9z M112.8,44
			c-0.2,0-0.4,0-0.6-0.2c-0.1-0.1-0.1-0.2-0.2-0.3c0-0.1,0-0.1,0-0.2v-0.2c0-0.5,0.1-1,0.2-1.5c0.2,1,1,1.8,2,1.9
			C113.9,43.9,113.4,44,112.8,44L112.8,44z M120.3,43.2c0.1-0.4,0.3-0.9,0.6-1.2C120.8,42.5,120.5,42.9,120.3,43.2L120.3,43.2z
			 M126.3,41.4c0,0.1,0,0.1,0,0.2c0,0.2,0,0.4,0,0.6l-0.1,0.1L126.3,41.4z"/>
		<path class="st3" d="M67.3,49.7c-0.8,0-1.3-0.5-1.5-1.4c-0.1-0.5-0.1-0.9-0.1-1.4c0.1-2.3,0.4-4.5,1-6.7c0.8-3.3,2-6.4,3.5-9.4
			c-0.8-0.1-1.6-0.1-2.2-0.1c-2.8,0-4.8,0.4-6,1.2c-0.5,0.3-0.9,0.7-1.3,1.1c-0.3,0.4-0.6,0.9-0.8,1.3c-0.1,0.3-0.4,0.4-1,0.4
			s-0.8-0.2-0.8-0.7c0-0.1,0-0.2,0-0.2c0.4-2,1.6-3.6,3.3-4.6c2.2-0.9,4.5-1.4,6.9-1.2c1.2,0,3.2,0.1,6.1,0.3
			c2.9,0.2,5.1,0.3,6.7,0.3c0.7,0,1.1,0.3,1.2,0.8c0,0.7-0.5,1.4-1.2,1.5c-1.2,0.2-2.5,0.4-3.7,0.3c-1.8,0-3.5,0-5.1-0.1
			C70.1,37,69,42.3,69,46.7v0.7C69,48.9,68.4,49.7,67.3,49.7z"/>
		<path class="st3" d="M75.7,43.3c0.5-1.4,1.2-2.7,2-3.8c1-1.4,1.8-2.2,2.4-2.2c0.9,0,1.3,0.3,1.3,1c0,0.5-0.1,1-0.3,1.5
			c-0.1,0.3-0.2,0.7-0.3,1c0,0.3,0.2,0.5,0.6,0.5c0.7-0.1,1.5-0.4,2.1-0.9c0.1,0,0.2,0,0.2,0c0.1,0,0.3,0.1,0.5,0.3
			c0.2,0.2,0.3,0.4,0.3,0.6c0,0.1,0,0.3-0.1,0.4c-0.9,0.9-2.1,1.5-3.5,1.6c-1.3,0-2-0.6-2-1.7c0,0,0.2-0.7,0.5-1.9
			c-0.2,0.2-0.3,0.5-0.5,0.7c-1.1,1.9-2,3.9-2.7,6c-0.2,0.5-0.7,0.8-1.3,0.8c-0.8,0-1.2-0.7-1.2-2v-0.2c0-2.1,0.3-4.2,0.9-6.3
			c0.3-0.9,0.8-1.3,1.4-1.3c0.2,0,0.5,0.1,0.6,0.2c0.2,0.2,0.2,0.4,0.2,0.6L75.7,43.3z"/>
		<path class="st3" d="M85.8,47.2c-0.9,0-1.8-0.4-2.4-1.1c-0.7-0.7-1-1.7-1-2.7c0-1.6,0.6-3.1,1.6-4.3c0.9-1.2,2.3-1.9,3.7-1.9
			c0.8,0,1.6,0.3,2.1,0.9c0.6,0.6,0.9,1.4,0.8,2.3c0,0.3-0.1,0.6-0.1,0.9c1.5-0.4,2.9-1.2,3.8-2.5c0.1-0.1,0.2-0.1,0.3-0.1
			c0.2,0,0.3,0.1,0.4,0.3c0.1,0.2,0.2,0.4,0.2,0.6c0,0.1,0,0.3-0.1,0.4c-1.2,1.6-3,2.7-4.9,3.3C89.6,45.9,88.1,47.2,85.8,47.2z
			 M86.3,45.3c0.6,0,1.1-0.4,1.4-0.8c0.4-0.5,0.7-1.1,0.8-1.7c-0.7-0.3-1.1-0.7-1.1-1.2c0-0.6,0.3-1.1,0.8-1.5c0-0.2,0-0.4-0.1-0.6
			c-0.1-0.1-0.3-0.2-0.5-0.2c-0.8,0.1-1.6,0.6-1.9,1.3c-0.5,0.8-0.8,1.8-0.8,2.7C84.8,44.7,85.3,45.3,86.3,45.3z"/>
		<path class="st3" d="M90.8,52.9c0.1-0.7,0.3-2.1,0.8-4.4s0.7-3.6,0.8-3.8s0.3-0.8,0.5-1.7c0.3-0.9,0.6-1.8,1-2.6
			c0.3-0.6,0.7-1.1,1.1-1.6c0.4-0.4,0.9-0.8,1.5-1c0.7-0.3,1.4-0.5,2.2-0.4c0.7,0,1.5,0.3,1.9,0.9c0.5,0.6,0.7,1.4,0.7,2.2
			c0,0.2,0,0.5-0.1,0.9c1.5-0.5,2.8-1.4,3.9-2.6c0.1-0.1,0.2-0.1,0.4-0.1c0.1,0,0.2,0.1,0.3,0.2c0.1,0.2,0.2,0.4,0.2,0.6
			c0,0.2-0.1,0.5-0.3,0.6c-0.7,0.7-1.4,1.3-2.2,1.9c-0.8,0.6-1.8,1-2.7,1.3c-0.4,1.1-1,2.1-1.9,2.8c-0.8,0.7-1.8,1.1-2.8,1.1
			c-0.7,0-1.3-0.3-1.7-0.8c-0.1,0.2-0.3,1.3-0.6,3.3s-0.6,3.1-0.7,3.3c-0.1,0.3-0.4,0.6-0.7,0.8c-0.3,0.2-0.6,0.3-1,0.3L91,53.9
			c-0.1-0.2-0.2-0.4-0.2-0.6L90.8,52.9z M96.1,45.3c0.5,0,1.1-0.2,1.5-0.6c0.5-0.4,0.9-1,1.1-1.5c-0.5-0.2-0.8-0.7-0.7-1.2
			c0-0.3,0-0.6,0.2-0.8c0.2-0.3,0.4-0.5,0.7-0.8c0-0.1,0.1-0.1,0.1-0.2c-0.2-0.6-0.6-0.9-1-0.9c-0.4,0-0.9,0.1-1.2,0.4
			c-0.4,0.3-0.7,0.7-0.9,1.1c-0.2,0.4-0.4,0.9-0.5,1.3c-0.1,0.4-0.3,0.9-0.4,1.5s-0.2,1-0.3,1.1C95.1,45,95.6,45.2,96.1,45.3z"/>
		<path class="st3" d="M102.8,44.2c0-1,0.2-2.1,0.5-3.1c0.2-0.9,0.6-1.8,1-2.6c0.2-0.4,0.5-0.7,0.8-1c0.2-0.1,0.5-0.2,0.8-0.2
			c0.3,0,0.5,0.1,0.7,0.2c0.2,0.1,0.3,0.3,0.3,0.5c-0.1,0.3-0.2,0.6-0.3,0.8c-0.4,0.7-0.7,1.5-0.9,2.3c-0.3,0.9-0.5,1.8-0.5,2.8
			c0,0.9,0.3,1.4,1,1.4s1.8-0.7,3-2c0.1-0.2,0.3-0.3,0.6-0.3c0.2,0,0.5,0.1,0.6,0.3c0.2,0.1,0.3,0.4,0.3,0.6c0,0.3-0.1,0.5-0.3,0.8
			c-1.5,1.7-3,2.6-4.6,2.6c-0.8,0-1.6-0.3-2.1-0.8C103.1,45.8,102.8,45,102.8,44.2z M107.2,35.4c-1.1,0-1.6-0.5-1.6-1.4
			c0-0.4,0.2-0.9,0.5-1.2c0.4-0.3,0.8-0.4,1.3-0.4c1,0,1.5,0.5,1.5,1.3c0,0.5-0.2,0.9-0.5,1.2C108.1,35.3,107.6,35.4,107.2,35.4z"/>
		<path class="st3" d="M108.4,43.2c0-1.5,0.5-2.9,1.4-4c0.8-1.2,2.2-1.9,3.6-1.8c0.7,0,1.4,0.2,2,0.7c0.5,0.4,0.7,1,0.8,1.6
			c0,0.6-0.2,1.2-0.6,1.7c-0.4,0.5-0.7,0.8-1,0.8c-0.4,0-0.8-0.3-0.8-0.7c0-0.2,0.1-0.4,0.2-0.6c0.1-0.2,0.2-0.5,0.2-0.8
			c0-0.2-0.1-0.4-0.3-0.6c-0.2-0.1-0.4-0.2-0.6-0.2c-0.7,0-1.4,0.4-1.8,1c-0.6,0.9-1,1.9-0.9,3c0,0.6,0.2,1.3,0.6,1.7
			c0.4,0.4,1,0.6,1.6,0.6c1.4,0,2.9-0.9,4.5-2.7c0.1-0.1,0.2-0.2,0.4-0.2c0.2,0,0.3,0.1,0.4,0.3c0.1,0.2,0.2,0.3,0.2,0.5
			c0,0.2,0,0.3-0.1,0.5c-0.6,0.9-1.4,1.7-2.3,2.3c-1,0.7-2.3,1-3.5,1c-1.3,0-2.5-0.6-3.2-1.6C108.6,44.9,108.4,44.1,108.4,43.2z"/>
		<path class="st3" d="M116.5,44c0-1.8,0.7-3.5,1.9-4.8c1-1.3,2.5-2,4.1-2.1c0.8,0,1.2,0.2,1.2,0.6V38h0.7c0.6,0,0.8,0.3,0.8,0.8V39
			l-0.8,5c0,0.1,0,0.2,0,0.3c0,0.5,0.2,0.7,0.5,0.7c0.8,0,1.6-0.7,2.7-2c0.1-0.1,0.2-0.2,0.4-0.3c0.2,0,0.4,0.2,0.5,0.5
			c0.1,0.2,0.2,0.5,0.2,0.8c0,0.2,0,0.3-0.1,0.5c-0.5,0.7-1.1,1.3-1.8,1.7c-0.6,0.5-1.3,0.7-2.1,0.8c-0.6,0-1.1-0.1-1.5-0.5
			c-0.4-0.4-0.6-0.9-0.7-1.4v0.1c-0.3,0.6-0.8,1.1-1.3,1.5c-0.6,0.4-1.3,0.5-2,0.5c-0.7,0-1.5-0.3-1.9-0.9
			C116.8,45.7,116.5,44.8,116.5,44z M119.8,45.2c0.6,0,1.2-0.4,1.5-0.9c0.5-0.6,0.8-1.3,1-2l0.8-3.3c-1.2,0-2.4,0.6-3.1,1.6
			c-0.8,0.8-1.3,1.9-1.4,3.1C118.7,44.7,119.1,45.2,119.8,45.2z"/>
		<path class="st3" d="M130.8,47.2c-0.9,0-1.8-0.4-2.3-1.2c-0.6-1-0.9-2.1-0.8-3.3c0-0.4,0-0.7,0-1c0.3-3.1,1.1-6.1,2.3-8.9
			c0.5-1.4,1.3-2.6,2.3-3.7c0.7-0.9,1.7-1.4,2.9-1.5c0.5,0,1.1,0.2,1.4,0.6c0.4,0.4,0.5,0.9,0.5,1.4v0.2c-0.3,2.2-1.1,4.4-2.4,6.3
			c-1.3,2-2.8,3.8-4.7,5.3c-0.1,0.5-0.1,1-0.1,1.5c0,1.6,0.5,2.4,1.4,2.4s2.1-0.7,3.3-2.1c0.1-0.1,0.3-0.2,0.5-0.2
			c0.2,0,0.4,0.1,0.6,0.3c0.2,0.2,0.3,0.4,0.3,0.6c0,0.3-0.1,0.6-0.4,0.8C134.5,46.1,132.7,47.1,130.8,47.2z M134.4,30.1
			c-0.8,0-1.7,1.1-2.5,3.2c-0.8,1.9-1.4,3.9-1.7,6c1.2-1.4,2.3-2.9,3.2-4.4c0.8-1.2,1.4-2.7,1.5-4.1
			C134.9,30.3,134.8,30.1,134.4,30.1L134.4,30.1z"/>
	</g>
</g>
</svg>
