<?xml version="1.0" encoding="utf-8"?>
<!-- Generator: Adobe Illustrator 23.0.1, SVG Export Plug-In . SVG Version: 6.00 Build 0)  -->
<svg version="1.1" id="Camada_1" xmlns="http://www.w3.org/2000/svg" xmlns:xlink="http://www.w3.org/1999/xlink" x="0px" y="0px"
	 viewBox="0 0 271.3 244.9" style="enable-background:new 0 0 271.3 244.9;" xml:space="preserve">
<style type="text/css">
	.st0{fill:#55DBFF;}
	.st1{fill:#FFE255;}
	.st2{fill:#FFFFFF;}
	.st3{fill:none;}
	.st4{fill:#ABFF4A;}
	.st5{fill:#FF8A66;}
</style>
<title>Ativo 3</title>
<g>
	<g id="object">
		<path class="st0" d="M49,139.9c1.7-1.6,2.1-4.4,2.3-7c0.3-4.3,2-8.1,6.2-10c5.9-2.8,12.7,1.1,17.6-4.3c2.8-3,4.6-7.4,8.4-9.5
			c0.5-0.2,1-0.4,1.5-0.5c-0.8-1.1-1.6-2.2-2.6-3.2c-2.9,3.2-5.7,6.8-9,9.4c-2.8,2.3-6.3,3.3-9.7,4.3c-4.4,1.2-9.4,2.4-12.6,6
			C48.7,127.8,46.3,136.3,49,139.9z"/>
		<path class="st1" d="M44.9,141.1c0.6,0,1.3,0,1.9-0.1c-1.8-2.9-1.4-7.1-0.8-10.3c0.5-3.9,2.6-7.4,5.8-9.6
			c4.4-3.2,9.9-3.8,14.9-5.6c5.9-2.1,9.8-7.4,13.9-11.9c-1.1-0.9-2.2-1.7-3.3-2.4c-4,2.2-6.6,8.6-10.9,10.3
			c-5.8,2.3-11.3-3.1-17.2,0.1c-6.4,3.5-9.5,12.9-10.1,19.8C38.8,135.3,40.1,140.8,44.9,141.1z"/>
		<path class="st0" d="M87.1,106.8c1.9,2.4,3.5,5.9,5.8,8.4c-0.3-1.3-0.6-2.7-1.1-4.1c-1.2-3.9-3.3-7.4-6-10.4
			c-4.8-5.5-11.5-9.1-18.4-11.4c-3.8-1.3-8.5-3-12.5-2.3c-3.3,0.6-6.5,2.9-9.3,4.5c-5,2.8-10.5,6.1-16.4,6.8c1.3,1.4,3.1,2.2,5,2.1
			c3.3,0.1,6.3-1.6,9.1-3C58.2,90.4,76.7,93.6,87.1,106.8z"/>
		<path class="st1" d="M265.2,54.4c-2.9-3.5-6.6-6.3-10.8-8.2c-21.4-9.8-42.4,4.3-54.8,21.3c-7.6,10.5-20.7,31.4-36.7,24.1
			c-6.4-2.9-6.6-9.8-2.4-14.8c3.1-3.8,7.4-6.7,10.8-10.3c3.8-4.1,7-8.7,9.4-13.7c7.8-16.3,3.9-37.4-11.4-46.2
			c0.1,0.1,0.2,0.3,0.3,0.4c1,2,0.3,4.4-1.6,5.4c-2,1-4.5,0.2-5.5-1.8c-0.8-1.8-0.3-4,1.3-5.2c0.1-0.1,0.2-0.2,0.4-0.3
			c0.4-0.3,1-0.2,1.4,0.1c0.3-0.1,0.6-0.1,0.9-0.1c-2.2-1-4.5-1.7-6.9-2.1c-20.6-3.7-51.7,7.9-50.2,32.8c0.7,10.8,6.5,20.8,5.5,31.8
			c-0.8,9-8.6,13.1-15,18.2l-0.1,0.1l-0.2,0.1c-2.8,2-5.7,4-8.7,5.8c2.6,2.1,5.4,4,8.1,6.1c2-2.8,4.2-5.7,7.8-6.3
			c2.5-0.4,5.3,0.4,6.7,2.6c3.9,6.4-5.7,10.7-10.6,8.9c-3.6-1.3-6.6-4.1-9.6-6.6c-0.9-0.7-1.9-1.4-2.8-2.1
			c-4.3-2.8-8.9-5.2-13.7-7.1c-11.1-4.9-24.9-11.7-37.2-7.3c-5.3,1.9-10.2,6.2-11.5,11.9c-0.3,1.2-0.3,2.5,0,3.7
			c8.7-0.5,15.7-7.2,23.5-10.4c6.2-2.6,13.2,0,19.1,2.3c6.6,2.5,12.8,6.2,17.4,11.6c2.2,2.5,4,5.4,5.3,8.5c1.3,3.3,1.5,7,3.3,10.1
			c0,0,0,0,0,0.1c0.2,0.1,0.5,0.2,0.7,0.3c5.1,1.6,8.9-3.7,12.7-6.1c2.8-1.8,6.3-2.2,9.4-1.1c4.2-3.3,8.4-6.2,14.4-5.9
			c3.8,0.2,7.5,1.5,10.5,3.7c1.3-1,2.8-1.6,4.5-1.7c9.3-0.6,12,10.1,16.3,16c0.5,0.6,0.9,1.2,1.5,1.8c0.1,0,0.2,0,0.3,0.1
			c4.6,1.2,8.3,3.3,13.2,3.3c4.7-0.1,9.3-1.3,13.4-3.6c7.1-3.9,11.4-11.3,19.1-14.4c6.6-2.6,16.9-4.7,23.6-1.8
			c6.2,3,11.5,7.7,15,13.7c1.4-3,1.5-6.5,0.2-9.6c-2.3-5.5-7.8-8.9-13.2-10.7c-11.8-3.9-22.4,0.1-32.8,5.7
			c-7.2,3.9-16.5,9.5-25.1,7.6c-3-0.7-5.8-2.7-6.2-6c-0.5-4,3.2-5.6,6.3-7c8.4-3.8,17.4-6.8,24.6-12.7c2.8-2.4,5.2-5.3,6.8-8.6
			c2.6-9.3,7.1-21.8,15.9-26.3c2.6-1.2,5.5-1.7,8.3-1.4c0.6,0,1.3,0,1.9,0.1c4.5,0.6,8.8,2.4,12.3,5.3c3.1,2.5,5.1,5.6,7.7,8.5
			c0.8,0.7,1.6,1.4,2.4,2.1c3.9,2.2,8.5-0.2,8.7-5.5C269.3,60.4,267.3,57,265.2,54.4z M172,10.6c0.3-0.2,0.7-0.2,1-0.1
			c0.2,0.1,0.4,0.1,0.5,0.3l0.1,0.1c1.4,0.6,2.3,2,2.2,3.6c-0.2,1.6-1.6,2.7-3.1,2.7c-1.6,0-3-1.2-3-2.8c0,0,0-0.1,0-0.1
			C169.7,12.8,170.6,11.4,172,10.6z M161.4,49.8c-2.7,0.3-4.5,0.9-4.5,4c0,2.1,0.1,4.1,1.3,5.9c0.9,1.3-1.3,2.5-2.1,1.2
			c-1.7-2.9-2.2-6.4-1.3-9.7c0.9-3,3.9-3.7,6.7-4C162.9,47.2,162.9,49.6,161.4,49.8L161.4,49.8z M155.6,27.1
			c0.1-0.1,0.2-0.2,0.3-0.3c0.1-0.1,0.3-0.2,0.4-0.2c3.6-1.8,7.4,0.3,9.7,3.4c3.2,4.2,2.3,8.9-2.5,11.2c-3.7,1.8-9.2,1.4-11.6-2.4
			C149.2,34.5,152.1,29.9,155.6,27.1z M118.2,87.2c-2.8,0.5-5.9-0.9-6.5-3.9c-0.4-2.6,1.4-5,4-5.4c0.2,0,0.3,0,0.5,0
			c0.1,0,0.2,0,0.3,0c2.3-0.6,4.7,0.8,5.4,3.1c0.8,2.7-0.8,5.4-3.5,6.2C118.4,87.1,118.3,87.2,118.2,87.2z M121.5,72.1
			c-1.4,1.5-3.8,1.5-5.2,0.1c0,0,0,0,0,0c-1.3-1.3-1.2-3.4,0.1-4.7c0.1-0.1,0.1-0.1,0.2-0.2l0.2-0.1c0,0,0.1-0.1,0.1-0.1
			c0.4-0.5,1-0.8,1.7-0.9c0.9,0,1.8,0.2,2.6,0.7c1.5,1,1.9,3,0.9,4.6C121.9,71.7,121.7,71.9,121.5,72.1z M126.8,64.6
			c-1.2,1-3-0.7-1.7-1.7c1.1-0.7,2.1-1.6,3-2.5c1.3-1.7,1.2-3.5,0.9-5.4c-0.5-2.6-1.7-5-4.1-6.3c-1.4-0.7-0.2-2.9,1.2-2.1
			c3.3,1.7,4.9,5.1,5.4,8.6C132,59.7,130.1,61.9,126.8,64.6z M130.5,42.8c-4.6,0.8-9-2.3-9.8-7c0,0,0,0,0,0c-0.5-4.2,2.4-8,6.6-8.5
			c0.4-0.1,0.9-0.1,1.3-0.1c0.1,0,0.2,0,0.3,0l0,0c3.6,0.6,6.7,2.9,8.3,6.2C139.4,38,134.5,42.2,130.5,42.8z M138.6,62.7
			c-11.1-4.3-0.8-21.8,7.7-16c0.1,0.1,0.2,0.2,0.3,0.3c4.4,2.3,8.7,6.7,5.8,11.9C149.9,63.5,143.2,64.5,138.6,62.7z M152.2,89.1
			c0.8-1.4,2.5-2.1,4-1.5c0.3,0.1,0.6,0.3,0.8,0.6c0.2,0.3,0.4,0.6,0.5,0.9c0.3,0.7,0.3,1.4,0,2.1c-0.5,1.5-2.2,2.4-3.8,1.9
			c-1.4-0.5-2.2-2.1-1.7-3.5C152.1,89.4,152.2,89.3,152.2,89.1z M162.2,99.3c-0.4,2.6-2.4,5.5-5.2,5.6c-2.6,0.1-4.8-2-4.9-4.6
			c-0.1-2.6,1.7-4.8,4.2-5.4c0.3-0.2,0.7-0.3,1-0.2c1.2,0.3,2.6,0.4,3.7,1.2C162,96.8,162.5,98,162.2,99.3L162.2,99.3z"/>
		<path class="st0" d="M243.8,127.2c2.2-0.1,4.2-1,5.7-2.6c-4.1-7.3-12.2-15.2-21-14.7c-9.4,0.6-17.4,2.7-24.2,9.4
			c-5.1,5.1-10.7,9.2-17.9,10.9c-3.3,0.8-6.7,0.9-10,0.5c-1.7-0.3-3.3-0.7-4.8-1.3c6.5,4.2,14.5,5.2,21.8,2.8
			c8.9-3.1,16.2-10.6,25.8-11.7c3.8-0.3,7.7,0.4,11.1,2C234.5,124.3,239,127.4,243.8,127.2z"/>
		<path class="st2" d="M154.3,38c0.3,0.4,0.7,0.7,1.1,0.9c-0.4-0.4-0.6-0.8-0.7-1.4c-0.4-2.2,2.1-3.5,3.9-3.9c0.2-0.1,0.4-0.1,0.6,0
			c1.8-0.2,3.9,1,4.3,2.8c0.1,0.8,0,1.5-0.5,2.2c0.9-0.5,1.7-1.1,2.2-2c1.1-2.1-0.3-4.4-1.7-5.9c-1.7-1.9-4-3.3-6.4-1.9
			C154.6,30.9,151.6,34.9,154.3,38z"/>
		<path class="st0" d="M258.1,70.6c-2.9-2.6-5.1-6-8.1-8.5c-5.7-4.7-15-8.8-22-4.6c-5.1,3.1-8.6,9.3-11,15.6
			c0.8-1.2,1.8-2.2,2.8-3.2c3.5-3.2,7.9-5.3,12.7-5.8c4.6-0.5,9.3,0.2,13.7,2C250.3,67.7,253.8,70,258.1,70.6z"/>
		<path d="M110.2,100.2c2.3-2.2,1.5-5.7-2.1-5.8c-3.4-0.1-5.6,3.1-7.3,5.6c1.2,0.7,2.5,1.3,3.9,1.6
			C106.7,102.1,108.7,101.6,110.2,100.2z"/>
		<path d="M270.5,58.6c-6.9-17.8-31.1-21.2-46.7-14.9c-9,3.8-16.8,9.9-22.8,17.6c-5.8,7.2-10.4,15.5-17.3,21.9
			c-3.6,3.3-8.2,6.5-13.2,7.1c-4.4,0.5-11-1.1-10.9-6.7c0.2-5.4,6.8-9.2,10.3-12.6c3.6-3.4,6.7-7.2,9.4-11.3
			c9.8-15.3,11.2-36.7-2.4-50.3c-13.8-13.8-39-11-54.4-1.5c-7.6,4.7-13.9,12.2-15.5,21.2c-1.8,10.2,2.8,19.9,4.6,29.7
			c1.1,6,1.3,12.2-3.1,17c-3,3.3-6.9,5.6-10.4,8.3l0,0c-3.2,2.3-6.5,4.6-9.9,6.6c-9.5-5.6-19.7-9.9-30.4-12.7
			C49,75.8,38.7,76,31.3,82.5c-4.7,4.2-9.5,14-2.8,18.6c7.8,5.5,17-3.1,24.7-4.6c7.4-1.3,15.1-0.1,21.8,3.4c-1.7,1.4-3.3,3-4.6,4.8
			c-2.9,3.6-5.6,5.5-10.5,4.3c-2.8-0.6-5.2-1.5-8.1-1c-5.5,1-9.4,5.6-11.6,10.5s-4.5,11.6-3.4,17.1c0.5,2.9,2.2,5.4,4.8,6.9
			c-1.2,1.8-2.5,3.6-3.7,5.4c-2.7,4-6.1,8.6-7.1,13.4c-1.2,5.9-0.5,13.3,4.7,17.3c4.1,3.2,10.3,3.6,15.3,4c5.8,0.4,13.4,0.8,17,6.3
			c3,4.6,1.4,10.7,4.1,15.6c5.3,9.4,15.3,8.9,24.6,7.6c12.5-1.7,25.1,2.1,31.3,13.9c2.5,4.6,3.9,9.9,7.9,13.6
			c2.9,2.7,6.7,4.5,10.6,5c8.8,1.2,15.6-3.9,20.6-10.6c2.9-4,5.4-8.3,8.6-12c3.9-4.5,9.2-7.6,15-8.9c5.9-1.4,11.5-0.9,17.5-0.5
			c4.9,0.3,10.1,0,14.2-3c6.5-4.6,8.7-13.6,7.3-21.1c-1-5.4-4-10.2-5.2-15.5c-1.5-6.4,1-11.1,5.4-15.6c5.8-5.8,12.9-11.2,11.6-20.4
			c-0.5-3.1-1.7-6-3.6-8.6c0.8,0.3,1.6,0.5,2.4,0.7c7.3,1.6,13.6-3.1,14.3-10.6c0.9-8.5-6.1-15-13.3-18c-9.3-3.9-19.5-3.3-28.6,0.7
			c-9.4,4.1-18.9,12.2-29.7,11.9c-2-0.1-4.9-0.3-5.9-2.5c-1.8-3.7,1.5-4.8,3.5-5.7c2.1-1,4.3-1.9,6.5-2.8c4.7-1.9,9.4-4.1,13.8-6.6
			c5-2.9,9.3-6.9,12.4-11.7l0.1-0.1l0,0c0.2-0.1,0.3-0.3,0.4-0.4c2.3-3.9,4.4-8.6,7.8-11.6c4.1-3.7,9.6-5.7,15.2-5.3
			c9.2,0.6,16.1,7.8,25.5,6.7c0.1,0,0.2,0,0.4-0.1C269.8,74.3,272.8,64.5,270.5,58.6z M166.6,10.5c-1.6,0.7-2.6-1.1-2-2.3
			c0.2,0,0.5,0,0.7-0.2c0.7-0.4,1.5-0.2,2,0.4c0.4,0.7,0.2,1.5-0.4,2C166.8,10.4,166.7,10.5,166.6,10.5z M43.4,97.5
			c-2.9,1.4-5.9,3-9.1,3c-1.9,0-3.7-0.7-5-2.1c5.8-0.7,11.4-4,16.4-6.8c2.9-1.6,6-3.9,9.3-4.5c4-0.7,8.7,1,12.5,2.3
			c6.9,2.3,13.5,5.9,18.4,11.4c2.7,3,4.8,6.5,6,10.4c0.4,1.4,0.7,2.7,1.1,4.1c-2.2-2.6-3.9-6-5.8-8.4C76.7,93.6,58.2,90.4,43.4,97.5
			L43.4,97.5z M44.9,141.1c-4.8-0.3-6.1-5.8-5.8-9.7c0.6-6.9,3.7-16.3,10.1-19.8c5.9-3.2,11.3,2.2,17.2-0.1
			c4.3-1.7,6.8-8.1,10.9-10.3c1.2,0.7,2.3,1.5,3.3,2.4c-4.1,4.5-8,9.8-13.9,11.9c-5,1.8-10.4,2.4-14.8,5.6c-3.2,2.3-5.3,5.8-5.8,9.6
			c-0.5,3.1-1,7.4,0.8,10.3C46.2,141.1,45.6,141.2,44.9,141.1L44.9,141.1z M57.5,122.8c-4.1,1.9-5.8,5.7-6.2,10
			c-0.2,2.6-0.7,5.4-2.3,7c-2.7-3.6-0.4-12.1,2.1-14.9c3.2-3.6,8.1-4.7,12.6-6c3.4-1,6.9-2,9.7-4.2c3.3-2.7,6.1-6.3,9-9.4
			c0.9,1,1.8,2.1,2.6,3.2c-0.5,0.1-1,0.3-1.5,0.5c-3.8,2.1-5.6,6.5-8.4,9.5C70.2,123.9,63.4,120.1,57.5,122.8L57.5,122.8z
			 M243.8,127.2c-4.8,0.2-9.3-2.8-13.5-4.6c-3.5-1.6-7.3-2.3-11.1-2c-9.6,1.1-16.9,8.6-25.8,11.7c-7.3,2.4-15.4,1.4-21.8-2.8
			c1.6,0.6,3.2,1,4.8,1.3c3.3,0.4,6.7,0.3,10-0.5c7.2-1.6,12.8-5.8,17.9-10.9c6.8-6.8,14.8-8.8,24.2-9.4c8.9-0.6,16.9,7.3,21,14.7
			C248,126.1,246,127.1,243.8,127.2L243.8,127.2z M246,66.1c-4.3-1.8-9-2.5-13.7-2c-4.7,0.6-9.2,2.6-12.7,5.8c-1,1-2,2.1-2.8,3.2
			c2.4-6.3,5.9-12.5,11-15.6c7-4.2,16.3-0.1,22,4.6c3,2.5,5.2,5.9,8.1,8.5C253.8,70,250.3,67.7,246,66.1z M269.1,63.9
			c-0.2,5.3-4.8,7.7-8.7,5.5c-0.8-0.6-1.6-1.3-2.4-2.1c-2.6-2.8-4.6-6-7.7-8.5c-3.5-2.9-7.8-4.7-12.3-5.3c-0.6-0.1-1.3-0.1-1.9-0.1
			c-2.9-0.3-5.8,0.2-8.4,1.5c-8.8,4.5-13.4,17-15.9,26.3c-1.7,3.3-4,6.2-6.8,8.6c-7.2,5.9-16.2,8.9-24.6,12.7
			c-3.1,1.4-6.8,2.9-6.3,7c0.4,3.3,3.2,5.3,6.2,6c8.6,1.8,17.9-3.7,25.1-7.6c10.4-5.6,21-9.6,32.8-5.7c5.4,1.8,10.9,5.2,13.2,10.7
			c1.3,3.1,1.2,6.6-0.2,9.6c-3.5-5.9-8.7-10.7-14.9-13.6c-6.7-2.9-17-0.8-23.6,1.8c-7.7,3.1-11.9,10.5-19.1,14.4
			c-4.1,2.3-8.7,3.5-13.5,3.6c-4.9,0-8.6-2.1-13.2-3.3c-0.1,0-0.2,0-0.3-0.1c-0.5-0.6-1-1.2-1.5-1.8c-4.3-5.9-7-16.6-16.3-16
			c-3,0.1-5.7,2-6.7,4.8l0,0c-2.8-2-6.2-3.1-9.6-3c-3.8,0.1-6.8,1.9-9.6,4.1c-3.6-3.2-8.9-3.6-12.9-1c-3.8,2.4-7.6,7.7-12.7,6.1
			c-0.3-0.1-0.5-0.2-0.7-0.3c0,0,0,0,0-0.1c-1.8-3.1-1.9-6.8-3.3-10.1c-1.3-3.1-3.1-6-5.3-8.5c-4.6-5.4-10.8-9.1-17.4-11.6
			c-5.9-2.3-12.9-4.8-19.1-2.3C43.7,88.8,36.8,95.4,28,96c-0.3-1.2-0.3-2.4,0-3.6c1.3-5.7,6.2-10,11.5-11.9
			c12.3-4.4,26.1,2.4,37.2,7.3c4.8,2,9.3,4.4,13.7,7.1c0.9,0.7,1.9,1.4,2.8,2.1c3,2.4,6,5.3,9.6,6.6c5,1.8,14.5-2.5,10.6-8.9
			c-1.4-2.3-4.2-3-6.7-2.6c-3.5,0.6-5.8,3.5-7.8,6.3c-2.6-2.1-5.4-4-8.1-6.1c3-1.8,5.8-3.8,8.7-5.8l0.2-0.1l0.1-0.1
			c6.4-5.1,14.2-9.2,15-18.2c0.9-11-4.9-21-5.5-31.8c-1.5-25,29.5-36.6,50.2-32.8c2.4,0.4,4.7,1.1,6.9,2.1c-0.3,0-0.6,0-0.9,0.1
			C165,5,164.5,5,164,5.3c-0.2,0.1-0.3,0.2-0.4,0.3c-1.6,1.2-2.2,3.4-1.3,5.2c1,2,3.5,2.8,5.5,1.8c1.9-1.1,2.7-3.5,1.6-5.4
			c-0.1-0.2-0.2-0.3-0.3-0.4c15.3,8.7,19.1,29.9,11.4,46.2c-2.4,5-5.6,9.6-9.4,13.7c-3.4,3.6-7.6,6.5-10.8,10.3
			c-4.1,5-4,11.9,2.4,14.8c16,7.2,29.1-13.6,36.7-24.1c12.4-17,33.4-31.1,54.8-21.3c4.2,1.9,7.9,4.7,10.8,8.2
			C267.3,57,269.3,60.4,269.1,63.9L269.1,63.9z M100.8,100c1.8-2.5,4-5.7,7.3-5.6c3.6,0.1,4.4,3.6,2.1,5.8c-1.5,1.4-3.6,1.9-5.5,1.4
			C103.3,101.3,102,100.7,100.8,100z"/>
		<path class="st3" d="M129.2,30l0.4,0.1L129.2,30z"/>
		<path class="st3" d="M133,32l0.4,0.4L133,32z"/>
		<path class="st3" d="M133.9,32.9l0.3,0.4L133.9,32.9z"/>
		<path class="st3" d="M133.4,32.4l0.4,0.4L133.4,32.4z"/>
		<path class="st3" d="M125.5,30.6c0.1-0.1,0.2-0.1,0.3-0.2C125.7,30.5,125.6,30.6,125.5,30.6z"/>
		<path class="st3" d="M125,31l0.3-0.2L125,31z"/>
		<path class="st3" d="M129.7,30.1l0.5,0.2L129.7,30.1z"/>
		<path class="st3" d="M130.9,30.6c0.2,0.1,0.3,0.2,0.5,0.3C131.2,30.8,131,30.7,130.9,30.6z"/>
		<path class="st3" d="M132,31.3c0.3,0.2,0.6,0.4,0.9,0.7C132.6,31.7,132.3,31.5,132,31.3z"/>
		<path class="st3" d="M130.3,30.4l0.4,0.2L130.3,30.4z"/>
		<path class="st3" d="M126.1,30.3l0.3-0.1L126.1,30.3z"/>
		<path class="st3" d="M126.8,30h0.2H126.8z"/>
		<path class="st3" d="M131.4,31l0.4,0.3L131.4,31z"/>
		<path class="st3" d="M124.1,32c0.1-0.1,0.2-0.2,0.3-0.3C124.3,31.8,124.2,31.9,124.1,32z"/>
		<path class="st3" d="M135.1,35.8c0-0.2,0-0.3,0-0.5C135.2,35.5,135.2,35.7,135.1,35.8z"/>
		<path class="st3" d="M128.5,29.8l0.5,0.1L128.5,29.8z"/>
		<path class="st3" d="M127.5,29.9c0.1,0,0.2,0,0.2,0C127.7,29.9,127.6,29.9,127.5,29.9z"/>
		<path class="st3" d="M124,32.1c-0.9,1.4-1.1,3.2-0.4,4.7C122.9,35.3,123.1,33.5,124,32.1z"/>
		<path class="st3" d="M124.5,31.5c0.1-0.1,0.2-0.2,0.3-0.3C124.7,31.3,124.6,31.4,124.5,31.5z"/>
		<path class="st3" d="M134.8,34.3c0.1,0.3,0.2,0.6,0.3,1C135,35,135,34.6,134.8,34.3z"/>
		<path class="st3" d="M134.2,33.3c0.1,0.2,0.2,0.3,0.3,0.5L134.2,33.3z"/>
		<path class="st3" d="M134.6,33.8c0.1,0.1,0.2,0.3,0.2,0.4C134.7,34.1,134.6,34,134.6,33.8z"/>
		<path d="M127.8,29.8c0.3,0,0.5,0,0.8,0C128.3,29.8,128,29.8,127.8,29.8z"/>
		<path d="M127,30l0.5-0.1L127,30z"/>
		<path d="M124.8,31.2c0.1-0.1,0.2-0.2,0.3-0.2C124.9,31.1,124.8,31.1,124.8,31.2z"/>
		<path d="M126.4,30.2l0.4-0.1L126.4,30.2z"/>
		<path d="M124,32.1l0.1-0.1L124,32.1z"/>
		<path d="M125.2,30.8l0.3-0.2L125.2,30.8z"/>
		<path d="M125.8,30.5c0.1-0.1,0.2-0.1,0.3-0.2C126,30.3,125.9,30.4,125.8,30.5z"/>
		<path d="M124.3,31.7l0.2-0.2L124.3,31.7z"/>
		<path d="M129,29.9h0.1H129z"/>
		<path d="M134.2,33.3L134.2,33.3L134.2,33.3z"/>
		<path d="M137.2,33.6c-1.6-3.3-4.7-5.6-8.3-6.2l0,0c-0.1,0-0.2,0-0.3,0c-4.2-0.2-7.8,3.1-7.9,7.3c0,0.4,0,0.9,0.1,1.3
			c0.8,4.6,5.1,7.8,9.7,7c0,0,0,0,0,0C134.5,42.2,139.4,38,137.2,33.6z M124,32.1l0.1-0.1c0.1-0.1,0.2-0.2,0.3-0.3l0.2-0.2
			c0.1-0.1,0.2-0.2,0.3-0.3c0.1-0.1,0.2-0.2,0.3-0.2l0.3-0.2l0.3-0.2c0.1-0.1,0.2-0.1,0.3-0.2c0.1-0.1,0.2-0.1,0.3-0.2l0.3-0.1
			l0.4-0.1l0.2,0l0.5-0.1c0.1,0,0.2,0,0.2,0c0.3,0,0.5,0,0.8,0L129,30h0.1l0.4,0.1h0.1l0.5,0.2l0.1,0.1l0.4,0.2l0.1,0.1
			c0.2,0.1,0.3,0.2,0.5,0.3h0.1l0.4,0.3l0.1,0.1c0.3,0.2,0.6,0.4,0.9,0.7l0.1,0.1l0.4,0.4l0,0l0.4,0.4v0.1l0.3,0.4v0l0.3,0.5l0,0
			c0.1,0.1,0.2,0.3,0.2,0.4v0.1c0.1,0.3,0.2,0.6,0.3,1c0,0,0,0.1,0,0.1c0,0.2,0,0.3,0,0.5c-0.1,1.4-0.9,2.6-2.1,3.3l-0.2,0.1
			c-2.1,1.5-5,1.6-7.2,0.2c-0.6-0.4-1.1-0.9-1.5-1.5c-0.2-0.3-0.4-0.7-0.6-1.1C122.8,35.2,123,33.5,124,32.1z"/>
		<path d="M133.8,32.8L133.8,32.8L133.8,32.8z"/>
		<path d="M134.8,34.3L134.8,34.3L134.8,34.3z"/>
		<path d="M133.4,32.4L133.4,32.4z"/>
		<path d="M135.1,35.3C135.1,35.3,135.1,35.3,135.1,35.3C135.1,35.3,135.1,35.3,135.1,35.3z"/>
		<path d="M134.5,33.8L134.5,33.8z"/>
		<path d="M130.2,30.3l0.1,0.1L130.2,30.3z"/>
		<path d="M129.6,30.1L129.6,30.1L129.6,30.1z"/>
		<path d="M130.7,30.6l0.1,0.1L130.7,30.6z"/>
		<path d="M131.4,30.9L131.4,30.9L131.4,30.9z"/>
		<path d="M131.9,31.2l0.1,0.1L131.9,31.2z"/>
		<path d="M132.9,32L132.9,32L132.9,32z"/>
		<path class="st2" d="M125.7,39.5c2.2,1.4,5.1,1.3,7.2-0.2l0.2-0.1c1.2-0.7,2-1.9,2.1-3.3l0,0c0-0.2,0-0.3,0-0.5c0,0,0-0.1,0-0.1
			c-0.1-0.3-0.2-0.6-0.3-1v-0.1c-0.1-0.2-0.1-0.3-0.2-0.4l0,0c-0.1-0.2-0.2-0.3-0.3-0.5v0l-0.3-0.4v-0.1l-0.4-0.4l0,0l-0.4-0.4
			l-0.1-0.1c-0.3-0.3-0.6-0.5-0.9-0.7l-0.1-0.1l-0.4-0.3h-0.1c-0.2-0.1-0.3-0.2-0.5-0.3l-0.1-0.1l-0.4-0.2l-0.1-0.1l-0.5-0.2h-0.1
			l-0.4-0.1h-0.1l-0.5-0.1c-0.3,0-0.5,0-0.8,0c-0.1,0-0.2,0-0.2,0l-0.7,0l-0.3,0.1l-0.4,0.1l-0.3,0.1c-0.1,0-0.2,0.1-0.3,0.2
			c-0.1,0-0.2,0.1-0.3,0.2l-0.3,0.2L125,31c-0.1,0.1-0.2,0.1-0.2,0.2c-0.1,0.1-0.2,0.2-0.3,0.3l-0.2,0.2c-0.1,0.1-0.2,0.2-0.3,0.3
			l-0.1,0.1c-0.9,1.4-1.1,3.2-0.4,4.7c0.1,0.4,0.3,0.7,0.6,1.1C124.6,38.5,125.1,39,125.7,39.5z"/>
		<path d="M166,30c-2.3-3.1-6.1-5.2-9.7-3.4c-0.1,0-0.3,0.1-0.4,0.2c-0.1,0.1-0.2,0.1-0.3,0.2c-3.4,2.8-6.4,7.4-3.6,11.8
			c2.4,3.8,7.9,4.1,11.6,2.4C168.4,38.9,169.2,34.2,166,30z M165.2,36.7c-0.5,0.9-1.3,1.6-2.2,2c0.4-0.6,0.6-1.4,0.4-2.2
			c-0.4-1.9-2.5-3-4.3-2.8c-0.2-0.1-0.4-0.1-0.6,0c-1.7,0.4-4.2,1.7-3.8,3.9c0.1,0.5,0.4,1,0.7,1.4c-0.4-0.3-0.8-0.6-1.1-0.9
			c-2.7-3.1,0.2-7.1,2.8-9c2.4-1.4,4.7,0,6.4,1.9C164.9,32.3,166.3,34.7,165.2,36.7L165.2,36.7z"/>
		<path class="st2" d="M144.9,48.9c-0.2-0.1-0.4-0.2-0.5-0.4c-2.1-1-4.4,0.1-6.1,2c0,0-0.7,0.9-0.6,0.8c-2.5,3.6-2.7,9,4.2,9.8
			c3,0.3,6.8-0.4,8.3-3.3C152.6,53.5,148.1,50.4,144.9,48.9z"/>
		<path d="M146.6,47c-0.1-0.1-0.2-0.2-0.3-0.3c-8.6-5.8-18.8,11.7-7.7,16c4.6,1.8,11.3,0.9,13.9-3.8C155.3,53.7,151.1,49.3,146.6,47
			z M150.3,57.6c-1.6,2.9-5.3,3.7-8.3,3.4c-6.9-0.7-6.8-6.2-4.2-9.8c0,0.1,0.6-0.8,0.6-0.8c1.7-1.9,4-2.9,6.1-2
			c0.1,0.2,0.3,0.3,0.5,0.4C148.1,50.4,152.6,53.5,150.3,57.6z"/>
		<path d="M142.7,51.5c-0.7-0.8-1.6-1.4-2.7-1.5c-1.3,0.3-2.2,1.4-2.2,2.7c0.3,1.3,0.9,2.6,1.5,3.8c1,1.4,2.3,2.6,3.7,3.6
			c0.4,0.3,1,0.3,1.4-0.1c0.3-0.2,0.6-0.6,0.6-1c0.1-2.6,5.2-4.2,2.8-7.3C146.3,49.8,144.2,50.3,142.7,51.5z M145.6,53.6
			c0,0.8-0.9,1.4-1.5,2c-0.4,0.4-0.7,0.9-1,1.5c-0.8-0.7-1.4-1.5-2-2.4c-0.4-0.5-0.8-1.2-0.9-1.8c0-0.4,0-0.2,0.4,0.1
			c0.4,0.3,0.7,0.7,1,1.1c0.4,0.6,1.1,0.8,1.7,0.4c0.2-0.1,0.3-0.2,0.4-0.4c0.2-0.3,0.5-0.6,0.8-0.8c0.2-0.2,0.6-0.3,0.9-0.2
			C145.7,52.9,145.8,53.1,145.6,53.6z"/>
		<path class="st4" d="M140.5,52.8c-0.4-0.3-0.4-0.5-0.4-0.1c0.2,0.7,0.5,1.3,0.9,1.8c0.6,0.9,1.2,1.7,2,2.4c0.3-0.5,0.6-1,1-1.5
			c0.5-0.6,1.4-1.1,1.5-2c0.2-0.5,0.1-0.7-0.3-0.6c-0.3-0.1-0.6,0-0.9,0.2c-0.3,0.2-0.6,0.5-0.8,0.8c-0.4,0.6-1.1,0.8-1.7,0.4
			c-0.2-0.1-0.3-0.2-0.4-0.4C141.2,53.5,140.9,53.1,140.5,52.8z"/>
		<path class="st4" d="M116.8,80.3c-0.3,0.1-0.6,0.2-0.9,0.1c-1.2,0.2-2,1.3-1.8,2.5c0,0,0,0.1,0,0.1c0.4,1.4,1.9,2,3.3,1.8
			C120.8,84.4,119.8,79,116.8,80.3z"/>
		<path d="M118.2,87.2c2.7-0.7,4.3-3.4,3.7-6c0,0,0-0.1,0-0.1c-0.7-2.3-3.1-3.7-5.4-3.1c-0.1,0-0.2,0-0.3,0c-2.6,0.1-4.6,2.3-4.5,5
			c0,0.2,0,0.3,0,0.5C112.3,86.3,115.4,87.7,118.2,87.2z M117.5,84.8c-1.3,0.2-2.9-0.3-3.3-1.8c-0.3-1.2,0.5-2.4,1.6-2.6
			c0.1,0,0.1,0,0.2,0c0.3,0,0.6,0,0.9-0.1C119.8,79,120.8,84.4,117.5,84.8z"/>
		<path class="st4" d="M118.2,69c-1.4,1.1,0.8,2.6,1.7,1.1c0.5-0.8,0-1.3-0.8-1.4c-0.1,0-0.2,0-0.4-0.1l-0.3,0.2L118.2,69z"/>
		<path d="M121.5,72.1c1.3-1.2,1.4-3.3,0.2-4.6c-0.2-0.2-0.4-0.4-0.6-0.5c-0.8-0.5-1.7-0.7-2.6-0.7c-0.7,0.1-1.3,0.4-1.7,0.9
			c0,0-0.1,0.1-0.1,0.1l-0.2,0.1c-1.4,1.2-1.6,3.3-0.4,4.7c0.1,0.1,0.1,0.1,0.2,0.2C117.7,73.6,120.1,73.6,121.5,72.1
			C121.5,72.1,121.5,72.1,121.5,72.1z M118.8,68.6c0.1,0,0.2,0,0.4,0.1c0.8,0.2,1.3,0.6,0.8,1.4c-0.9,1.4-3.1,0-1.7-1.1l0.3-0.2
			L118.8,68.6z"/>
		<path class="st4" d="M159.9,98.6c-0.1-1.1-1.5-1.2-2.6-1.4l0,0c-1.4,0.2-2.4,1.3-2.6,2.7c-0.1,1.3,0.8,2.4,2,2.5
			c0.1,0,0.3,0,0.4,0C158.4,102.3,160,99.9,159.9,98.6z"/>
		<path d="M161.1,96c-1.1-0.8-2.4-0.9-3.7-1.2c-0.3-0.1-0.7,0-1,0.2c-2.5,0.6-4.3,2.8-4.2,5.4c0.1,2.6,2.3,4.6,4.9,4.6
			c2.8-0.1,4.8-3,5.2-5.6C162.5,98.1,162,96.8,161.1,96z M157.1,102.4c-1.3,0.1-2.4-0.8-2.5-2.1c0-0.1,0-0.3,0-0.4
			c0.2-1.4,1.2-2.5,2.6-2.7l0,0c1,0.2,2.4,0.3,2.6,1.4C160,99.9,158.4,102.3,157.1,102.4L157.1,102.4z"/>
		<path class="st4" d="M155.2,89.9c-0.2,0-0.4,0-0.6,0.2c-0.1,0.1-0.3,0.4-0.1,0.6c0.2,0.1,0.4,0.2,0.6,0.1c0.2-0.1,0.3-0.4,0.3-0.6
			L155.2,89.9z"/>
		<path d="M157,88.2c-0.2-0.3-0.5-0.5-0.8-0.6c-1.5-0.5-3.2,0.1-4,1.5c-0.7,1.4-0.2,3,1.2,3.7c0.1,0.1,0.2,0.1,0.4,0.2
			c1.6,0.5,3.3-0.4,3.8-1.9c0.3-0.7,0.3-1.4,0-2.1C157.4,88.8,157.2,88.5,157,88.2z M155,90.7c-0.2,0.1-0.4,0.1-0.6-0.1
			c-0.1-0.2,0-0.4,0.1-0.6c0.2-0.1,0.4-0.2,0.6-0.2l0.1,0.2C155.3,90.3,155.2,90.5,155,90.7z"/>
		<path class="st4" d="M166.6,10.5c0.7-0.3,1.1-1.1,0.9-1.8c-0.3-0.7-1.1-1.1-1.8-0.9c-0.1,0-0.2,0.1-0.3,0.2
			c-0.2,0.1-0.5,0.2-0.7,0.2C164.1,9.4,165.1,11.2,166.6,10.5z"/>
		<path class="st4" d="M172.8,14.8c0.6-0.2,0.6-0.7,0.4-1.1c-0.1-0.2-0.3-0.4-0.6-0.5c-0.3,0.3-0.5,0.6-0.6,1.1
			C172.1,14.7,172.4,14.9,172.8,14.8z"/>
		<path d="M172.6,17.3c1.6,0,2.9-1.2,3.1-2.7c0.1-1.5-0.8-3-2.2-3.6l-0.1-0.1c-0.1-0.1-0.3-0.2-0.5-0.3c-0.3-0.1-0.7-0.1-1,0.1
			c-1.4,0.7-2.3,2.1-2.3,3.7C169.6,16,170.9,17.3,172.6,17.3C172.6,17.3,172.6,17.3,172.6,17.3z M172.1,14.3c0-0.4,0.2-0.8,0.6-1.1
			c0.2,0.1,0.4,0.3,0.6,0.5c0.3,0.5,0.2,1-0.4,1.1S172.1,14.7,172.1,14.3L172.1,14.3z"/>
		<path d="M125,62.9c-1.2,1,0.5,2.7,1.7,1.7c3.4-2.7,5.2-4.9,4.6-9.4c-0.5-3.6-2.1-6.9-5.4-8.6c-1.4-0.8-2.6,1.4-1.2,2.1
			c2.4,1.3,3.6,3.7,4.1,6.3c0.3,1.9,0.4,3.8-0.9,5.4C127.1,61.3,126.1,62.1,125,62.9z"/>
		<path d="M161.4,47.3c-2.8,0.3-5.8,0.9-6.7,4c-0.8,3.3-0.4,6.7,1.3,9.7c0.9,1.3,3,0.1,2.1-1.2c-1.2-1.8-1.3-3.8-1.3-5.9
			c0-3.1,1.8-3.8,4.5-4C162.9,49.6,162.9,47.2,161.4,47.3z"/>
		<path class="st5" d="M262.6,169.8c1.5-2.1,2.3-4.6,2.3-7.2c0-3.1-1.4-6.1-3.9-8c-2.3-1.7-5.2-2.6-8.1-2.5c-4.5,0-8.9,1.8-12.1,5
			c-0.4-0.9-1-1.6-1.7-2.3c-1.7-1.7-4.1-2.6-6.5-2.6c-2.2,0.1-4.3,0.7-6.3,1.7c-1.6-1.2-3.6-1.8-5.5-1.7c-1.7,0-3.4,0.4-4.9,1.2
			l-0.7-0.9h-2.5c-2.8,0-5.6,0.1-8.4,0.5c2.1-3.4,1.6-7.9-1.2-10.7c-1.7-1.7-4-2.6-6.4-2.5c-2.5,0-4.8,0.9-6.6,2.6
			c-0.7,0.6-1.2,1.3-1.7,2h-4.1c-3.1,0-6.3,0.6-9.2,1.6l-3.4,1.2v3.7v1.6c-0.7-0.2-1.3-0.3-2-0.3c-1.2,0-2.3,0.2-3.4,0.6l-0.2-0.4
			h-3.2c-3.5-0.1-6.9,0.2-10.3,1l-1.5,0.4c-2.1-1.1-4.4-1.7-6.7-1.6c-4.5,0-8.8,1.8-12.1,4.9c-0.4-0.9-1-1.6-1.7-2.3
			c-1.7-1.7-4.1-2.6-6.5-2.6c-2.2,0.1-4.3,0.7-6.3,1.7c-1.6-1.2-3.6-1.8-5.5-1.7c-1.7,0-3.4,0.4-4.9,1.2l-0.7-0.9h-2.5
			c-3.5-0.1-6.9,0.2-10.3,1l-2.2,0.6c-1.6-1.2-3.6-1.9-5.6-1.8c-2.2,0.1-4.3,0.7-6.3,1.7c-1.6-1.2-3.6-1.8-5.5-1.7
			c-1.7,0-3.4,0.4-4.9,1.2l-0.7-0.9h-2.5c-2.8-0.1-5.7,0.1-8.5,0.6v-0.5h-6c-2.5-0.1-5.1,0.2-7.5,0.8l-0.3-0.8h-3.4
			c-2.8,0-5.5,0.1-8.2,0.5c0.5-1.3,0.7-2.6,0.8-4c0-3.1-1.6-6.1-4.1-7.9c-2.7-1.9-6-2.9-9.3-2.8c-3.6,0-7.1,1.1-10.1,3.2
			c-3.4,2.3-5.4,6.2-5.3,10.3c0.1,2.7,0.8,5.4,2.1,7.8c0.9,1.7,1.8,3.4,2.9,5c-2.1,0.8-4,2.2-5.4,4c-1.5,1.6-2.7,3.5-3.4,5.6
			L0,175.3l0.3,1.3c0.6,2.8,2.8,4.8,4.4,6.1c2.6,2,5.8,3,9.1,2.9c4.4,0.1,8.7-1.3,12.2-3.9c0.2-0.2,0.4-0.3,0.6-0.5
			c0.4,0.7,0.8,1.3,1.3,1.8c1.7,1.8,4.1,2.7,6.6,2.7c2.2,0,4.4-0.6,6.4-1.7c1.6,1.1,3.4,1.6,5.3,1.6c1.7,0,3.4-0.3,5-1v0.6h6
			c2.4,0.1,4.8-0.2,7.2-0.7l0.1,0.7h4.2c5.8,0,7.8-0.5,9.1-1.1l0.8-0.4c1.6,1.3,3.7,2.1,5.8,2c1.7,0,3.3-0.4,4.8-1v0.6h6
			c2.4,0.1,4.8-0.2,7.2-0.7l0.1,0.7h4.2c5.8,0,7.8-0.5,9.1-1.1l0.8-0.4c1.6,1.3,3.7,2.1,5.8,2c2.2-0.1,4.4-0.7,6.4-1.8
			c0.8-0.4,1.5-0.8,2.2-1.3c2.3,2.1,5.2,3.2,8.3,3.1c3.2,0,6.3-0.8,9.1-2.3l0.4-0.2l0.5,2.1h4.3c4.4,0,7.2-0.3,9.1-1.1l3.5-1.4
			l-0.4-3.8c0,0,0-0.3,0-1.1c0.2-2.6,0.6-5.2,1.2-7.7c0.2,0,0.4,0,0.6,0h0.4l0.4-0.1l0.5-0.1c-0.1,0.4-0.2,0.9-0.2,1.3
			c-0.3,1.7-0.5,3.4-0.5,5.2c-0.1,4.9,3.8,9,8.7,9.2c0.1,0,0.3,0,0.4,0c3.1-0.1,6.1-1,8.7-2.8l0.1,0.1c1.7,1.8,4.1,2.8,6.5,2.7
			c1.8,0,3.6-0.4,5.3-1.2v0.8h6c2.4,0.1,4.8-0.2,7.2-0.7l0.1,0.7h4.2c5.8,0,7.8-0.5,9.1-1.1l0.8-0.4c1.6,1.3,3.7,2.1,5.8,2
			c2.2-0.1,4.4-0.7,6.4-1.8c0.8-0.4,1.5-0.8,2.2-1.3c2.3,2.1,5.2,3.2,8.3,3.1c3.2,0,6.3-0.8,9.1-2.3c1-0.6,1.9-1.2,2.9-1.9
			c1-0.7,1.9-1.6,2.7-2.6l2.2-3l-3.4-4.5C261.8,171,262.2,170.4,262.6,169.8z"/>
		<path class="st1" d="M26.7,169.9c0.1,3.1-1.3,6-3.8,7.9c-2.6,2-5.9,3-9.2,2.9c-2.2,0.1-4.3-0.6-6-1.8c-1.6-1.2-2.4-2.3-2.6-3.1
			c0.6-1.4,1.4-2.7,2.4-3.8c0.9-1.2,2.1-2,3.4-2.6c1.8,1.1,3.4,3.7,4.9,7.6c2.2-0.1,3.4-1.3,3.4-3.7c-0.1-1.7-0.7-3.4-1.6-4.8
			c-1-1.9-2.2-3.7-3.4-5.4c-1.3-1.8-2.5-3.7-3.4-5.6c-0.9-1.7-1.5-3.6-1.6-5.6c-0.1-2.5,1.1-4.8,3.2-6.2c2.1-1.5,4.6-2.3,7.2-2.3
			c2.2-0.1,4.4,0.5,6.2,1.7c1.3,0.9,2.1,2.3,2.2,3.9c-0.1,1.6-0.6,3.2-1.7,4.5c-1,1.3-2.1,2.6-3.3,3.6l-1.6,1.3
			c0.4,0.6,0.9,1.3,1.5,2.1c0.9,1.4,1.7,2.9,2.4,4.4C26.1,166.3,26.6,168.1,26.7,169.9z M22.7,152.9c0.5-0.5,0.9-1,1.3-1.6
			c0.4-0.6,0.6-1.3,0.6-2c0-0.8-0.5-1.5-1.2-1.8c-0.9-0.5-2-0.8-3-0.7c-1,0-2,0.2-2.9,0.8c-0.7,0.4-1.1,1.1-1.2,1.9
			c0,0.9,0.3,1.8,0.8,2.6c0.4,0.9,0.9,1.7,1.5,2.5l0.8,1c0.6-0.3,1.1-0.7,1.6-1.1C21.5,153.9,22.2,153.4,22.7,152.9L22.7,152.9z"/>
		<path class="st1" d="M30.3,176.1c0.2-2.6,0.6-5.1,1.4-7.6c0.6-2.1,1.1-4.3,1.4-6.5c0-0.8-0.6-1.9-1.9-3.2l0-0.7
			c3.1-0.5,6.2-0.8,9.3-0.7c0.2,0.8,0.3,1.6,0.3,2.4c-0.2,2.5-0.7,5.1-1.5,7.5c-0.7,2.3-1.2,4.7-1.5,7.1c0,0.9,0.3,1.4,1,1.4
			c1.2-0.1,2.4-0.4,3.5-1.1c0.1-0.8,0.5-2.4,1-4.8c1-3.9,1.6-7.9,1.9-11.9c2.1-0.6,4.3-0.9,6.5-0.7h1c-0.2,3.2-0.7,6.4-1.5,9.5
			c-0.6,2.7-1.1,5.5-1.5,8.3c0,0.8,0.2,1.2,0.5,1.2c1-0.3,2-0.7,3-1.3l1,1.7c-3.1,2.6-5.8,3.8-8.1,3.8c-1,0-2-0.3-2.8-0.9
			c-0.8-0.6-1.2-1.5-1.3-2.4c-2.8,2.3-5.3,3.4-7.6,3.4c-1.1,0-2.2-0.4-3-1.2C30.6,178.6,30.2,177.3,30.3,176.1z"/>
		<path class="st1" d="M57.1,180.2h-1c0.2-3.1,0.7-6.3,1.5-9.3c0.6-2.6,1.1-5.2,1.5-7.8c-0.1-1.3-0.6-2.6-1.5-3.6l-0.5-0.6v-0.7
			c3-0.6,6-0.9,9-0.8c0.6,1,0.8,2.1,0.7,3.2c3.1-2.3,5.6-3.5,7.4-3.5c2.3,0,3.7,1.2,4.1,3.6c1.1-0.9,2.4-1.7,3.7-2.4
			c1.2-0.7,2.6-1.1,4-1.2c1.1,0,2.2,0.4,3,1.2c0.8,0.9,1.3,2,1.2,3.2c-0.1,2.3-0.5,4.6-1.1,6.8c-0.6,2.1-1,4.2-1.1,6.4
			c0,1.1,0.2,1.6,0.5,1.6c0.7-0.2,1.5-0.6,2.1-1l0.6-0.3l0.9,1.8c-1.1,1-2.3,1.9-3.7,2.6c-1.2,0.7-2.6,1.1-4.1,1.2
			c-2.6,0-3.9-1.5-3.9-4.4c0.2-2.2,0.5-4.3,1.1-6.4c0.6-2.1,0.9-4.2,1.1-6.3c0-1-0.3-1.5-0.9-1.5c-1.2,0.1-2.4,0.5-3.4,1.1
			c-0.1,0.7-0.6,3-1.4,7c-0.8,3.1-1.2,6.2-1.3,9.3c-1,0.5-3.3,0.7-7,0.7c-0.1-0.9-0.1-1.8-0.1-2.8c0.2-2.5,0.6-4.9,1.2-7.3
			c0.6-2.2,1-4.4,1.3-6.6c0-0.9-0.3-1.4-1-1.4c-1.2,0.1-2.4,0.5-3.4,1.3c-0.1,0.3-0.4,1.8-1,4.6c-1,3.8-1.6,7.7-1.9,11.6
			C61.6,180,59.3,180.3,57.1,180.2z"/>
		<path class="st1" d="M95.2,180.2h-1c0.2-3.1,0.7-6.3,1.5-9.3c0.6-2.6,1.1-5.2,1.5-7.8c-0.1-1.3-0.6-2.6-1.4-3.6l-0.5-0.6v-0.7
			c3-0.6,6-0.9,9-0.8c0.6,1,0.8,2.1,0.7,3.2c3.1-2.3,5.6-3.5,7.4-3.5c2.3,0,3.7,1.2,4.1,3.6c1.1-0.9,2.4-1.7,3.7-2.4
			c1.2-0.7,2.6-1.1,4-1.2c1.1,0,2.2,0.4,3,1.2c0.8,0.9,1.3,2,1.2,3.2c-0.1,2.3-0.5,4.6-1.1,6.8c-0.6,2.1-1,4.2-1.1,6.4
			c0,1.1,0.2,1.6,0.5,1.6c0.8-0.2,1.5-0.6,2.1-1l0.6-0.3l0.9,1.8c-1.1,1-2.3,1.9-3.7,2.6c-1.2,0.7-2.6,1.1-4.1,1.2
			c-2.6,0-3.9-1.5-3.9-4.4c0.2-2.2,0.5-4.3,1.1-6.4c0.6-2.1,0.9-4.2,1.1-6.3c0-1-0.3-1.5-0.9-1.5c-1.2,0.1-2.4,0.5-3.4,1.1
			c-0.1,0.7-0.5,3-1.4,7c-0.8,3.1-1.2,6.2-1.3,9.3c-1,0.5-3.3,0.7-7,0.7c-0.1-0.9-0.1-1.8-0.1-2.8c0.2-2.5,0.6-5,1.2-7.4
			c0.6-2.2,1-4.4,1.2-6.6c0-0.9-0.3-1.4-1-1.4c-1.2,0.1-2.4,0.5-3.4,1.3c-0.1,0.3-0.4,1.8-1,4.6c-1,3.8-1.6,7.7-1.9,11.6
			C99.6,180,97.4,180.3,95.2,180.2z"/>
		<path class="st1" d="M131.6,171c0-4.3,1.3-7.7,3.9-10.2c2.3-2.4,5.5-3.7,8.9-3.8c1.8-0.1,3.5,0.5,5,1.5c1.3,0.9,2,2.4,2,4
			c0.1,1.5-0.4,3-1.3,4.2c-0.8,1.1-1.9,2-3.1,2.6c-2.1,1.1-4.4,1.9-6.7,2.3l-1.2,0.2c0.2,3.2,1.6,4.9,4,4.9c0.9,0,1.8-0.2,2.6-0.6
			c0.8-0.3,1.5-0.7,2.2-1.3l0.8-0.6l1.2,1.7c-0.5,0.6-1,1.1-1.7,1.5c-0.7,0.6-1.5,1.1-2.3,1.6c-2,1.1-4.3,1.7-6.6,1.6
			c-2.2,0.1-4.3-0.8-5.6-2.5C132.2,176,131.4,173.5,131.6,171z M143.2,167.1c1.1-1.3,1.6-2.9,1.6-4.6c0-1.9-0.6-2.8-1.7-2.8
			c-1.3,0-2.3,1.1-3,3.4c-0.7,2-1,4.1-1.1,6.2C140.6,169.1,142.1,168.3,143.2,167.1L143.2,167.1z"/>
		<path class="st1" d="M153.5,180.2h-0.4c-0.1-0.6-0.1-1.3-0.1-1.9c0.3-2.7,0.7-5.4,1.4-8c0.6-2.4,1.1-4.9,1.4-7.4
			c-0.1-1.3-0.6-2.5-1.4-3.5l-0.5-0.6v-0.7c3-0.6,6-0.9,9-0.8c0.5,1.2,0.7,2.5,0.6,3.8c0.7-0.9,1.5-1.8,2.4-2.5c1-1,2.3-1.5,3.7-1.6
			c1.9,0,2.8,1.6,2.8,4.9c-0.2,0.2-0.4,0.5-0.7,0.8c-0.5,0.5-1.1,1-1.7,1.4c-0.8,0.5-1.6,0.9-2.6,1.1c-0.3-0.4-0.6-0.9-0.9-1.4
			c-0.6-0.9-1-1.4-1.2-1.4c-0.9,0.3-1.7,0.9-2.3,1.6c-1.6,7.2-2.4,11.8-2.4,13.9c0,0.5,0,1.1,0.1,1.6
			C159.5,179.9,157.1,180.2,153.5,180.2z"/>
		<path class="st1" d="M188.6,157.7c-0.1,1-0.4,2.1-0.9,3c-1.2-0.1-2.5-0.2-3.7-0.2H183c-1.6,7.7-2.4,12.5-2.4,14.4
			c0,1,0.2,1.5,0.6,1.5c1.2-0.3,2.4-0.7,3.4-1.3l0.9,1.7c-3.1,2.6-5.9,3.8-8.6,3.8c-1.1,0-2.2-0.4-3-1.1c-0.8-0.8-1.2-1.9-1.2-3
			c0-1.4,0.2-2.9,0.4-4.3c0.3-1.6,0.7-3.5,1.2-5.8s0.9-4.1,1.1-5.6c-1.3,0.1-2.2,0.2-2.9,0.3c-0.1-0.6-0.1-1.1-0.1-1.7
			c0-0.6,0-1.2,0.1-1.7h3.3c0.3-1.7,0.4-3.5,0.4-5.3v-1.6v-0.1c2.4-0.9,5-1.4,7.6-1.4c0.1,0.9,0.2,1.7,0.2,2.6
			c-0.1,2-0.4,3.9-0.9,5.9L188.6,157.7z"/>
		<path class="st1" d="M198.9,160.3c-0.2,2.5-0.7,5.1-1.4,7.5c-0.7,2.3-1.2,4.6-1.4,6.9c0,1.1,0.1,1.6,0.5,1.6
			c0.8-0.2,1.6-0.6,2.4-1l0.6-0.3l0.9,1.8c-0.3,0.3-0.7,0.6-1.2,1c-0.9,0.6-1.9,1.2-2.9,1.7c-1.2,0.7-2.6,1-3.9,1.1
			c-1.1,0.1-2.1-0.3-2.9-1.1c-0.7-0.8-1.1-1.9-1-3c0.2-2.3,0.6-4.5,1.3-6.7c0.6-2,1.1-4.2,1.3-6.3c0-1.5-0.5-2.9-1.3-4.1l-0.5-0.6
			l0.1-0.7c2.9-0.6,5.9-0.9,8.9-0.8C198.8,158.2,199,159.2,198.9,160.3z M193,151.6c-0.7-0.7-1.1-1.7-1-2.7c0-1.2,0.5-2.3,1.4-3
			c0.9-0.8,2.1-1.3,3.3-1.3c1.1-0.1,2.1,0.3,2.9,1c0.7,0.7,1.1,1.7,1,2.7c0,1.2-0.6,2.3-1.5,3c-0.9,0.8-2.1,1.3-3.3,1.3
			C194.8,152.7,193.8,152.3,193,151.6z"/>
		<path class="st1" d="M203.6,180.2h-1c0.2-3.1,0.7-6.3,1.5-9.3c0.6-2.6,1.1-5.2,1.5-7.8c-0.1-1.3-0.6-2.6-1.4-3.6l-0.5-0.6l0.1-0.7
			c3-0.6,6-0.9,9-0.8c0.6,1,0.8,2.1,0.7,3.2c3.1-2.3,5.6-3.5,7.4-3.5c2.3,0,3.7,1.2,4.1,3.6c1.1-0.9,2.4-1.7,3.7-2.4
			c1.2-0.7,2.6-1.1,4-1.2c1.1,0,2.2,0.4,3,1.2c0.8,0.9,1.3,2,1.2,3.2c-0.1,2.3-0.5,4.6-1.1,6.8c-0.6,2.1-1,4.2-1.1,6.4
			c0,1.1,0.1,1.6,0.5,1.6c0.7-0.2,1.5-0.6,2.1-1l0.6-0.3l0.9,1.8c-1.1,1-2.3,1.9-3.6,2.6c-1.2,0.7-2.6,1.1-4.1,1.2
			c-2.6,0-3.9-1.5-3.9-4.4c0.2-2.2,0.5-4.3,1.1-6.4c0.6-2.1,0.9-4.2,1.1-6.3c0-1-0.3-1.5-0.9-1.5c-1.2,0.1-2.4,0.5-3.4,1.1
			c-0.1,0.7-0.5,3-1.4,7c-0.8,3.1-1.2,6.2-1.3,9.3c-1,0.5-3.4,0.7-7.1,0.7c-0.1-0.9-0.1-1.8-0.1-2.8c0.2-2.5,0.6-5,1.2-7.4
			c0.6-2.2,1-4.4,1.2-6.6c0-0.9-0.3-1.4-1-1.4c-1.2,0.1-2.4,0.5-3.4,1.3c-0.1,0.3-0.4,1.8-1,4.6c-1,3.8-1.6,7.7-1.9,11.6
			C208.1,180,205.8,180.3,203.6,180.2z"/>
		<path class="st1" d="M240.1,171c0-4.3,1.3-7.7,3.9-10.2c2.3-2.4,5.5-3.7,8.9-3.8c1.8-0.1,3.5,0.5,5,1.5c1.3,0.9,2,2.4,2,4
			c0.1,1.5-0.4,3-1.3,4.2c-0.8,1.1-1.9,2-3.1,2.6c-2.1,1.1-4.4,1.9-6.7,2.3l-1.3,0.2c0.2,3.2,1.6,4.9,4,4.9c0.9,0,1.8-0.2,2.6-0.6
			c0.8-0.3,1.5-0.7,2.2-1.3l0.8-0.6l1.2,1.7c-0.5,0.6-1,1.1-1.7,1.5c-0.7,0.6-1.5,1.1-2.3,1.6c-2,1.1-4.3,1.7-6.6,1.6
			c-2.2,0.1-4.3-0.8-5.6-2.5C240.6,176,239.9,173.5,240.1,171z M251.7,167.1c1.1-1.3,1.6-2.9,1.6-4.6c0-1.9-0.6-2.8-1.7-2.8
			c-1.3,0-2.3,1.1-3,3.4c-0.7,2-1,4.1-1.1,6.2C249.1,169.1,250.6,168.3,251.7,167.1L251.7,167.1z"/>
		<path d="M129.2,34.7c-2,0.1-3.7,1.5-4,3.5l0,0c-0.2,0.4,0,0.9,0.3,1.2c0.1,0.1,0.1,0.1,0.2,0.2c2.2,1.4,5.1,1.3,7.2-0.2
			c0.2-0.4,0.3-0.9,0.3-1.4C133.1,35.9,131.1,34.6,129.2,34.7z"/>
	</g>
</g>
</svg>
