<?xml version="1.0" encoding="utf-8"?>
<!-- Generator: Adobe Illustrator 23.0.1, SVG Export Plug-In . SVG Version: 6.00 Build 0)  -->
<svg version="1.1" id="Camada_1" xmlns="http://www.w3.org/2000/svg" xmlns:xlink="http://www.w3.org/1999/xlink" x="0px" y="0px"
	 viewBox="0 0 250.7 232.1" style="enable-background:new 0 0 250.7 232.1;" xml:space="preserve">
<style type="text/css">
	.st0{fill:#55DBFF;}
	.st1{fill:#FF8A66;}
	.st2{fill:#FFFFFF;}
	.st3{fill:#FFE255;}
</style>
<title>Ativo 9</title>
<g>
	<g id="object">
		<path class="st0" d="M122.2,25c9.8,7.5,21.9,9.8,34,11.3c6.1,0.7,12.4,1.3,18.4,2.6c4.6,1,8.6,3.8,13.1,5.1
			c-2.5-6.4-5.1-12.8-11.3-16.5c-9.6-4.9-20.8-3.1-31.2-3.3c-4.8,0.1-9.6-0.5-14.3-1.5c-2.7-0.7-3.3-1.1-5.6,0.5
			C124.4,23.9,123.3,24.5,122.2,25z"/>
		<path class="st1" d="M40.6,177.9c5.5-2.2,11.7-6.3,17.8-3.4c4.7,2.2,5.7,7.6,4.7,12.3c-1.7,7.6-7.3,13.2-5.5,21.5
			c1.6,7.4,7,13.6,13.5,17.2c14.5,8.1,34.1,3.2,48.9-1.9c7.5-2.6,14.8-6.4,19.9-12.7c4.6-5.8,7.1-12.9,9.6-19.8
			c4.6-12.6,10.1-23.4,21.8-30.7s25.4-10.4,38.4-14.7s27.1-10.6,34.4-22.8c7.8-13.3,4.3-30.3-7.9-39.6c-3.5-2.4-7.2-1.3-11.2-1.8
			c-2.9-0.2-5.6-1.2-8-2.8c-2.4-1.7-4.4-3.9-6-6.4c-1-1.4-1.8-3.1-2.9-4.4c-1.6-2-3.1-2.5-5.4-3.3c-6-2-10.9-6.3-13.6-12.1
			c-1.5-3.1-5.3-3.1-8.3-4.5c-3.4-1.7-7-3-10.8-3.8c-8.6-1.6-17.5-2-26.1-3.6c-6.9-1.1-13.5-3.4-19.7-6.6c-2.7-1.5-6.6-5.6-9.6-5.5
			c-3.3,0.2-6.5,0-9.8-0.5c-8.3-1.8-15.9-6-24.3-7.7c-7.8-1.6-17.5-2.2-24.1,3.1c-7.5,6-11.6,17.7-21.7,19.9
			c-6.2,1.3-12.2,1.2-18.1,4c-4,1.8-7.5,4.6-9.9,8.3C2.9,61.3,2.4,68.3,3,75c0.5,5.2,0.6,11.1,4.6,14.8c4.4,4,16,8,16.1,15.2
			c0,2.9-2.4,5.7-3.9,8.1c-2.8,4.4-5.7,8.7-8.3,13.2c-3.1,5-5.7,10.2-7.8,15.7c-1.9,5.4-1.3,10.3,1.3,15.5
			C11,169.6,26.1,183.6,40.6,177.9z M116.3,134.1c5.4-5.5,13-9.6,20.8-6.6c2.8,1.1,5.3,2.8,7.4,4.9c5.3,3.1,9,8.4,10.1,14.4
			c1.4,8.2-1.9,16.5-5.6,23.6c-4.2,8.3-9.7,15.8-15.4,23.1c-6.1,7.8-12.4,16-19.8,22.6c-5.8,5.2-13.3,8.9-21.3,7.7
			c-4.6-0.7-8.8-3.2-11.6-6.9c-1.4-1.2-2.7-2.5-3.9-3.8c-1.9-2-3.7-3.8-4.6-6.4c-2.3-6.7,1-13.4,5.2-18.6l0.1-0.2
			c1.2-1.8,2.8-3,4.2-4.7c2-2.5,3.8-5.1,5.4-7.9c1.1-1.6,2.1-3.3,3.2-5c-1.8-4,3.3-8.5,5.5-11.6c4-5.7,6.4-12.6,11.4-17.6
			c1.5-1.5,3.3-2.7,5.4-3.3C113.8,136.7,115,135.3,116.3,134.1z M31.7,126.1c6.3-4,12.4-8.3,18.5-12.6c-0.1-0.5-0.1-1.1,0-1.6
			c0.3-2,0.9-4,1.9-5.8c2.3-4.4,6-7.9,10.5-10.1c5.2-2.3,10.9-3.3,16.5-2.9c1.4,0.1,3,0.2,4.6,0.4c3.5-1.3,7.3-1.7,11.1-1.2
			c6.3,0.9,11.1,5.7,13.5,11.5c3.6,4.9,5,11.1,3.8,17c-1.9,8.1-8.1,14.5-14.2,19.6c-7.1,6-15.1,10.8-23.1,15.4s-16.6,9.2-25.4,12.6
			c-7.6,3-16.4,4.1-23.8-0.1c-3.6-2-6.4-5.2-7.9-8.9c-2.4-3.3-3.8-7.2-4-11.2C13,138.8,24.8,130.5,31.7,126.1L31.7,126.1z"/>
		<path class="st2" d="M67.1,102.3c-0.8,0.4-1.5,0.9-2.2,1.4L67.1,102.3z"/>
		<path class="st2" d="M217.7,68.4c-0.6-0.9-1.6-1.6-2.7-1.9c2.3,2.9,4.5,5.9,7.8,8c1.9,0.9,4,1.4,6.1,1.5c-2.4-1-4.6-2.1-6.8-3.6
			C220.5,71.3,219,70,217.7,68.4z"/>
		<path class="st0" d="M86.9,217.9c4.8,1.5,10.4,0,14.7-2.4c6.6-3.6,11.5-9.9,16.3-15.4c5.2-6,10.2-12.2,14.9-18.7
			c-1.1,1.1-2.2,2.1-3.3,3.2c-0.5,0.5-1.2,0.4-1.7,0c-0.1-0.1-0.2-0.3-0.3-0.5c-1.2-7.9,7.8-12.7,11.3-18.8
			c3.1-5.6,1.1-11.5-5.4-12.7c-2.2-0.5-4.5-0.6-6.7-0.5c-1,0.6-1.9,1.1-2.8,1.6c-1.4,0.8-3.7,2.5-5.4,2.2c-0.4,0-0.8-0.4-0.8-0.8
			c-1.2-2.3-1.9-4.8-2.1-7.3c-0.8,0.3-1.7,0.6-2.4,1c-4.6,2.6-9,6.6-10.7,11.6c-1.6,4.5-5.8,8.6-8.9,12.1c-0.5,0.5-1.2,0.5-1.7,0
			c-1.9,3-3.9,6-5.9,9c-1.9,2.8-4.6,4.9-6.4,7.7c0,0.1-0.1,0.2-0.2,0.3c-5.2,6.3-8,14.6-1.7,21.1C80.4,213.4,83.1,216.7,86.9,217.9z
			 M108.8,204c-5.1,6.2-11.3,10-19.6,8c-1.5-0.4-0.9-2.7,0.6-2.3c7.4,1.8,12.7-1.9,17.2-7.4C108.1,201.1,109.8,202.8,108.8,204z
			 M115.1,198.9c-0.5,1.3-1.9,2.1-3.2,1.8c-1.3-0.4-2.1-1.6-2.2-2.9c-0.1-0.2-0.1-0.4,0-0.6c0.3-0.8,1-1.4,1.8-1.6
			c0.8-0.8,2.1-0.9,3-0.1C115.4,196.2,115.7,197.6,115.1,198.9L115.1,198.9z"/>
		<path class="st0" d="M121.8,132.4c-2.1,1.6-4.1,3.3-5.8,5.3c1.4,0.1,2.7,0.5,3.9,1.2c0.5,0,1,0,1.4,0.2c1.2,0.3,2.1,1.4,2.1,2.7
			c0.1,0.1,0.2,0.3,0.3,0.4c1.9-1.2,4.2-2,6.1-0.6c1.1,1,1.7,2.4,1.6,3.8c4.3-0.5,9.8,0.5,12,3.4c2.5,3.2,2.2,8.6,1.4,13.1
			c4-9,5.6-18.6-0.7-26.1C138.3,128.6,129.5,126.9,121.8,132.4z"/>
		<path class="st2" d="M113,197.3c-0.3,0.3-0.1,0.1-0.3,0.2s-0.3,0.2-0.5,0.3l-0.1,0.1c0.1,0.3,0.3,0.5,0.5,0.4
			c0.2-0.1,0.4-0.3,0.4-0.6C113,197.6,113,197.4,113,197.3L113,197.3z"/>
		<path class="st2" d="M111.9,198L111.9,198C111.9,198,111.9,198.1,111.9,198L111.9,198z"/>
		<path class="st3" d="M100.2,159.8c2.1-6.3,8.9-12.9,15.5-14.7c0-1.6,0.5-3.1,1.2-4.5c0.1-0.1,0.2-0.3,0.3-0.4
			c-0.6-0.2-1.2-0.3-1.9-0.3c-4.8-0.1-8.4,5.2-10.6,8.8c-2.1,3.4-3.8,7-6,10.4c-1.7,2.5-7.4,7.5-5.8,10.8
			C95.6,166.8,98.8,163.4,100.2,159.8z"/>
		<path class="st3" d="M130.1,180.8c3.3-3.1,7-6.4,9.3-10.1c1-1.7,1.8-3.6,2.3-5.6c-0.3,0.6-0.6,1.3-1,1.9c-1.5,2.3-3.1,4.5-5,6.5
			C133.6,175.7,130.9,177.9,130.1,180.8z"/>
		<path class="st3" d="M130.8,148.2c-0.1,0.3-0.3,0.6-0.5,0.9c-0.1,0.1-0.2,0.2-0.2,0.3c4.4,0.3,9,2.2,11,4.9c0.8,1,1.3,2.2,1.6,3.5
			c0-0.6,0-1.1,0.1-1.6C143.2,147.8,136.8,147,130.8,148.2z"/>
		<path class="st0" d="M16.9,151.9c0.8,2.5,1.4,5.4,3.4,7.2c2.4,2,5.1,3.5,8.1,4.3c9.3,2.5,18.5-2.1,26.6-6
			c13.1-6.4,27.3-13.4,38.6-23.2c-4,1.3-7.9,3-11.5,5.2c-0.6,0.3-1.3,0.1-1.6-0.5c-0.1-0.2-0.1-0.3-0.2-0.5c-0.1-3.3,2.1-5.2,5-6.5
			c3.9-1.8,15.9-5.2,10.8-10.5c-3.2,0.4-7-0.7-9.5-1.5c-0.3-0.1-0.6-0.4-0.7-0.7c-0.1-0.1-0.1-0.3-0.2-0.5c-0.4-3.1-0.2-6.3,0.5-9.4
			c0.2-1.2,0.6-2.4,1.1-3.5c0-0.1-0.1-0.2-0.1-0.2c-2.2-4-7.6-5.2-12-5.1c-5.7,3.1-11.1,6.6-16.5,10.2c-2.4,3.6-4.3,7.7-6.4,11.3
			c-0.1,0.2-0.3,0.5-0.4,0.7c-0.4,0.6-1.1,0.7-1.7,0.4c-0.5-0.3-0.7-1-0.4-1.6l0.3-0.4c0.5-1.5,0.6-3.1,0.3-4.7
			c-5.8,4.1-11.6,8.1-17.6,11.9c-3.2,2.1-6.3,4.4-9.1,7.1c-2.5,2.2-4.6,4.7-6.3,7.5C15.7,146,15.9,148.4,16.9,151.9z M60.5,148.2
			c-0.7,1.2-1.6,2.4-3.1,2.5c-1.2,0.1-2.4-0.5-3.1-1.6c-1.4-2.4,1.1-5.2,3.6-4.4c0.3,0,0.5,0.2,0.7,0.4l1.6,1.7
			C60.7,147.2,60.8,147.7,60.5,148.2z M51.8,153.1c-5.2,3.6-10.7,4-16.9,3.4c-5-0.5-9.3-1.8-11.4-6.7c-0.6-1.4,1.5-2.6,2.1-1.2
			c2.2,5.1,7.4,5.4,12.3,5.7c4.8,0.3,8.8-0.5,12.8-3.3C51.8,150.1,53,152.2,51.8,153.1z"/>
		<path class="st0" d="M89.1,94.9c1.3,0.6,2.4,1.4,3.3,2.5c1.9,2.6,2.6,5.8,1.9,8.9l0,0c0.5,0.6,0.8,1.3,0.9,2
			c0.1,0.5,0.1,1.1,0,1.6c-0.2,1.1-0.5,0.8,0,1.1c0.9,0.5,2.3,0.3,3.3,0.7c0.9,0.4,1.6,1,2.2,1.8c0.1,0.1,0.2,0.3,0.3,0.4
			c2.1,1,3.8,2.8,4.7,5c2.6-5.7,2-12.4-1.4-17.6C100.5,95.5,94.9,94.1,89.1,94.9z"/>
		<path class="st2" d="M57.3,147c-0.6,0-1.2,0.5-0.7,1s1,0.2,1.4-0.3L57.3,147z"/>
		<path class="st3" d="M52.9,116c2.6-4.9,5.3-9.9,9.3-13.4c4.3-3.8,10.3-5,15.9-4.5c4.4,0.4,9.3,2.3,11.5,6.3c0.9,0,1.9,0.1,2.7,0.5
			c0-0.4,0-0.7,0-1.1c-0.3-7.6-8.5-8.2-14.4-8.3c-5.6-0.1-11.3,0.8-16.1,3.8c-4.4,2.7-7.6,7-8.8,12C52.6,112.9,52.6,114.4,52.9,116z
			"/>
		<path class="st3" d="M101.9,117.5c-0.1-0.1-0.3-0.2-0.4-0.3c-0.1,0.5-0.3,1-0.6,1.5c-0.5,0.8-1.3,1.5-2.2,1.9
			c1.7,2.2,1.5,5.4-0.4,7.4c-2.7,3.1-11.5,4.1-14.5,7.6c1.9-1.1,3.9-2,5.9-2.9c3.3-1.3,7.2-1.9,10.3-3.8
			C104,126.5,105.7,120.9,101.9,117.5z"/>
		<path d="M133,16.8c9.5,2.5,19.4,1.3,29.1,1.5c4.5,0.1,9.3,1.6,13.7,1.4c5.1-0.2,10.3-0.6,15.4-1c4.7-0.6,9.3-2.1,13.5-4.4
			c-5.3-3.3-11.3-5.5-17.1-7.5C181,4.4,174.1,2.9,167,2.5c-6.9-0.4-13.7,0.8-20,3.6C141.6,8.6,137.4,12.8,133,16.8z"/>
		<path d="M130.2,18.5c9.7,3.1,19.8,2.1,29.8,2.2c2.3,0,4.6,0.1,6.9,0.3c2.5,0.2,5,1.1,7.5,1.4c2.3,0.2,5.3-0.6,7.6-0.7
			c3.1-0.2,6.1-0.3,9.2-0.5c6.2-0.7,11-2.8,16.5-5.6c0.6-0.3,0.8-1.1,0.4-1.7c-0.1-0.2-0.2-0.3-0.4-0.4c-6-4.2-13.3-6.8-20.1-9.1
			c-7-2.5-14.4-4-21.9-4.3c-6.4-0.2-12.8,1-18.7,3.5c-6.8,3-11.8,8.2-17.3,13.1c-0.5,0.5-0.5,1.2,0,1.7
			C129.9,18.4,130,18.5,130.2,18.5z M167,2.5c7.1,0.5,14,1.9,20.6,4.4c5.8,2,11.8,4.2,17.1,7.5c-4.2,2.3-8.7,3.8-13.5,4.4
			c-5.1,0.4-10.3,0.8-15.4,1c-4.4,0.2-9.2-1.3-13.7-1.4c-9.8-0.3-19.6,0.9-29.1-1.5c4.4-4,8.6-8.2,14.1-10.7
			C153.3,3.3,160.1,2,167,2.5z"/>
		<path class="st0" d="M183,25.2c5.7,4.2,8.7,10.7,11.2,17.5c1.6,4.4,3.4,8.9,6.8,12.3c3.9,3.8,9.3,5,14.6,5.5
			c-2.6-9-1.1-18.6-1.3-27.9c-0.2-5.3-1.3-9.8-5-13.6c-4.4,2.2-8.4,4.5-13.4,5.3C191.6,24.8,187.3,25.1,183,25.2z"/>
		<path d="M179.1,23c-1.1,0.1-1.8,1.7-0.6,2.2c10.5,5.3,11.6,16.1,16.5,25.4c4.6,8.7,12.7,11.7,22.2,12.2c0.7,0,1.2-0.5,1.2-1.2
			c0-0.1,0-0.2,0-0.3c-3.2-9.3-1.5-19.3-1.7-28.9c-0.3-6.2-1.7-11.5-6.3-15.9c-0.4-0.4-1-0.5-1.4-0.2c-4.5,2.2-8.6,4.7-13.7,5.5
			C190,22.7,184.5,22.6,179.1,23z M209.3,18.9c3.6,3.9,4.7,8.4,5,13.6c0.2,9.3-1.3,18.9,1.3,27.9c-5.3-0.5-10.7-1.7-14.6-5.5
			c-3.4-3.3-5.2-7.9-6.8-12.3c-2.5-6.8-5.5-13.2-11.2-17.5c4.3-0.1,8.6-0.4,12.9-1C200.9,23.3,204.9,21,209.3,18.9L209.3,18.9z"/>
		<path d="M151.7,38.2c6.8,0.9,13.6,1.5,20.4,2.7c3.3,0.5,6.4,1.6,9.4,3c2.5,1.4,5.1,2.4,7.9,3c0.8,0.1,1.9-0.5,1.5-1.5
			c-3-7.7-5.7-15.5-13.2-19.9c-8.9-4.6-19.1-3.7-28.9-3.6c-5.8,0.1-11.6,0-17.2-1.5c-1.6-0.4-3.4-1.5-5-1.1
			c-0.9,0.2-1.7,1.3-2.5,1.8c-1.4,1-2.9,1.8-4.5,2.5c-0.7,0.3-1.3,1.4-0.5,2C128.4,33.4,139.9,36.5,151.7,38.2z M131,22.8
			c4.7,1.1,9.5,1.6,14.3,1.5c10.4,0.1,21.6-1.7,31.2,3.3c6.2,3.7,8.8,10.1,11.3,16.5c-4.5-1.4-8.4-4.1-13.1-5.1
			c-6-1.3-12.3-1.9-18.4-2.6c-12.1-1.4-24.2-3.8-34-11.3c1.1-0.5,2.1-1.1,3.2-1.8C127.7,21.7,128.3,22.1,131,22.8z"/>
		<path d="M14.2,173c4.1,3.6,8.8,6.6,14.1,7.9c7.4,1.8,12.6-0.8,19.3-3.5c3.9-1.6,9.8-2.7,12.4,1.7c2.4,4.2,0.1,9.3-1.8,13.2
			c-2.6,5.5-4.4,10.6-3,16.6c2.7,12.7,14.7,20.9,27,22.7c14,2,30-1.9,43-7.4c6.1-2.5,11.8-6.1,16-11.2c4.1-4.9,6.6-10.8,8.8-16.6
			c2.5-6.6,4.6-13.5,8.2-19.6c3.7-6.1,8.9-11.2,15.1-14.8c12.2-7.3,26.3-10.1,39.6-14.8c11.5-4.1,23.3-9.8,30.9-19.7
			c11-14.3,8.3-34.8-6.1-45.8c-0.2-0.1-0.3-0.3-0.5-0.4c-1.8-1.2-2.8-2-4.9-2c-2.8,0-5.6,0.3-8.4-0.2c-6.4-1.1-9.6-5.8-12.9-10.8
			c-0.9-1.3-2-3.7-3.4-4.6c-1.7-1.2-4.9-1.3-6.8-2.2c-5.6-2.5-8.6-7.3-11-12.7c-0.2-0.4-0.6-0.6-1-0.6c-4.2-0.4-7.6-2.7-11.4-4.2
			c-3.9-1.4-8-2.3-12.2-2.8c-8.2-1.2-16.6-1.7-24.7-3.6c-7.7-1.8-15.3-4.7-21.5-9.7c-3.2-2.6-2.8-1.7-7.1-1.5
			c-4.7,0.2-9.3-1.2-13.7-2.8C86,19.3,68.7,12.1,56.3,20.5C48.3,26,44.2,38.9,34,41c-5.9,1.2-11.5,1.2-17.2,3.6
			c-3.8,1.5-7.1,3.8-9.9,6.8c-4.5,4.9-6.3,11.4-6.5,18C0.2,74,1.1,78.6,1.6,83.2c0.8,7.8,8.4,11.2,14.2,15.3c3.2,2.3,6.9,5,4.5,9.2
			c-2,3.4-4.3,6.7-6.4,10C8.6,126,2.1,135.4,0.3,145.3C-1.6,155.8,6.8,166.5,14.2,173z M3.7,142c2.1-5.5,4.7-10.7,7.8-15.7
			c2.7-4.5,5.5-8.9,8.3-13.2c1.5-2.3,4-5.1,3.9-8.1C23.6,97.8,12,93.8,7.6,89.8C3.5,86.1,3.4,80.2,3,75c-0.6-6.6,0-13.7,3.7-19.4
			c2.5-3.6,5.9-6.5,9.9-8.3c5.9-2.7,11.9-2.6,18.1-4C44.8,41.2,49,29.4,56.4,23.4c6.5-5.3,16.3-4.7,24.1-3.1
			c8.4,1.8,16,5.9,24.3,7.7c3.2,0.6,6.5,0.8,9.8,0.5c3.1-0.1,6.9,4,9.6,5.5c6.2,3.2,12.8,5.4,19.7,6.6c8.6,1.6,17.5,2,26.1,3.6
			c3.8,0.8,7.4,2.1,10.8,3.8c3,1.4,6.8,1.5,8.3,4.5c2.7,5.7,7.6,10.1,13.6,12.1c2.3,0.8,3.8,1.2,5.4,3.3c1.1,1.4,1.9,3,2.9,4.4
			c1.6,2.5,3.6,4.7,5.9,6.4c2.4,1.6,5.1,2.5,8,2.8c4,0.4,7.7-0.6,11.2,1.8c12.3,9.3,15.7,26.3,7.9,39.6
			c-7.3,12.2-21.5,18.5-34.4,22.8s-26.7,7.3-38.4,14.7s-17.3,18.1-21.8,30.8c-2.5,6.9-5,14-9.6,19.8c-5.1,6.3-12.3,10.1-19.9,12.7
			c-14.8,5.1-34.4,10-48.9,1.9c-6.5-3.6-11.9-9.9-13.5-17.2c-1.8-8.4,3.8-13.9,5.5-21.5c1-4.7,0-10.1-4.7-12.3
			c-6.1-2.9-12.2,1.3-17.8,3.4c-14.5,5.7-29.6-8.3-35.7-20.5C2.4,152.3,1.8,147.4,3.7,142z"/>
		<path d="M217.4,64.1c-1.2-0.8-3.7-0.2-5.1-0.2c-0.7,0-1.2,0.6-1.1,1.3c0,0.3,0.1,0.5,0.3,0.7c3.1,3.7,5.7,7.7,9.7,10.3
			c0.1,0.1,0.2,0.2,0.3,0.2c0.1,0.1,0.2,0.1,0.3,0.1c4,1.9,8.1,1.9,12.5,1.4c0.7,0,1.2-0.6,1.2-1.3c0-0.5-0.4-0.9-0.8-1.1
			c-4.7-1.9-9.7-3.7-13.5-7.2C219.8,67.3,218.9,65.1,217.4,64.1z M228.9,76c-2.1-0.1-4.2-0.6-6.1-1.5c-3.2-2-5.5-5-7.8-8
			c1.1,0.3,2,1,2.7,1.9c1.3,1.5,2.8,2.9,4.5,4C224.3,73.8,226.5,75,228.9,76z"/>
		<path d="M111.9,214.5c5.4-4.8,10.1-10.6,14.7-16.2c5.2-6.2,10.1-12.6,14.6-19.3c6.8-10.4,15.9-26.6,8.4-38.2
			c0.3,1,0.6,2.1,0.8,3.1c1.3,8.8-2.6,17.6-6.7,25.2c-4.6,8.4-10.4,16.1-16.3,23.6c-8.1,10.1-21.5,29.8-37,28.5
			C97.9,223.3,106.1,219.6,111.9,214.5z"/>
		<path d="M107.3,141.3c-5,5-7.4,11.9-11.4,17.6c-2.2,3.1-7.3,7.6-5.5,11.6c-1.1,1.7-2.1,3.3-3.2,5c-1.6,2.7-3.4,5.4-5.4,7.9
			c-1.4,1.6-3,2.8-4.2,4.7l-0.1,0.2c-4.2,5.1-7.5,11.8-5.2,18.5c0.9,2.7,2.6,4.4,4.6,6.4c1.3,1.3,2.6,2.6,3.9,3.8
			c2.8,3.7,7,6.2,11.6,6.9c8,1.2,15.5-2.5,21.3-7.7c7.4-6.6,13.7-14.9,19.8-22.6c5.7-7.3,11.2-14.8,15.4-23.1
			c3.7-7.2,7-15.4,5.6-23.6c-1.1-6-4.8-11.3-10.1-14.4c-2.1-2.1-4.6-3.8-7.4-4.9c-7.7-3-15.3,1.1-20.8,6.6c-1.2,1.3-2.4,2.6-3.6,3.9
			C110.6,138.6,108.8,139.8,107.3,141.3z M79.4,189.5c0.1-0.1,0.1-0.2,0.2-0.3c1.8-2.8,4.5-4.9,6.4-7.7c2-3,4-6,5.9-9
			c0.5,0.5,1.2,0.5,1.7,0c3.1-3.6,7.2-7.6,8.9-12.1c1.7-5.1,6.2-9,10.7-11.6c0.8-0.4,1.6-0.7,2.4-1c0.2,2.6,0.9,5.1,2.1,7.3
			c0.1,0.4,0.4,0.7,0.8,0.8c1.7,0.3,4-1.5,5.4-2.2c0.9-0.5,1.8-1,2.8-1.6c2.3-0.2,4.5,0,6.7,0.5c6.5,1.2,8.6,7.2,5.4,12.7
			c-3.5,6.1-12.5,10.9-11.3,18.8c0.2,0.6,0.9,1,1.5,0.8c0.2-0.1,0.4-0.2,0.5-0.3c1-1.1,2.1-2.1,3.3-3.2c-4.7,6.4-9.7,12.7-14.9,18.7
			c-4.8,5.6-9.8,11.9-16.3,15.4c-4.3,2.3-9.9,3.8-14.7,2.4c-3.8-1.2-6.5-4.4-9.2-7.2C71.4,204.1,74.2,195.8,79.4,189.5z M98.7,159.1
			c2.2-3.3,3.9-7,6-10.4c2.2-3.6,5.8-8.9,10.6-8.8c0.6,0,1.3,0.1,1.9,0.3c-0.1,0.1-0.2,0.2-0.3,0.4c-0.8,1.4-1.2,3-1.2,4.5
			c-6.6,1.8-13.3,8.4-15.5,14.7c-1.3,3.7-4.6,7-7.3,10C91.3,166.5,97,161.6,98.7,159.1z M128.1,148.1c-0.9,0.9-1.9,1.6-3.1,2.2
			c-1.3,0.8-2.6,1.5-3.9,2.2c-0.4,0.2-0.9,0.4-1.4,0.7c-0.1,0-0.2,0.1-0.3,0.1c-1.1-2.6-1.5-5.4-1.3-8.1c0.1-1.2,0.1-3,1.3-3.6
			c1.6-0.8,1.8,2.3,2.4,3.4c0.3,0.6,1.1,0.8,1.7,0.4c0.1,0,0.2-0.1,0.2-0.2c1.1-1,3.9-3.2,5.1-0.8
			C129.4,145.4,128.8,147.3,128.1,148.1L128.1,148.1z M142.7,157.7c-0.3-1.3-0.8-2.5-1.6-3.5c-2-2.7-6.6-4.6-11-4.9
			c0.1-0.1,0.2-0.2,0.2-0.3c0.2-0.3,0.4-0.6,0.5-0.9c5.9-1.2,12.3-0.3,11.9,8C142.8,156.7,142.7,157.2,142.7,157.7L142.7,157.7z
			 M141.7,165.1c-0.5,2-1.2,3.8-2.3,5.6c-2.4,3.8-6,7-9.3,10.1c0.8-2.9,3.5-5.1,5.6-7.3c1.9-2,3.5-4.2,5-6.5
			C141,166.4,141.4,165.7,141.7,165.1L141.7,165.1z M127.4,192.5c6-7.5,11.8-15.1,16.3-23.6c4.1-7.6,8-16.4,6.7-25.2
			c-0.2-1.1-0.4-2.1-0.8-3.1c7.5,11.6-1.6,27.8-8.4,38.2c-4.5,6.7-9.4,13.2-14.6,19.3c-4.6,5.6-9.2,11.4-14.7,16.2
			c-5.8,5.1-14,8.8-21.5,6.5C105.8,222.3,119.2,202.7,127.4,192.5L127.4,192.5z M144.2,135.7c6.2,7.5,4.7,17.1,0.7,26.1
			c0.9-4.6,1.2-9.9-1.4-13.1c-2.3-2.9-7.7-3.8-12-3.4c0.1-1.5-0.5-2.9-1.6-3.8c-1.8-1.4-4.2-0.6-6.1,0.6c-0.1-0.1-0.2-0.3-0.3-0.4
			c0-1.3-0.9-2.4-2.1-2.7c-0.5-0.1-0.9-0.2-1.4-0.2c-1.2-0.7-2.6-1.1-3.9-1.2c1.8-1.9,3.7-3.7,5.8-5.3
			C129.5,126.9,138.3,128.6,144.2,135.7L144.2,135.7z"/>
		<path class="st3" d="M123.8,145.1c-0.5,0.5-1.2,0.5-1.7,0c-0.1-0.1-0.1-0.1-0.2-0.2c-0.6-1.1-0.8-4.2-2.4-3.4
			c-1.2,0.6-1.2,2.4-1.3,3.6c-0.2,2.8,0.2,5.6,1.3,8.1c0.1,0,0.2-0.1,0.3-0.1c0.4-0.3,0.9-0.5,1.4-0.7c1.3-0.7,2.6-1.4,3.9-2.2
			c1.1-0.6,2.2-1.3,3.1-2.2c0.7-0.8,1.3-2.7,0.8-3.8C127.7,141.9,124.9,144.1,123.8,145.1z"/>
		<path d="M107.1,202.3c-4.5,5.5-9.8,9.2-17.2,7.4c-1.5-0.4-2.1,2-0.6,2.3c8.3,2,14.5-1.8,19.6-8
			C109.8,202.8,108.1,201.1,107.1,202.3z"/>
		<path d="M111.4,195.5c-0.8,0.3-1.4,0.9-1.8,1.6c-0.1,0.2-0.1,0.4,0,0.6c0.1,1.3,1,2.5,2.2,2.9c1.7,0.2,3.3-1,3.5-2.7
			c0.1-1-0.2-2-0.9-2.6C113.5,194.6,112.2,194.7,111.4,195.5z M111.9,198L111.9,198L111.9,198C111.8,198.1,111.8,198.1,111.9,198
			L111.9,198z M113,197.7c0,0.2-0.2,0.4-0.4,0.6c-0.2,0.1-0.4-0.2-0.5-0.4l0.1-0.1c0.2-0.1,0.3-0.2,0.5-0.3s0,0.1,0.3-0.2l0,0
			C113,197.4,113,197.6,113,197.7L113,197.7z"/>
		<path d="M99.7,131.8c-7.3,7.2-16,12.8-24.9,17.9c-9.7,5.6-20,11.6-30.7,15.1c-7,2.3-14.3,2.4-20.7-0.9c5.9,5.7,15.1,5.7,22.7,3.3
			s14.6-6.4,21.5-10.1c6.8-3.5,13.4-7.4,19.8-11.7c10.3-7,24.6-18.3,22.4-31.7c-0.4,3.6-1.6,7-3.6,10
			C105.8,127.4,103.2,130.2,99.7,131.8z"/>
		<path d="M17.6,159.5c1.6,3.8,4.4,6.9,7.9,8.9c7.4,4.2,16.2,3,23.8,0.1c8.8-3.4,17.2-8,25.4-12.6s16-9.4,23.1-15.4
			c6.1-5.1,12.4-11.6,14.2-19.6c1.2-5.9-0.2-12.1-3.8-17c-2.3-5.9-7.2-10.6-13.5-11.6c-3.7-0.5-7.5-0.1-11.1,1.2
			c-1.6-0.2-3.2-0.3-4.6-0.4c-5.7-0.4-11.3,0.6-16.5,2.9c-4.5,2.1-8.2,5.7-10.5,10.1c-0.9,1.8-1.6,3.8-1.9,5.8
			c-0.1,0.5-0.1,1.1,0,1.6c-6.1,4.3-12.2,8.6-18.5,12.6c-7,4.4-18.8,12.8-18.1,22.2C13.9,152.3,15.3,156.2,17.6,159.5z M23.8,135.2
			c2.8-2.6,5.9-5,9.2-7.1c6-3.8,11.8-7.9,17.6-11.9c0.3,1.6,0.2,3.2-0.3,4.7l-0.3,0.4c-0.2,0.6,0.1,1.3,0.7,1.5
			c0.4,0.2,0.9,0,1.3-0.3c0.2-0.2,0.3-0.5,0.4-0.7c2-3.7,4-7.7,6.4-11.3c5.4-3.6,10.8-7.1,16.5-10.2c4.4,0,9.8,1.1,12,5.1
			c0,0.1,0.1,0.2,0.1,0.2c-0.6,1.1-0.9,2.3-1.1,3.5c-0.7,3.1-0.9,6.3-0.5,9.4c0,0.2,0.1,0.3,0.2,0.5c0.1,0.3,0.4,0.6,0.7,0.7
			c2.5,0.8,6.3,1.9,9.5,1.5c5.2,5.3-6.9,8.7-10.8,10.5c-2.8,1.3-5.1,3.2-5,6.5c0,0.7,0.6,1.2,1.3,1.2c0.2,0,0.4-0.1,0.5-0.2
			c3.6-2.1,7.5-3.9,11.5-5.2c-11.3,9.8-25.5,16.8-38.6,23.2c-8.2,4-17.3,8.5-26.6,6c-3-0.8-5.8-2.2-8.1-4.3c-2-1.8-2.7-4.7-3.4-7.2
			c-1-3.5-1.2-5.9,0.6-9.2C19.2,139.8,21.3,137.3,23.8,135.2z M61.7,99.2c4.8-3,10.6-3.9,16.1-3.8c5.9,0.1,14.1,0.7,14.4,8.3
			c0,0.4,0,0.7,0,1.1c-0.9-0.4-1.8-0.6-2.7-0.5c-2.2-4-7.1-5.8-11.5-6.3c-5.6-0.6-11.6,0.6-15.9,4.5c-3.9,3.6-6.7,8.6-9.3,13.4
			c-0.2-1.6-0.2-3.1,0-4.7C54.1,106.2,57.3,101.9,61.7,99.2L61.7,99.2z M87.4,145.3c-6.4,4.2-13,8.1-19.8,11.7
			c-6.9,3.7-14.1,7.7-21.5,10.1s-16.8,2.4-22.7-3.3c6.5,3.2,13.7,3.2,20.7,0.9c10.7-3.5,21-9.5,30.7-15.1
			c8.8-5.1,17.6-10.7,24.9-17.9c3.5-1.6,6.1-4.3,6.6-8.2c1.9-3,3.1-6.4,3.6-10C112,127,97.8,138.4,87.4,145.3L87.4,145.3z
			 M67.1,102.3l-2.2,1.4C65.6,103.2,66.3,102.7,67.1,102.3z M89.8,132.7c-2,0.8-4,1.8-5.9,2.9c3-3.4,11.8-4.4,14.5-7.6
			c1.9-2.1,2.1-5.2,0.4-7.4c0.9-0.4,1.6-1.1,2.2-1.9c0.3-0.4,0.5-1,0.6-1.5c0.1,0.1,0.3,0.2,0.4,0.3c3.8,3.4,2,9-1.9,11.4
			C97,130.8,93.1,131.3,89.8,132.7z M92.7,118.6c-1.5-0.2-3.1-0.5-4.6-1c-0.1-1.4-0.2-2.8-0.1-4.2c0.1-1.5,0.2-4.3,1.1-5.7
			c1.7-2.4,3.7,0.6,3.8,2.3c0.1,0.9-0.3,1.9,0.2,2.7c1.5,2.1,6.3-0.2,5.5,3.7c-0.4,1.8-1.6,2.3-3.3,2.3
			C94.5,118.8,93.6,118.7,92.7,118.6z M104.4,101.5c3.4,5.2,4,11.9,1.4,17.6c-0.9-2.2-2.6-4-4.7-5c-0.1-0.1-0.2-0.3-0.3-0.4
			c-0.6-0.8-1.3-1.4-2.2-1.8c-1-0.4-2.4-0.2-3.3-0.7c-0.5-0.3-0.3,0,0-1.1c0.1-0.5,0.1-1.1,0-1.6c-0.1-0.7-0.4-1.4-0.9-2l0,0
			c0.7-3.1,0-6.4-1.9-8.9c-0.9-1.1-2-2-3.3-2.5C94.9,94.1,100.5,95.5,104.4,101.5z"/>
		<path d="M37.8,154.3c-4.9-0.3-10.1-0.6-12.3-5.7c-0.6-1.4-2.7-0.2-2.1,1.2c2.1,4.9,6.4,6.2,11.4,6.7c6.2,0.6,11.7,0.3,16.9-3.4
			c1.3-0.9,0.1-3-1.2-2.1C46.6,153.8,42.5,154.6,37.8,154.3z"/>
		<path d="M58.7,145.1c-0.2-0.2-0.4-0.3-0.7-0.4c-2.5-0.7-5,2.1-3.6,4.4c0.6,1.1,1.8,1.7,3.1,1.6c1.5-0.1,2.4-1.3,3.1-2.5
			c0.3-0.5,0.2-1.1-0.2-1.4L58.7,145.1z M56.6,148.1c-0.5-0.6,0.1-1.1,0.7-1l0.7,0.7C57.6,148.3,57.1,148.7,56.6,148.1z"/>
		<path class="st3" d="M98.7,116.5c0.8-3.9-4-1.6-5.5-3.7c-0.6-0.8-0.2-1.8-0.2-2.7c-0.2-1.7-2.1-4.7-3.8-2.3
			c-0.9,1.3-1,4.2-1.1,5.7c-0.1,1.4-0.1,2.8,0.1,4.2c1.5,0.5,3,0.8,4.6,1c0.9,0.1,1.8,0.2,2.8,0.2C97.2,118.7,98.4,118.3,98.7,116.5
			z"/>
		<path class="st3" d="M53.2,80.3c-0.6,1.2-1.4,2.4-2.4,3.3c-1,0.9-2.3,1.7-3.6,2.1c-1.4,0.5-2.9,0.8-4.5,0.8
			c-1.2,0-2.3-0.3-3.3-0.9c-1.3-0.7-2.4-1.7-3.2-2.9l3.1-6.1c0.2,0.4,0.5,0.8,0.9,1.1c0.4,0.4,0.8,0.7,1.3,1c0.5,0.3,1,0.5,1.5,0.7
			c0.4,0.2,0.9,0.3,1.3,0.3c0.3,0,0.7-0.1,1-0.2c0.4-0.1,0.7-0.3,1-0.5c0.3-0.2,0.5-0.5,0.7-0.8c0.2-0.3,0.3-0.6,0.3-1
			c0-0.7-0.2-1.3-0.7-1.9c-0.5-0.6-1-1.2-1.6-1.7c-0.6-0.5-1.3-1-2.1-1.6c-0.7-0.5-1.4-1.1-2.1-1.7c-0.6-0.6-1.2-1.3-1.6-2
			c-0.4-0.7-0.7-1.6-0.7-2.4c0-1.5,0.5-2.9,1.3-4.1c0.9-1.3,2-2.4,3.2-3.2c1.3-0.9,2.7-1.6,4.2-2.2c1.4-0.5,2.9-0.8,4.3-0.8
			c0.7,0,1.4,0.1,2.1,0.3c0.6,0.2,1.2,0.5,1.7,0.9c0.5,0.4,0.9,0.9,1.2,1.5c0.3,0.7,0.5,1.5,0.4,2.3c0,0.4,0,0.8-0.1,1.2
			c-0.1,0.4-0.1,0.8-0.2,1.3L50.8,65c0-0.2,0.1-0.4,0.1-0.7c0.2-0.8,0-1.7-0.4-2.5c-0.3-0.4-0.7-0.6-1.2-0.6c-0.3,0-0.6,0.1-0.8,0.3
			c-0.4,0.2-0.7,0.4-1,0.7c-0.3,0.3-0.6,0.6-0.8,0.9c-0.2,0.4-0.3,0.8-0.3,1.2c0,0.6,0.2,1.2,0.6,1.7c0.4,0.5,0.9,0.9,1.4,1.3
			c0.5,0.4,1.2,0.8,1.8,1.2c0.7,0.4,1.3,0.9,1.8,1.6c0.6,0.7,1.1,1.5,1.4,2.4c0.4,1.2,0.6,2.4,0.6,3.7C54.1,77.5,53.8,79,53.2,80.3z
			"/>
		<path class="st3" d="M72.8,80.6l-1.1,1.7c-0.7,1-1.5,2-2.5,2.7c-0.9,0.7-2,1.2-3.1,1.6c-1.1,0.3-2.2,0.5-3.3,0.5
			c-0.7,0-1.4-0.1-2-0.3c-0.7-0.2-1.3-0.5-1.8-0.9c-0.5-0.4-1-1-1.3-1.6c-0.4-0.7-0.5-1.5-0.5-2.3v-0.3c0-0.1,0-0.2,0-0.3
			c0.1-1.2,0.3-2.5,0.5-4.1s0.5-3.3,0.8-5.1s0.6-3.5,0.9-5.3s0.6-3.4,0.9-4.8s0.5-2.7,0.7-3.6s0.3-1.5,0.4-1.8l2.1-0.2
			c0.8-0.1,1.5-0.2,2.3-0.2l2.5-0.3c-0.7,3.4-1.4,6.4-1.9,9.2c-0.3,1.2-0.5,2.3-0.7,3.5s-0.5,2.2-0.7,3.2l-0.5,2.5
			c-0.2,0.7-0.3,1.3-0.4,1.7s-0.2,1-0.3,1.7c-0.1,0.6-0.2,1.2-0.2,1.8c0,0.4,0.1,0.8,0.3,1.1c0.2,0.3,0.5,0.4,0.8,0.4
			c0.5,0,0.9-0.2,1.2-0.6c0.3-0.4,0.6-0.9,0.8-1.4c0.2-0.5,0.4-1.1,0.5-1.6c0.1-0.5,0.2-1,0.3-1.3c0.2-0.8,0.4-1.7,0.6-2.7
			s0.4-2,0.6-3.1s0.4-2.2,0.6-3.3s0.4-2.2,0.6-3.3c0.5-2.5,0.9-5,1.4-7.6l6.3-0.4c-0.3,1.5-0.5,2.8-0.8,4s-0.5,2.6-0.7,4.1
			c-0.3,1.5-0.6,3.1-0.9,4.8s-0.7,3.3-1,4.9s-0.6,3.1-0.9,4.4C73,79.8,72.8,80.6,72.8,80.6z"/>
		<path class="st3" d="M74.8,86.1c1.2-3.7,2.4-7.3,3.5-10.9c0.5-1.5,0.9-3.1,1.5-4.7c0.5-1.7,1-3.3,1.5-4.9c0.5-1.6,1-3.2,1.4-4.7
			c0.4-1.5,0.8-2.9,1.2-4.2c1.5,0,2.9-0.1,4.3-0.3c1.4-0.2,2.8-0.3,4.4-0.5c-0.1,0.6-0.2,1.3-0.3,2.1s-0.2,1.6-0.3,2.4
			s-0.3,1.7-0.4,2.6c-0.1,0.9-0.3,2-0.5,3.4s-0.5,3.1-0.8,5.2h0.5c0.8-2.1,1.5-3.9,2-5.3c0.5-1.4,1-2.5,1.3-3.4s0.7-1.8,1-2.6
			s0.7-1.7,1-2.4s0.6-1.4,0.9-2c0.7,0,1.3-0.1,2-0.2l1.8-0.3l1.9-0.3c0.6-0.1,1.3-0.2,2.1-0.3c-0.3,1.6-0.5,3.3-0.8,5
			s-0.5,3.4-0.7,5.1c-0.2,1.7-0.4,3.3-0.6,5s-0.3,3.2-0.5,4.7c-0.3,3.5-0.6,6.8-0.9,10.1L94.1,86c0-0.1,0-0.5,0.1-1.1
			s0.1-1.4,0.2-2.3s0.2-1.9,0.3-3s0.3-2.2,0.4-3.3s0.3-2.1,0.4-3.2s0.3-1.9,0.4-2.6h-0.4c-0.4,1.2-0.8,2.4-1.3,3.7s-1,2.6-1.4,4
			l-1.4,3.9c-0.5,1.3-0.9,2.5-1.3,3.7c-1,0-1.8,0.1-2.5,0.1l-2.4,0.2l1.3-15.5h-0.6c-0.1,0.4-0.2,1-0.4,1.8s-0.5,1.8-0.8,2.9
			s-0.6,2.2-0.9,3.4l-0.9,3.3c-0.3,1-0.5,1.8-0.7,2.5s-0.3,1-0.3,1.1L74.8,86.1z"/>
		<path class="st3" d="M103.2,86.1c1.2-3.7,2.4-7.3,3.5-10.9c0.5-1.5,1-3.1,1.5-4.7s1-3.3,1.5-4.9s1-3.2,1.4-4.7s0.8-2.9,1.2-4.2
			c1.5,0,2.9-0.1,4.3-0.3c1.4-0.2,2.8-0.3,4.4-0.5l-0.3,2.1c-0.1,0.8-0.2,1.6-0.3,2.4c-0.1,0.8-0.3,1.7-0.4,2.6
			c-0.1,0.9-0.3,2-0.5,3.4s-0.5,3.1-0.8,5.2h0.6c0.8-2.1,1.5-3.9,2-5.3l1.3-3.4c0.3-0.9,0.7-1.8,1-2.6l1-2.4c0.3-0.8,0.6-1.4,0.9-2
			c0.7,0,1.3-0.1,2-0.2l1.8-0.3l1.9-0.3c0.6-0.1,1.3-0.2,2.1-0.3c-0.3,1.6-0.5,3.3-0.8,5s-0.5,3.4-0.7,5.1c-0.2,1.7-0.4,3.3-0.6,5
			s-0.4,3.2-0.5,4.7c-0.3,3.5-0.6,6.8-0.9,10.1l-7.3,1.3c0-0.1,0-0.5,0.1-1.1s0.1-1.4,0.2-2.3s0.2-1.9,0.3-3s0.3-2.2,0.4-3.3
			s0.3-2.1,0.4-3.2s0.3-1.9,0.4-2.6h-0.4c-0.4,1.2-0.8,2.4-1.3,3.7c-0.5,1.3-1,2.6-1.4,4l-1.4,3.9c-0.5,1.3-0.9,2.5-1.3,3.7
			c-1,0-1.8,0.1-2.5,0.1l-2.4,0.2l1.3-15.5h-0.6c-0.1,0.6-0.2,1.2-0.4,1.8c-0.2,0.8-0.5,1.8-0.8,2.9s-0.6,2.2-0.9,3.4
			s-0.6,2.3-0.9,3.3s-0.5,1.8-0.7,2.5s-0.3,1-0.3,1.1L103.2,86.1z"/>
		<path class="st3" d="M133.1,86.4l5.5-29.7l13.2-1.1c-0.2,0.6-0.4,1.2-0.5,1.9s-0.3,1.1-0.4,1.7s-0.2,1.1-0.3,1.5
			c-0.3,0-0.7,0-1.2,0.1h-1.6H146h-1.6l-1.5,7.5c0.9-0.1,1.7-0.1,2.4-0.1s1.2,0,1.9,0s1.1,0,1.4,0c-0.1,0.8-0.2,1.5-0.3,2.3
			s-0.2,1.5-0.4,2.3c-0.3,0-0.7,0.1-1.4,0.1l-1.9,0.1l-2.4,0.1l-1.4,7.7l6.1-1l-0.4,4.8L133.1,86.4z"/>
		<path class="st3" d="M149.7,86.4c0.8-3.7,1.5-7.3,2.2-10.9c0.3-1.5,0.5-3.1,0.8-4.7s0.6-3.3,0.9-4.8s0.5-3.1,0.8-4.6
			s0.4-2.8,0.6-4.1c1.7-0.5,3.4-0.9,5.1-1.1c1.8-0.2,3.6-0.3,5.5-0.3c0.9,0,1.8,0.1,2.7,0.4c0.6,0.2,1.2,0.6,1.7,1.1
			c0.4,0.5,0.7,1,0.9,1.6c0.2,0.7,0.3,1.3,0.3,2c0,1.1-0.2,2.2-0.6,3.3c-0.4,1.1-0.9,2.1-1.6,3c-0.7,1-1.4,1.8-2.3,2.6
			c-0.8,0.8-1.7,1.4-2.7,1.9c0.5,1.1,1,2.3,1.6,3.7s1.1,2.6,1.6,3.8c0.6,1.4,1.1,2.8,1.7,4.2l-6.5,2.3c-0.6-1.9-1.1-3.7-1.5-5.4
			c-0.2-0.7-0.4-1.4-0.6-2.2l-0.5-2c-0.2-0.7-0.3-1.2-0.4-1.7s-0.2-0.9-0.2-1.2l-0.5,0.2c-0.2,0.9-0.4,2-0.6,3.3s-0.4,2.5-0.6,3.7
			c-0.3,1.4-0.5,2.9-0.8,4.4L149.7,86.4z M159.5,68.3c0.7-0.1,1.3-0.3,1.9-0.7c0.8-0.4,1.5-0.9,2.2-1.4c0.7-0.5,1.3-1.1,1.8-1.7
			c0.4-0.4,0.7-1,0.8-1.5c0-0.3-0.1-0.5-0.3-0.7c-0.2-0.2-0.5-0.3-0.8-0.4c-0.4-0.1-0.8-0.2-1.1-0.2c-0.4,0-0.9,0-1.3,0h-0.9h-0.9
			L159.5,68.3z"/>
		<path class="st3" d="M136.6,113.7c-0.5,1-1.1,1.9-1.9,2.7c-0.8,0.8-1.8,1.5-2.8,2.1c-1.1,0.6-2.2,1.1-3.4,1.5
			c-1.2,0.4-2.4,0.7-3.6,0.9c-1.2,0.2-2.4,0.3-3.6,0.3c-1,0-1.9-0.1-2.9-0.3c1.3-4.8,2.4-9.8,3.2-14.7c0.8-4.9,1.6-9.9,2.3-14.9
			c1.4-0.3,3-0.6,4.5-0.8c1.6-0.2,3.2-0.4,4.9-0.4c0.7,0,1.5,0.1,2.2,0.3c0.8,0.2,1.5,0.5,2.1,0.9c0.7,0.5,1.2,1.1,1.6,1.8
			c0.5,0.8,0.7,1.8,0.6,2.8c0,1-0.2,2-0.5,3c-0.3,0.9-0.8,1.7-1.3,2.5c-0.5,0.7-1.1,1.4-1.9,1.9c-0.6,0.5-1.4,0.9-2.1,1.2
			c0.4,0.2,0.8,0.5,1.1,0.8c0.4,0.4,0.8,0.8,1.1,1.3c0.4,0.5,0.6,1.1,0.8,1.7c0.2,0.7,0.3,1.5,0.3,2.3
			C137.3,111.7,137,112.8,136.6,113.7z M127.4,108c-0.1,0.5-0.2,1-0.3,1.5s-0.2,1-0.3,1.5s-0.2,1.1-0.3,1.8c0.5-0.1,1.1-0.2,1.8-0.3
			c0.7-0.1,1.3-0.3,1.9-0.6c0.6-0.3,1.1-0.7,1.5-1.2c0.4-0.5,0.6-1.1,0.6-1.8c0-0.5-0.1-0.9-0.4-1.3c-0.3-0.3-0.6-0.6-1-0.8
			c-0.4-0.2-0.9-0.4-1.3-0.5c-0.4-0.1-0.9-0.1-1.3-0.1H128c-0.1,0-0.2,0-0.3,0C127.6,106.9,127.5,107.5,127.4,108z M129.4,97.2
			c-0.1,0.4-0.1,0.9-0.2,1.3s-0.2,0.9-0.3,1.4s-0.2,0.8-0.2,1.2c0.6-0.1,1.2-0.3,1.8-0.5c0.6-0.2,1.1-0.4,1.6-0.7
			c0.4-0.2,0.8-0.5,1.2-0.8c0.3-0.2,0.4-0.6,0.4-0.9c0-0.4-0.1-0.7-0.4-1c-0.3-0.3-0.6-0.5-1-0.6c-0.4-0.2-0.8-0.3-1.3-0.4
			c-0.4-0.1-0.8-0.1-1.1-0.1h-0.4C129.5,96.4,129.5,96.8,129.4,97.2L129.4,97.2z"/>
		<path class="st3" d="M138.3,121.1l5.5-29.7l13.2-1.1c-0.2,0.6-0.4,1.2-0.5,1.9s-0.3,1.1-0.4,1.7s-0.2,1.1-0.3,1.5
			c-0.3,0-0.7,0-1.2,0.1h-1.6h-1.8h-1.6l-1.5,7.5c0.9-0.1,1.7-0.1,2.4-0.1s1.2,0,1.9,0s1.1,0,1.4,0c-0.1,0.8-0.2,1.5-0.3,2.3
			s-0.2,1.5-0.4,2.3c-0.3,0-0.7,0-1.4,0.1l-1.9,0.1l-2.4,0.1l-1.4,7.7l6.1-1l-0.4,4.8L138.3,121.1z"/>
		<path class="st3" d="M166.9,120.6l-2.3,0.4c0.1-0.9,0.2-1.8,0.3-2.7s0.2-1.6,0.2-2.3s0.1-1.4,0.2-2h-3.6l-1.7,6
			c-0.6,0.1-1.3,0.2-2.2,0.3l-2.3,0.3l-2.6,0.3c1.1-3.7,2.2-7.3,3.3-11c0.4-1.5,0.9-3.1,1.4-4.7l1.5-4.9c0.5-1.6,1-3.2,1.4-4.7
			s0.8-2.9,1.2-4.1c1.9-0.1,3.8-0.3,5.8-0.5c2-0.2,3.9-0.5,5.8-0.8c-0.1,0.9-0.2,2-0.3,3.3s-0.2,2.8-0.3,4.3s-0.2,3.2-0.3,4.9
			s-0.2,3.4-0.3,5c-0.1,3.8-0.3,7.9-0.5,12.2c-0.8,0.1-1.7,0.3-2.5,0.3L166.9,120.6z M162.8,109.7h0.6h0.9h0.9c0.2,0,0.4,0,0.6-0.1
			c0-0.2,0-0.4,0.1-0.9s0.1-0.9,0.1-1.4s0.1-1.1,0.1-1.7s0.1-1.2,0.2-1.8c0.1-1.4,0.3-3,0.4-4.6l0.3-3.6h-0.6l-1,3.6L162.8,109.7z"
			/>
		<path class="st3" d="M188.9,116.1c-0.7,1-1.6,2-2.6,2.8c-0.8,0.7-1.7,1.3-2.7,1.7c-0.8,0.3-1.8,0.5-2.7,0.5
			c-0.8,0-1.6-0.2-2.4-0.6c-0.8-0.4-1.4-1-1.9-1.8c-0.6-0.9-1-1.9-1.3-2.9c-0.3-1.3-0.5-2.7-0.5-4c0-2.6,0.4-5.2,1.1-7.8
			c0.7-2.4,1.7-4.7,3-6.9c1.2-1.9,2.8-3.6,4.7-4.9c1.8-1.2,3.9-1.9,6-1.9c0.7,0,1.3,0.1,1.9,0.4c0.6,0.3,1.1,0.7,1.6,1.2
			c0.5,0.5,0.8,1.2,1.1,1.8c0.3,0.8,0.4,1.6,0.4,2.4v0.5c0,0.2,0,0.4,0,0.6l-5.5,1.5c-0.3-0.7-0.7-1-1.2-1c-0.6,0.1-1.1,0.3-1.4,0.8
			c-0.6,0.6-1,1.3-1.4,2c-0.5,0.9-1,1.8-1.4,2.8c-0.4,1-0.8,2-1.2,3.1s-0.6,2-0.8,2.9c-0.2,0.7-0.3,1.5-0.3,2.3
			c-0.1,0.6,0.1,1.3,0.4,1.9c0.2,0.3,0.6,0.5,0.9,0.5c0.4,0,0.7-0.1,1-0.3c0.4-0.2,0.8-0.6,1.1-0.9c0.3-0.4,0.7-0.8,0.9-1.3
			c0.3-0.4,0.5-0.9,0.6-1.4l4.8,1.9C190.5,113.5,189.8,114.8,188.9,116.1z"/>
		<path class="st3" d="M192.6,121.1c0.7-3.8,1.4-7.6,2.1-11.3c0.3-1.6,0.5-3.2,0.8-4.9s0.6-3.3,0.9-5s0.6-3.2,0.8-4.8s0.5-3,0.7-4.2
			l6.8-0.5c-0.5,2-0.9,4-1.4,6.1c-0.4,2.1-0.9,4.2-1.3,6.2l4.1-0.5c0.4-2,0.7-3.9,1-5.7s0.7-3.8,1.2-5.8c0.7-0.1,1.4-0.2,2.1-0.3
			l2.2-0.2l2.4-0.2c-0.4,1.3-0.8,2.6-1.1,4.1s-0.7,3-1,4.6s-0.7,3.2-1,4.9s-0.6,3.2-0.8,4.7c-0.6,3.5-1.2,7.2-1.7,10.9l-6.5,0.8
			c0.4-1.7,0.7-3.3,1-4.9c0.3-1.3,0.6-2.7,0.9-4.2s0.5-2.7,0.7-3.7l-4.1,0.4c-0.2,1.1-0.4,2.3-0.7,3.7s-0.5,2.7-0.7,4
			c-0.3,1.5-0.6,3-0.9,4.5L192.6,121.1z"/>
		<path class="st3" d="M220.9,119.3c-0.2,0.5-0.6,1-1,1.4c-0.5,0.4-1,0.8-1.7,1c-0.7,0.3-1.5,0.4-2.3,0.4c-0.5,0-1.1-0.1-1.6-0.3
			c-0.4-0.2-0.8-0.5-1.1-0.9c-0.3-0.4-0.5-0.8-0.7-1.3c-0.2-0.5-0.2-0.9-0.3-1.4c0-0.5,0.1-1,0.3-1.5c0.2-0.5,0.4-0.9,0.8-1.3
			c0.4-0.4,0.8-0.7,1.3-0.9c0.6-0.3,1.2-0.4,1.9-0.4c1.3-0.1,2.6,0.3,3.6,1.1c0.8,0.7,1.2,1.6,1.2,2.6
			C221.2,118.3,221.1,118.8,220.9,119.3z M218.4,111.2l-2.4,0.2c0.9-3.4,1.7-6.8,2.5-10.2c0.8-3.4,1.7-6.8,2.6-10.2
			c0.5-0.1,1.1-0.2,1.8-0.3l2.1-0.3c0.7-0.1,1.4-0.2,2-0.3s1.2-0.2,1.6-0.3c-1.5,3.5-2.9,7-4.1,10.6c-1.2,3.6-2.5,7.1-3.7,10.7
			C220,111.2,219.2,111.2,218.4,111.2L218.4,111.2z"/>
	</g>
</g>
</svg>
