<?xml version="1.0" encoding="utf-8"?>
<!-- Generator: Adobe Illustrator 23.0.1, SVG Export Plug-In . SVG Version: 6.00 Build 0)  -->
<svg version="1.1" id="Camada_1" xmlns="http://www.w3.org/2000/svg" xmlns:xlink="http://www.w3.org/1999/xlink" x="0px" y="0px"
	 viewBox="0 0 211.8 220.6" style="enable-background:new 0 0 211.8 220.6;" xml:space="preserve">
<style type="text/css">
	.st0{fill:#FFFFFF;}
	.st1{fill:#4D4D4D;}
	.st2{fill:#55DBFF;}
	.st3{fill:#FFE255;}
	.st4{fill:#FF8A66;}
</style>
<title>Ativo 6</title>
<g>
	<g id="object">
		<path class="st0" d="M111.2,217.9c5.8-0.6,12.6-1.1,17.9-4c1.3-0.6,2.5-1.6,3.4-2.8c0.4-0.5,1.3-2.1,1.1-2.8c-0.4-0.9-2.4-1-3-0.9
			c-2,0.4-3.8,1.7-6,2c-3.4,0.5-6.9-0.8-9.2-3.5c-1.5-1.6-2.1-2.6-4.5-2.7c-1.6,0-3.3,0.2-4.8,0.6c-1.7,0.3-3.4,0.2-5-0.1
			c-1.9-0.4-3.7-1.2-5.2-2.4c-2.2-1.6-3.4-4-6.3-4.8c-5.7-1.4-10,4.7-14.8,6.3c-4.2,1.4-8.7,0.5-12.9-0.6c-2,3.1,2.4,5.3,4.7,6.7
			c2.5,1.5,5.2,2.9,7.8,4.2c6,2.7,12.3,3.4,18.7,4.3C99.1,218.4,105.2,218.6,111.2,217.9z"/>
		<path class="st1" d="M54.7,160.8c1.4,1.3,2.3,2.6,4.3,3.2c1.8,0.4,3.7,0.5,5.5,0.4c3.3-0.1,6.6-0.6,9.8-1.4
			c3.9-0.9,7.7-2.3,11.5-3.5c0.7-1.9,1.3-3.7,2-5.6c-3.8-0.7-7.5-1.8-11.1-3.3c-6.6-2.5-12.7-4-19.6-1.9c-5.7,1.7-10.8,4.9-16.7,6.3
			c-10.1,2.3-20.4,0-29.4-4.9c2.7,5.9,5.9,11.5,9.5,16.9C30.2,164.6,45.4,152.5,54.7,160.8z"/>
		<path class="st1" d="M148.6,140.3l-0.5-0.1c-1,10.4-4.1,20.5-7.8,30.3h0.1c5.8-1.1,10.8-4.5,16.3-6.2c11.4-3.6,22.2,1.8,33,5
			c1.5-2.1,3-4.3,4.4-6.5c-2.8-0.4-5.6-0.9-8.4-1.7c-6.4-2-12.4-5.2-17.6-9.5C162.3,146.9,156,142.2,148.6,140.3z"/>
		<path class="st2" d="M60.7,200.4c0.3-0.3,0.7-0.4,1.1-0.3c4.7,1.2,9.8,2.3,14.3-0.1c1.1-0.6,2.2-1.4,3.3-2.1
			c-0.8-10.8,1-21.6,4.2-31.9c-5.3,1.8-10.8,3-16.3,3.8c-4,0.4-9.3,1-12.7-1.6c-1.2-0.9-1.9-2.1-3.2-2.9c-1.5-0.9-3.3-1.3-5.1-1.2
			c-3.4,0.2-6.6,1-9.6,2.5c-4.5,2-8.8,4.2-13.5,5.6c8.2,10.8,18.5,19.9,30.1,26.8c2,1.2,4.1,2.3,6.2,3.4
			C59.8,201.6,60.3,201,60.7,200.4z"/>
		<path class="st2" d="M145.7,174.8c-2.5,0.9-5.1,1.5-7.7,1.7c-3.2,8.3-7.4,16.1-12.6,23.3c-1.5,2.1-3.2,4.1-4.9,6
			c-0.2,0.2-0.4,0.5-0.7,0.8c2.1,1,4.6,1.2,6.8,0.3c1.9-0.6,4.1-2.3,6.2-2.1c2.4,0.3,3,2.1,2.8,4.1c20.2-6.2,38.1-18.3,51.4-34.8
			c-0.8-0.2-1.5-0.5-2.3-0.7c-6.6-2.2-13.6-5.3-20.7-5C157.4,168.7,151.8,172.5,145.7,174.8z"/>
		<path d="M146.3,133.4c0-5.7-0.5-11.3-1-16.9c-0.2-3.1-0.5-6.2-0.8-9.3c-0.2-2.4,0.1-6.4-1.1-8.6c1,4.7,0.9,10,1.3,14.6
			c0.5,6.5,1.2,13.1,1.1,19.6c-0.1,12.6-3.8,24.8-8.2,36.6c-3.8,10.2-8.3,20.3-14.8,29.1c-1.5,2.1-3.2,4.1-4.9,6l-0.4,0.5l0.5,0.4
			c0.3-0.4,0.7-0.9,0.9-1.1c0.8-0.9,1.5-1.7,2.3-2.6c1.6-2,3.2-4.1,4.6-6.3c5.6-8.5,9.7-17.9,13.1-27.4
			C143,156.8,146.3,145.4,146.3,133.4z"/>
		<path d="M134.2,212.6c0.3-0.4,0.6-0.9,0.8-1.3c7.7-2.2,15.1-5.2,22.1-9.1c12.6-7,23.6-16.5,32.5-27.8c0.4-0.4,0.4-1.1,0-1.5
			c-0.1-0.1-0.3-0.2-0.4-0.2c-1.3-0.4-2.5-0.8-3.8-1.2c-5.5-1.9-11-4.1-16.8-4.8c-5.1-0.6-10.2,0.2-14.9,2.4
			c-4.9,2.2-9.5,4.4-14.7,5.2c0.2-0.5,0.4-1.1,0.6-1.6c3.3-0.5,6.5-1.5,9.5-2.9c6.9-3.1,13.2-5.6,20.9-4.2c6.9,1.2,13.3,4.1,20,6
			c0.5,0.1,0.9-0.1,1.2-0.5c2-2.8,3.9-5.6,5.7-8.5c0.3-0.5,0.1-1.2-0.4-1.5c-0.2-0.1-0.3-0.1-0.5-0.1c-3.2-0.4-6.4-1-9.6-1.8
			c-7-2.1-12.4-5.6-18.1-10.1c-4.3-3.6-9-6.5-14-8.9c-1.9-0.8-3.9-1.5-6-1.9c0-0.7,0.1-1.3,0.1-2c3.5,0.9,6.9,2.2,10,4
			c6.4,3.5,11.5,8.6,17.6,12.4c6.4,3.9,13.7,5.5,21.1,6.3c0.4,0,0.7-0.2,0.9-0.5c29-50.8,11.3-115.5-39.5-144.5
			C133.7-0.2,104.4-3.8,77,4c-25.5,7.3-47.3,23.8-61.3,46.3C7.9,63,2.9,77.2,0.9,91.9c-1.7,13.3-1,26.8,2.3,39.8
			c0.7,2.7,1.4,5.3,2.3,7.9c0.4,1.2,0.6,3.1,1.9,3.7c10.3,7,23.3,10.9,35.5,6.8c7-2.4,13.1-6.5,20.7-6.7c7.5-0.1,14,3.7,21.1,5.6
			c1.5,0.4,3.1,0.7,4.7,0.9l-0.8,2c-2-0.2-3.9-0.6-5.8-1.3c-5.4-1.7-10.6-4.4-16.3-5c-5.4-0.6-10.5,1.1-15.4,3.1
			c-6.8,2.9-13,5.4-20.5,5c-7.5-0.5-14.8-2.9-21.1-7c-0.7-0.4-1.9,0.3-1.6,1.2c3,7.3,6.8,14.3,11.4,20.8c0.2,0.4,0.7,0.6,1.2,0.5
			c5.8-1.1,10.9-4.1,16.3-6.3c3-1.3,6.2-2.2,9.4-2.5c1.7-0.1,3.4,0.1,5,0.6c2.2,0.8,2.8,2.2,4.4,3.5c3.5,2.9,9.1,2.2,13.3,1.7
			c5.7-0.7,10.9-2.5,16.3-4.2l-0.2,0.6c-0.1,0.3-0.2,0.6-0.3,0.9c-4,1.2-8.1,2.5-12.3,3.4c-3.1,0.6-6.2,1-9.4,1.1
			c-3.3,0.3-6.6-1-8.9-3.5c-3.5-3.5-9.4-2.8-13.7-1.5c-6.6,2-12.4,6-19.1,7.6c-0.6,0.2-0.9,0.7-0.7,1.3c0,0.1,0.1,0.2,0.1,0.2
			c10.1,13.7,23.3,24.7,38.5,32.3c0.1,1.6,1,3.1,2.3,3.9c5,3.7,10.5,6.6,16.4,8.5c6.5,2.2,13.7,2.7,20.4,3.5s13.7-0.1,20.3-1.2
			C123.7,218.3,130.7,217.1,134.2,212.6z M66.6,209c-2.3-1.4-6.7-3.6-4.7-6.7c4.2,1,8.7,1.9,12.9,0.6c4.8-1.6,9.1-7.7,14.8-6.3
			c2.9,0.7,4.1,3.1,6.3,4.8c1.6,1.1,3.3,1.9,5.2,2.4c1.6,0.3,3.3,0.4,5,0.1c1.6-0.4,3.2-0.6,4.8-0.6c2.4,0.1,3,1.1,4.5,2.7
			c2.2,2.7,5.7,4,9.2,3.5c2.2-0.3,3.9-1.6,6-2c0.6-0.1,2.7,0,3,0.9c0.2,0.6-0.7,2.2-1.1,2.8c-0.9,1.2-2.1,2.2-3.4,2.8
			c-5.3,2.8-12.1,3.4-17.9,4c-6,0.6-12.1,0.5-18.1-0.4c-6.4-0.9-12.7-1.6-18.7-4.3C71.7,211.9,69.1,210.5,66.6,209z M23.2,172
			c4.7-1.4,9-3.6,13.5-5.6c3-1.4,6.3-2.3,9.6-2.4c1.8-0.1,3.6,0.3,5.1,1.2c1.3,0.8,2,2,3.2,2.9c3.5,2.6,8.7,2.1,12.7,1.6
			c5.6-0.7,11-2,16.3-3.8c-3.2,10.4-5,21.1-4.2,31.9c-1.1,0.8-2.1,1.4-3.3,2.1c-4.5,2.4-9.6,1.3-14.3,0.1c-0.4-0.2-0.8-0.1-1.1,0.3
			c-0.5,0.6-0.9,1.2-1.2,1.9c-2.1-1.1-4.2-2.2-6.2-3.4C41.6,192,31.4,182.9,23.2,172L23.2,172z M20.5,167c-3.7-5.3-6.8-11-9.5-16.9
			c9,4.9,19.3,7.2,29.4,4.9c5.8-1.4,11-4.6,16.7-6.3c6.9-2.1,13.1-0.6,19.6,1.9c3.6,1.5,7.3,2.6,11.1,3.3c-0.7,1.9-1.3,3.7-2,5.6
			c-3.8,1.2-7.6,2.6-11.5,3.5c-3.2,0.8-6.5,1.3-9.8,1.4c-1.8,0.1-3.7,0-5.5-0.4c-1.9-0.6-2.8-1.9-4.3-3.2
			C45.4,152.5,30.2,164.6,20.5,167z M98.3,135.1c6.6-13.4,16.6-24.8,29.1-33.1c2-1.3,4.1-2.6,6.2-3.8c2.2-1.2,5.6-3.9,7.3-1
			c1.2,2.1,0.9,6.2,1.1,8.6c0.3,3.1,0.5,6.2,0.8,9.3c0.4,5.6,1,11.3,1,16.9c0,11.9-3.3,23.4-7.3,34.5c-3.4,9.6-7.5,19-13.1,27.4
			c-1.4,2.2-3,4.3-4.6,6.3c-0.7,0.9-1.5,1.8-2.3,2.6c-0.1,0.1-0.3,0.3-0.4,0.5c-1.3-1.4-2.7-2.6-4.8-2.7c-3.7-0.2-6.8,1.9-10.6,0.7
			c-2.1-0.6-3.9-1.8-5.4-3.4c-0.9-1-1.5-2.2-2.7-2.8c-2.3-1.2-5.6-0.9-8.1-0.2c-1.1,0.3-2.2,0.8-3.1,1.5
			C80.2,175.4,89.1,153.7,98.3,135.1L98.3,135.1z M59,141.7c-6,1.1-11,4.4-16.7,6.3c-5.9,1.9-12.2,2.1-18.3,0.7
			c-5.5-1.4-10.7-3.7-15.3-7c-0.1-0.1-0.2-0.1-0.3-0.2c-1.1-0.5-2.2-6.7-2.6-7.9c-0.8-2.9-1.4-5.7-2-8.6
			C-6.7,68.6,30.5,14.4,86.9,3.8c15.4-2.9,31.3-2.2,46.5,1.9c55.3,15.2,87.9,72.3,72.7,127.6c-0.6,2.4-1.4,4.7-2.2,7
			c-1,2.9-2.2,5.8-3.4,8.6c-0.5,1.1-1,2.1-1.5,3.2s-1.3,3.5-2.2,4.2c-1.7,1.2-7.3-0.7-9.2-1.2c-3.1-0.8-6-1.9-8.8-3.4
			c-5.1-2.7-9.3-6.8-14-10.1c-4-2.8-8.4-5.1-13-6.7c-1.1-0.3-2.1-0.6-3.2-0.9c0-6.5-0.6-13.1-1.1-19.6c-0.5-5.7-0.2-12.3-2.2-17.7
			c-0.7-1.9-1.8-2.4-3-2.3c-1.5-2.4-4-0.9-6.6,0.4c-4.8,2.4-9.4,5.3-13.6,8.5c-8.1,6.2-15.1,13.7-20.6,22.3
			c-4.4,7-8.1,14.4-11.1,22.1c-5.5-0.6-10.7-2.9-16-4.7C69.3,141.4,64.1,140.9,59,141.7z M185.8,161.1c2.8,0.7,5.6,1.3,8.4,1.7
			c-1.4,2.2-2.8,4.4-4.4,6.5c-10.8-3.2-21.6-8.7-33-5c-5.6,1.8-10.6,5.1-16.3,6.2h-0.1c3.6-9.8,6.8-19.9,7.8-30.3l0.5,0.1
			c7.4,1.9,13.7,6.6,19.5,11.2C173.3,155.8,179.3,159.1,185.8,161.1L185.8,161.1z M139,168c-3.4,9.6-7.5,19-13.1,27.4
			c-1.4,2.2-3,4.3-4.6,6.3c-0.7,0.9-1.5,1.8-2.3,2.6c-0.3,0.3-0.6,0.7-0.9,1.1l-0.5-0.4l0.4-0.5c1.7-1.9,3.4-3.9,4.9-6
			c6.5-8.8,11-18.9,14.8-29.1c4.4-11.8,8.1-23.9,8.2-36.6c0-6.6-0.6-13.1-1.1-19.6c-0.4-4.6-0.3-9.9-1.3-14.6
			c1.2,2.1,0.9,6.1,1.1,8.6c0.3,3.1,0.5,6.2,0.8,9.3c0.4,5.6,1,11.3,1,16.9C146.3,145.4,143,156.8,139,168z M184.8,173.5
			c0.8,0.3,1.5,0.5,2.3,0.7c-13.3,16.5-31.2,28.6-51.4,34.7c0.2-1.9-0.5-3.8-2.8-4.1c-2.1-0.3-4.3,1.5-6.2,2.1
			c-2.2,0.8-4.7,0.7-6.8-0.3c0.3-0.3,0.5-0.6,0.7-0.8c1.7-1.9,3.4-3.9,4.9-6c5.1-7.2,9.4-15.1,12.6-23.3c2.6-0.2,5.2-0.8,7.7-1.7
			c6.1-2.2,11.6-6.1,18.3-6.3C171.2,168.2,178.1,171.2,184.8,173.5L184.8,173.5z"/>
		<path class="st3" d="M142.8,115.2c-0.2-3.1-0.5-6.2-0.8-9.3c-0.2-2.4,0.1-6.5-1.1-8.6c-1.7-2.9-5.1-0.2-7.3,1s-4.2,2.4-6.2,3.8
			c-12.4,8.3-22.5,19.7-29.1,33.1c-9.3,18.6-18.2,40.2-16.9,61.4c1-0.6,2-1.1,3.1-1.5c2.4-0.7,5.7-1.1,8.1,0.2
			c1.2,0.6,1.8,1.8,2.7,2.8c1.4,1.6,3.3,2.8,5.4,3.4c3.8,1.1,6.9-0.9,10.6-0.7c2.1,0.1,3.5,1.3,4.8,2.7c0.2-0.2,0.3-0.4,0.4-0.5
			c0.8-0.9,1.5-1.7,2.3-2.6c1.6-2,3.2-4.1,4.6-6.3c5.6-8.5,9.7-17.9,13.1-27.4c4-11.1,7.3-22.6,7.3-34.5
			C143.8,126.5,143.2,120.9,142.8,115.2z"/>
		<path class="st4" d="M206.1,78.4C191,23.1,134-9.5,78.6,5.5C33.4,17.8,2,59,2.1,105.9c0,6.4,0.6,12.8,1.8,19.1
			c0.6,2.9,1.2,5.8,2,8.6c0.3,1.2,1.5,7.4,2.5,7.9c0.1,0,0.2,0.1,0.3,0.2c4.6,3.3,9.8,5.6,15.3,7c6,1.4,12.4,1.2,18.3-0.7
			c5.7-1.9,10.7-5.3,16.7-6.3c5.1-0.8,10.3-0.4,15.2,1.4c5.2,1.8,10.4,4.1,16,4.7c3-7.7,6.7-15.1,11.1-22.1
			c5.5-8.6,12.5-16.1,20.6-22.3c4.3-3.3,8.8-6.1,13.6-8.5c2.6-1.3,5.1-2.8,6.6-0.4c1.3-0.2,2.3,0.3,3,2.3c2,5.4,1.7,12,2.2,17.7
			c0.5,6.5,1.2,13,1.1,19.6c1.1,0.2,2.2,0.5,3.2,0.9c4.6,1.6,9,3.8,13,6.7c4.7,3.2,8.9,7.3,14,10.1c2.8,1.5,5.8,2.6,8.8,3.4
			c1.9,0.5,7.5,2.4,9.2,1.2c0.9-0.6,1.7-3.2,2.2-4.2s1-2.1,1.5-3.2c1.3-2.8,2.4-5.6,3.4-8.6C210.8,120.4,211.6,98.8,206.1,78.4z"/>
		<path d="M98.6,198.8c3.9-15.1,5.5-30.4,11.7-44.9c2.3-5.4,4.8-10.8,7.4-16.1c2.3-4.6,4.7-10.1,8.3-13.8c1.2-1.2-0.7-3.1-1.9-1.9
			c-3.6,3.7-6,8.9-8.3,13.4c-2.8,5.6-5.4,11.3-7.9,17.1c-6.3,14.7-8.1,30.2-12,45.5c-0.1,0.7,0.3,1.4,1,1.6
			C97.7,199.7,98.3,199.4,98.6,198.8L98.6,198.8z"/>
		<path d="M112.2,52c0.2,0.2,0.3,0.4,0.3,0.7c0,0.1,0,0.3-0.1,0.4l-0.7,2.4c-0.1,0.5-0.4,0.9-0.7,1.2c-0.4,0.3-0.9,0.4-1.4,0.3h-9.4
			c-0.2,0-0.5,0-0.7-0.1c-0.1-0.1-0.2-0.2-0.2-0.4c0-0.1,0-0.2,0.1-0.3c0-0.1,0.1-0.2,0.2-0.3c0.1-0.1,0.2-0.2,0.3-0.2
			c0.2-0.1,0.4-0.3,0.5-0.4c0.2-0.2,0.3-0.4,0.3-0.7l2.5-8.6c0.1-0.2,0.1-0.3,0.1-0.5c0-0.1,0-0.3-0.1-0.4c-0.1-0.1-0.1-0.2-0.2-0.4
			c-0.1-0.1-0.2-0.3-0.2-0.4c0-0.1,0-0.1,0-0.2c0.1-0.2,0.2-0.3,0.3-0.4c0.3-0.1,0.6-0.1,0.8-0.1h4.7c0.2,0,0.4,0,0.7,0.1
			c0.1,0.1,0.2,0.2,0.2,0.4c0,0.1,0,0.2-0.1,0.3c0,0.1-0.1,0.2-0.2,0.3c-0.1,0.1-0.1,0.1-0.2,0.2l-0.1,0.1c-0.2,0.1-0.4,0.2-0.5,0.4
			c-0.2,0.2-0.3,0.4-0.3,0.7l-2.6,9.1h1.2c0.3,0,0.5,0,0.8-0.2c0.3-0.1,0.5-0.4,0.7-0.6l1.4-1.7c0.2-0.3,0.5-0.5,0.7-0.6
			c0.3-0.1,0.6-0.2,0.8-0.2C111.6,51.8,111.9,51.9,112.2,52z"/>
		<path d="M123.4,47.1c0.7,0.5,1.1,1.2,1.1,2.1c0,1.1-0.7,2.2-1.8,2.6c-1,0.4-2.1,0.6-3.3,0.6c-0.6,0-1.2,0-1.8-0.1
			c-0.1,0.6,0.1,1.1,0.6,1.5c0.5,0.3,1,0.5,1.6,0.4c0.3,0,0.6,0,0.9-0.1l1.1-0.3c0.2-0.1,0.5-0.2,0.8-0.2c0.1,0,0.2,0.1,0.2,0.3
			c0,0.5-0.2,1.1-0.5,1.5c-0.4,0.6-1,1-1.6,1.3c-0.8,0.4-1.7,0.6-2.6,0.5c-1.3,0.1-2.6-0.3-3.7-1.1c-1-0.8-1.5-2-1.4-3.3
			c0-0.5,0.1-0.9,0.2-1.4c0.2-1.5,1-2.8,2.2-3.7c1.2-0.9,2.7-1.3,4.1-1.3C121,46.1,122.3,46.4,123.4,47.1z M118.2,51
			c0.5,0,1.1-0.3,1.3-0.8c0.3-0.5,0.4-1.1,0.4-1.8c0-0.4-0.1-0.6-0.3-0.6s-0.3,0.1-0.5,0.3c-0.2,0.3-0.4,0.7-0.6,1.1
			c-0.2,0.5-0.4,1.1-0.5,1.7C118,51,118.1,51,118.2,51z"/>
		<path d="M133.8,46.8c0.1,0.1,0.2,0.3,0.2,0.5c0,0.1,0,0.2,0,0.3c-0.1,0.6-0.6,0.9-1.2,0.9h-1.2l-1.5,5c-0.1,0.2-0.1,0.4-0.1,0.6
			c0,0.2,0.1,0.4,0.2,0.5c0.2,0.1,0.4,0.1,0.6,0.1c0.3,0,0.5,0,0.8-0.1c0.1,0,0.3-0.1,0.4-0.1c0.1,0,0.2,0,0.2,0.1
			c0,0.1,0.1,0.1,0.1,0.2c0,0.3-0.2,0.6-0.6,1c-0.5,0.4-1,0.8-1.7,1c-0.7,0.3-1.5,0.4-2.3,0.4c-0.8,0-1.5-0.2-2.2-0.6
			c-0.5-0.4-0.9-1-0.8-1.7c0-0.3,0-0.7,0.2-1l1.3-4c0.1-0.2,0.1-0.4,0.1-0.5c0-0.2-0.1-0.5-0.2-0.7c-0.2-0.2-0.3-0.4-0.5-0.6
			c-0.2-0.1-0.3-0.3-0.4-0.5c-0.1-0.1-0.1-0.3-0.1-0.5c0-0.2,0.2-0.3,0.3-0.4c0.3-0.1,0.5-0.2,0.8-0.1h1.1l1.3-1.3
			c0.4-0.4,0.8-0.7,1.2-0.9c0.5-0.2,0.9-0.3,1.4-0.3c0.8,0,1.3,0.3,1.3,1c0,0.2,0,0.4-0.1,0.6l-0.3,0.9h1.1
			C133.4,46.6,133.6,46.7,133.8,46.8z"/>
		<path d="M139,43.7c0.4,0.5,0.7,1.1,0.6,1.8c0,0.3,0,0.6-0.1,0.9c-0.1,0.6-0.4,1.1-0.8,1.6c-0.4,0.4-0.8,0.8-1.3,1
			c-0.5,0.2-0.9,0.3-1.4,0.3c-0.6,0-0.8-0.2-0.8-0.5c0-0.1,0-0.1,0-0.2c0-0.1,0.1-0.3,0.3-0.4c0.2-0.1,0.4-0.3,0.6-0.4
			c0.2-0.2,0.4-0.3,0.6-0.5c0.1-0.1,0.2-0.3,0.2-0.5c0-0.1,0-0.3-0.1-0.4c-0.1-0.2-0.2-0.3-0.4-0.5c-0.2-0.3-0.4-0.5-0.5-0.7
			c-0.1-0.2-0.2-0.4-0.2-0.7c0-0.1,0-0.3,0.1-0.4c0.1-0.3,0.3-0.6,0.6-0.8c0.3-0.2,0.7-0.3,1.1-0.3C138,43,138.6,43.3,139,43.7z"/>
		<path d="M148.4,46.5c0.7,0.1,1.3,0.4,1.9,0.8c0.4,0.3,0.6,0.7,0.6,1.2c0,0.4-0.2,0.9-0.6,1.2c-0.4,0.3-1,0.5-1.5,0.4
			c-0.6,0-1.2-0.2-1.7-0.5c-0.4-0.3-0.7-0.8-0.7-1.3c0-0.2,0-0.3,0.1-0.5c-0.2-0.1-0.4-0.1-0.6-0.1c-0.3,0-0.6,0.1-0.8,0.2
			c-0.2,0.2-0.3,0.4-0.3,0.7c0,0.4,0.2,0.7,0.5,0.9c0.5,0.3,1.1,0.6,1.7,0.9c0.7,0.3,1.2,0.6,1.7,0.8c0.4,0.2,0.8,0.6,1.1,0.9
			c0.3,0.4,0.5,0.8,0.5,1.3c0,0.2,0,0.4-0.1,0.6c-0.2,0.9-0.9,1.7-1.8,2.1c-1.2,0.6-2.5,0.8-3.9,0.8c-1.5,0.1-2.9-0.2-4.3-0.7
			c-0.9-0.3-1.5-1.1-1.6-2c0-0.5,0.2-1,0.5-1.3c0.4-0.3,0.9-0.5,1.4-0.4c0.6,0,1.2,0.2,1.7,0.6c0.5,0.4,0.7,1,0.7,1.6
			c0,0.2,0,0.4-0.1,0.5c0.3,0.1,0.6,0.1,0.9,0.1c0.3,0,0.6-0.1,0.9-0.3c0.2-0.2,0.4-0.5,0.3-0.8c0-0.3-0.2-0.6-0.5-0.8
			c-0.4-0.3-0.9-0.6-1.4-0.8c-0.5-0.2-1-0.5-1.5-0.8c-0.4-0.2-0.7-0.6-1-0.9c-0.3-0.4-0.4-0.8-0.4-1.3c0-1.1,0.5-2,1.4-2.6
			c1.2-0.7,2.5-1.1,3.9-1C146.5,46.1,147.5,46.2,148.4,46.5z"/>
		<path d="M168.3,43.3c0.4,0.2,0.7,0.4,1,0.7c0.2,0.3,0.4,0.6,0.4,1c0,0.8-0.5,1.2-1.6,1.2c-0.2,0-0.5,0-0.7-0.1
			c-0.2-0.1-0.4-0.1-0.6-0.2c0,0.1-0.1,0.3-0.1,0.4c0,0.3,0,0.5,0.1,0.8c0.1,0.3,0.2,0.6,0.3,0.8c0.3,0.4,0.4,1,0.4,1.5
			c0,0.3,0,0.6-0.1,0.9c-0.2,0.7-0.5,1.4-1.1,1.9c-0.6,0.6-1.3,1.1-2.1,1.4c-0.9,0.3-1.8,0.5-2.8,0.5c-0.7,0-1.5,0-2.2-0.2
			c-0.2,0.2-0.3,0.4-0.3,0.6c0,0.2,0.1,0.3,0.2,0.4c0.2,0.1,0.5,0.2,0.8,0.2h3c0.8,0,1.7,0.1,2.4,0.5c0.5,0.3,0.9,0.9,0.9,1.5
			c0,0.3,0,0.5-0.1,0.8c-0.2,0.6-0.6,1.1-1.1,1.5c-0.7,0.5-1.5,0.9-2.4,1.1c-1.2,0.3-2.5,0.4-3.8,0.4c-1.1,0-2.2-0.1-3.3-0.3
			c-0.7-0.2-1.4-0.5-2-0.9c-0.4-0.3-0.7-0.8-0.7-1.3c0-0.2,0-0.3,0.1-0.5c0.1-0.4,0.4-0.8,0.8-1c0.7-0.3,1.4-0.5,2.1-0.5
			c-0.3-0.3-0.5-0.7-0.5-1.1c0-0.2,0-0.3,0.1-0.5c0.3-0.8,1-1.4,1.9-1.5c-0.9-0.4-1.5-1.3-1.5-2.3c0-0.3,0-0.6,0.1-0.9
			c0.2-0.7,0.5-1.4,1.1-1.9c0.6-0.6,1.3-1.1,2.1-1.4c0.9-0.3,1.9-0.5,2.8-0.5c1.3-0.1,2.6,0.2,3.8,0.6c-0.2-0.3-0.4-0.6-0.5-1
			c-0.1-0.3-0.2-0.7-0.2-1c0-0.5,0.2-1,0.5-1.3c0.4-0.4,0.9-0.6,1.5-0.5C167.5,43.1,167.9,43.2,168.3,43.3z M158.7,57.3
			c-0.3,0-0.7,0-1-0.1c-0.2,0.2-0.3,0.5-0.2,0.8c0,0.3,0.2,0.6,0.4,0.7c0.4,0.2,0.8,0.3,1.2,0.3c0.6,0,1.1-0.1,1.6-0.3
			c0.4-0.1,0.6-0.5,0.6-0.9c0-0.2-0.1-0.3-0.2-0.4c-0.2-0.1-0.3-0.2-0.5-0.1L158.7,57.3z M163,48.6c0-0.5-0.2-0.7-0.6-0.7
			c-0.4,0-0.7,0.2-0.9,0.5c-0.3,0.5-0.6,1.1-0.8,1.8c-0.2,0.5-0.3,1-0.3,1.6c0,0.4,0.2,0.7,0.6,0.7c0.4,0,0.7-0.2,0.9-0.5
			c0.3-0.5,0.6-1.1,0.8-1.8C162.9,49.7,163,49.2,163,48.6z"/>
		<path d="M179.4,47.5c0.9,0.7,1.3,1.8,1.3,2.9c0,0.5-0.1,0.9-0.2,1.3c-0.2,1.1-0.7,2-1.4,2.9c-0.7,0.8-1.6,1.5-2.6,1.9
			c-1,0.5-2.2,0.7-3.3,0.7c-1.5,0.1-2.9-0.3-4.1-1.1c-0.9-0.7-1.4-1.8-1.3-3c0-0.5,0.1-0.9,0.2-1.3c0.2-1,0.7-2,1.5-2.8
			c0.7-0.8,1.6-1.5,2.6-1.9c1-0.5,2.2-0.7,3.3-0.7C176.8,46.2,178.3,46.6,179.4,47.5z M174.4,48.9c-0.5,0.9-0.9,1.9-1.1,2.8
			c-0.3,0.9-0.5,1.9-0.6,2.9c0,0.2,0,0.4,0.1,0.6c0.1,0.1,0.2,0.2,0.4,0.2c0.3,0,0.6-0.2,0.9-0.7c0.5-1,0.9-2,1.1-3
			c0.3-0.9,0.6-1.9,0.6-2.8c0-0.2,0-0.4-0.1-0.6c-0.1-0.1-0.2-0.2-0.4-0.2C175.1,48.1,174.8,48.4,174.4,48.9L174.4,48.9z"/>
		<circle class="st3" cx="66.6" cy="47" r="21.2"/>
		<path class="st0" d="M190.6,73.6l0.1-0.3l1.3-4.5c0.2-0.5,0.2-1.1,0.2-1.7c0-1.6-0.7-3.2-2-4.2c-1.1-0.8-2.4-1.3-3.8-1.2
			c-1,0-2.1,0.2-3,0.6c-0.4,0.2-0.8,0.4-1.2,0.7c-1.9-1-4-1.5-6.1-1.5c-3,0-6,0.8-8.6,2.4c-1-1.4-2.7-2.2-4.4-2.1h-3.7
			c-1,0-1.9,0.1-2.9,0.5c-1.4,0.5-2.4,1.6-2.9,3c-0.4-0.7-1-1.4-1.6-2c-1.2-1-2.7-1.5-4.2-1.5h-5.1c-1.1,0-2.1,0.3-3,0.8l-0.1-0.1
			c-0.9-0.5-2-0.8-3-0.7h-8.1c-1,0-2,0.1-2.9,0.5l-0.3,0.1c-0.9-0.4-2-0.6-3-0.6h-15.2c-1,0-1.9,0.1-2.8,0.5
			c-1.3,0.5-2.3,1.5-2.8,2.8c-1-0.9-2.1-1.7-3.4-2.2c-1.8-0.7-3.7-1-5.6-1H81.2c-1,0-2,0.1-2.9,0.5c-0.3,0.1-0.6,0.3-0.9,0.5
			c-1.2-0.7-2.6-1.1-4-1.1c-2.2-0.1-4.3,0.7-5.9,2.3c-1-1.4-2.7-2.3-4.5-2.2h-8.1c-1,0-1.9,0.1-2.8,0.5c-0.5,0.2-1,0.5-1.4,0.9
			l-0.3-0.3c-1-0.8-2.3-1.2-3.6-1.1c-1,0-1.9,0.2-2.8,0.6c-0.3,0.2-0.7,0.3-1,0.5c-0.6-0.3-1.2-0.5-1.8-0.7c-1.5-0.4-3-0.6-4.6-0.6
			c-2.5,0-5,0.6-7.2,2c-2.2,1.3-3.8,3.4-4.5,5.9c-0.4,1.2-0.6,2.4-0.6,3.6c0,1.1,0.2,2.2,0.5,3.3c-0.4,0.2-0.8,0.4-1.1,0.7
			c-1,0.8-1.7,1.9-2,3.1L20,85.1c-0.2,0.6-0.4,1.3-0.4,2c0,1.6,0.7,3,1.9,4c1,0.8,2.3,1.3,3.7,1.2c1,0,1.9-0.2,2.8-0.7
			c0.4-0.2,0.9-0.5,1.3-0.8c0.6,0.3,1.2,0.6,1.8,0.8c1.7,0.5,3.4,0.8,5.2,0.8c2.6,0,5.2-0.7,7.5-2c1.5-0.9,2.7-2.1,3.6-3.5
			c0.7,1.3,1.7,2.5,2.9,3.3c2.5,1.6,5.5,2.4,8.5,2.2c3.4,0.2,6.8-0.9,9.5-3c0.4-0.3,0.8-0.7,1.1-1.1c0.2,1.1,0.9,2.2,1.8,2.8
			c1.1,0.7,2.3,1.1,3.6,1.1h8.6c1.1,0,2.2-0.2,3.2-0.6c0.4-0.2,0.8-0.4,1.1-0.7c1.7,1.1,3.6,1.6,5.6,1.6c1.5,0,3-0.2,4.4-0.8
			l0.3-0.1c0.9,0.4,1.8,0.6,2.8,0.6h8.6c1.1,0,2.2-0.2,3.2-0.6c1.7-0.8,2.9-2.5,2.8-4.4c0-0.4,0-0.8-0.2-1.2c0.2,0,0.4,0,0.7,0
			c0.3,0,0.6,0,0.8-0.1c-0.1,0.5-0.2,1-0.2,1.4c0,1.6,0.9,3.1,2.2,3.9c0.9,0.5,2,0.8,3.1,0.8h8.1c1,0,1.9-0.1,2.8-0.4
			c0.3-0.1,0.5-0.2,0.8-0.4c1,0.6,2.1,0.9,3.2,0.9h3.7c1,0,1.9-0.1,2.8-0.4c1.4-0.5,2.5-1.7,2.9-3.1c0.1-0.5,0.2-0.9,0.2-1.4v-0.1
			c0.6,1.3,1.5,2.5,2.5,3.5c2.9,2.4,7.1,2.4,9.9-0.1c1-1,1.8-2.2,2.2-3.6c1,1.7,2.5,3.1,4.2,4.1c1.8,1,3.9,1.5,6,1.5
			c1.8,0,3.6-0.4,5.3-1.2h0.1c1,0.7,2.2,1,3.4,1h1.4c1.3,0,2.6-0.5,3.6-1.3c0.9-0.9,1.6-2.1,1.9-3.3l1.5-5.4l0.1-0.1
			c0.6-0.3,1.2-0.7,1.7-1.2c1-1.1,1.6-2.5,1.6-4C192.2,75.7,191.6,74.4,190.6,73.6z"/>
		<path d="M40.1,65.9c1.2,0.3,2.3,0.8,3.3,1.5l0.8-0.7c0.4-0.3,0.9-0.6,1.3-0.9c0.4-0.2,0.8-0.2,1.2-0.2c0.5,0,0.9,0.1,1.3,0.4
			c0.3,0.2,0.5,0.6,0.5,1c0,0.2,0,0.4-0.1,0.6L47,72.3c-0.1,0.4-0.3,0.8-0.6,1.2c-0.3,0.3-0.7,0.4-1.1,0.3c-0.5,0-1-0.2-1.3-0.5
			c-0.6-0.6-1.2-1.2-1.8-1.9c-0.6-0.8-1.4-1.4-2.2-1.9c-0.6-0.4-1.3-0.6-2-0.6c-0.5,0-0.9,0.2-1.3,0.5c-0.3,0.3-0.5,0.8-0.5,1.2
			c0,0.6,0.3,1.2,0.8,1.5c0.8,0.6,1.7,1.2,2.6,1.8c1.2,0.7,2.2,1.3,3,1.9c0.8,0.6,1.5,1.3,2,2.1c0.6,0.9,0.8,1.9,0.8,2.9
			c0,0.7-0.1,1.4-0.3,2.1c-0.5,1.8-1.6,3.2-3.2,4.2c-1.7,1-3.6,1.5-5.5,1.4c-1.4,0-2.7-0.1-4-0.6C31.1,87.6,30,87,29,86.2l-1.2,1
			c-0.4,0.4-0.9,0.7-1.4,1c-0.4,0.2-0.8,0.3-1.2,0.3c-0.4,0-0.9-0.1-1.3-0.4c-0.3-0.2-0.5-0.6-0.5-1c0-0.2,0.1-0.5,0.1-0.7l1.7-5.1
			c0.1-0.5,0.4-0.9,0.7-1.3c0.4-0.3,0.8-0.4,1.2-0.4c0.5,0,1,0.2,1.4,0.6c0.6,0.6,1.2,1.3,1.7,2c0.5,0.8,1.2,1.6,2,2.2
			c0.7,0.4,1.5,0.6,2.3,0.6c0.5,0,1-0.1,1.4-0.3c0.3-0.2,0.6-0.5,0.7-0.9c0-0.2,0.1-0.3,0.1-0.5c0-0.6-0.3-1.1-0.8-1.5
			c-0.7-0.6-1.5-1.2-2.4-1.7c-1-0.6-1.9-1.2-2.9-1.9c-0.8-0.6-1.4-1.3-1.9-2.1c-0.6-0.9-0.8-1.9-0.8-3c0-0.8,0.1-1.6,0.4-2.4
			c0.5-1.6,1.6-3,3-3.8c1.5-1,3.3-1.5,5.1-1.4C37.7,65.4,38.9,65.5,40.1,65.9z"/>
		<path d="M70.1,66.7c0.9-0.8,2.1-1.3,3.3-1.2c1-0.1,1.9,0.3,2.7,1c0.7,0.7,1,1.6,1,2.6c0,0.4-0.1,0.8-0.2,1.2
			c-0.2,0.9-0.6,1.6-1.3,2.2c-0.6,0.4-1.3,0.7-2.1,0.7c-0.3,0-0.7,0-1-0.1c-0.3-0.1-0.6-0.1-0.9-0.2l-2,7.4
			c-0.5,2.4-1.8,4.6-3.7,6.2c-2,1.5-4.5,2.3-7,2.2c-2.2,0.1-4.4-0.4-6.3-1.6c-1.5-1.1-2.4-2.9-2.3-4.8c0-1.2,0.2-2.3,0.5-3.5
			l2.6-9.2c0.1-0.3,0.1-0.6,0.1-0.9c0-0.2,0-0.5-0.1-0.7c-0.1-0.2-0.2-0.4-0.3-0.6c-0.2-0.2-0.3-0.5-0.3-0.7c0-0.1,0-0.2,0.1-0.3
			c0.1-0.3,0.3-0.5,0.6-0.6c0.5-0.1,0.9-0.2,1.4-0.2h8c1,0,1.5,0.3,1.5,0.9c0,0.1,0,0.2,0,0.3c-0.1,0.2-0.2,0.4-0.3,0.5
			c-0.2,0.2-0.4,0.3-0.6,0.4c-0.3,0.2-0.6,0.4-0.9,0.7c-0.3,0.3-0.5,0.7-0.6,1.2l-3,10.5c-0.2,0.7-0.3,1.3-0.3,2
			c0,1.5,0.8,2.3,2.5,2.3c0.9,0,1.8-0.3,2.5-1c0.8-1,1.4-2.1,1.7-3.3l2.8-9.8C68.6,68.9,69.3,67.7,70.1,66.7z"/>
		<path d="M98.2,75.7c-1.1,0.8-2.4,1.3-3.8,1.4c0.9,0,1.8,0.4,2.5,1c0.6,0.6,0.9,1.4,0.8,2.2c0,0.4-0.1,0.9-0.2,1.3l-0.4,1.7
			c0,0.2-0.1,0.3-0.1,0.5c0,0.2,0.1,0.5,0.2,0.7c0.2,0.2,0.4,0.2,0.6,0.2c0.3,0,0.7,0.1,1,0.2c0.2,0.2,0.3,0.5,0.2,0.8
			c-0.1,0.6-0.4,1.1-0.8,1.5c-0.5,0.6-1.2,1-1.9,1.3c-1,0.4-2,0.5-3,0.5c-1.3,0.1-2.5-0.3-3.6-1c-0.9-0.7-1.4-1.8-1.3-2.9
			c0-0.5,0.1-1,0.2-1.6l0.6-2.2c0.1-0.3,0.1-0.6,0.1-0.9c0-0.4-0.2-0.9-0.5-1.1c-0.5-0.3-1.1-0.4-1.7-0.3h-1.3l-1.6,5.7
			c-0.1,0.2-0.1,0.3-0.1,0.5c0,0.3,0.1,0.6,0.2,0.8c0.2,0.3,0.4,0.5,0.7,0.7c0.2,0.1,0.3,0.3,0.5,0.5c0.1,0.1,0.2,0.3,0.2,0.5
			c0,0.4-0.2,0.7-0.5,0.8c-0.5,0.2-1.1,0.3-1.6,0.2h-8.7c-0.5,0-0.9-0.1-1.3-0.3c-0.3-0.2-0.4-0.6-0.3-0.9c0-0.2,0.1-0.4,0.3-0.5
			c0.2-0.2,0.4-0.3,0.6-0.4c0.4-0.2,0.7-0.4,1-0.7c0.3-0.3,0.5-0.7,0.6-1.2l4.2-14.8c0.1-0.3,0.1-0.6,0.1-0.9c0-0.2,0-0.4-0.1-0.6
			c-0.1-0.2-0.2-0.4-0.3-0.6c-0.2-0.2-0.3-0.5-0.3-0.7c0-0.1,0-0.3,0.1-0.4c0.1-0.3,0.3-0.5,0.6-0.6c0.5-0.1,0.9-0.2,1.4-0.2h11.5
			c1.4,0,2.8,0.2,4.1,0.7c1.1,0.4,2,1.1,2.7,2c0.6,0.8,1,1.8,1,2.8c0,0.5-0.1,1-0.2,1.4C100,73.9,99.3,74.9,98.2,75.7z M91.6,71
			c0-1.2-0.7-1.8-2-1.8h-1.4l-1.5,6.1h1.4c0.8,0,1.5-0.2,2.1-0.7c0.6-0.7,1.1-1.5,1.2-2.4C91.6,71.8,91.6,71.4,91.6,71z"/>
		<path d="M124.4,66.2c0.5,0.4,0.7,0.9,0.7,1.5c0,0.3,0,0.6-0.1,0.9l-0.9,3.2c-0.1,0.5-0.4,1-0.8,1.3c-0.4,0.3-0.9,0.4-1.4,0.4
			c-0.5,0-1-0.1-1.4-0.4c-0.4-0.3-0.6-0.7-0.8-1.2l-0.6-2c0-0.3-0.2-0.5-0.3-0.7c-0.3-0.1-0.6-0.2-0.9-0.2h-3.4l-1.9,6.8h0.7
			c0.3,0,0.6,0,0.8-0.1c0.3-0.1,0.5-0.3,0.8-0.5l1.1-0.9c0.3-0.3,0.6-0.5,1-0.7c0.3-0.2,0.7-0.2,1-0.2c0.4,0,0.8,0.1,1.1,0.4
			c0.3,0.3,0.5,0.7,0.4,1.1c0,0.2,0,0.4-0.1,0.7l-1.5,5.2c-0.3,1.1-1,1.7-1.9,1.7c-0.7,0-1.4-0.5-1.7-1.1l-0.6-1.2
			c-0.1-0.2-0.3-0.5-0.4-0.6c-0.2-0.1-0.4-0.2-0.6-0.1h-1l-1.4,5.1c-0.1,0.2-0.1,0.4-0.1,0.6c0,0.3,0.1,0.6,0.2,0.8
			c0.2,0.2,0.4,0.5,0.7,0.7c0.2,0.1,0.4,0.3,0.5,0.5c0.1,0.1,0.1,0.3,0.1,0.5c0,0.4-0.2,0.7-0.5,0.9c-0.5,0.2-1.1,0.3-1.6,0.2h-8.6
			c-0.5,0-0.9-0.1-1.3-0.3c-0.3-0.2-0.4-0.6-0.3-0.9c0-0.2,0.1-0.4,0.3-0.5c0.2-0.2,0.4-0.3,0.6-0.4c0.3-0.2,0.7-0.4,0.9-0.7
			c0.3-0.3,0.5-0.7,0.6-1.2l4.2-14.8c0.1-0.3,0.1-0.5,0.1-0.8c0-0.2,0-0.5-0.1-0.7c-0.1-0.2-0.2-0.4-0.4-0.6
			c-0.2-0.2-0.3-0.5-0.3-0.7c0-0.1,0-0.3,0.1-0.4c0.1-0.3,0.3-0.5,0.6-0.6c0.5-0.1,0.9-0.2,1.4-0.2h15.3
			C123.2,65.5,123.9,65.7,124.4,66.2z"/>
		<path d="M137.8,65.8c0.2,0.1,0.4,0.4,0.4,0.6c0,0.2,0,0.3-0.1,0.4c-0.1,0.2-0.2,0.3-0.3,0.4c-0.1,0.1-0.2,0.2-0.3,0.3
			c-0.1,0-0.2,0.1-0.2,0.2c-0.3,0.2-0.6,0.4-0.9,0.7c-0.3,0.3-0.5,0.7-0.6,1.2l-4.2,14.8c-0.1,0.3-0.1,0.6-0.1,0.9
			c0,0.2,0,0.5,0.1,0.7c0.1,0.2,0.2,0.4,0.4,0.6c0.2,0.2,0.3,0.5,0.3,0.7c0,0.1,0,0.2-0.1,0.3c-0.1,0.3-0.3,0.6-0.6,0.7
			c-0.5,0.1-1,0.2-1.4,0.2H122c-0.4,0-0.8-0.1-1.1-0.2c-0.2-0.1-0.4-0.4-0.4-0.7c0-0.2,0-0.3,0.1-0.4c0.1-0.2,0.2-0.4,0.4-0.6
			c0.1-0.1,0.2-0.2,0.4-0.2c0.3-0.2,0.6-0.4,0.9-0.7c0.3-0.3,0.5-0.7,0.6-1.2l4.2-14.8c0.1-0.3,0.1-0.6,0.1-0.9c0-0.2,0-0.4-0.1-0.6
			c-0.1-0.2-0.2-0.4-0.3-0.6c-0.2-0.2-0.3-0.5-0.3-0.7c0-0.1,0-0.3,0.1-0.4c0.1-0.3,0.3-0.5,0.6-0.6c0.5-0.1,0.9-0.2,1.4-0.2h8.1
			C137,65.6,137.4,65.7,137.8,65.8z"/>
		<path d="M164.5,66.5c0,0.1,0,0.2,0,0.3c-0.1,0.2-0.2,0.4-0.3,0.5c-0.2,0.2-0.4,0.3-0.6,0.4c-0.3,0.2-0.6,0.4-0.9,0.7
			c-0.3,0.3-0.5,0.7-0.6,1.2l-4.3,15.2c-0.2,1.1-0.7,2.1-1.5,2.9c-0.7,0.6-1.5,0.9-2.4,0.8c-0.8,0-1.7-0.3-2.3-0.8
			c-0.7-0.7-1.3-1.6-1.7-2.5l-5.2-10.9l-2.9,10c-0.1,0.3-0.1,0.5-0.1,0.8c0,0.3,0.1,0.6,0.2,0.8c0.1,0.2,0.3,0.4,0.4,0.6
			c0.2,0.2,0.3,0.5,0.4,0.8c0,0.1,0,0.2,0,0.3c-0.1,0.3-0.3,0.6-0.6,0.7c-0.5,0.1-1,0.2-1.4,0.2H137c-0.9,0-1.4-0.3-1.4-0.9
			c0-0.1,0-0.2,0-0.3c0.1-0.2,0.2-0.4,0.3-0.5c0.2-0.2,0.4-0.3,0.6-0.4c0.3-0.2,0.6-0.4,0.9-0.7c0.3-0.3,0.5-0.7,0.6-1.2l4.3-15.5
			l-0.6-1.1c-0.2-0.4-0.3-0.8-0.3-1.2c0-0.7,0.5-1.1,1.4-1.1h5.1c0.6,0,1.2,0.1,1.7,0.5c0.5,0.5,0.9,1.1,1.2,1.8l5,10.1l2.4-8.3
			c0.1-0.3,0.1-0.5,0.1-0.8c0-0.3,0-0.5-0.1-0.7c-0.1-0.2-0.3-0.4-0.4-0.6c-0.2-0.2-0.3-0.5-0.4-0.8c0-0.1,0-0.2,0-0.3
			c0.1-0.3,0.3-0.6,0.6-0.7c0.5-0.1,1-0.2,1.4-0.2h3.7C164,65.6,164.5,65.9,164.5,66.5z"/>
		<path d="M167.3,87.7c-1.3-0.7-2.3-1.7-3-3c-0.7-1.4-1.1-3-1.1-4.7c0-1.6,0.3-3.2,0.7-4.7c1.1-3.7,2.7-6.2,5-7.8
			c2.1-1.5,4.6-2.3,7.2-2.3c2.4,0,4.6,0.9,6.3,2.5l1-1c0.4-0.4,0.9-0.7,1.5-1c0.5-0.2,0.9-0.3,1.4-0.3c0.5,0,1,0.1,1.4,0.4
			c0.4,0.3,0.6,0.7,0.6,1.2c0,0.2,0,0.4-0.1,0.7l-1.3,4.3c-0.1,0.6-0.4,1.1-0.8,1.6c-0.3,0.3-0.8,0.5-1.3,0.4c-0.5,0-1-0.1-1.4-0.4
			c-0.6-0.4-1.1-0.9-1.5-1.5c-0.6-0.8-1.2-1.4-1.9-2c-0.5-0.4-1.2-0.6-1.8-0.6c-1.2,0.1-2.2,0.6-2.9,1.6c-1.2,1.5-2,3.3-2.4,5.2
			c-0.4,1.3-0.6,2.7-0.6,4.1c-0.1,1,0.2,1.9,0.7,2.8c0.5,0.6,1.2,1,2,0.9c0.6,0,1.2-0.1,1.7-0.5c0.5-0.5,0.8-1.1,0.9-1.8l0.2-0.9
			c0.1-0.3,0.2-0.7,0.2-1c0-0.2,0-0.4-0.2-0.6c-0.2-0.2-0.4-0.3-0.6-0.4l-1.2-0.4c-0.5-0.2-0.8-0.6-0.8-1.1c0-0.1,0-0.2,0-0.4
			c0.1-0.3,0.3-0.5,0.5-0.7c0.4-0.2,0.7-0.2,1.1-0.2h10.4c0.8,0,1.1,0.2,1.1,0.7c0,0.1,0,0.3-0.1,0.4c-0.1,0.3-0.2,0.6-0.4,0.8
			c-0.3,0.3-0.6,0.5-0.9,0.6l-0.9,0.5c-0.2,0.1-0.4,0.2-0.5,0.4c-0.1,0.1-0.2,0.3-0.2,0.5l-1.8,6.3c-0.1,0.6-0.4,1.1-0.8,1.5
			c-0.3,0.3-0.7,0.4-1.1,0.4h-1.4c-0.5,0-0.9-0.1-1.4-0.3c-0.4-0.3-0.7-0.8-0.8-1.3l-0.3-1c-1.5,1.9-3.8,2.9-6.2,2.9
			C170,88.7,168.6,88.4,167.3,87.7z"/>
	</g>
</g>
</svg>
