<?xml version="1.0" encoding="utf-8"?>
<!-- Generator: Adobe Illustrator 23.0.1, SVG Export Plug-In . SVG Version: 6.00 Build 0)  -->
<svg version="1.1" id="Camada_1" xmlns="http://www.w3.org/2000/svg" xmlns:xlink="http://www.w3.org/1999/xlink" x="0px" y="0px"
	 viewBox="0 0 202.7 198" style="enable-background:new 0 0 202.7 198;" xml:space="preserve">
<style type="text/css">
	.st0{fill:#55DBFF;}
	.st1{fill:#FFFFFF;}
	.st2{fill:#FF8A66;}
	.st3{fill:#FFE255;}
	.st4{fill:#4D4D4D;}
</style>
<title>Ativo 1</title>
<g>
	<g id="object">
		<path class="st0" d="M48.2,125l0.9-0.2c2.6-8.8,5.8-17.5,9.6-25.9c0-2.1,0.9-4.2,2.5-5.7c5-11,10.9-22.2,21-29.3
			c10.3-7.2,23-5.3,33.7,0.3c17.9,9.4,28,27.3,35,46c4.3,0.9,8.3,2.8,11.7,5.6c1.9,1.7,3.6,3.7,5.1,5.8c2.2,3,5.2,5.3,8.6,6.6
			c5.1,2.1,10.1,4.3,15.1,6.6V42.6c0-11.4,2.4-26.1-7-34.5c-8.3-7.4-21.3-5.5-31.6-5.5H36.1c-4.6,0-9.1,0-13.4,2
			C7.8,11.7,10.6,29,10.6,42.5v71.2c-0.1,1-0.2,1.9-0.1,2.9c0-0.6,3.6,0.8,2.2,0.4c0.9,0.3,1.9,0.9,2.8,1.3c2.3,1,4.5,2,6.8,2.9
			c3.8,1.5,7.7,2.8,11.7,3.9C38.7,126.1,43.5,126.1,48.2,125z"/>
		<path class="st1" d="M33.9,165.8c1.1,1.8,3.2,3.4,4.5,5.2c2.6,3.4,4.8,7,7.5,10.3c-1.3-11.4-2.1-22.6-1-34.1
			c-1.8,4.2-4.3,8.1-7.3,11.5C35.5,160.8,32,162.4,33.9,165.8z"/>
		<path class="st1" d="M143.7,100.2c-0.2,0.3-0.4,0.7-0.6,1c-2.8,4.2-9.1,5.4-13.7,4.2c-0.1,0-0.2-0.1-0.4-0.2
			c-0.4-0.2-0.6-0.6-0.6-1.1c-0.1-0.2-0.2-0.5-0.1-0.8c0.1-0.7,0.3-1.3,0.6-1.9c1.4-4.6,5.7-9.1,8.7-12.4c0,0,0.1-0.1,0.1-0.1
			c-7.4-12.2-17.5-22.2-32-26.1C99,61.1,92,61,85.7,64.7C80.5,68,76,72.3,72.7,77.4c-2.8,4.1-5.4,8.5-7.5,13c0.3,0,0.5,0.2,0.7,0.3
			c2.3,2.4,4.4,5,6.3,7.7c1.6,2.3,3.2,4.5,3.3,7.4c0,0.6-0.5,1.2-1.1,1.2c0,0-0.1,0-0.1,0c-0.1,0-0.2,0.1-0.3,0.1
			c-5.1,0.6-11.2,0-14.1-4.8c-1.2,2.9-2.4,5.9-3.5,8.8c-5.2,13-8.4,26.8-9.4,40.8c-0.8,11.7,0.6,22.9,2.1,34.5
			c5.6,1.9,11.2,3.5,17,4.7c-1.6-19.3-2.2-38.5,5.5-56c0-0.3,0.1-0.5,0.3-0.7c1.4-3,2.9-5.9,4.7-8.7c4.6-7.1,10.1-15.2,17.7-19.4
			c0.2-0.1,0.4-0.2,0.7-0.3c0.3-0.5,0.8-0.7,1.4-0.6c6.8-2.8,14.2-1.7,20.5,2.2c8,5.1,12.8,13.8,16.7,22.2
			c4.4,9.5,7.6,19.4,9.7,29.6c1,5.2,1.8,10.4,2.3,15.6c0.3,3.1,1.5,9.3,0.3,12.6l0.1,0.2c3.3-0.8,6.3-2.3,9-4.4
			c5.5-4.7,5.6-15.4,5.6-22.1c-0.1-13.9-4.3-27.4-8.7-40.5C149.5,113.8,146.8,106.9,143.7,100.2z M96.9,89.4
			c1.8-1.7,4.4-2.1,6.6-1.1c0.6,0.4,0.8,1.1,0.4,1.7c-0.4,0.6-1.1,0.8-1.7,0.5c-1.2-0.5-2.6-0.2-3.5,0.7
			C97.6,92.3,95.8,90.5,96.9,89.4z M93.4,95.8c4.6-4.7,12.1-5,17.2-0.8c1.3,1-0.5,2.8-1.8,1.8c-4-3.3-10-3-13.6,0.8
			C94,98.7,92.2,96.9,93.4,95.8z M90.6,104.2c-0.2,0.7-0.9,1.1-1.6,0.9c-0.1,0-0.2-0.1-0.3-0.1c-2-0.9-3.2-3-3-5.2
			c0-0.7,0.6-1.2,1.3-1.3c0.7,0,1.3,0.6,1.3,1.3c-0.1,0.8,0.1,1.6,0.6,2.2h0.3c1,0.2,1.6,1.1,1.4,2C90.7,104,90.7,104.1,90.6,104.2z
			 M113.2,102.7c-5.7-3.5-14.2-6.1-18.9,0.5c-0.9,1.3-3.2,0-2.2-1.3c5.6-7.7,15.3-5.8,22.4-1.4C115.9,101.3,114.6,103.6,113.2,102.7
			z M118.2,103.9c-0.6,0.4-1.4,0.3-1.8-0.3c-0.2-0.3-0.3-0.7-0.2-1c0.1-0.3,0.2-0.5,0.3-0.7c0.6-1.2,0.9-2.6,0.7-4
			c-0.2-1.6,2.4-1.6,2.5,0c0.2,1.4,0,2.8-0.5,4.1c0.3,0.7,0,1.5-0.7,1.8C118.5,103.8,118.4,103.9,118.2,103.9L118.2,103.9z"/>
		<path class="st2" d="M73.7,182.5c1.6-5.7,3.5-11.2,5.6-16.7c2.7-6.6,6-13.6,12.3-17.5c0.4-1.3,1-2.5,1.4-3.6c0.9-2.6,2-5,4.6-6.2
			c4-1.9,11.5-1.7,14.9,1.4c1.3,1.2,3.5,5.2,4.2,8.6c3.8,1.9,7.3,4.5,10.3,7.6c5.5,5.8,9.4,12.9,13,20.1c1.3,2.6,2.7,5.3,2.8,7.6
			c0.2,0.2,0.4,0.4,0.6,0.7c0-1-0.1-2.2-0.1-3.2c-0.4-9.7-1.8-19.3-4.3-28.7c-1.4-5.4-3.2-10.7-5.3-15.9c-2.3,2.3-4.9,4.3-7.6,6.1
			c-0.8,0.6-1.8-0.2-1.9-1.1c-0.6-7.5,0.3-15.1-0.9-22.5c-2.7,2-5.1,4.5-7.2,7.2c-0.4,0.6-1.2,0.8-1.8,0.4c-0.3-0.2-0.5-0.4-0.6-0.7
			c-1.3-4.8-2.7-9.6-4-14.4c-1.1,3.1-2.7,6.8-5.1,6.7c-1.6-0.1-2.6-2-3.4-3l-4.5-5.6c-0.8,6.2-1.6,12.4-2.3,18.7
			c0,0.7-0.6,1.3-1.3,1.2c-0.2,0-0.4-0.1-0.6-0.2c-3.2-1.7-6.1-3.7-8.8-6c0.1,6.7-0.2,13.4-1,20c0,0.7-0.6,1.3-1.3,1.2
			c-0.2,0-0.4-0.1-0.6-0.2c-3.2-1.5-5.9-3.8-7.9-6.8c-0.2,0.4-0.3,0.7-0.5,1c-6.3,15.5-5.5,32.5-4.2,48.9
			C70,185.8,71.8,184.1,73.7,182.5z"/>
		<path class="st3" d="M98.3,107.5l2.5,3.1c0.8,1,2.2,3.6,3.4,4.2c0.3,0.8,0.7,0.8,1.2,0.2l1.2-2.7l2.4-5.4l0,0
			C105.5,106,101.7,106.2,98.3,107.5z"/>
		<path class="st3" d="M86.8,116.2c-1,1.2-2,2.5-3,3.7c2.6,2.5,5.5,4.6,8.5,6.4c0.7-5.6,1.4-11.3,2.1-16.9
			C91.5,111.3,89,113.6,86.8,116.2z"/>
		<path class="st3" d="M111.4,107.7l4.3,15.3c2.1-2.4,4.5-4.6,7.1-6.5C119.9,112.6,115.9,109.6,111.4,107.7z"/>
		<path class="st3" d="M74.2,135c1.5,2.6,3.7,4.8,6.3,6.4c0.6-6,0.9-12.1,0.8-18.1C78.6,126.9,76.2,130.9,74.2,135z"/>
		<path class="st3" d="M128.8,125.8c-0.8-1.5-1.7-3-2.6-4.5c0.6,6,0.2,12,0.5,18c2.2-1.6,4.2-3.3,6-5.2
			C131.5,131.3,130.2,128.5,128.8,125.8z"/>
		<path class="st1" d="M77.1,179.5c0.4-0.1,0.8,0,1.1,0.3l9.5,11.9c1.8-4,4.2-7.6,7.3-10.8c0.5-0.5,1.3-0.5,1.8,0
			c3.5,3,6.8,6.4,9.7,10c0.5-3.1,1.4-6.1,2.8-9c0.8-1.5,1.4-2.6,3.3-2.7c2.8-0.1,6.1,2.8,8.3,4.2c2.5,1.6,4.9,3.3,7.2,5.1
			c0.4-4,0.8-8,1.2-12c0.1-0.7,0.8-1.6,1.6-1.2c3,1.2,5.8,2.8,8.4,4.8c-0.9-2.9-3-5.9-4.4-8.5c-3.3-6-7-11.8-12.2-16.4
			c-10.3-9.2-27.1-11.5-35.8,0.9C82.2,163.1,79.4,171.3,77.1,179.5z"/>
		<path class="st1" d="M138.7,91.8c-1.1,1.2-2.1,2.4-3,3.7c1.9,1.2,3.6,2.9,3.5,5.4c0,0.3,0,0.6-0.1,0.8c0.2-0.1,0.4-0.3,0.5-0.4
			C143.6,98.1,141.7,94.4,138.7,91.8z"/>
		<path class="st1" d="M62.9,102.2c0.8,0.9,1.9,1.5,3,1.9l-0.3-0.7c-1-2.5-0.3-5.4,1.6-7.2c-0.8-1-1.6-1.9-2.5-2.8
			C61.9,95.7,59.7,98.9,62.9,102.2z"/>
		<path class="st3" d="M131.7,178.5c-0.4,4.2-0.8,8.4-1.2,12.5c0,0.4-0.2,0.8-0.5,1c4.5-1,8.9-2.3,13.2-3.8
			C140.3,184,136.3,180.6,131.7,178.5z"/>
		<path class="st3" d="M86.8,194.8l-9.6-12c-1.1,1.2-2.3,2.3-3.5,3.4c-0.3,0.3-5,4.9-4.8,5.1C74.8,192.9,80.8,194.1,86.8,194.8z"/>
		<path class="st3" d="M129,192.2c-0.3,0-0.5-0.2-0.7-0.3c-3.7-2.9-8.2-7-12.7-8.7c-0.9-1.1-1.9-1.1-2.9,0c-0.9,0-1.7,0.6-1.8,1.5
			c-0.5,0.9-0.8,1.9-1,2.9c-0.6,2.2-1.1,4.4-1.5,6.6c-0.2,1.2-1.7,1.1-2.3,0.3c-3-4-6.4-7.7-10.2-11c-2.9,3.2-5.2,6.9-6.7,10.9
			c-0.1,0.2-0.1,0.3-0.3,0.5C102.4,196.2,115.9,195.2,129,192.2z"/>
		<path class="st0" d="M161.7,174.9c-1.1,5.1-2.9,9.2-7.1,11.9h14.1c8.7,0,16.8-3.9,20.7-12.1c2.2-4.7,2-9.6,2-14.6
			c0-1.1,0.6-4.3,0-5.3c-1.5-0.6-2.9-1.3-4.3-2c-1.9-1.1-4-1.8-6.2-2.3c-6.5-0.6-12.1,3.1-18.3,4.3
			C163.3,161.4,163,168.2,161.7,174.9z"/>
		<path class="st0" d="M46.6,186.8l-0.1-1c-4-4.1-6.8-8.9-10.2-13.5c-2.1-2.8-8.6-6.9-5.7-10.8c1.4-1.9,4-3.1,5.6-4.9
			c1.9-2.2,3.6-4.6,4.9-7.2c1.3-2.5,2.4-5.1,3.5-7.7c-4.9-2.2-11.3,2.6-16,5.1c-5.6,3-11.7,5.2-18,6.4c-0.1,10.2-1.2,21.1,7.4,28.5
			c5.4,4.7,11.8,5.1,18.5,5.1L46.6,186.8z"/>
		<path d="M159.2,116.4c5,3.3,7.1,9.3,12.3,12.3c2.7,1.6,5.8,2.5,8.7,3.7c4,1.6,7.9,3.6,11.8,5.4c0.6,0.3,1.4,0.1,1.7-0.5
			c0.1-0.2,0.2-0.4,0.2-0.6v-84c0-9.8,0.3-19.7,0-29.5c-0.4-11.4-8.7-21-20-22.9c-3.1-0.4-6.2-0.5-9.3-0.4h-97C56.2,0,44.7,0,33.3,0
			C18.3,0.1,8,10.9,8,25.7v91.1c0,0.5,0.2,0.9,0.6,1.1c7.9,3.9,16.2,7.1,24.6,9.6c5,1.1,10.1,1.1,15.1,0c-0.2,0.8-0.4,1.5-0.6,2.3
			l-1.1,0.2c-4.2,0.7-8.5,0.6-12.7-0.3c-8.3-1.8-16.4-5.6-24.1-9c-0.6-0.4-1.4-0.2-1.8,0.5c-0.1,0.2-0.2,0.4-0.2,0.6v25.6
			c0,0.7,0.6,1.3,1.3,1.3c0.1,0,0.2,0,0.3,0c7.6-1.3,14.2-4.4,20.8-8.2c4.7-2.7,10.8-5.1,15.7-3c0,0.3-0.1,0.6-0.1,0.8l-0.5,1.1
			c-4.3-2-9.1-0.1-13.1,2.2c-7.5,4.3-15,7.9-23.5,9.3C8.4,151,8,151.5,8,152.1c0,8.6-1.2,18.1,3.4,25.7s12.6,11.4,21.3,11.5
			c5.7,0,11.4,0,17.1,0c5.5,1.8,11,3.3,16.7,4.5c0.2,0.1,0.3,0.2,0.5,0.2c3.7,0.7,7.5,1.4,11.2,2c19.6,3.7,41.1,2.1,60.2-3.7
			c3.5-0.8,6.9-1.8,10.3-3c6.9,0,13.7,0,20.5-0.1c10.3-0.1,19.6-5.8,23.2-15.7c1.9-5.1,1.4-10.6,1.4-16c0-1.2,0.4-3-0.4-4
			c-1-1.3-3.7-2.3-5.1-3.1c-2.2-1.2-4.5-2.1-6.9-2.6c-0.1,0-0.2,0-0.2,0h-0.1c-6.4-0.7-11.8,2.7-17.9,4c-0.3,0.1-0.6,0.1-0.9,0.2
			c-0.1-0.7-0.2-1.4-0.3-2.1c1.3-0.2,2.6-0.5,3.9-0.9c4.2-1.2,8.4-3.3,12.8-3.5c4.9-0.2,9.1,2.3,13.2,4.7c0.6,0.3,1.4,0.1,1.7-0.5
			c0.1-0.2,0.2-0.4,0.2-0.6v-7.6c0-0.5-0.2-0.9-0.6-1.1c-4.5-2-8.9-4.3-13.4-6.1c-3.1-1-6-2.3-8.9-3.8c-3.2-2-5-4.9-7.3-7.8
			c-2.8-3.5-6.6-6-10.9-7.4l-0.8-2.4C154.5,113.8,156.9,114.9,159.2,116.4z M179.2,136.9c2.9,1.2,5.6,2.5,8.4,3.8l2.2,1
			c0.4,0.4,1.1,0.5,1.5,0c0,0,0,0,0,0c0.2,0.2-0.1,0.9,0,1.1c0.3,1.4,0.3,2.9,0.1,4.3c-4.9-2.8-9.9-4.8-15.7-3.7
			c-4.1,0.8-9.4,3.4-14.1,4.1c-1-5.4-2.2-10.8-3.8-16.1c-1.2-4.2-2.5-8.5-4-12.8c3.9,1.9,7.1,4.9,10.1,8.8
			C167.9,132.6,173.2,134.6,179.2,136.9L179.2,136.9z M151.8,120.9c4.4,13.1,8.5,26.6,8.7,40.5c0.1,6.6-0.1,17.4-5.6,22.1
			c-2.7,2.1-5.7,3.6-9,4.4l-0.1-0.2c1.3-3.3,0-9.5-0.3-12.6c-0.4-5.3-1.2-10.5-2.2-15.6c-2.1-10.2-5.3-20.2-9.7-29.6
			c-3.9-8.4-8.7-17.1-16.7-22.2c-6.3-3.9-13.8-5.1-20.5-2.2c-0.5-0.1-1.1,0.1-1.4,0.6c-0.2,0.1-0.5,0.2-0.7,0.3
			c-7.6,4.2-13,12.3-17.7,19.4c-1.8,2.8-3.4,5.7-4.7,8.7c-0.2,0.2-0.3,0.4-0.3,0.7c-7.7,17.5-7.1,36.7-5.5,56
			c-5.8-1.3-11.4-2.8-17-4.7c-1.5-11.6-2.9-22.8-2.1-34.5c1-14,4.2-27.8,9.4-40.8c1.1-2.9,2.3-5.8,3.5-8.8c2.8,4.8,9,5.4,14.1,4.8
			c0.1,0,0.2,0,0.3-0.1c0.6,0,1.2-0.5,1.2-1.1c0,0,0-0.1,0-0.1c0-2.9-1.7-5.1-3.3-7.4c-1.9-2.7-4-5.3-6.3-7.7
			c-0.2-0.2-0.4-0.3-0.7-0.3c2.2-4.5,4.7-8.9,7.5-13c3.4-5.1,7.8-9.5,13-12.7C92,61,99,61.1,105.8,62.9c14.4,3.9,24.5,14,32,26.1
			c-0.1,0-0.1,0.1-0.1,0.1c-3,3.3-7.3,7.7-8.7,12.4c-0.3,0.6-0.5,1.2-0.6,1.9c0,0.3,0,0.5,0.1,0.8c0,0.4,0.2,0.9,0.6,1.1
			c0.1,0.1,0.2,0.1,0.4,0.2c4.6,1.3,11,0,13.7-4.2c0.2-0.3,0.4-0.7,0.6-1C146.8,106.9,149.5,113.8,151.8,120.9L151.8,120.9z
			 M180.9,150.4c2.2,0.5,4.2,1.2,6.2,2.3c1.4,0.7,2.8,1.4,4.3,2c0.6,1,0,4.2,0,5.3c0,5,0.2,9.9-2,14.6c-3.9,8.2-11.9,12.1-20.7,12.1
			h-14.2c4.2-2.6,6-6.7,7.1-11.9c1.3-6.7,1.6-13.5,0.9-20.3C168.8,153.5,174.4,149.8,180.9,150.4L180.9,150.4z M72.5,138.8
			c0.1-0.4,0.3-0.7,0.5-1c2,2.9,4.7,5.2,7.9,6.7c0.6,0.3,1.4,0.1,1.8-0.5c0.1-0.2,0.2-0.4,0.2-0.6c0.8-6.6,1.1-13.3,1-20
			c2.7,2.3,5.7,4.3,8.8,6c0.6,0.3,1.4,0.1,1.8-0.5c0.1-0.2,0.2-0.4,0.2-0.6c0.8-6.2,1.6-12.4,2.3-18.7l4.5,5.6c0.8,1,1.8,2.9,3.4,3
			c2.4,0.1,4-3.6,5.1-6.7c1.3,4.8,2.7,9.6,4,14.4c0.2,0.7,0.9,1.1,1.6,0.9c0.3-0.1,0.6-0.3,0.7-0.6c2-2.7,4.4-5.2,7.2-7.2
			c1.2,7.4,0.3,15,0.9,22.5c0.1,0.9,1.1,1.7,1.9,1.1c2.7-1.8,5.2-3.9,7.6-6.1c2.1,5.2,3.8,10.5,5.3,15.9c2.5,9.4,3.9,19,4.3,28.7
			c0,1,0.2,2.1,0.1,3.2c-0.2-0.2-0.4-0.5-0.6-0.7c-0.2-2.4-1.5-5-2.8-7.6c-3.6-7.1-7.5-14.3-13-20.1c-3-3.1-6.5-5.7-10.3-7.6
			c-0.7-3.4-2.8-7.4-4.2-8.6c-3.4-3.1-10.9-3.2-14.9-1.4c-2.6,1.2-3.7,3.6-4.6,6.2c-0.4,1.1-0.9,2.4-1.4,3.6
			c-6.3,3.9-9.6,10.9-12.3,17.5c-2.2,5.5-4,11-5.6,16.7c-1.9,1.6-3.7,3.4-5.4,5.2C67,171.3,66.2,154.3,72.5,138.8z M132.7,134.1
			c-1.8,1.9-3.8,3.7-6,5.2c-0.2-6,0.1-12-0.5-18c0.9,1.5,1.8,3,2.6,4.5C130.2,128.5,131.5,131.3,132.7,134.1z M115.7,123l-4.3-15.3
			c4.5,1.9,8.4,4.9,11.4,8.8C120.2,118.4,117.8,120.6,115.7,123z M109,106.9l-2.4,5.4l-1.2,2.7c-0.6,0.6-1,0.6-1.2-0.2
			c-1.2-0.6-2.6-3.2-3.4-4.2l-2.5-3.1C101.7,106.2,105.5,106,109,106.9C109,106.9,109,106.9,109,106.9z M92.3,126.4
			c-3.1-1.8-5.9-3.9-8.5-6.4c1-1.3,2-2.5,3-3.7c2.2-2.6,4.8-4.9,7.6-6.8C93.7,115.1,93,120.7,92.3,126.4z M80.5,141.4
			c-2.6-1.5-4.8-3.7-6.3-6.4c2-4.1,4.4-8.1,7.1-11.8C81.4,129.3,81.1,135.4,80.5,141.4L80.5,141.4z M143.1,188.1
			c-4.3,1.5-8.7,2.8-13.2,3.9c0.3-0.2,0.5-0.6,0.5-1c0.4-4.2,0.8-8.4,1.2-12.5C136.3,180.6,140.3,183.9,143.1,188.1L143.1,188.1z
			 M73.7,186.1c1.2-1.1,2.4-2.2,3.5-3.4l9.6,12c-6-0.6-12-1.8-17.9-3.5C68.7,191.1,73.5,186.4,73.7,186.1L73.7,186.1z M122.7,155.3
			c5.1,4.6,8.9,10.4,12.2,16.4c1.4,2.6,3.5,5.7,4.4,8.5c-2.5-2-5.3-3.7-8.4-4.8c-0.8-0.3-1.5,0.5-1.6,1.2c-0.4,4-0.8,8-1.2,12
			c-2.3-1.8-4.8-3.5-7.2-5.1c-2.2-1.4-5.5-4.3-8.3-4.2c-1.9,0.1-2.5,1.3-3.3,2.7c-1.3,2.9-2.3,5.9-2.8,9c-2.9-3.6-6.2-7-9.7-10
			c-0.5-0.5-1.3-0.5-1.8,0c-3.1,3.1-5.5,6.8-7.3,10.8l-9.5-11.9c-0.3-0.3-0.7-0.5-1.1-0.3c2.4-8.2,5.2-16.4,9.9-23.2
			C95.7,143.8,112.5,146.2,122.7,155.3L122.7,155.3z M89,195c0.1-0.1,0.2-0.3,0.3-0.4c1.5-4,3.8-7.7,6.7-10.9c3.8,3.3,7.2,7,10.2,11
			c0.6,0.8,2.1,0.9,2.3-0.3c0.4-2.2,0.9-4.5,1.5-6.7c0.2-1,0.5-2,1-2.9c0.1-0.9,0.9-1.6,1.8-1.5c1-1.1,1.9-1.1,2.9,0
			c4.4,1.6,9,5.8,12.7,8.7c0.2,0.2,0.4,0.3,0.7,0.3C115.9,195.3,102.4,196.2,89,195z M10.6,153.1c6.3-1.2,12.4-3.3,18-6.4
			c4.7-2.5,11.1-7.3,16-5.1c-1.1,2.6-2.2,5.2-3.5,7.7c-1.3,2.6-3,5-4.9,7.2c-1.6,1.8-4.2,3-5.6,4.9c-2.9,4,3.6,8,5.7,10.8
			c3.4,4.6,6.2,9.4,10.2,13.5l0.1,1H36.4c-6.7,0-13-0.4-18.5-5.1C9.4,174.2,10.5,163.3,10.6,153.1z M10.6,123.7
			c11,5,22.9,10.6,35.2,9c0.5-0.1,0.9-0.1,1.4-0.2c-0.2,0.8-0.4,1.6-0.5,2.4c-3.8-1.4-7.9-1.3-11.6,0.2c-3.9,1.6-7.4,4.1-11.2,6
			c-4.2,2.2-8.7,3.7-13.3,4.6L10.6,123.7z M34,125.1c-3.9-1.1-7.8-2.4-11.6-3.9c-2.3-0.9-4.6-1.9-6.8-2.9c-0.9-0.4-1.9-1-2.8-1.3
			c1.4,0.4-2.2-1-2.2-0.4c-0.1-1-0.1-1.9,0.1-2.9V42.5c0-13.5-2.8-30.8,12.1-37.9c4.3-2.1,8.8-2,13.4-2h116.7
			c10.3,0,23.3-2,31.6,5.5c9.4,8.4,7,23.2,7,34.5v92.2c-5-2.3-10-4.4-15.1-6.6c-3.4-1.3-6.4-3.7-8.6-6.6c-1.5-2.1-3.2-4.1-5.1-5.8
			c-3.4-2.7-7.4-4.6-11.7-5.6c-7-18.7-17.1-36.6-35-46c-10.7-5.6-23.4-7.5-33.7-0.3c-10.1,7.1-16,18.3-21,29.3
			c-1.6,1.5-2.5,3.5-2.5,5.7c-3.8,8.4-7,17.1-9.6,25.9l-0.9,0.2C43.5,126.1,38.7,126.2,34,125.1z M65.7,103.4l0.3,0.7
			c-1.1-0.4-2.2-1-3-1.9c-3.3-3.4-1-6.5,1.9-8.8c0.9,0.9,1.7,1.9,2.5,2.8C65.3,98.1,64.7,100.9,65.7,103.4L65.7,103.4z M139.7,101.3
			c-0.2,0.1-0.4,0.3-0.5,0.4c0.1-0.3,0.1-0.6,0.1-0.8c0.1-2.4-1.6-4.2-3.5-5.4c1-1.3,2-2.5,3-3.7C141.7,94.4,143.6,98.1,139.7,101.3
			L139.7,101.3z M45.9,181.3c-2.7-3.3-4.9-6.9-7.5-10.3c-1.3-1.8-3.4-3.4-4.5-5.2c-1.9-3.3,1.6-5,3.6-7c3.1-3.4,5.6-7.3,7.3-11.5
			C43.8,158.8,44.5,169.9,45.9,181.3z"/>
		<path class="st4" d="M35,135.2c3.7-1.5,7.8-1.6,11.6-0.2c0.2-0.8,0.3-1.6,0.5-2.4c-0.5,0.1-0.9,0.1-1.4,0.2
			c-12.3,1.5-24.2-4-35.2-9v22.1c4.6-0.9,9.1-2.5,13.3-4.6C27.6,139.3,31.1,136.7,35,135.2z"/>
		<path class="st4" d="M153.9,118.7c1.4,4.3,2.7,8.6,4,12.8c1.6,5.3,2.9,10.6,3.8,16.1c4.7-0.6,10-3.3,14.1-4.1
			c5.9-1.1,10.8,0.9,15.7,3.7c0.2-1.4,0.1-2.9-0.1-4.3c-0.1-0.2,0.2-0.9,0-1.1c-0.4,0.4-1.1,0.5-1.5,0c0,0,0,0,0,0l-2.2-1
			c-2.8-1.3-5.6-2.7-8.4-3.8c-5.9-2.3-11.3-4.3-15.2-9.4C160.9,123.6,157.8,120.6,153.9,118.7z"/>
		<path d="M114.5,100.5c-7.1-4.4-16.8-6.3-22.4,1.4c-1,1.3,1.2,2.6,2.2,1.3c4.7-6.5,13.2-4,18.9-0.5
			C114.6,103.6,115.9,101.3,114.5,100.5z"/>
		<path d="M95.2,97.6c3.6-3.8,9.5-4.1,13.6-0.8c1.3,1,3.1-0.8,1.8-1.8c-5.1-4.2-12.5-3.9-17.2,0.8C92.2,96.9,94,98.7,95.2,97.6z"/>
		<path d="M98.7,91.2c0.9-0.9,2.3-1.2,3.5-0.7c0.6,0.3,1.4,0.1,1.7-0.5c0.4-0.6,0.2-1.4-0.4-1.7c-2.2-1-4.8-0.6-6.6,1.1
			C95.8,90.5,97.6,92.3,98.7,91.2z"/>
		<path d="M89.3,101.9H89c-0.5-0.6-0.7-1.4-0.6-2.2c0-0.7-0.6-1.3-1.3-1.3c-0.7,0-1.2,0.6-1.3,1.3c-0.2,2.2,1,4.2,3,5.2
			c0.6,0.3,1.4,0.1,1.7-0.5c0-0.1,0.1-0.2,0.1-0.3c0.3-0.9-0.2-1.9-1.2-2.2C89.5,101.9,89.4,101.9,89.3,101.9z"/>
		<path d="M119.8,97.9c-0.2-1.6-2.7-1.6-2.5,0c0.2,1.4-0.1,2.8-0.7,4c-0.2,0.2-0.3,0.4-0.3,0.7c-0.1,0.7,0.3,1.4,1,1.5
			c0.3,0.1,0.7,0,1-0.2c0.7-0.1,1.2-0.8,1.1-1.6c0-0.1,0-0.2-0.1-0.3C119.8,100.7,120,99.3,119.8,97.9z"/>
		<path class="st2" d="M201.3,5.3c-1-1.1-2.5-1.8-4-1.8c-0.2,0-0.4,0-0.7,0l-7.3,0.9c-1.4,0.2-2.6,0.9-3.5,1.9c-1-1.3-2.6-2-4.2-2
			h-0.2l-2.6,0.1c-0.8,0-1.5,0.1-2.3,0.1h-1.9h-1.3c-0.1,0-0.4,0-0.9-0.1h-0.4c-1.7,0-3.3,0.8-4.3,2.1c-0.5-0.4-1-0.8-1.5-1.1
			c-2.2-1.3-4.7-2-7.3-1.9c-2.9,0-5.8,0.7-8.4,2.1c-2.1,1.1-4,2.5-5.7,4.1c-0.3-2.7-2.6-4.8-5.3-4.8c-0.3,0-0.6,0-0.9,0.1L132.9,6
			c-1.2-0.9-2.6-1.4-4.1-1.2c-1.5,0.2-3,0.3-4.5,0.5s-3.3,0.3-5.1,0.3s-3.7,0.1-5.6,0.1c-1,0-1.9,0-2.9,0s-1.9-0.1-2.9-0.2h-0.4
			c-0.3,0-0.5,0-0.8,0.1l-0.1-0.1c-1-0.9-2.3-1.4-3.6-1.4c-0.3,0-0.6,0-0.9,0.1C99.3,4.7,96.7,5,94,5.3S88.5,5.8,85.9,6
			c-1.5,0.1-2.9,0.9-3.8,2.1c-1-0.9-2.1-1.7-3.3-2.3c-1.6-0.7-3.3-1.1-5-1.1c-4.1,0-8.1,1.2-11.5,3.6c-1.8,1.2-3.4,2.7-4.9,4.3
			c0.1-1,0.2-1.9,0.2-2.6c0.3-3-1.9-5.6-4.9-5.8c-0.2,0-0.3,0-0.5,0c-0.3,0-0.7,0-1,0.1c-2.5,0.5-5.2,0.8-7.8,1.1S38,5.8,35.3,6
			h-0.1c-1-0.9-2.2-1.3-3.5-1.3c-0.2,0-0.5,0-0.7,0c-0.8,0.1-1.6,0.2-2.5,0.2c-1.2,0-2.3,0.1-3.3,0.2S23,5.2,22,5.3
			c-0.4,0-0.9,0.1-1.3,0.2c-0.9-0.6-1.9-0.9-3-0.9h-0.5c-1.2,0.1-2.2,0.2-3,0.2l-2.9,0.1c-1,0-2,0.1-2.9,0.1c-2.9,0-5.3,2.3-5.4,5.3
			c0,1.9-0.1,3.9-0.2,6.1c-0.1,2.2-0.2,4.5-0.3,6.9S2.2,28,2,30.4s-0.4,4.7-0.6,7C1,42.8,0.5,48.3,0,53.8c-0.3,3,1.9,5.6,4.9,5.8
			c0.2,0,0.3,0,0.5,0c0.3,0,0.5,0,0.8-0.1l13.7-2.1c1,0.8,2.2,1.2,3.4,1.2c0.2,0,0.5,0,0.7,0l3.7-0.5l3.4-0.4
			c1.2-0.1,2.3-0.3,3.2-0.4c0.5-0.1,1.1-0.2,1.5-0.5c0.2,0.2,0.3,0.4,0.5,0.5c1,1,2.4,1.5,3.8,1.5c0.3,0,0.6,0,0.9-0.1l3.2-0.5
			l3.1-0.5c1.3-0.1,2.5-0.3,3.8-0.5c0.9-0.1,1.7-0.5,2.3-1c0.6,0.5,1.3,1,2,1.4c1.8,1,3.9,1.5,6,1.5c1.9,0,3.9-0.4,5.7-1.2
			c0.9-0.4,1.8-0.8,2.6-1.3l0.1,0.1c1.2,1.4,3,2.1,4.8,1.9l3.7-0.5l3.3-0.4c1.2-0.1,2.3-0.3,3.2-0.4c0.6-0.1,1.1-0.2,1.6-0.5
			c0.1,0.2,0.3,0.4,0.5,0.5c1,0.9,2.3,1.5,3.7,1.5c0.3,0,0.6,0,0.9-0.1l3.2-0.5l3.1-0.5c1.3-0.1,2.5-0.3,3.8-0.5
			c0.2,0,0.4-0.1,0.6-0.2l0.3,0.3c1,1.1,2.4,1.7,3.9,1.7c0.3,0,0.5,0,0.8-0.1l10.8-1.7c0.3-0.1,0.6-0.1,0.9-0.2
			c0.2,0.2,0.5,0.5,0.7,0.7c1,0.8,2.1,1.2,3.3,1.2c0.4,0,0.9-0.1,1.3-0.2l0.8-0.1l3-0.4c1.1-0.1,2.1-0.2,3.1-0.3
			c1.3-0.1,1.6-0.1,1.6-0.1c1.5,0,2.9-0.6,3.9-1.7c0.9,0.8,1.9,1.4,2.9,1.9c1.8,0.8,3.8,1.3,5.8,1.3c2.4,0,4.7-0.5,6.9-1.4
			c2.3-1,4.5-2.2,6.4-3.8l0.3-0.2c-0.1,3,2.2,5.4,5.2,5.5c0.1,0,0.1,0,0.2,0c0.4,0,0.8,0,1.2-0.1l8.7-2c0.4-0.1,0.8-0.2,1.1-0.4
			c1.5,1.8,3.9,2.5,6.1,1.7c0,0,0.4-0.2,1.6-0.4l3.2-0.7l2.8-0.6l0.8-0.2c2.5-0.3,4.4-2.2,4.8-4.7c0.2-1.2,0.4-2.8,0.6-4.6
			s0.6-3.8,1-6s0.8-4.5,1.3-6.9s0.9-4.7,1.4-7.1c1-5.4,2.2-11.1,3.6-17.2C203,8.4,202.5,6.6,201.3,5.3z M70.2,30.7
			c0.5-1.2,1.1-2.3,1.7-3.3c0.4,0.1,0.8,0.1,1.1,0.1c0.5,0,0.9-0.1,1.4-0.2l1.8-0.5c-0.3,0.9-0.5,1.8-0.8,2.7L74,34.3l-2.9-1.2
			c-0.5-0.2-1.1-0.3-1.7-0.4C69.6,32.1,69.9,31.4,70.2,30.7z M153.8,30.7c-0.4,1.6-1,3.1-1.7,4.6c-0.3,0.6-0.6,1.1-1,1.7
			c0.2-0.8,0.4-1.7,0.7-2.5c0.4-1.2,0.8-2.3,1.4-3.5c0.3-0.6,0.6-1.2,1-1.7C154.1,29.8,154,30.2,153.8,30.7z"/>
		<path class="st3" d="M5.4,54.3c0.5-5.6,1-11.1,1.4-16.4c0.2-2.2,0.4-4.6,0.6-7s0.3-4.9,0.5-7.3c0.1-2.4,0.2-4.7,0.3-7
			s0.1-4.3,0.2-6.2c1,0,2,0,3.1-0.1l3-0.1c0.9,0,2-0.1,3.3-0.2c-0.5,4.6-0.9,8.4-1.2,11.3c-0.3,3-0.6,5.4-0.7,7.2s-0.3,3.6-0.5,5.4
			s-0.3,3.3-0.4,4.8s-0.3,2.7-0.4,3.8h1.1l6.7-31.8c1.1,0,2.2-0.1,3.3-0.2s2-0.1,3.1-0.2s2.1-0.1,3-0.2c-0.6,1.8-1.1,3.7-1.7,5.8
			s-1.2,4.3-1.8,6.6c-0.6,2.3-1.1,4.6-1.8,6.9s-1.1,4.6-1.7,6.8c-1.3,5.1-2.6,10.4-3.8,15.9L5.4,54.3z"/>
		<path class="st3" d="M43.2,53.1L40,53.6c0.2-1.3,0.3-2.6,0.5-3.9c0.1-1.1,0.2-2.2,0.3-3.3s0.2-2.1,0.3-2.9h-5.2l-2.4,8.6
			c-0.9,0.1-1.9,0.3-3.1,0.4L27,52.9l-3.8,0.5L28,37.7c0.7-2.2,1.3-4.4,2-6.8l2.1-7c0.7-2.3,1.3-4.6,2-6.7s1.2-4.1,1.7-5.9
			c2.7-0.2,5.4-0.5,8.2-0.7c2.8-0.3,5.6-0.6,8.2-1.1c-0.1,1.3-0.3,2.9-0.4,4.8s-0.3,4-0.4,6.2s-0.2,4.6-0.4,7s-0.2,4.8-0.4,7.2
			c-0.2,5.5-0.4,11.3-0.7,17.5c-1.2,0.2-2.4,0.3-3.6,0.5L43.2,53.1z M37.3,37.6h0.9l1.3-0.1l1.3-0.1c0.3,0,0.6,0,0.8-0.1
			c0-0.2,0-0.7,0.1-1.2s0.1-1.2,0.2-2s0.1-1.5,0.2-2.4s0.2-1.7,0.2-2.6c0.2-2,0.4-4.2,0.6-6.6l0.4-5.2l-0.9,0.1L41,22.6L37.3,37.6z"
			/>
		<path class="st3" d="M72.7,46.6c-1.1,1.5-2.3,2.9-3.7,4.1c-1.2,1-2.5,1.8-3.9,2.4c-1.2,0.5-2.5,0.8-3.8,0.8
			c-1.2,0-2.4-0.3-3.4-0.9c-1.1-0.6-2-1.5-2.7-2.5c-0.8-1.3-1.4-2.7-1.8-4.1c-0.5-1.9-0.7-3.8-0.7-5.7c0-3.8,0.5-7.5,1.6-11.1
			c1-3.5,2.4-6.8,4.4-9.8c1.7-2.8,4-5.1,6.7-7c2.5-1.7,5.5-2.7,8.5-2.7c0.9,0,1.9,0.2,2.8,0.6c0.9,0.4,1.6,1,2.3,1.7
			c0.7,0.8,1.2,1.7,1.5,2.7c0.4,1.1,0.6,2.3,0.6,3.5v0.8c0,0.3,0,0.5-0.1,0.8L73,22.1c-0.5-1-1-1.5-1.7-1.5c-0.8,0.1-1.5,0.5-2,1.1
			c-0.8,0.9-1.5,1.8-2.1,2.9c-0.7,1.3-1.4,2.6-2,3.9c-0.6,1.4-1.2,2.9-1.7,4.4c-0.5,1.5-0.9,2.9-1.2,4.2c-0.3,1.1-0.4,2.2-0.4,3.3
			c-0.1,0.9,0.1,1.8,0.5,2.7c0.3,0.5,0.8,0.8,1.3,0.8c0.5,0,1-0.2,1.5-0.5c0.6-0.4,1.1-0.8,1.6-1.3c0.5-0.6,0.9-1.2,1.3-1.8
			c0.4-0.6,0.6-1.3,0.8-2l6.8,2.7C75,42.9,73.9,44.8,72.7,46.6z"/>
		<path class="st3" d="M93.8,53.1l-3.2,0.5c0.2-1.3,0.3-2.6,0.5-3.9c0.1-1.1,0.2-2.2,0.3-3.3s0.2-2.1,0.3-2.9h-5.2l-2.4,8.6
			l-3.1,0.4l-3.3,0.4l-3.8,0.5c1.6-5.3,3.2-10.5,4.7-15.6c0.6-2.2,1.3-4.4,2-6.8s1.4-4.7,2.1-7s1.4-4.6,2-6.7s1.2-4.1,1.7-5.9
			c2.7-0.2,5.5-0.4,8.3-0.7c2.8-0.3,5.5-0.7,8.2-1.1c-0.1,1.3-0.3,2.9-0.4,4.8s-0.3,4-0.4,6.2s-0.2,4.6-0.4,7s-0.2,4.8-0.4,7.2
			c-0.2,5.5-0.4,11.3-0.7,17.5c-1.2,0.2-2.4,0.3-3.6,0.5L93.8,53.1z M87.9,37.6h0.9l1.3-0.1l1.3-0.1c0.3,0,0.6,0,0.8-0.1
			c0-0.2,0-0.7,0.1-1.2s0.1-1.2,0.2-2s0.1-1.5,0.2-2.4s0.2-1.7,0.2-2.6c0.2-2,0.4-4.2,0.6-6.6l0.4-5.2l-0.9,0.1l-1.4,5.1L87.9,37.6z
			"/>
		<path class="st3" d="M106.3,53.8c0.9-4.4,1.8-8.7,2.6-13c0.4-1.8,0.7-3.7,1.1-5.6c0.4-1.9,0.7-3.9,1-5.8c0.3-1.9,0.6-3.7,0.9-5.5
			c0.3-1.8,0.5-3.4,0.7-4.9c-0.9-0.1-1.9-0.2-2.8-0.1c-0.9,0-1.9-0.1-2.8-0.4c0-0.6,0.1-1.4,0.1-2.2s0-1.7,0.1-2.5s0.1-1.9,0.1-2.9
			c1,0.1,2.1,0.1,3.1,0.2s2.1,0.1,3.1,0.1c2,0,4,0,5.9-0.1c1.9-0.1,3.6-0.2,5.3-0.4s3.2-0.3,4.7-0.5l-0.7,3.2
			c-0.2,0.9-0.4,1.9-0.6,2.8s-0.3,1.8-0.5,2.5c-0.9,0.2-1.8,0.4-2.7,0.5c-0.9,0.1-1.8,0.2-2.7,0.4c-0.3,1.4-0.6,2.9-0.9,4.5
			s-0.6,3.4-0.9,5.1s-0.6,3.6-0.9,5.4s-0.6,3.6-0.8,5.3c-0.7,3.9-1.3,8-1.8,12.2L106.3,53.8z"/>
		<path class="st3" d="M130.6,52.7c-1.1,0.1-2.1,0.2-3.3,0.4l-3,0.4c-0.5,0-1,0.1-1.5,0.2c0.4-1.7,0.8-3.6,1.2-5.7s0.8-4.3,1.3-6.6
			s0.9-4.6,1.3-7s0.8-4.6,1.1-6.8c0.8-5.1,1.6-10.3,2.5-15.7l9.3-1.5c-0.9,5.3-1.8,10.6-2.7,15.7c-0.4,2.2-0.7,4.5-1.1,6.8
			s-0.8,4.7-1.1,7s-0.7,4.5-1,6.7s-0.6,4.1-0.9,5.9C132.4,52.5,131.7,52.6,130.6,52.7z"/>
		<path class="st3" d="M167.1,30.7c-0.6,2.7-1.6,5.4-2.8,7.9c-1.1,2.3-2.4,4.5-4,6.5c-1.4,1.8-3,3.4-4.8,4.8c-1.5,1.2-3.3,2.3-5.1,3
			c-1.5,0.7-3.2,1-4.9,1c-1.2,0-2.5-0.2-3.6-0.8c-1.1-0.5-2.1-1.3-2.8-2.2c-0.9-1.1-1.5-2.4-1.9-3.8c-0.5-1.8-0.7-3.7-0.7-5.5
			c0-2.4,0.3-4.7,0.8-7c0.6-2.5,1.3-5,2.3-7.4c1-2.4,2.1-4.7,3.5-6.9c1.3-2.1,2.9-4,4.6-5.8c1.6-1.6,3.4-3,5.4-4
			c1.8-1,3.9-1.5,6-1.5c1.6-0.1,3.1,0.3,4.5,1.1c1.1,0.7,2.1,1.7,2.7,2.8c0.7,1.2,1.2,2.6,1.4,4c0.3,1.5,0.4,2.9,0.4,4.4
			C168.1,24.5,167.8,27.6,167.1,30.7z M145.6,41.6c0.1,0.5,0.4,0.9,0.7,1.3c0.3,0.4,0.6,0.7,1.1,0.9c0.4,0.3,0.9,0.4,1.3,0.4
			c1.8,0,3.5-0.7,4.8-1.8c1.4-1.3,2.6-2.8,3.5-4.5c0.9-1.8,1.6-3.8,2.1-5.7c0.5-1.8,0.7-3.7,0.7-5.5c0-0.5,0-1-0.1-1.6
			c-0.1-0.5-0.2-1.1-0.4-1.5c-0.2-0.5-0.5-0.9-0.8-1.2c-0.4-0.4-1-0.5-1.5-0.5c-1.2,0-2.5,0.3-3.5,1c-1.1,0.7-2.1,1.5-2.9,2.5
			c-0.9,1.1-1.6,2.3-2.2,3.6c-0.6,1.3-1.2,2.7-1.6,4.1c-0.4,1.3-0.8,2.6-1,4c-0.2,1.1-0.3,2.3-0.3,3.4
			C145.4,40.6,145.5,41.1,145.6,41.6z"/>
		<path class="st3" d="M164.4,54c1.2-5.7,2.3-11.3,3.4-16.7c0.4-2.3,0.8-4.7,1.3-7.2c0.5-2.5,0.9-4.9,1.3-7.3
			c0.4-2.4,0.8-4.7,1.1-6.9s0.6-4.2,0.7-6c0.5,0,1,0.1,1.3,0.1h1.3h2l2.4-0.1l2.6-0.1c0.6,2.8,1.1,5.5,1.5,8.1
			c0.4,2.3,0.9,4.6,1.3,7s0.9,4.4,1.2,6.1c0.2-0.8,0.3-1.7,0.5-2.8s0.4-2.2,0.7-3.3s0.5-2.3,0.7-3.5s0.4-2.3,0.7-3.5
			c0.6-2.6,1.1-5.3,1.7-8l7.3-0.9c-1.3,6.1-2.5,11.9-3.6,17.3c-0.5,2.4-0.9,4.7-1.4,7.1s-0.9,4.7-1.3,6.9s-0.7,4.3-1,6.2
			s-0.5,3.5-0.7,4.8c-0.5,0.1-0.9,0.2-1.4,0.3l-2.8,0.6l-3.2,0.7c-0.8,0.2-1.6,0.4-2.4,0.7c-0.2-3.2-0.5-6.2-0.8-9.1
			c-0.1-1.2-0.3-2.5-0.4-3.8s-0.3-2.5-0.4-3.7s-0.3-2.3-0.5-3.3s-0.3-1.9-0.5-2.7c-0.1,0.8-0.3,1.6-0.5,2.6s-0.4,2-0.6,3.2
			s-0.4,2.3-0.6,3.5s-0.4,2.4-0.6,3.5c-0.5,2.7-1.1,5.5-1.7,8.4L164.4,54z"/>
	</g>
</g>
</svg>
